<svg id="Layer_1" data-name="Layer 1" xmlns="http://www.w3.org/2000/svg" viewBox="0 0 357.6801 47.737"><title>DFA-Simplified-MM</title><path d="M12.5772.3595,7.866,4.6846l.9075,1.2744.2317-.2124C11.7276,9.6083,14.7977,11.79,17.79,11.79a9.3259,9.3259,0,0,0,5.7925-1.7764,2.6839,2.6839,0,0,1,1.4482-.6372c.1738,0,.4248,0,.5213.6951v.1738l.6372-.251V9.8786A1.2164,1.2164,0,0,0,25.05,8.778a3.3988,3.3988,0,0,0-1.7378.7337,9.0559,9.0559,0,0,1-5.445,1.6412c-2.9735,0-6.2173-2.375-8.7081-6.3718.4634-.4248,3.34-3.0894,3.8617-3.6686,1.2164,1.9308,4.2286,6.0629,7.9551,6.0629a4.595,4.595,0,0,0,1.815-.5213,6.3714,6.3714,0,0,1,2.7032-.6951A3.1859,3.1859,0,0,1,28.41,7.4458a3.2825,3.2825,0,0,1,.2317,3.0121h0l.5406.6565V10.902a3.9969,3.9969,0,0,0-.251-3.8617,4.1513,4.1513,0,0,0-3.4948-1.7764,8.0712,8.0712,0,0,0-2.9928.7723A4.8267,4.8267,0,0,1,20.9378,6.5c-2.51,0-5.3678-2.2591-7.7234-6.0629h0L12.5193.263Z" transform="translate(-0.4622 -0.263)"/><path d="M4.545,37.9531l-.3669.27,1.3709,2.22a8.0518,8.0518,0,0,1,1.68,3.5334c0,.5406,0,.6372-.1158.6372H6.9778a1.3711,1.3711,0,0,0-.7337-.2317,1.1778,1.1778,0,0,0-1.2164,1.1379q-.0013.0392,0,.0785a1.2165,1.2165,0,0,0,.4441.9654,1.6026,1.6026,0,0,0,1.1585.29,1.1073,1.1073,0,0,0,0,.1544.9267.9267,0,0,0,.1738.5406,1.2359,1.2359,0,0,0,1.0813.4441c2.4136,0,6.2946-3.0314,7.55-5.9084v-.1544l-.7723-.1931v.1352a9.7507,9.7507,0,0,1-6.8545,5.5222.5985.5985,0,0,1-.5406-.2317.9849.9849,0,0,1,0-.8882l.2124-.3862-.3862.1738a2.4518,2.4518,0,0,1-.6758.1352c-.5792,0-.7917-.3283-.7917-.6372a.56.56,0,0,1,.496-.6172l.006-.0006a.9268.9268,0,0,1,.5406.1931l.4248.1738c.7337,0,.7337-1.004.7337-1.3516a8.1676,8.1676,0,0,0-1.815-3.8617L4.5835,37.8372Z" transform="translate(-0.4622 -0.263)"/><path d="M8.9473,5.2253a32.3181,32.3181,0,0,0-3.128,3.63v.1158l.3669.3089V9.1449A25.1065,25.1065,0,0,1,9.2755,5.65h0l-.3089-.4827Z" transform="translate(-0.4622 -0.263)"/><path d="M4.7573,10.3806A25.1013,25.1013,0,0,0,.4708,24.2248,25.8924,25.8924,0,0,0,3.3092,36.698v.1931l.4827-.4827h0A25.68,25.68,0,0,1,5.1435,10.7861h0L4.8152,10.4Z" transform="translate(-0.4622 -0.263)"/><path d="M11.7856,8.6622A21.51,21.51,0,0,0,5.3945,24.611a22.1854,22.1854,0,0,0,7.7234,17.088l.4827-.5406h0A21.0462,21.0462,0,0,1,6.1669,24.7076,20.776,20.776,0,0,1,12.4614,9.2608l.1158-.0965-.56-.502Z" transform="translate(-0.4622 -0.263)"/><path d="M29.3756,11.4039a1.9308,1.9308,0,0,0-.56-1.4675,2.1821,2.1821,0,0,0-1.564-.6179c-1.3709,0-2.0467.7144-2.9156,2.1432v.1544h0L9.5844,37.6442l.3475.4248L24.645,11.79h0v-.0965l.1544-.27a.5793.5793,0,0,1,.5213-.3089c.1158,0,.2317.1544.2317.3475l-.1158.3669-.1544.4055L12.8089,41.4286h.1931v.1931l5.7925,1.313L29.24,13.972A3.2825,3.2825,0,0,0,29.3756,11.4039Zm-.5792,2.375L18.4856,42.201,13.6778,41.139l12.1836-28.77.2317-.56.1158-.3862a.7146.7146,0,0,0-.6951-.811h0a1.9308,1.9308,0,0,1,1.6412-.7144,1.506,1.506,0,0,1,1.6412,1.6992,2.2978,2.2978,0,0,1,.2317.9654,3.8614,3.8614,0,0,1-.1352,1.2164Z" transform="translate(-0.4622 -0.263)"/><path d="M4.1394,9.3766a1.6992,1.6992,0,0,0,.6179,1.12A3.1667,3.1667,0,0,1,5.8,12.8521l-.1544.3862A27.0318,27.0318,0,0,0,2.981,24.3406a29.6963,29.6963,0,0,0,1.4481,8.65l.1158.4055A4.7691,4.7691,0,0,1,3.29,36.3891a2.2975,2.2975,0,0,0-.6758,1.2937,1.0426,1.0426,0,0,0,1.1585,1.0813c1.2937,0,1.8343-1.9308,1.8343-3.1086a11.5863,11.5863,0,0,0-.6179-2.7032,29.272,29.272,0,0,1-1.4675-8.6116A26.1431,26.1431,0,0,1,6.1862,13.3735a8.2258,8.2258,0,0,0,.8882-2.568c0-1.4675-.7144-2.5873-1.68-2.5873A1.12,1.12,0,0,0,4.1394,9.3766Zm1.0233.6758c-.2317-.27-.4248-.502-.4248-.6758a.542.542,0,0,1,.6179-.5792c.6179,0,1.12.9268,1.12,1.9308a3.5724,3.5724,0,0,1-.29,1.1006A4.2092,4.2092,0,0,0,5.1628,10.0524Zm-1.9308,27.63a1.9308,1.9308,0,0,1,.56-1.004,5.3094,5.3094,0,0,0,1.1006-2.0274,4.964,4.964,0,0,1,.1544,1.0427c0,1.1971-.5213,2.5294-1.2358,2.5294-.4247-.0194-.6178-.1738-.6178-.5407Z" transform="translate(-0.4622 -0.263)"/><path d="M7.6536,8.4884h-.29v.1158A1.2359,1.2359,0,0,0,8.7156,9.8786a1.313,1.313,0,0,0,1.3516-1.2732V8.4691H9.5844v.1544a.8785.8785,0,1,1-1.7571,0V8.45Z" transform="translate(-0.4622 -0.263)"/><path d="M7.4026,8.6622v.1738H7.866V8.72a.83.83,0,0,1,.8294-.8311l.04.0009a.7916.7916,0,0,1,.8689.85v.1352h.502V8.72a1.3516,1.3516,0,0,0-2.7032,0Z" transform="translate(-0.4622 -0.263)"/><path d="M6.4758,39.0344a1.6026,1.6026,0,0,0,1.5031,1.6963q.04.0024.08.0028a1.3708,1.3708,0,0,0,1.5447-1.41v-.1352h-.56v.1544a.85.85,0,0,1-.9654.9075,1.1006,1.1006,0,0,1-1.1212-1.08q-.0007-.04.0014-.079V38.957H6.4758Z" transform="translate(-0.4622 -0.263)"/><path d="M6.4758,39.0344V39.17h.4827v-.1544a.8884.8884,0,0,1,.9461-.9268,1.12,1.12,0,0,1,1.1593,1.079c.0012.0329.0009.0659-.0008.0988v.1352h.5213v-.1544a1.6219,1.6219,0,0,0-1.6-1.6439q-.0595-.0009-.1189.0027a1.3517,1.3517,0,0,0-1.3918,1.31Q6.4724,38.975,6.4758,39.0344Z" transform="translate(-0.4622 -0.263)"/><path d="M21.6136,21.5023h0l.1158.4827,6.9511-6.6807.4248-.6372-.2124-.1931Z" transform="translate(-0.4622 -0.263)"/><path d="M24.9154,14.0106l.5406,9.6542v.3283l.4248-.4248L25.34,13.6824h-.27Z" transform="translate(-0.4622 -0.263)"/><polygon points="22.561 30.218 14.432 36.995 14.181 37.883 22.677 30.778 22.909 29.928 22.561 30.218"/><path d="M20.29,24.1508l-.1738.4055L21.1391,35.369v.2317l.4827-.29L20.4826,23.726Z" transform="translate(-0.4622 -0.263)"/><polygon points="10.261 7.125 9.895 6.97 9.895 36.647 10.416 35.817 10.416 7.26 10.261 7.125"/><polygon points="12.038 8.708 11.671 8.708 11.671 33.558 12.173 32.67 12.173 8.708 12.038 8.708"/><polygon points="13.795 9.944 13.428 9.944 13.428 30.507 13.949 29.561 13.949 9.944 13.795 9.944"/><polygon points="15.571 10.735 15.204 10.735 15.204 27.07 15.475 26.877 15.706 26.414 15.706 10.735 15.571 10.735"/><polygon points="17.328 11.064 16.981 11.064 16.981 23.942 17.251 23.749 17.483 23.267 17.483 11.064 17.328 11.064"/><polygon points="19.105 10.929 18.738 10.929 18.738 20.795 19.008 20.679 19.259 20.158 19.259 10.929 19.105 10.929"/><polygon points="20.862 10.504 20.514 10.504 20.514 17.667 20.785 17.436 21.016 16.895 21.016 10.504 20.862 10.504"/><polygon points="22.638 9.654 22.271 9.654 22.271 14.52 22.561 14.327 22.793 13.767 22.793 9.654 22.638 9.654"/><path d="M.7108,20.1926" transform="translate(-0.4622 -0.263)"/><path d="M43.6452,19.8872l.0508-.6968.6631-.1021c.6968-.1021.68-.4082.2041-1.8018l-.3062-.9351H40.7892l-.2207.6968c-.459,1.36-.4082,1.9209.2207,2.04l.561.1021.0508.6968H37.4748l.0508-.6968.4253-.1021c.7476-.2041.9858-.3569,2.0566-3.2808L41.9963,10.3V9.5864l2.0908-.6123,3.2124,9.4341a.9986.9986,0,0,0,.8159.6289l.6631.1533.0513.6968Zm-1.0029-8.6523h-.1533l-1.4448,4.2837h2.958Z" transform="translate(-0.4622 -0.263)"/><path d="M54.0319,19.8872l.0513-.6631.3228-.0508c.4932-.0342.5781-.1528.5781-.3232V15.5186c0-1.6826-.5269-2.0908-1.479-2.0908a2.8063,2.8063,0,0,0-1.4956.5269v4.9126c0,.17.1021.272.646.3062l.459.0508.0508.6631H48.9836l.0513-.6631.4077-.0508c.4082-.0342.5781-.1191.5781-.3232v-4.08c0-1.0708-.1362-1.2236-.731-1.3765l-.34-.1021.0166-.5269,3.043-.833V13.19h.085a4.6743,4.6743,0,0,1,2.7876-1.2578,2.0779,2.0779,0,0,1,1.4448.5947,2.6372,2.6372,0,0,1,.646,1.9551V18.85c0,.1533.085.2554.6968.3232l.3569.0508.0513.6631Z" transform="translate(-0.4622 -0.263)"/><path d="M71.61,18.3232c.374.5269.561.6973.918.7822l.4756.1021.0513.68H69.7741l-.6968-1.3428-1.8018-3.2808-1.02.0171V18.85c0,.1533.1191.2383.6289.2891l.5439.0684.0508.68H62.7707l.0513-.68.6118-.0684c.4248-.0508.5781-.1357.5781-.3228v-8.499c0-.1533-.0854-.2383-.646-.3062l-.5439-.0679-.0513-.68H67.734c2.7881,0,4.0967,1.0708,4.0967,2.6348A3.1592,3.1592,0,0,1,69.4,14.8389ZM67.0544,9.9941c-.1357,0-.7988.0171-.7988.0171v4.4873l1.0366.1021a2.1262,2.1262,0,0,0,2.0908-2.3115A2.0659,2.0659,0,0,0,67.0544,9.9941Z" transform="translate(-0.4622 -0.263)"/><path d="M77.4582,20.1421a3.8226,3.8226,0,0,1-3.9263-4.0454,4.1768,4.1768,0,0,1,4.2832-4.1646A3.7779,3.7779,0,0,1,81.7077,15.91,4.1626,4.1626,0,0,1,77.4582,20.1421Zm1.2412-6.918a1.4555,1.4555,0,0,0-1.1221-.4932c-1.0708,0-1.8359,1.0879-1.8359,2.9067a4.8706,4.8706,0,0,0,.7822,3.2637,1.692,1.692,0,0,0,1.1558.459c1.0537,0,1.8188-1.1392,1.8188-2.9067A5.0271,5.0271,0,0,0,78.6994,13.2241Z" transform="translate(-0.4622 -0.263)"/><path d="M82.7965,19.8872l.0513-.6631.3911-.0508c.4077-.0342.5776-.1191.5776-.3232v-4.08c0-1.0708-.1357-1.2236-.731-1.3765l-.34-.1021.0171-.5269,3.0425-.833v6.9351c0,.17.1025.272.6465.3062l.373.0508.0518.6631Zm1.87-9.1279A1.2021,1.2021,0,0,1,83.46,9.5015a1.2022,1.2022,0,0,1,1.207-1.2583,1.2585,1.2585,0,0,1,0,2.5161Z" transform="translate(-0.4622 -0.263)"/><path d="M92.8092,19.8872l.0508-.6631.3232-.0508c.4932-.0342.5781-.1528.5781-.3232V15.5186c0-1.6826-.5273-2.0908-1.4785-2.0908a2.808,2.808,0,0,0-1.4961.5269v4.9126c0,.17.1016.272.6455.3062l.459.0508.0508.6631H87.7614l.0508-.6631.4082-.0508c.4072-.0342.5771-.1191.5771-.3232v-4.08c0-1.0708-.1357-1.2236-.73-1.3765l-.34-.1021.0166-.5269,3.043-.833V13.19h.085A4.6743,4.6743,0,0,1,93.66,11.9321a2.0759,2.0759,0,0,1,1.4443.5947,2.6353,2.6353,0,0,1,.6465,1.9551V18.85c0,.1533.085.2554.6963.3232l.3574.0508.0508.6631Z" transform="translate(-0.4622 -0.263)"/><path d="M102.55,19.8872l.0508-.6631.3232-.0508c.4932-.0342.5781-.1528.5781-.3232V15.5186c0-1.6826-.5273-2.0908-1.4785-2.0908a2.808,2.808,0,0,0-1.4961.5269v4.9126c0,.17.1016.272.6455.3062l.459.0508.0518.6631H97.5026l.0508-.6631.4082-.0508c.4072-.0342.5771-.1191.5771-.3232v-4.08c0-1.0708-.1357-1.2236-.73-1.3765l-.34-.1021.0166-.5269,3.043-.833V13.19h.085a4.6743,4.6743,0,0,1,2.7881-1.2578,2.0759,2.0759,0,0,1,1.4443.5947,2.6351,2.6351,0,0,1,.6455,1.9551V18.85c0,.1533.0859.2554.6973.3232l.3574.0508.0508.6631Z" transform="translate(-0.4622 -0.263)"/><path d="M122.5426,15.7568l-.6289.0679c-.4258.0508-.5781.1357-.5781.3228v2.4141l1.0361.1021.0342.51a14.3133,14.3133,0,0,1-5.0312.9858c-3.6035,0-5.9668-2.125-5.9668-5.4395,0-3.5356,2.7715-5.6943,6.1025-5.6943a7.8746,7.8746,0,0,1,2.5156.4077l1.4961-.374v3.74h-1.2578l-.6631-2.4307a4.1157,4.1157,0,0,0-2.0732-.51c-2.1758,0-3.6553,1.9546-3.6553,4.5894,0,3.06,1.292,4.8955,3.5869,4.8955a3.7809,3.7809,0,0,0,1.6826-.374V16.1138c0-.17-.1016-.2383-.6113-.2891l-.7139-.0679-.0518-.68h4.8281Z" transform="translate(-0.4622 -0.263)"/><path d="M128.6286,19.8872l.0508-.6631.3232-.0508c.4932-.0342.5781-.1528.5781-.3232V15.5186c0-1.6826-.5273-2.0908-1.4785-2.0908a2.808,2.808,0,0,0-1.4961.5269v4.9126c0,.17.1016.272.6455.3062l.459.0508.0518.6631h-4.1816l.0508-.6631.4082-.0508c.4072-.0342.5771-.1191.5771-.3232v-4.08c0-1.0708-.1357-1.2236-.73-1.3765l-.34-.1021.0166-.5269,3.043-.833V13.19h.085a4.6743,4.6743,0,0,1,2.7881-1.2578,2.0759,2.0759,0,0,1,1.4443.5947,2.6351,2.6351,0,0,1,.6455,1.9551V18.85c0,.1533.0859.2554.6973.3232l.3574.0508.0508.6631Z" transform="translate(-0.4622 -0.263)"/><path d="M137.3844,20.1421a3.8227,3.8227,0,0,1-3.9268-4.0454,4.1768,4.1768,0,0,1,4.2832-4.1646,3.7782,3.7782,0,0,1,3.8926,3.9775A4.1622,4.1622,0,0,1,137.3844,20.1421Zm1.24-6.918a1.4539,1.4539,0,0,0-1.1221-.4932c-1.07,0-1.835,1.0879-1.835,2.9067a4.8738,4.8738,0,0,0,.7813,3.2637,1.6954,1.6954,0,0,0,1.1563.459c1.0537,0,1.8184-1.1392,1.8184-2.9067A5.0271,5.0271,0,0,0,138.6247,13.2241Zm-1.1553-2.0908h-.7822L138.2848,8.04h2.1934Z" transform="translate(-0.4622 -0.263)"/><path d="M145.6969,20.1421c-1.3428,0-2.21-.7817-2.1758-2.4985l.085-4.2837-1.3252-.1191.0332-.5947,1.2246-1.0708,1.207-1.0879.7988.1021-.0176,1.6826h2.7705l-.1182,1.0371H145.527l-.085,3.7393c-.0166,1.3262.5781,1.7168,1.4111,1.7168a3.4021,3.4021,0,0,0,1.4277-.3569l.0684.4932A3.5785,3.5785,0,0,1,145.6969,20.1421Z" transform="translate(-0.4622 -0.263)"/><path d="M153.8913,19.8872l.0508-.6631.34-.0508c.4932-.0342.5781-.1528.5781-.3232V15.5186c0-1.6826-.5273-2.0908-1.4795-2.0908a2.7045,2.7045,0,0,0-1.4951.5269v4.9126c0,.17.1016.272.6455.3062l.4424.0508.0508.6631h-4.1816l.0508-.6631.4082-.0508c.4082-.0342.5781-.1191.5781-.3232V10.47a.582.582,0,0,0-.2891-.5781l-.8672-.4077.0508-.4932,3.1113-.9517v5.15h.085a4.6743,4.6743,0,0,1,2.7871-1.2578,2.08,2.08,0,0,1,1.4453.5947,2.6391,2.6391,0,0,1,.6455,1.9551V18.85c0,.1533.085.2554.6973.3232l.3564.0508.0518.6631Z" transform="translate(-0.4622 -0.263)"/><path d="M164.4645,20.1763a1.3109,1.3109,0,0,1-1.36-1.4111h-.085a2.97,2.97,0,0,1-2.2266,1.377,1.9859,1.9859,0,0,1-2.0908-2.0059c0-1.4106,1.4277-2.2266,4.4023-2.9746v-.1357c.0166-1.4619-.6123-2.0908-1.6826-2.0908-.5781,0-1.1729.2207-1.1729.3228,0,.085.4248.3911.4248.9351a.953.953,0,0,1-1.0029.8838.9408.9408,0,0,1-1.0371-.8667c0-1.0029,1.9893-2.2778,3.7734-2.2778,1.8359,0,2.7881.7988,2.6689,3.3486l-.1191,2.8047c-.0166.5269.1025.731.4248.731a1.521,1.521,0,0,0,.8-.4253l.2715.4424A2.8536,2.8536,0,0,1,164.4645,20.1763ZM163.07,15.7734c-2.0225.561-2.4814,1.19-2.4814,1.8872a1.07,1.07,0,0,0,1.1563,1.0879,1.8621,1.8621,0,0,0,1.2578-.646Z" transform="translate(-0.4622 -0.263)"/><path d="M166.9635,19.8872l.0508-.6631.3916-.0508c.4072-.0342.5781-.1191.5781-.3232v-4.08c0-1.0708-.1367-1.2236-.7314-1.3765l-.34-.1021.0166-.5269,3.043-.833v6.9351c0,.17.1025.272.6465.3062l.373.0508.0518.6631Zm1.6826-8.7539h-.7812L169.4626,8.04h2.1924Z" transform="translate(-0.4622 -0.263)"/><path d="M185.17,19.8872h-9.1953l.0508-.68.6113-.0684c.4258-.0508.5781-.1357.5781-.3228v-8.499c0-.1533-.085-.2383-.6455-.3062l-.5439-.0679-.0508-.68h9.2295v3.502h-1.1553l-.374-1.4111c-.34-1.2236-.7139-1.3257-3.417-1.3257h-.7988v4.1133h.4248c.9688,0,1.377-.0679,1.5469-.5439l.4082-1.1558h.8838l-.3906,4.1138h-.8506l-.17-1.0879c-.0508-.4253-.2549-.561-1.4785-.561h-.374v4.2153h.833c2.7871,0,3.1787-.1528,3.6035-1.3257l.374-1.2578h1.2236Z" transform="translate(-0.4622 -0.263)"/><path d="M192.6169,20.1763a1.3109,1.3109,0,0,1-1.36-1.4111h-.085a2.97,2.97,0,0,1-2.2266,1.377,1.9859,1.9859,0,0,1-2.0908-2.0059c0-1.4106,1.4277-2.2266,4.4023-2.9746v-.1357c.0166-1.4619-.6123-2.0908-1.6826-2.0908-.5781,0-1.1729.2207-1.1729.3228,0,.085.4248.3911.4248.9351a.953.953,0,0,1-1.0029.8838.9408.9408,0,0,1-1.0371-.8667c0-1.0029,1.9893-2.2778,3.7734-2.2778,1.8359,0,2.7881.7988,2.6689,3.3486l-.1191,2.8047c-.0166.5269.1025.731.4248.731a1.521,1.521,0,0,0,.8-.4253l.2715.4424A2.8536,2.8536,0,0,1,192.6169,20.1763Zm-1.3945-4.4028c-2.0225.561-2.4814,1.19-2.4814,1.8872a1.07,1.07,0,0,0,1.1563,1.0879,1.8621,1.8621,0,0,0,1.2578-.646Z" transform="translate(-0.4622 -0.263)"/><path d="M198.7536,20.1421a3.6014,3.6014,0,0,1-3.5869-3.8413,4.2067,4.2067,0,0,1,4.25-4.3687c1.6826,0,2.6348.7646,2.6348,1.7339a.9867.9867,0,0,1-1.0879,1.0537c-.7988,0-1.2578-.918-1.0537-1.8018v-.0342a1.36,1.36,0,0,0-.6973-.17c-1.0713,0-1.9375.9521-1.9375,2.7876,0,1.87.9688,3.1958,2.38,3.1958a2.8062,2.8062,0,0,0,2.1416-1.0708l.374.2041A3.4364,3.4364,0,0,1,198.7536,20.1421Z" transform="translate(-0.4622 -0.263)"/><path d="M207.9,19.8872l.0508-.6631.34-.0508c.4932-.0342.5781-.1528.5781-.3232V15.5186c0-1.6826-.5273-2.0908-1.4795-2.0908a2.7045,2.7045,0,0,0-1.4951.5269v4.9126c0,.17.1016.272.6455.3062l.4424.0508.0508.6631h-4.1816l.0508-.6631.4082-.0508c.4082-.0342.5781-.1191.5781-.3232V10.47a.582.582,0,0,0-.2891-.5781l-.8672-.4077.0508-.4932,3.1113-.9517v5.15h.085a4.6743,4.6743,0,0,1,2.7871-1.2578,2.08,2.08,0,0,1,1.4453.5947,2.6391,2.6391,0,0,1,.6455,1.9551V18.85c0,.1533.085.2554.6973.3232l.3564.0508.0518.6631Z" transform="translate(-0.4622 -0.263)"/><path d="M215.6178,20.1421c-1.3428,0-2.21-.7817-2.1758-2.4985l.085-4.2837-1.3252-.1191.0332-.5947,1.2246-1.0708,1.207-1.0879.7988.1021-.0176,1.6826h2.7705L218.1,13.3091h-2.6523l-.085,3.7393c-.0166,1.3262.5781,1.7168,1.4111,1.7168a3.4021,3.4021,0,0,0,1.4277-.3569l.0684.4932A3.5785,3.5785,0,0,1,215.6178,20.1421Z" transform="translate(-0.4622 -0.263)"/><path d="M224.5085,14.2437a1.226,1.226,0,0,1-1.07-.68,5.0193,5.0193,0,0,0-1.4961,1.5469v3.7563c0,.17.1016.272.6455.3062l.5781.0508.0508.6631h-4.2832l.0508-.6631.3916-.0508c.4072-.0342.5771-.1191.5771-.3232v-4.08c0-1.0708-.1357-1.2236-.73-1.3765l-.34-.1021.0166-.5269,3.043-.833v2.1245h.085c.7646-1.2749,1.3936-2.1245,2.2773-2.1245a1.1118,1.1118,0,0,1,1.207,1.19A1.0343,1.0343,0,0,1,224.5085,14.2437Z" transform="translate(-0.4622 -0.263)"/><path d="M231.8356,20.1763a1.3109,1.3109,0,0,1-1.36-1.4111h-.085a2.97,2.97,0,0,1-2.2266,1.377,1.9859,1.9859,0,0,1-2.0908-2.0059c0-1.4106,1.4277-2.2266,4.4023-2.9746v-.1357c.0166-1.4619-.6123-2.0908-1.6826-2.0908-.5781,0-1.1729.2207-1.1729.3228,0,.085.4248.3911.4248.9351a.953.953,0,0,1-1.0029.8838.9408.9408,0,0,1-1.0371-.8667c0-1.0029,1.9893-2.2778,3.7734-2.2778,1.8359,0,2.7881.7988,2.6689,3.3486l-.1191,2.8047c-.0166.5269.1025.731.4248.731a1.521,1.521,0,0,0,.8-.4253l.2715.4424A2.8536,2.8536,0,0,1,231.8356,20.1763Zm-1.3945-4.4028c-2.0225.561-2.4814,1.19-2.4814,1.8872a1.07,1.07,0,0,0,1.1563,1.0879,1.8621,1.8621,0,0,0,1.2578-.646Z" transform="translate(-0.4622 -0.263)"/><path d="M237.9723,20.1421a3.6014,3.6014,0,0,1-3.5869-3.8413,4.2067,4.2067,0,0,1,4.25-4.3687c1.6826,0,2.6348.7646,2.6348,1.7339a.9867.9867,0,0,1-1.0879,1.0537c-.7988,0-1.2578-.918-1.0537-1.8018v-.0342a1.36,1.36,0,0,0-.6973-.17c-1.0713,0-1.9375.9521-1.9375,2.7876,0,1.87.9688,3.1958,2.38,3.1958a2.8062,2.8062,0,0,0,2.1416-1.0708l.374.2041A3.4364,3.4364,0,0,1,237.9723,20.1421Z" transform="translate(-0.4622 -0.263)"/><path d="M247.1188,19.8872l.0508-.6631.34-.0508c.4932-.0342.5781-.1528.5781-.3232V15.5186c0-1.6826-.5273-2.0908-1.4795-2.0908a2.7045,2.7045,0,0,0-1.4951.5269v4.9126c0,.17.1016.272.6455.3062l.4424.0508.0508.6631H242.07l.0508-.6631.4082-.0508c.4082-.0342.5781-.1191.5781-.3232V10.47a.582.582,0,0,0-.2891-.5781l-.8672-.4077.0508-.4932L245.113,8.04v5.15h.085a4.6743,4.6743,0,0,1,2.7871-1.2578,2.08,2.08,0,0,1,1.4453.5947,2.6391,2.6391,0,0,1,.6455,1.9551V18.85c0,.1533.085.2554.6973.3232l.3564.0508.0518.6631Z" transform="translate(-0.4622 -0.263)"/><path d="M257.693,20.1763a1.3109,1.3109,0,0,1-1.36-1.4111h-.085a2.97,2.97,0,0,1-2.2266,1.377,1.9859,1.9859,0,0,1-2.0908-2.0059c0-1.4106,1.4277-2.2266,4.4023-2.9746v-.1357c.0166-1.4619-.6123-2.0908-1.6826-2.0908-.5781,0-1.1729.2207-1.1729.3228,0,.085.4248.3911.4248.9351a.953.953,0,0,1-1.0029.8838.9408.9408,0,0,1-1.0371-.8667c0-1.0029,1.9893-2.2778,3.7734-2.2778,1.8359,0,2.7881.7988,2.6689,3.3486l-.1191,2.8047c-.0166.5269.1025.731.4248.731a1.521,1.521,0,0,0,.8-.4253l.2715.4424A2.8536,2.8536,0,0,1,257.693,20.1763Zm-1.3945-4.4028c-2.0225.561-2.4814,1.19-2.4814,1.8872a1.07,1.07,0,0,0,1.1563,1.0879,1.8621,1.8621,0,0,0,1.2578-.646Z" transform="translate(-0.4622 -0.263)"/><path d="M269.8991,20.1763a1.3109,1.3109,0,0,1-1.36-1.4111h-.085a2.97,2.97,0,0,1-2.2266,1.377,1.9859,1.9859,0,0,1-2.0908-2.0059c0-1.4106,1.4277-2.2266,4.4023-2.9746v-.1357c.0166-1.4619-.6123-2.0908-1.6826-2.0908-.5781,0-1.1729.2207-1.1729.3228,0,.085.4248.3911.4248.9351a.953.953,0,0,1-1.0029.8838.9408.9408,0,0,1-1.0371-.8667c0-1.0029,1.9893-2.2778,3.7734-2.2778,1.8359,0,2.7881.7988,2.6689,3.3486l-.1191,2.8047c-.0166.5269.1025.731.4248.731a1.521,1.521,0,0,0,.8-.4253l.2715.4424A2.8536,2.8536,0,0,1,269.8991,20.1763Zm-1.3945-4.4028c-2.0225.561-2.4814,1.19-2.4814,1.8872a1.07,1.07,0,0,0,1.1563,1.0879,1.8641,1.8641,0,0,0,1.2578-.646Z" transform="translate(-0.4622 -0.263)"/><path d="M278.6882,13.4619v.085a1.7931,1.7931,0,0,1,.3057,1.0366c0,1.7173-1.3262,2.9238-3.3662,2.9238a4.2774,4.2774,0,0,1-.9512-.1021c-.1875.1021-.5107.3911-.5107.646,0,.4932.374.7651,1.0713.7651s1.5127-.0513,2.125-.0513a2.3794,2.3794,0,0,1,2.5322,2.3628c0,1.7852-1.8691,3.2637-4.6914,3.2637-1.9209,0-3.1953-.7646-3.1953-1.9717,0-1.02.6963-1.5469,1.666-1.9038v-.0679a1.5553,1.5553,0,0,1-1.19-1.4277,2.0057,2.0057,0,0,1,1.5127-1.7173c0-.0679.0342-.085.0342-.085a2.449,2.449,0,0,1-1.5635-2.3965c0-1.53,1.1387-2.89,3.2979-2.89a4.9327,4.9327,0,0,1,2.1582.4927h2.4648l-.0342,1.3262Zm-1.5986,7.19a21.4074,21.4074,0,0,0-2.7021-.0513,1.5522,1.5522,0,0,0-.6973,1.2749c0,.9688.9014,1.7,2.3457,1.7,1.292,0,2.2441-.731,2.2441-1.6484C278.28,21.1963,277.94,20.771,277.09,20.6523Zm-.5771-7.7007a.9973.9973,0,0,0-.748-.34c-.8164,0-1.3262.68-1.3262,2.0059a2.7006,2.7006,0,0,0,.5781,1.9209.99.99,0,0,0,.6963.2891,1.1911,1.1911,0,0,0,.8672-.2891,2.4321,2.4321,0,0,0,.4756-1.7339A2.5979,2.5979,0,0,0,276.5124,12.9517Z" transform="translate(-0.4622 -0.263)"/><path d="M289.5837,19.8022l-3.0937.34V18.8843h-.085a4.6743,4.6743,0,0,1-2.7871,1.2578,2.0765,2.0765,0,0,1-1.4453-.5947,2.6391,2.6391,0,0,1-.6455-1.9551l.0166-4.3853c0-.2212-.1016-.2383-.7139-.3232l-.34-.0337-.0508-.6631h3.1787l-.1025,4.3687c0,1.6655.5273,2.0908,1.4795,2.0908A2.7045,2.7045,0,0,0,286.49,18.12V13.19c0-.17-.1016-.2549-.6455-.3062l-.4932-.0337-.0684-.6631h3.1963v6.2383c0,.3062.085.5439.2891.6118l.8662.272Z" transform="translate(-0.4622 -0.263)"/><path d="M293.2048,20.1421a7.76,7.76,0,0,1-2.6172-.4077l-.085-2.2607h1.1553l.4082,1.5469a2.81,2.81,0,0,0,1.292.3735,1.35,1.35,0,0,0,1.4961-1.2236c0-.748-.9355-1.0371-1.9043-1.394-1.2578-.459-2.38-.9687-2.38-2.4814,0-1.3091,1.1055-2.38,3.0088-2.38a5.7378,5.7378,0,0,1,1.8359.272l.748-.187.085,2.5156h-1.0713l-.459-1.4956a2.382,2.382,0,0,0-1.1895-.34c-.7646,0-1.292.4248-1.292,1.02,0,.7822.6631,1.0029,1.8193,1.4277,1.24.459,2.4639.9863,2.4639,2.499C296.5192,19.0034,295.33,20.1421,293.2048,20.1421Z" transform="translate(-0.4622 -0.263)"/><path d="M310.34,12.833l-.3574-1.4111c-.34-1.2065-.7822-1.3936-2.2949-1.4106h-.1016V18.85c0,.1533.1191.2383.6289.2891l.833.0684.0508.68h-5.2529l.0518-.68.8662-.0684c.4258-.0508.5781-.1357.5781-.3228V10.0112h-.0674c-1.4961,0-2.0059.17-2.3467,1.3428l-.3906,1.479h-1.2236l.3232-3.57h9.8242v3.57Z" transform="translate(-0.4622 -0.263)"/><path d="M317.7008,14.2437a1.226,1.226,0,0,1-1.07-.68,5.0193,5.0193,0,0,0-1.4961,1.5469v3.7563c0,.17.1016.272.6455.3062l.5781.0508.0508.6631h-4.2832l.0508-.6631.3916-.0508c.4072-.0342.5771-.1191.5771-.3232v-4.08c0-1.0708-.1357-1.2236-.73-1.3765l-.34-.1021.0166-.5269,3.043-.833v2.1245h.085c.7646-1.2749,1.3936-2.1245,2.2773-2.1245a1.1118,1.1118,0,0,1,1.207,1.19A1.0343,1.0343,0,0,1,317.7008,14.2437Z" transform="translate(-0.4622 -0.263)"/><path d="M325.028,20.1763a1.3109,1.3109,0,0,1-1.36-1.4111h-.085a2.97,2.97,0,0,1-2.2266,1.377,1.9859,1.9859,0,0,1-2.0908-2.0059c0-1.4106,1.4277-2.2266,4.4023-2.9746v-.1357c.0166-1.4619-.6123-2.0908-1.6826-2.0908-.5781,0-1.1729.2207-1.1729.3228,0,.085.4248.3911.4248.9351a.953.953,0,0,1-1.0029.8838.9408.9408,0,0,1-1.0371-.8667c0-1.0029,1.9893-2.2778,3.7734-2.2778,1.8359,0,2.7881.7988,2.6689,3.3486l-.1191,2.8047c-.0166.5269.1025.731.4248.731a1.521,1.521,0,0,0,.8-.4253l.2715.4424A2.8536,2.8536,0,0,1,325.028,20.1763Zm-1.3945-4.4028c-2.0225.561-2.4814,1.19-2.4814,1.8872a1.07,1.07,0,0,0,1.1563,1.0879,1.8641,1.8641,0,0,0,1.2578-.646Zm-1.1387-4.64h-.7822L323.3112,8.04h2.1924Z" transform="translate(-0.4622 -0.263)"/><path d="M336.2809,19.8022l-3.0937.34V18.9185h-.0508A3.33,3.33,0,0,1,330.74,20.125c-1.8867,0-3.1445-1.5977-3.1445-3.7393a4.1834,4.1834,0,0,1,4.334-4.3687,5.5621,5.5621,0,0,1,1.2412.17h.0166V9.96c0-.3062-.085-.4932-.2881-.5781l-1.0205-.3569.0684-.4932,3.2295-.4077V18.4253c0,.3062.0684.5439.2891.6118l.8672.272ZM333.1872,13.87a2.3963,2.3963,0,0,0-1.7334-1.0708c-.9863,0-1.7168,1.0708-1.7168,2.89,0,1.8359.833,3.06,2.04,3.06a2.24,2.24,0,0,0,1.41-.5952Z" transform="translate(-0.4622 -0.263)"/><path d="M342.8776,20.1763a1.3109,1.3109,0,0,1-1.36-1.4111h-.085a2.97,2.97,0,0,1-2.2266,1.377,1.9859,1.9859,0,0,1-2.0908-2.0059c0-1.4106,1.4277-2.2266,4.4023-2.9746v-.1357c.0166-1.4619-.6123-2.0908-1.6826-2.0908-.5781,0-1.1729.2207-1.1729.3228,0,.085.4248.3911.4248.9351a.953.953,0,0,1-1.0029.8838.9408.9408,0,0,1-1.0371-.8667c0-1.0029,1.9893-2.2778,3.7734-2.2778,1.8359,0,2.7881.7988,2.6689,3.3486l-.1191,2.8047c-.0166.5269.1025.731.4248.731a1.521,1.521,0,0,0,.8-.4253l.2715.4424A2.8536,2.8536,0,0,1,342.8776,20.1763Zm-1.3945-4.4028c-2.0225.561-2.4814,1.19-2.4814,1.8872a1.07,1.07,0,0,0,1.1563,1.0879,1.8641,1.8641,0,0,0,1.2578-.646Zm-1.1387-4.64h-.7822L341.1608,8.04h2.1924Z" transform="translate(-0.4622 -0.263)"/><path d="M345.3258,19.8872l.0508-.6631.3916-.0508c.4072-.0342.5771-.1191.5771-.3232V10.47a.5553.5553,0,0,0-.2891-.5781l-.8662-.4077.0508-.4932,3.0938-.9517V18.8672c0,.17.1016.272.6455.3062l.3574.0508.0508.6631Z" transform="translate(-0.4622 -0.263)"/><path d="M356.154,20.1763a1.3109,1.3109,0,0,1-1.36-1.4111h-.085a2.97,2.97,0,0,1-2.2266,1.377,1.9859,1.9859,0,0,1-2.0908-2.0059c0-1.4106,1.4277-2.2266,4.4023-2.9746v-.1357c.0166-1.4619-.6123-2.0908-1.6826-2.0908-.5781,0-1.1729.2207-1.1729.3228,0,.085.4248.3911.4248.9351a.953.953,0,0,1-1.0029.8838.9408.9408,0,0,1-1.0371-.8667c0-1.0029,1.9893-2.2778,3.7734-2.2778,1.8359,0,2.7881.7988,2.6689,3.3486l-.1191,2.8047c-.0166.5269.1025.731.4248.731a1.521,1.521,0,0,0,.8-.4253l.2715.4424A2.8536,2.8536,0,0,1,356.154,20.1763Zm-1.3945-4.4028c-2.0225.561-2.4814,1.19-2.4814,1.8872a1.07,1.07,0,0,0,1.1563,1.0879,1.8621,1.8621,0,0,0,1.2578-.646Z" transform="translate(-0.4622 -0.263)"/><path d="M42.88,38.8877H38.4264l.0513-.68L39.09,38.14c.4248-.0508.5781-.1357.5781-.3232v-8.499c0-.1523-.085-.2383-.646-.3057l-.5439-.0684-.0513-.68,4.4707-.0684c3.9268-.0508,6.3911,2.1426,6.3911,5.1338C49.2882,36.27,47.0109,38.8877,42.88,38.8877Zm-.4077-9.91h-.561v8.958l1.2236.2549c2.3628-.0332,3.7056-1.9883,3.7056-4.4531C46.84,30.8984,45.4128,28.9775,42.4723,28.9775Z" transform="translate(-0.4622 -0.263)"/><path d="M54.1676,39.1426a3.5911,3.5911,0,0,1-3.5864-3.8418,4.1682,4.1682,0,0,1,4.1646-4.3682,2.5955,2.5955,0,0,1,2.8555,2.6348,4.5028,4.5028,0,0,1-.1016.9346l-4.8276-.0674v.1865c.0171,1.87.9688,3.0771,2.3965,3.0771a2.7982,2.7982,0,0,0,2.125-1.0713l.374.2041A3.43,3.43,0,0,1,54.1676,39.1426Zm.2549-7.4619c-.85,0-1.5977.73-1.7334,2.1758,0,0,2.9575-.0342,2.9063-.0342C55.6808,32.4619,55.1877,31.6807,54.4225,31.6807Z" transform="translate(-0.4622 -0.263)"/><path d="M63.0246,39.1426a4.9078,4.9078,0,0,1-1.4106-.2207H61.58V42.05c0,.17.1021.2715.646.3057l.5781.0508.0508.6631H58.4689l.0513-.6631.4761-.0508c.4077-.0342.5776-.1191.5776-.3232V33.7715c0-1.0713-.1357-1.2246-.731-1.377L58.52,32.292l.0171-.5264,3.0425-.833V32.31h.085a3.2637,3.2637,0,0,1,2.4141-1.2754c1.8354,0,3.0933,1.6318,3.0933,3.6719A4.1879,4.1879,0,0,1,63.0246,39.1426Zm-.0171-6.6465a2.0272,2.0272,0,0,0-1.4277.6123v4.2324a2.344,2.344,0,0,0,1.7339,1.0371c.918,0,1.7168-1.0713,1.7168-2.9238C65.03,33.6348,64.18,32.4961,63.0075,32.4961Z" transform="translate(-0.4622 -0.263)"/><path d="M74.0744,39.1768a1.3107,1.3107,0,0,1-1.36-1.4111H72.63a2.9718,2.9718,0,0,1-2.2266,1.377,1.9862,1.9862,0,0,1-2.0908-2.0059c0-1.4111,1.4277-2.2266,4.4023-2.9746v-.1357c.0171-1.4619-.6118-2.0908-1.6826-2.0908-.5781,0-1.1729.2207-1.1729.3232,0,.085.4248.3906.4248.9346a.9533.9533,0,0,1-1.0029.8838.9409.9409,0,0,1-1.0371-.8672c0-1.0029,1.9888-2.2773,3.7739-2.2773,1.8354,0,2.7876.7988,2.6685,3.3486l-.1187,2.8047c-.0171.5273.1021.73.4248.73a1.514,1.514,0,0,0,.7988-.4248l.272.4424A2.854,2.854,0,0,1,74.0744,39.1768ZM72.68,34.7744c-2.0225.5605-2.4814,1.1895-2.4814,1.8867a1.07,1.07,0,0,0,1.1558,1.0879,1.8587,1.8587,0,0,0,1.2578-.6465Z" transform="translate(-0.4622 -0.263)"/><path d="M82.0983,33.2441a1.2274,1.2274,0,0,1-1.0708-.68,5.0239,5.0239,0,0,0-1.4956,1.5469v3.7568c0,.17.1021.2715.646.3057l.5776.0508.0513.6631H76.5231l.0508-.6631.3911-.0508c.4082-.0342.5781-.1191.5781-.3232V33.7715c0-1.0713-.1362-1.2246-.731-1.377l-.34-.1025.0166-.5264,3.043-.833v2.125h.085c.7646-1.2754,1.3936-2.125,2.2778-2.125a1.1115,1.1115,0,0,1,1.2065,1.1895A1.0342,1.0342,0,0,1,82.0983,33.2441Z" transform="translate(-0.4622 -0.263)"/><path d="M86.57,39.1426c-1.3428,0-2.21-.7822-2.1758-2.499l.085-4.2832-1.3262-.1191.0342-.5947,1.2236-1.0713,1.207-1.0879.7988.1025L86.4,31.2725h2.7705L89.0514,32.31H86.4l-.085,3.7393c-.0176,1.3262.5781,1.7168,1.41,1.7168a3.4129,3.4129,0,0,0,1.4287-.3564l.0674.4922A3.5751,3.5751,0,0,1,86.57,39.1426Z" transform="translate(-0.4622 -0.263)"/><path d="M99.6413,38.8877l.0508-.6631.3232-.0508c.4932-.0342.5781-.1533.5781-.3232V34.52c0-1.6836-.6123-2.0908-1.4619-2.0908a2.3264,2.3264,0,0,0-1.3936.5605v4.8613c0,.1533.085.2549.6963.3232l.3232.0508.0508.6631H94.7965l.0518-.6631.3223-.0508c.4932-.0342.5781-.1533.5781-.3232V34.52c0-1.6836-.6113-2.0908-1.4619-2.0908a2.5313,2.5313,0,0,0-1.3936.5264v4.9131c0,.17.1016.2715.6455.3057l.4082.0508.0508.6631h-4.13l.0508-.6631.4082-.0508c.4072-.0342.5771-.1191.5771-.3232V33.7715c0-1.0713-.1357-1.2246-.73-1.377l-.34-.1025.0166-.5264,3.043-.833v1.2412h.0684a4.3387,4.3387,0,0,1,2.7021-1.2412,2.0868,2.0868,0,0,1,1.4453.5781,2.2448,2.2448,0,0,1,.4756.7813h.0684a4.2533,4.2533,0,0,1,2.8555-1.3594,2.0828,2.0828,0,0,1,1.4443.5781,2.6469,2.6469,0,0,1,.6289,1.9717v4.3682c0,.1533.085.2549.6973.3232l.3574.0508.0508.6631Z" transform="translate(-0.4622 -0.263)"/><path d="M108.04,39.1426a3.5911,3.5911,0,0,1-3.5869-3.8418,4.1686,4.1686,0,0,1,4.165-4.3682,2.5955,2.5955,0,0,1,2.8555,2.6348,4.5362,4.5362,0,0,1-.1016.9346l-4.8281-.0674v.1865c.0176,1.87.97,3.0771,2.3975,3.0771a2.7956,2.7956,0,0,0,2.124-1.0713l.374.2041A3.4285,3.4285,0,0,1,108.04,39.1426Zm.2549-7.4619c-.85,0-1.5977.73-1.7334,2.1758,0,0,2.957-.0342,2.9063-.0342C109.5524,32.4619,109.0592,31.6807,108.2946,31.6807Z" transform="translate(-0.4622 -0.263)"/><path d="M117.5934,38.8877l.0508-.6631.3232-.0508c.4932-.0342.5781-.1533.5781-.3232V34.52c0-1.6836-.5273-2.0908-1.4785-2.0908a2.8119,2.8119,0,0,0-1.4961.5264v4.9131c0,.17.1016.2715.6455.3057l.459.0508.0518.6631h-4.1816l.0508-.6631.4082-.0508c.4072-.0342.5771-.1191.5771-.3232V33.7715c0-1.0713-.1357-1.2246-.73-1.377l-.34-.1025.0166-.5264,3.043-.833V32.19h.085a4.6743,4.6743,0,0,1,2.7881-1.2578,2.0759,2.0759,0,0,1,1.4443.5947,2.6358,2.6358,0,0,1,.6455,1.9551v4.3682c0,.1533.0859.2549.6973.3232l.3574.0508.0508.6631Z" transform="translate(-0.4622 -0.263)"/><path d="M125.3288,39.1426c-1.3428,0-2.21-.7822-2.1758-2.499l.085-4.2832-1.3252-.1191.0332-.5947,1.2246-1.0713,1.207-1.0879.7988.1025-.0176,1.6826h2.7705l-.1182,1.0371h-2.6523l-.085,3.7393c-.0166,1.3262.5781,1.7168,1.4111,1.7168a3.4087,3.4087,0,0,0,1.4277-.3564l.0684.4922A3.5772,3.5772,0,0,1,125.3288,39.1426Z" transform="translate(-0.4622 -0.263)"/><path d="M136.5661,39.1426a3.8229,3.8229,0,0,1-3.9268-4.0459,4.1767,4.1767,0,0,1,4.2832-4.1641,3.7782,3.7782,0,0,1,3.8926,3.9775A4.1622,4.1622,0,0,1,136.5661,39.1426Zm1.24-6.918a1.4555,1.4555,0,0,0-1.1221-.4932c-1.07,0-1.835,1.0879-1.835,2.9062a4.8729,4.8729,0,0,0,.7813,3.2637,1.6909,1.6909,0,0,0,1.1563.459c1.0537,0,1.8184-1.1387,1.8184-2.9062A5.0271,5.0271,0,0,0,137.8063,32.2246Z" transform="translate(-0.4622 -0.263)"/><path d="M147.6491,29.3857c-.6289,0-1.1045-.4248-1.3252-1.4111l-.0176-.0684-.4922-.0332c-.6289.4248-.97,1.2578-.97,2.7705v.6289h2.3291l-.1191,1.0371h-2.21v5.5586c0,.17.1025.2715.6465.3057l.6973.0508.0508.6631h-4.42l.0508-.6631.4082-.0508c.4082-.0342.5781-.1191.5781-.3232V32.36l-1.36-.1191.1025-.9688h1.1729l.0342-.3906a3.9847,3.9847,0,0,1,3.9268-3.8418c1.0361,0,1.92.5439,1.92,1.3252A.9676.9676,0,0,1,147.6491,29.3857Z" transform="translate(-0.4622 -0.263)"/><path d="M159.4811,31.7656l-.3564-1.4111c-.3574-1.2412-.748-1.3262-3.4336-1.3262h-.5439v4.3008h.51c.9521,0,1.377-.0508,1.5469-.5439l.4082-1.1553h.8838l-.3906,4.1133h-.8506l-.17-1.0879c-.0674-.4248-.2549-.5615-1.4785-.5615h-.459v3.7568c0,.1533.1191.2383.6289.2891l.918.0684.0508.68h-5.082l.0508-.68.6113-.0684c.4258-.0508.5781-.1357.5781-.3232v-8.499c0-.1523-.085-.2383-.6455-.3057l-.5439-.0684-.0508-.68h8.9746v3.502Z" transform="translate(-0.4622 -0.263)"/><path d="M164.9059,39.1426a3.8229,3.8229,0,0,1-3.9268-4.0459,4.1767,4.1767,0,0,1,4.2832-4.1641,3.7782,3.7782,0,0,1,3.8926,3.9775A4.1622,4.1622,0,0,1,164.9059,39.1426Zm1.24-6.918a1.4555,1.4555,0,0,0-1.1221-.4932c-1.07,0-1.835,1.0879-1.835,2.9062a4.8729,4.8729,0,0,0,.7813,3.2637,1.6909,1.6909,0,0,0,1.1563.459c1.0537,0,1.8184-1.1387,1.8184-2.9062A5.0271,5.0271,0,0,0,166.1462,32.2246Z" transform="translate(-0.4622 -0.263)"/><path d="M175.7682,33.2441a1.226,1.226,0,0,1-1.07-.68,5.0193,5.0193,0,0,0-1.4961,1.5469v3.7568c0,.17.1016.2715.6455.3057l.5781.0508.0508.6631H170.193l.0508-.6631.3916-.0508c.4072-.0342.5771-.1191.5771-.3232V33.7715c0-1.0713-.1357-1.2246-.73-1.377l-.34-.1025.0166-.5264,3.043-.833v2.125h.085c.7646-1.2754,1.3936-2.125,2.2773-2.125a1.1117,1.1117,0,0,1,1.207,1.1895A1.0342,1.0342,0,0,1,175.7682,33.2441Z" transform="translate(-0.4622 -0.263)"/><path d="M180.902,39.1426a3.5911,3.5911,0,0,1-3.5869-3.8418,4.1686,4.1686,0,0,1,4.165-4.3682,2.5955,2.5955,0,0,1,2.8555,2.6348,4.5362,4.5362,0,0,1-.1016.9346l-4.8281-.0674v.1865c.0176,1.87.97,3.0771,2.3975,3.0771a2.7956,2.7956,0,0,0,2.124-1.0713l.374.2041A3.4285,3.4285,0,0,1,180.902,39.1426Zm.2549-7.4619c-.85,0-1.5977.73-1.7334,2.1758,0,0,2.957-.0342,2.9063-.0342C182.4147,32.4619,181.9225,31.6807,181.1569,31.6807Z" transform="translate(-0.4622 -0.263)"/><path d="M185.4753,38.8877l.0508-.6631.3916-.0508c.4072-.0342.5781-.1191.5781-.3232V33.7715c0-1.0713-.1367-1.2246-.7314-1.377l-.34-.1025.0166-.5264,3.043-.833v6.9355c0,.17.1025.2715.6465.3057l.373.0508.0518.6631Zm1.87-9.1279a1.2594,1.2594,0,0,1,0-2.5166,1.2588,1.2588,0,0,1,0,2.5166Z" transform="translate(-0.4622 -0.263)"/><path d="M196.7975,32.4619v.085a1.7961,1.7961,0,0,1,.3057,1.0371c0,1.7168-1.3262,2.9238-3.3662,2.9238a4.3362,4.3362,0,0,1-.9512-.1016c-.1875.1016-.5107.3906-.5107.6455,0,.4932.374.7646,1.0713.7646s1.5127-.0508,2.125-.0508a2.3792,2.3792,0,0,1,2.5322,2.3633c0,1.7842-1.8691,3.2637-4.6914,3.2637-1.9209,0-3.1953-.7656-3.1953-1.9717,0-1.0205.6963-1.5469,1.666-1.9043v-.0684a1.5539,1.5539,0,0,1-1.19-1.4277,2.0051,2.0051,0,0,1,1.5127-1.7168c0-.0674.0342-.085.0342-.085a2.45,2.45,0,0,1-1.5635-2.3965c0-1.53,1.1387-2.89,3.2979-2.89a4.9258,4.9258,0,0,1,2.1582.4932h2.4648l-.0342,1.3252Zm-1.5986,7.19a21.5451,21.5451,0,0,0-2.7021-.0508,1.5517,1.5517,0,0,0-.6973,1.2754c0,.9688.9014,1.6992,2.3457,1.6992,1.292,0,2.2441-.73,2.2441-1.6484C196.3893,40.1963,196.0495,39.7715,195.1989,39.6523Zm-.5771-7.7a.9973.9973,0,0,0-.748-.34c-.8164,0-1.3262.68-1.3262,2.0059a2.7006,2.7006,0,0,0,.5781,1.9209.9917.9917,0,0,0,.6963.2891,1.1911,1.1911,0,0,0,.8672-.2891,2.4323,2.4323,0,0,0,.4756-1.7334A2.5985,2.5985,0,0,0,194.6217,31.9521Z" transform="translate(-0.4622 -0.263)"/><path d="M203.8854,38.8877l.0508-.6631.3232-.0508c.4932-.0342.5781-.1533.5781-.3232V34.52c0-1.6836-.5273-2.0908-1.4785-2.0908a2.8119,2.8119,0,0,0-1.4961.5264v4.9131c0,.17.1016.2715.6455.3057l.459.0508.0508.6631h-4.1807l.0508-.6631.4082-.0508c.4072-.0342.5771-.1191.5771-.3232V33.7715c0-1.0713-.1357-1.2246-.73-1.377l-.34-.1025.0166-.5264,3.043-.833V32.19h.085a4.6743,4.6743,0,0,1,2.7881-1.2578,2.0759,2.0759,0,0,1,1.4443.5947,2.6361,2.6361,0,0,1,.6465,1.9551v4.3682c0,.1533.085.2549.6963.3232l.3574.0508.0508.6631Z" transform="translate(-0.4622 -0.263)"/><path d="M217.8424,38.8877l.0518-.6973.6621-.1016c.6973-.1025.6807-.4082.2041-1.8018l-.3057-.9355H214.987l-.2207.6973c-.459,1.36-.4082,1.9209.2207,2.04l.5605.1016.0518.6973h-3.9268l.0508-.6973.4248-.1016c.748-.2041.9863-.3574,2.0566-3.28l1.9893-5.5078v-.7139l2.0908-.6123,3.2129,9.4346a.9973.9973,0,0,0,.8154.6289l.6631.1523.0508.6973ZM216.84,30.2354h-.1523L215.2419,34.52H218.2Z" transform="translate(-0.4622 -0.263)"/><path d="M234.23,29.4707c-.6289,0-1.1055-.4248-1.3262-1.4111l-.0166-.0684-.4932-.0332c-.6289.4248-.9687,1.2578-.9687,2.7705v.5439h2.3281l-.1191,1.0371h-2.209v5.5586c0,.17.1016.2715.6455.3057l.6973.0508.0508.6631h-4.4023l.0508-.6631.4082-.0508c.3223-.0342.5771-.1191.5771-.3232V32.292h-3.2637v5.4736c0,.1875.1025.3232.5107.3574l.8838.1016.0508.6631h-4.4707l.0508-.6631.5107-.1016c.34-.0508.4756-.17.4756-.374V32.36l-1.36-.1191.1025-.9688h1.1729l.0342-.2207a4.02,4.02,0,0,1,3.9268-3.8418c1.0361,0,1.92.5439,1.92,1.3252a.9674.9674,0,0,1-1.002,1.0205c-.63,0-1.1055-.4248-1.3262-1.4111l-.0176-.0684-.4922-.0332c-.6289.4248-.97,1.2578-.97,2.7705v.459h3.1787l.0176-.2891a4,4,0,0,1,3.9268-3.8584c1.0361,0,1.9209.5439,1.9209,1.3252A.9681.9681,0,0,1,234.23,29.4707Z" transform="translate(-0.4622 -0.263)"/><path d="M240.0954,39.1768a1.3106,1.3106,0,0,1-1.36-1.4111h-.085a2.97,2.97,0,0,1-2.2266,1.377,1.9859,1.9859,0,0,1-2.0908-2.0059c0-1.4111,1.4277-2.2266,4.4023-2.9746v-.1357c.0166-1.4619-.6123-2.0908-1.6826-2.0908-.5781,0-1.1729.2207-1.1729.3232,0,.085.4248.3906.4248.9346a.953.953,0,0,1-1.0029.8838.9409.9409,0,0,1-1.0371-.8672c0-1.0029,1.9893-2.2773,3.7734-2.2773,1.8359,0,2.7881.7988,2.6689,3.3486l-.1191,2.8047c-.0166.5273.1025.73.4248.73a1.5193,1.5193,0,0,0,.8-.4248l.2715.4424A2.8551,2.8551,0,0,1,240.0954,39.1768Zm-1.3945-4.4023c-2.0225.5605-2.4814,1.1895-2.4814,1.8867a1.07,1.07,0,0,0,1.1563,1.0879,1.8607,1.8607,0,0,0,1.2578-.6465Z" transform="translate(-0.4622 -0.263)"/><path d="M242.5944,38.8877l.0508-.6631.3916-.0508c.4072-.0342.5781-.1191.5781-.3232V33.7715c0-1.0713-.1367-1.2246-.7314-1.377l-.34-.1025.0166-.5264,3.043-.833v6.9355c0,.17.1025.2715.6465.3057l.373.0508.0518.6631Zm1.87-9.1279a1.2594,1.2594,0,0,1,0-2.5166,1.2588,1.2588,0,0,1,0,2.5166Z" transform="translate(-0.4622 -0.263)"/><path d="M253.151,33.2441a1.226,1.226,0,0,1-1.07-.68,5.0193,5.0193,0,0,0-1.4961,1.5469v3.7568c0,.17.1016.2715.6455.3057l.5781.0508.0508.6631h-4.2832l.0508-.6631.3916-.0508c.4072-.0342.5771-.1191.5771-.3232V33.7715c0-1.0713-.1357-1.2246-.73-1.377l-.34-.1025.0166-.5264,3.043-.833v2.125h.085c.7646-1.2754,1.3936-2.125,2.2773-2.125a1.1117,1.1117,0,0,1,1.207,1.1895A1.0342,1.0342,0,0,1,253.151,33.2441Z" transform="translate(-0.4622 -0.263)"/><path d="M257.5368,39.1426a7.7471,7.7471,0,0,1-2.6172-.4082l-.085-2.2607H255.99l.4082,1.5469a2.8039,2.8039,0,0,0,1.292.374,1.3505,1.3505,0,0,0,1.4961-1.2236c0-.748-.9355-1.0371-1.9043-1.3936-1.2578-.459-2.38-.9687-2.38-2.4824,0-1.3086,1.1055-2.38,3.0088-2.38a5.7224,5.7224,0,0,1,1.8359.2725l.748-.1875.085,2.5166h-1.0713l-.459-1.4961a2.3771,2.3771,0,0,0-1.1895-.34c-.7646,0-1.292.4248-1.292,1.02,0,.7822.6631,1.0029,1.8193,1.4277,1.24.459,2.4639.9863,2.4639,2.499C260.8512,38.0039,259.6618,39.1426,257.5368,39.1426Z" transform="translate(-0.4622 -0.263)"/><path d="M271.6979,39.1768a1.3106,1.3106,0,0,1-1.36-1.4111h-.085a2.97,2.97,0,0,1-2.2266,1.377,1.9859,1.9859,0,0,1-2.0908-2.0059c0-1.4111,1.4277-2.2266,4.4023-2.9746v-.1357c.0166-1.4619-.6123-2.0908-1.6826-2.0908-.5781,0-1.1729.2207-1.1729.3232,0,.085.4248.3906.4248.9346a.953.953,0,0,1-1.0029.8838.9409.9409,0,0,1-1.0371-.8672c0-1.0029,1.9893-2.2773,3.7734-2.2773,1.8359,0,2.7881.7988,2.6689,3.3486l-.1191,2.8047c-.0166.5273.1025.73.4248.73a1.5193,1.5193,0,0,0,.8-.4248l.2715.4424A2.8551,2.8551,0,0,1,271.6979,39.1768Zm-1.3945-4.4023c-2.0225.5605-2.4814,1.1895-2.4814,1.8867a1.07,1.07,0,0,0,1.1563,1.0879,1.8628,1.8628,0,0,0,1.2578-.6465Z" transform="translate(-0.4622 -0.263)"/><path d="M279.1774,38.8877l.0508-.6631.3232-.0508c.4932-.0342.5781-.1533.5781-.3232V34.52c0-1.6836-.5273-2.0908-1.4785-2.0908a2.8119,2.8119,0,0,0-1.4961.5264v4.9131c0,.17.1016.2715.6455.3057l.459.0508.0518.6631H274.13l.0508-.6631.4082-.0508c.4072-.0342.5771-.1191.5771-.3232V33.7715c0-1.0713-.1357-1.2246-.73-1.377l-.34-.1025.0166-.5264,3.043-.833V32.19h.085a4.6743,4.6743,0,0,1,2.7881-1.2578,2.0759,2.0759,0,0,1,1.4443.5947,2.6358,2.6358,0,0,1,.6455,1.9551v4.3682c0,.1533.0859.2549.6973.3232l.3574.0508.0508.6631Z" transform="translate(-0.4622 -0.263)"/><path d="M292.6921,38.8027l-3.0937.34V37.9189h-.0508a3.3323,3.3323,0,0,1-2.3965,1.207c-1.8867,0-3.1445-1.5986-3.1445-3.74a4.1833,4.1833,0,0,1,4.334-4.3682,5.5906,5.5906,0,0,1,1.2412.17h.0166V28.9609c0-.3066-.085-.4932-.2881-.5781l-1.0205-.3574.0684-.4932,3.2295-.4072V37.4258c0,.3057.0684.5439.2891.6123l.8672.2715ZM289.5983,32.87a2.3939,2.3939,0,0,0-1.7334-1.07c-.9863,0-1.7168,1.07-1.7168,2.89,0,1.8359.833,3.06,2.04,3.06a2.2393,2.2393,0,0,0,1.41-.5947Z" transform="translate(-0.4622 -0.263)"/><path d="M306.1393,31.833l-.3574-1.41c-.34-1.207-.7822-1.3945-2.2949-1.4111h-.1016v8.8389c0,.1533.1191.2383.6289.2891l.833.0684.0508.68h-5.2529l.0518-.68.8662-.0684c.4258-.0508.5781-.1357.5781-.3232V29.0117h-.0674c-1.4961,0-2.0059.17-2.3467,1.3428l-.3906,1.4785H297.113l.3232-3.5693H307.26V31.833Z" transform="translate(-0.4622 -0.263)"/><path d="M313.5,33.2441a1.226,1.226,0,0,1-1.07-.68,5.0193,5.0193,0,0,0-1.4961,1.5469v3.7568c0,.17.1016.2715.6455.3057l.5781.0508.0508.6631h-4.2832l.0508-.6631.3916-.0508c.4072-.0342.5771-.1191.5771-.3232V33.7715c0-1.0713-.1357-1.2246-.73-1.377l-.34-.1025.0166-.5264,3.043-.833v2.125h.085c.7646-1.2754,1.3936-2.125,2.2773-2.125a1.1117,1.1117,0,0,1,1.207,1.1895A1.0342,1.0342,0,0,1,313.5,33.2441Z" transform="translate(-0.4622 -0.263)"/><path d="M320.8268,39.1768a1.3106,1.3106,0,0,1-1.36-1.4111h-.085a2.97,2.97,0,0,1-2.2266,1.377,1.9859,1.9859,0,0,1-2.0908-2.0059c0-1.4111,1.4277-2.2266,4.4023-2.9746v-.1357c.0166-1.4619-.6123-2.0908-1.6826-2.0908-.5781,0-1.1729.2207-1.1729.3232,0,.085.4248.3906.4248.9346a.953.953,0,0,1-1.0029.8838.9409.9409,0,0,1-1.0371-.8672c0-1.0029,1.9893-2.2773,3.7734-2.2773,1.8359,0,2.7881.7988,2.6689,3.3486l-.1191,2.8047c-.0166.5273.1025.73.4248.73a1.5193,1.5193,0,0,0,.8-.4248l.2715.4424A2.8551,2.8551,0,0,1,320.8268,39.1768Zm-1.3945-4.4023c-2.0225.5605-2.4814,1.1895-2.4814,1.8867a1.07,1.07,0,0,0,1.1563,1.0879,1.8628,1.8628,0,0,0,1.2578-.6465Z" transform="translate(-0.4622 -0.263)"/><path d="M332.08,38.8027l-3.0937.34V37.9189h-.0508a3.3323,3.3323,0,0,1-2.3965,1.207c-1.8867,0-3.1445-1.5986-3.1445-3.74a4.1833,4.1833,0,0,1,4.334-4.3682,5.5906,5.5906,0,0,1,1.2412.17h.0166V28.9609c0-.3066-.085-.4932-.2881-.5781l-1.0205-.3574.0684-.4932,3.2295-.4072V37.4258c0,.3057.0684.5439.2891.6123l.8672.2715ZM328.986,32.87a2.3939,2.3939,0,0,0-1.7334-1.07c-.9863,0-1.7168,1.07-1.7168,2.89,0,1.8359.833,3.06,2.04,3.06a2.2393,2.2393,0,0,0,1.41-.5947Z" transform="translate(-0.4622 -0.263)"/><path d="M336.4831,39.1426a3.5911,3.5911,0,0,1-3.5869-3.8418,4.1686,4.1686,0,0,1,4.165-4.3682,2.5955,2.5955,0,0,1,2.8555,2.6348,4.5362,4.5362,0,0,1-.1016.9346l-4.8281-.0674v.1865c.0176,1.87.97,3.0771,2.3975,3.0771a2.7956,2.7956,0,0,0,2.124-1.0713l.374.2041A3.4285,3.4285,0,0,1,336.4831,39.1426Zm.2549-7.4619c-.85,0-1.5977.73-1.7334,2.1758,0,0,2.957-.0342,2.9063-.0342C337.9958,32.4619,337.5026,31.6807,336.738,31.6807Z" transform="translate(-0.4622 -0.263)"/></svg>