<?xml version="1.0" encoding="utf-8"?>
<!-- Generator: Adobe Illustrator 21.1.0, SVG Export Plug-In . SVG Version: 6.00 Build 0)  -->
<svg version="1.1" id="Layer_1" xmlns="http://www.w3.org/2000/svg" xmlns:xlink="http://www.w3.org/1999/xlink" x="0px" y="0px"
	 viewBox="0 0 602 89" style="enable-background:new 0 0 602 89;" xml:space="preserve">
<g>
	<g>
		<g>
			<path style="fill:#231F20;" d="M22.9,0.1l-8.8,8.1l1.7,2.4c0,0,0.3-0.3,0.4-0.4c5.1,7.3,10.9,11.3,16.4,11.3
				c5.9,0,8.9-2,10.8-3.3c1-0.7,1.7-1.2,2.5-1.2c0.3,0,0.8,0.1,1,1.3l0.1,0.3l1.2-0.5l0-0.2c-0.2-1-0.8-2.1-2.1-2.1
				c-1.1,0-2,0.6-3.2,1.4c-2,1.3-4.8,3.1-10.1,3.1c-5.5,0-11.6-4.4-16.2-11.9c0.9-0.8,6.2-5.8,7.3-6.8c2.3,3.6,7.9,11.3,14.8,11.3
				c1.2,0,2.2-0.5,3.4-1c1.4-0.6,3-1.3,5.1-1.3c3.1,0,4.7,1.5,5.5,2.8c1.2,1.9,1.1,4.3,0.4,5.6l-0.1,0.2l1,1.2l0.2-0.4
				c1.1-2.6,0.9-5.1-0.5-7.2c-1.4-2.1-3.8-3.3-6.5-3.3c-2,0-4,0.8-5.6,1.5c-1.1,0.5-2.1,0.9-2.8,0.9c-4.7,0-10-4.2-14.2-11.3
				l-0.1-0.1L23,0L22.9,0.1z"/>
		</g>
		<g>
			<path style="fill:#231F20;" d="M7.9,70.2l-0.7,0.5l2.6,4.1c1.8,2.8,3.1,4.9,3.1,6.6c0,1-0.1,1.2-0.2,1.2c0,0-0.2-0.1-0.2-0.1
				c-0.3-0.2-0.7-0.4-1.4-0.4c-1.1,0-2.3,0.8-2.3,2.3c0,0.7,0.3,1.4,0.8,1.8c0.6,0.5,1.3,0.6,2.2,0.5c0,0.1-0.1,0.2-0.1,0.3
				c0,0.4,0.1,0.7,0.3,1c0.3,0.4,0.8,0.8,2,0.8c4.5,0,11.7-5.7,14.1-11l0.1-0.3l-1.4-0.4l-0.1,0.2c-2,5.5-9.4,10.3-12.8,10.3
				c-0.5,0-0.8-0.2-1-0.4c-0.3-0.5-0.1-1.1,0.2-1.6l0.4-0.7l-0.7,0.3c-0.3,0.1-1,0.3-1.3,0.3c-1.1,0-1.5-0.6-1.5-1.2
				c0-0.7,0.5-1.1,1-1.1c0.4,0,0.7,0.2,1,0.4l0.8,0.3c1.4,0,1.4-1.9,1.4-2.5c0-2-1.4-4.1-3.4-7.1L8.2,70L7.9,70.2z"/>
		</g>
		<g>
			<path style="fill:#231F20;" d="M16.2,9.2c-2.1,2.1-4.1,4.4-5.8,6.8l-0.2,0.2l0.7,0.6l0.2-0.2c2.3-3.1,4.4-5.2,5.8-6.5L17,9.8
				l-0.6-0.9L16.2,9.2z"/>
		</g>
		<g>
			<path style="fill:#231F20;" d="M8.4,18.8c-5.3,8.1-8,16.8-8,25.8c0,10.3,2.1,16.8,5.3,23.2l0.2,0.4l0.8-0.9l-0.1-0.2
				C4,62,1.4,55.2,1.4,44.6c0-10.9,4.2-19.8,7.7-25.2l0.1-0.2l-0.6-0.7L8.4,18.8z"/>
		</g>
		<g>
			<path style="fill:#231F20;" d="M21.4,15.6C13.3,23.9,9.5,33.4,9.5,45.3c0,12.6,4.8,23.3,14.3,31.8l0.9-1L24.6,76
				c-8.7-6.9-13.9-18.4-13.9-30.6c0-11.5,4.4-22.3,11.7-28.8l0.2-0.2l-1.1-0.9L21.4,15.6z"/>
		</g>
		<g>
			<g>
				<path style="fill:#231F20;" d="M54.2,20.7c0.1-1-0.3-2-1.1-2.7c-0.7-0.7-1.8-1.1-2.9-1.1c-2.5,0-3.8,1.4-5.4,4l-0.2,0.3l0,0
					C42.5,25,17.5,69.6,17.5,69.6l0.7,0.8l27.4-49l0,0l0.1-0.2c0.1-0.2,0.2-0.3,0.3-0.5c0.3-0.4,0.6-0.6,1-0.6
					c0.2,0,0.4,0.3,0.4,0.6l-0.2,0.7l-0.3,0.8L23.6,76.7l0.4,0.1l-0.2,0.4l10.9,2.4l19.5-54.1C54.5,24.7,55.3,22.2,54.2,20.7z
					 M53.2,25.1c0,0-18.4,50.6-19.2,53c-0.4-0.1-6.8-1.5-9-2l22.7-53.6l0.4-1.1l0.2-0.7c0-0.9-0.5-1.5-1.3-1.5h0
					c0.7-0.8,1.6-1.3,3.1-1.3c2,0,3.1,1.1,3.1,3.2c0.3,0.7,0.4,1.2,0.4,1.8C53.6,23.6,53.4,24.3,53.2,25.1z"/>
			</g>
		</g>
	</g>
	<g>
		<path style="fill:#231F20;" d="M7.2,16.9c0,0.8,0.5,1.4,1.2,2.1c0.9,0.9,1.9,2.1,1.9,4.4c-0.1,0.2-0.2,0.5-0.3,0.7
			c-2,4.6-5,11.6-5,20.7C5,51.6,6.6,57,7.7,60.9c0.1,0.3,0.1,0.5,0.2,0.8c-0.1,2.7-1.3,4.3-2.3,5.6c-0.7,0.9-1.3,1.6-1.3,2.4
			c0,1.3,0.8,2,2.2,2c2.4,0,3.4-3.8,3.4-5.8c0-1.2-0.5-2.9-1.1-5c-1.2-3.9-2.7-9.3-2.7-16.1c0-9.1,3-15.9,5-20.4
			c1-2.2,1.6-3.7,1.6-4.8c0-2.8-1.3-4.8-3.1-4.8C8.1,14.8,7.2,15.6,7.2,16.9z M9.1,18.2c-0.5-0.5-0.8-0.9-0.8-1.3
			c0-0.9,0.6-1.1,1.2-1.1c1.1,0,2.1,1.7,2.1,3.7c0,0.5-0.2,1.2-0.5,2C10.6,19.9,9.8,18.9,9.1,18.2z M5.4,69.7c0-0.5,0.5-1.1,1-1.9
			c0.7-0.9,1.6-2.1,2.1-3.8c0.2,0.7,0.3,1.4,0.3,1.9c0,2.2-1,4.7-2.3,4.7C5.8,70.7,5.4,70.3,5.4,69.7z"/>
	</g>
	<g>
		<g>
			<path style="fill:#231F20;" d="M13.8,15.3l-0.5,0.1v0.2c0,1.2,0.8,2.4,2.5,2.4c0.8,0,2.5-0.6,2.5-2.4v-0.3l-0.9,0v0.3
				c0,1.1-0.8,1.5-1.6,1.5c-1.2,0-1.6-0.8-1.6-1.6v-0.3L13.8,15.3z"/>
		</g>
		<g>
			<path style="fill:#231F20;" d="M13.3,15.6v0.3l0.8-0.2v-0.2c0-0.9,0.7-1.5,1.6-1.5c0.8,0,1.6,0.4,1.6,1.6v0.3l0.9,0v-0.3
				c0-1.6-1.3-2.4-2.5-2.4C14.6,13.2,13.3,14,13.3,15.6z"/>
		</g>
	</g>
	<g>
		<path style="fill:#231F20;" d="M11.5,72.2c0,2.3,1.8,3.2,3,3.2c1.8,0,2.9-1,2.9-2.6v-0.3l-1,0v0.3c0,0.5-0.2,1.7-1.8,1.7
			c-1,0-2.1-0.8-2.1-2.2V72l-0.9-0.1V72.2z"/>
		<path style="fill:#231F20;" d="M11.5,72.2v0.2l0.9,0.1v-0.3c0-0.2,0-1.7,1.7-1.7c1,0,2.2,0.7,2.2,2.2V73l1,0v-0.3
			c0-1.8-1.3-3.1-3.2-3.1C12.9,69.6,11.5,70.5,11.5,72.2z"/>
	</g>
	<g>
		<path style="fill:#231F20;" d="M39.8,39.5l-0.1,0.1l0.2,0.9l12.9-12.4c0,0,0.8-1.2,0.8-1.2l-0.4-0.3L39.8,39.5z"/>
	</g>
	<g>
		<path style="fill:#231F20;" d="M45.9,25.5c0,0.1,1,17.9,1,17.9l0,0.6l0.8-0.8l-1-18.4l-0.5-0.1L45.9,25.5z"/>
	</g>
	<g>
		<polygon style="fill:#231F20;" points="42.4,56.2 27.2,68.8 26.7,70.5 42.6,57.3 43,55.7 		"/>
	</g>
	<g>
		<path style="fill:#231F20;" d="M34.6,51.8l-0.3,0.8c0,0.1,1.9,20.1,1.9,20.1l0,0.4l0.9-0.5l-2.1-21.8L34.6,51.8z"/>
	</g>
	<g>
		<g>
			<polygon style="fill:#231F20;" points="19.5,13.2 18.8,12.9 18.8,68.2 19.7,66.7 19.7,13.4 			"/>
		</g>
		<g>
			<polygon style="fill:#231F20;" points="22.8,16.2 22.1,16.2 22.1,62.5 23,60.8 23,16.2 			"/>
		</g>
		<g>
			<polygon style="fill:#231F20;" points="26,18.5 25.4,18.5 25.4,56.8 26.3,55 26.3,18.5 			"/>
		</g>
		<g>
			<polygon style="fill:#231F20;" points="29.3,19.9 28.7,19.9 28.7,50.4 29.2,50 29.6,49.1 29.6,19.9 			"/>
		</g>
		<g>
			<polygon style="fill:#231F20;" points="32.6,20.5 32,20.5 32,44.5 32.5,44.2 32.9,43.3 32.9,20.5 			"/>
		</g>
		<g>
			<polygon style="fill:#231F20;" points="35.9,20.3 35.3,20.3 35.3,38.7 35.8,38.4 36.2,37.5 36.2,20.3 			"/>
		</g>
		<g>
			<polygon style="fill:#231F20;" points="39.2,19.5 38.6,19.5 38.6,32.8 39.1,32.4 39.5,31.4 39.5,19.5 			"/>
		</g>
		<g>
			<polygon style="fill:#231F20;" points="42.5,17.9 41.8,17.9 41.8,27 42.4,26.6 42.8,25.6 42.8,17.9 			"/>
		</g>
	</g>
</g>
<rect x="69" y="21" style="fill:none;" width="533" height="51"/>
<text transform="matrix(1 0 0 1 69 40.3701)"><tspan x="0" y="0" style="font-family:'CentennialLTStd-Roman'; font-size:26px;">An Roinn Gnóthaí Eachtracha agus Trádá</tspan><tspan x="513.8" y="0" style="font-family:'CentennialLTStd-Roman'; font-size:26px;">-</tspan><tspan x="0" y="31.2" style="font-family:'CentennialLTStd-Roman'; font-size:26px;">la</tspan></text>
</svg>
