<svg id="Layer_1" data-name="Layer 1" xmlns="http://www.w3.org/2000/svg" viewBox="0 0 137.18 24.67"><defs><style>.cls-1{fill:#006946;}</style></defs><title>DFAT_Green_Simplified_Horizontal</title><path class="cls-1" d="M373.72,291.92c.06.22.14.43.22.63l1,2.6c.27.7.38.71.56.71h.07V296H374v-.17h.13c.26,0,.31,0,.31-.14a.76.76,0,0,0-.06-.26l-.3-.76h-1.57l-.2.48a1.47,1.47,0,0,0-.15.51c0,.18.17.18.38.18h.07V296h-1.17v-.17h.06c.17,0,.31-.06.45-.39l1.24-3a4.42,4.42,0,0,0,.21-.58Zm.31,2.62-.69-1.77-.74,1.77Z" transform="translate(-352.29 -285.3)"/><path class="cls-1" d="M375.9,295.87h.26c.2,0,.21-.11.21-.34V294c0-.48,0-.59-.18-.59h-.29v-.17h.26a2,2,0,0,0,.75-.09v.51h0a1,1,0,0,1,.93-.51.77.77,0,0,1,.87.84v1.45c0,.36,0,.46.19.46h.25V296h-1.45v-.17h.22c.21,0,.23-.1.23-.46v-1.34c0-.34-.11-.68-.54-.68-.58,0-.68.62-.68,1.09v1c0,.26,0,.34.2.34h.24V296H375.9Z" transform="translate(-352.29 -285.3)"/><path class="cls-1" d="M381.17,295.87h.18c.23,0,.29-.09.29-.29v-3.11c0-.3-.08-.34-.31-.34h-.15V292H383c.67,0,1.28.24,1.28.9a1.16,1.16,0,0,1-1,1h0c.69.14.81.29.84,1l0,.71c0,.09,0,.2.14.2s.22-.14.27-.29l.17.07a.7.7,0,0,1-.64.48c-.5,0-.6-.39-.62-.77l0-.76c0-.45-.26-.61-.81-.61h-.38v1.54c0,.25,0,.34.28.34h.18V296h-1.57Zm1.11-2.05h.44a.78.78,0,0,0,.88-.84c0-.63-.34-.84-.9-.84h-.43Z" transform="translate(-352.29 -285.3)"/><path class="cls-1" d="M386.42,296.13a1.52,1.52,0,1,1,1.31-1.5A1.33,1.33,0,0,1,386.42,296.13Zm0-2.84c-.51,0-.67.37-.67,1.34s.15,1.33.67,1.33.67-.37.67-1.33S386.94,293.29,386.42,293.29Z" transform="translate(-352.29 -285.3)"/><path class="cls-1" d="M388.05,295.87h.25c.15,0,.21-.07.21-.39v-1.72c0-.29,0-.38-.21-.38h-.25v-.17h.35a2.15,2.15,0,0,0,.7-.09,5.18,5.18,0,0,0,0,.59v1.77c0,.32.06.39.21.39h.25V296h-1.48Zm.74-4a.39.39,0,0,1,.39.39.38.38,0,0,1-.39.39.39.39,0,0,1-.39-.39A.4.4,0,0,1,388.79,291.89Z" transform="translate(-352.29 -285.3)"/><path class="cls-1" d="M389.92,295.87h.26c.2,0,.21-.11.21-.34V294c0-.48,0-.59-.18-.59h-.28v-.17h.26a2,2,0,0,0,.75-.09v.51h0a1,1,0,0,1,.93-.51.77.77,0,0,1,.87.84v1.45c0,.36,0,.46.19.46h.25V296h-1.45v-.17h.22c.21,0,.23-.1.23-.46v-1.34c0-.34-.11-.68-.54-.68-.58,0-.68.62-.68,1.09v1c0,.26,0,.34.21.34h.24V296h-1.48Z" transform="translate(-352.29 -285.3)"/><path class="cls-1" d="M393.57,295.87h.26c.2,0,.21-.11.21-.34V294c0-.48,0-.59-.18-.59h-.29v-.17h.26a2.05,2.05,0,0,0,.75-.09v.51h0a1,1,0,0,1,.93-.51.77.77,0,0,1,.87.84v1.45c0,.36,0,.46.19.46h.25V296h-1.45v-.17h.22c.2,0,.23-.1.23-.46v-1.34c0-.34-.11-.68-.54-.68-.58,0-.68.62-.68,1.09v1c0,.26,0,.34.21.34h.24V296h-1.48Z" transform="translate(-352.29 -285.3)"/><path class="cls-1" d="M402,293h-.2a1,1,0,0,0-1-1c-1,0-1.2,1.18-1.2,2s.17,1.89,1.13,1.92a.73.73,0,0,0,.79-.79v-.46c0-.22-.06-.3-.21-.3h-.23v-.17h1.41v.17h-.15c-.18,0-.22.07-.22.36v1.32H402a.16.16,0,0,0-.18-.14,5.25,5.25,0,0,1-1.06.17c-1.37,0-1.83-.93-1.83-2.16a1.9,1.9,0,0,1,1.86-2.08,2,2,0,0,1,.62.09,1.41,1.41,0,0,0,.34.09c.06,0,.09-.06.1-.15h.2Z" transform="translate(-352.29 -285.3)"/><path class="cls-1" d="M402.73,295.87H403c.2,0,.21-.11.21-.34V294c0-.48,0-.59-.18-.59h-.29v-.17H403a2,2,0,0,0,.75-.09v.51h0a1,1,0,0,1,.93-.51.77.77,0,0,1,.87.84v1.45c0,.36,0,.46.19.46H406V296h-1.45v-.17h.22c.21,0,.23-.1.23-.46v-1.34c0-.34-.11-.68-.54-.68-.58,0-.68.62-.68,1.09v1c0,.26,0,.34.21.34h.24V296h-1.48Z" transform="translate(-352.29 -285.3)"/><path class="cls-1" d="M408.91,294.63a1.32,1.32,0,1,1-1.3-1.5A1.33,1.33,0,0,1,408.91,294.63Zm-.64,0c0-1-.15-1.34-.67-1.34s-.67.37-.67,1.34.15,1.33.67,1.33S408.27,295.59,408.27,294.63Zm-.95-1.9.81-.86c.1-.11.17-.15.27-.15a.26.26,0,0,1,.27.23c0,.13-.07.18-.18.25l-.87.52Z" transform="translate(-352.29 -285.3)"/><path class="cls-1" d="M410.9,293.38h-.66v2.2c0,.17.07.27.23.27s.26-.22.26-.52v-.09H411v.11c0,.46-.09.77-.68.77s-.62-.23-.62-.66v-2.09h-.48v-.17a.94.94,0,0,0,.86-1h.19v1h.66Z" transform="translate(-352.29 -285.3)"/><path class="cls-1" d="M411.34,295.87h.26c.2,0,.21-.11.21-.34v-3.1c0-.4,0-.47-.22-.47h-.25v-.17h1v1.84h0a1,1,0,0,1,.9-.51.77.77,0,0,1,.87.84v1.45c0,.36,0,.46.19.46h.25V296h-1.45v-.17h.22c.21,0,.23-.1.23-.46v-1.34c0-.34-.11-.68-.54-.68-.58,0-.68.63-.68,1.09v1c0,.26,0,.34.21.34h.24V296h-1.48Z" transform="translate(-352.29 -285.3)"/><path class="cls-1" d="M417.83,295.42c0,.42-.12.71-.59.71a.51.51,0,0,1-.55-.38.84.84,0,0,1-.78.38.78.78,0,0,1-.89-.8c0-.65.74-1,1.32-1h.34v-.51c0-.33-.05-.55-.43-.55-.1,0-.43,0-.43.19s.09.13.09.29a.33.33,0,0,1-.34.31.36.36,0,0,1-.37-.39c0-.49.75-.58,1-.58.6,0,1,.21,1,.84v1.69c0,.11,0,.21.16.21s.22-.26.22-.44v-.14h.2Zm-1.15-.89-.3,0a.76.76,0,0,0-.76.82c0,.34.16.57.51.57a.55.55,0,0,0,.55-.55Z" transform="translate(-352.29 -285.3)"/><path class="cls-1" d="M418.21,296v-.17h.24c.15,0,.21-.07.21-.39v-1.72c0-.29,0-.38-.2-.38h-.25v-.17h.35a2.16,2.16,0,0,0,.7-.09,5.07,5.07,0,0,0,0,.59v1.77c0,.32.06.39.21.39h.24V296Zm.46-3.3.81-.86c.1-.11.16-.15.27-.15a.26.26,0,0,1,.27.23c0,.13-.07.18-.18.25l-.87.52Z" transform="translate(-352.29 -285.3)"/><path class="cls-1" d="M421.74,295.87H422c.14,0,.23,0,.23-.37v-3c0-.33,0-.38-.26-.38h-.2V292h3.12v.95h-.2c0-.56-.29-.78-.83-.78h-1v1.75h.85c.38,0,.54-.27.54-.61h.2v1.41h-.2c0-.37-.14-.63-.54-.63h-.85v1.81h1c.54,0,.84-.25.84-.8h.2v1h-3.18Z" transform="translate(-352.29 -285.3)"/><path class="cls-1" d="M428.36,295.42c0,.42-.12.71-.59.71a.51.51,0,0,1-.55-.38.85.85,0,0,1-.78.38.78.78,0,0,1-.89-.8c0-.65.74-1,1.32-1h.34v-.51c0-.33-.05-.55-.43-.55-.1,0-.43,0-.43.19s.09.13.09.29a.32.32,0,0,1-.34.31.36.36,0,0,1-.37-.39c0-.49.75-.58,1-.58.61,0,1,.21,1,.84v1.69c0,.11,0,.21.16.21s.22-.26.22-.44v-.14h.2Zm-1.15-.89-.3,0a.75.75,0,0,0-.76.82c0,.34.16.57.51.57a.55.55,0,0,0,.55-.55Z" transform="translate(-352.29 -285.3)"/><path class="cls-1" d="M431.15,295.07a1,1,0,0,1-1,1.05,1.52,1.52,0,0,1,0-3c.43,0,1,.16,1,.61a.33.33,0,0,1-.37.35.32.32,0,0,1-.34-.31c0-.2.09-.21.09-.3s-.23-.18-.34-.18c-.51,0-.67.37-.67,1.34,0,.63.11,1.33.71,1.33a.79.79,0,0,0,.75-.89Z" transform="translate(-352.29 -285.3)"/><path class="cls-1" d="M431.47,295.87h.26c.2,0,.21-.11.21-.34v-3.1c0-.4,0-.47-.22-.47h-.25v-.17h1v1.84h0a1,1,0,0,1,.9-.51.77.77,0,0,1,.87.84v1.45c0,.36,0,.46.19.46h.25V296h-1.45v-.17h.22c.21,0,.23-.1.23-.46v-1.34c0-.34-.11-.68-.54-.68-.58,0-.68.63-.68,1.09v1c0,.26,0,.34.21.34H433V296h-1.48Z" transform="translate(-352.29 -285.3)"/><path class="cls-1" d="M436.55,293.38h-.65v2.2c0,.17.07.27.23.27s.26-.22.26-.52v-.09h.23v.11c0,.46-.09.77-.68.77s-.62-.23-.62-.66v-2.09h-.48v-.17a.94.94,0,0,0,.86-1h.2v1h.65Z" transform="translate(-352.29 -285.3)"/><path class="cls-1" d="M437,295.87h.26c.2,0,.21-.11.21-.34V294c0-.48,0-.59-.18-.59H437v-.17h.62a.93.93,0,0,0,.39-.09v.67h0a1,1,0,0,1,.83-.67.46.46,0,0,1,.51.44.34.34,0,0,1-.37.38c-.16,0-.33-.07-.33-.24a1,1,0,0,1,0-.15s-.07,0-.11,0c-.35,0-.54.38-.54,1.41v.62c0,.26,0,.34.21.34h.34V296H437Z" transform="translate(-352.29 -285.3)"/><path class="cls-1" d="M442.59,295.42c0,.42-.12.71-.59.71a.51.51,0,0,1-.55-.38.84.84,0,0,1-.78.38.78.78,0,0,1-.89-.8c0-.65.73-1,1.32-1h.34v-.51c0-.33-.05-.55-.43-.55-.1,0-.43,0-.43.19s.09.13.09.29a.33.33,0,0,1-.34.31.36.36,0,0,1-.37-.39c0-.49.75-.58,1-.58.6,0,1,.21,1,.84v1.69c0,.11,0,.21.16.21s.22-.26.22-.44v-.14h.2Zm-1.15-.89-.29,0a.75.75,0,0,0-.76.82c0,.34.16.57.51.57a.55.55,0,0,0,.54-.55Z" transform="translate(-352.29 -285.3)"/><path class="cls-1" d="M445.38,295.07a1,1,0,0,1-1,1.05,1.52,1.52,0,0,1,0-3c.43,0,1,.16,1,.61a.33.33,0,0,1-.37.35.32.32,0,0,1-.34-.31c0-.2.09-.21.09-.3s-.23-.18-.34-.18c-.51,0-.67.37-.67,1.34,0,.63.11,1.33.71,1.33a.79.79,0,0,0,.75-.89Z" transform="translate(-352.29 -285.3)"/><path class="cls-1" d="M445.7,295.87H446c.2,0,.21-.11.21-.34v-3.1c0-.4,0-.47-.22-.47h-.24v-.17h1v1.84h0a1,1,0,0,1,.9-.51.77.77,0,0,1,.87.84v1.45c0,.36,0,.46.19.46H449V296h-1.45v-.17h.22c.2,0,.23-.1.23-.46v-1.34c0-.34-.11-.68-.54-.68-.58,0-.68.63-.68,1.09v1c0,.26,0,.34.2.34h.24V296H445.7Z" transform="translate(-352.29 -285.3)"/><path class="cls-1" d="M452.19,295.42c0,.42-.12.71-.59.71a.51.51,0,0,1-.55-.38.85.85,0,0,1-.78.38.78.78,0,0,1-.89-.8c0-.65.74-1,1.32-1H451v-.51c0-.33-.05-.55-.43-.55-.1,0-.43,0-.43.19s.09.13.09.29a.32.32,0,0,1-.34.31.36.36,0,0,1-.37-.39c0-.49.75-.58,1-.58.6,0,1,.21,1,.84v1.69c0,.11,0,.21.16.21s.22-.26.22-.44v-.14h.2Zm-1.15-.89-.3,0a.75.75,0,0,0-.76.82c0,.34.16.57.51.57a.55.55,0,0,0,.55-.55Z" transform="translate(-352.29 -285.3)"/><path class="cls-1" d="M457.15,295.42c0,.42-.12.71-.59.71a.51.51,0,0,1-.55-.38.84.84,0,0,1-.78.38.78.78,0,0,1-.89-.8c0-.65.74-1,1.32-1H456v-.51c0-.33-.05-.55-.43-.55-.1,0-.43,0-.43.19s.09.13.09.29a.32.32,0,0,1-.34.31.36.36,0,0,1-.37-.39c0-.49.75-.58,1-.58.61,0,1,.21,1,.84v1.69c0,.11,0,.21.16.21s.22-.26.22-.44v-.14h.2Zm-1.15-.89-.3,0a.75.75,0,0,0-.76.82c0,.34.16.57.51.57a.55.55,0,0,0,.55-.55Z" transform="translate(-352.29 -285.3)"/><path class="cls-1" d="M459,295.54c.6,0,1.13.17,1.13.85s-.75,1-1.38,1-1.3-.1-1.3-.74a.66.66,0,0,1,.64-.63h0a.48.48,0,0,1-.33-.47.52.52,0,0,1,.42-.52h0a.85.85,0,0,1-.61-.83,1,1,0,0,1,1.16-1,1.3,1.3,0,0,1,.27,0,1.43,1.43,0,0,0,.26,0,.81.81,0,0,0,.4-.13.84.84,0,0,1,.4-.12.28.28,0,0,1,.28.32.28.28,0,0,1-.28.31c-.29,0-.21-.29-.33-.29a.81.81,0,0,0-.27.07.92.92,0,0,1,.42.75c0,.89-.83,1-1.22,1s-.63.07-.63.22.13.21.51.21Zm-1.07,1.07c0,.43.34.59.87.59.34,0,.85-.17.85-.59s-.39-.57-.76-.57C458.33,296,457.95,296.12,457.95,296.61Zm.25-2.47c0,.41.09.79.57.79s.53-.42.53-.78-.08-.85-.52-.85S458.19,293.71,458.19,294.13Z" transform="translate(-352.29 -285.3)"/><path class="cls-1" d="M460.72,293.22H461a2.92,2.92,0,0,0,.81-.09,3.56,3.56,0,0,0,0,.56v1.41c0,.44.12.76.53.76s.68-.42.68-1.05v-.9c0-.47,0-.52-.21-.52h-.26v-.17h.27a2.92,2.92,0,0,0,.81-.09,3.56,3.56,0,0,0,0,.56v1.73c0,.36,0,.46.19.46H464V296h-.48a3.45,3.45,0,0,0-.5,0v-.46h0a1,1,0,0,1-.9.52c-.76,0-.9-.32-.9-.91V294c0-.48,0-.59-.18-.59h-.28Z" transform="translate(-352.29 -285.3)"/><path class="cls-1" d="M466.4,294h-.17a.79.79,0,0,0-.79-.71.51.51,0,0,0-.53.53c0,.8,1.65.18,1.65,1.37a1,1,0,0,1-1.07.93,2,2,0,0,1-.41-.05,1.71,1.71,0,0,0-.34,0,.47.47,0,0,0-.27.08h0v-1h.17a.82.82,0,0,0,.87.8.53.53,0,0,0,.57-.56c0-.88-1.61-.18-1.61-1.38a.91.91,0,0,1,1-.89,1.7,1.7,0,0,1,.36,0,1.6,1.6,0,0,0,.28,0,.57.57,0,0,0,.27-.08h0Z" transform="translate(-352.29 -285.3)"/><path class="cls-1" d="M469.59,295.87h.27c.23,0,.23-.11.23-.6v-3.13h-.31a.81.81,0,0,0-.88.83h-.2v-1h3.42v1h-.2a.81.81,0,0,0-.88-.83h-.31v3.13c0,.49,0,.6.23.6h.27V296h-1.64Z" transform="translate(-352.29 -285.3)"/><path class="cls-1" d="M472.12,295.87h.26c.2,0,.2-.11.2-.34V294c0-.48,0-.59-.18-.59h-.28v-.17h.62a.93.93,0,0,0,.39-.09v.67h0a1,1,0,0,1,.83-.67.46.46,0,0,1,.51.44.34.34,0,0,1-.37.38c-.16,0-.33-.07-.33-.24a1,1,0,0,1,0-.15s-.07,0-.11,0c-.35,0-.54.38-.54,1.41v.62c0,.26,0,.34.2.34h.34V296h-1.58Z" transform="translate(-352.29 -285.3)"/><path class="cls-1" d="M477.71,295.28v.14c0,.42-.12.71-.59.71a.51.51,0,0,1-.55-.38.84.84,0,0,1-.78.38.78.78,0,0,1-.89-.8c0-.65.73-1,1.32-1h.34v-.51c0-.33-.05-.55-.43-.55-.1,0-.43,0-.43.19s.09.13.09.29a.33.33,0,0,1-.34.31.36.36,0,0,1-.37-.39c0-.49.75-.58,1-.58.6,0,1,.21,1,.84v1.69c0,.11,0,.21.16.21s.22-.26.22-.44v-.14Zm-1.15.06v-.81l-.3,0a.76.76,0,0,0-.76.82c0,.34.16.57.51.57A.55.55,0,0,0,476.56,295.34Zm-.63-2.61.81-.86c.1-.11.17-.15.27-.15a.26.26,0,0,1,.27.23c0,.13-.07.18-.18.25l-.87.52Z" transform="translate(-352.29 -285.3)"/><path class="cls-1" d="M479.24,293.13a.93.93,0,0,1,.86.52h0V292.4c0-.36,0-.44-.18-.44h-.27v-.17h1v3.59c0,.42,0,.49.21.49h.25V296h-1v-.46h0a1,1,0,0,1-.89.55c-.71,0-1.07-.74-1.07-1.51S478.44,293.13,479.24,293.13Zm.88,1.49c0-.89-.29-1.22-.74-1.22s-.58.54-.58,1.22.07,1.25.58,1.25S480.12,295.46,480.12,294.61Z" transform="translate(-352.29 -285.3)"/><path class="cls-1" d="M484.39,295.28v.14c0,.42-.12.71-.59.71a.51.51,0,0,1-.55-.38.84.84,0,0,1-.78.38.78.78,0,0,1-.89-.8c0-.65.73-1,1.32-1h.34v-.51c0-.33-.05-.55-.43-.55-.1,0-.43,0-.43.19s.09.13.09.29a.33.33,0,0,1-.34.31.36.36,0,0,1-.37-.39c0-.49.75-.58,1-.58.6,0,1,.21,1,.84v1.69c0,.11,0,.21.16.21s.22-.26.22-.44v-.14Zm-1.15.06v-.81l-.3,0a.76.76,0,0,0-.76.82c0,.34.16.57.51.57A.55.55,0,0,0,483.24,295.34Zm-.63-2.61.81-.86c.1-.11.17-.15.27-.15a.26.26,0,0,1,.27.23c0,.13-.07.18-.18.25l-.87.52Z" transform="translate(-352.29 -285.3)"/><path class="cls-1" d="M484.76,295.87H485c.15,0,.21-.07.21-.39v-3c0-.47,0-.53-.21-.53h-.25v-.17h1v3.69c0,.32.06.39.21.39h.24V296h-1.48Z" transform="translate(-352.29 -285.3)"/><path class="cls-1" d="M489.47,295.42c0,.42-.12.71-.59.71a.51.51,0,0,1-.55-.38.85.85,0,0,1-.78.38.78.78,0,0,1-.89-.8c0-.65.74-1,1.32-1h.34v-.51c0-.33-.05-.55-.43-.55-.1,0-.43,0-.43.19s.09.13.09.29a.32.32,0,0,1-.34.31.36.36,0,0,1-.37-.39c0-.49.75-.58,1-.58.61,0,1,.21,1,.84v1.69c0,.11,0,.21.16.21s.22-.26.22-.44v-.14h.2Zm-1.15-.89-.3,0a.75.75,0,0,0-.76.82c0,.34.16.57.51.57a.55.55,0,0,0,.55-.55Z" transform="translate(-352.29 -285.3)"/><path class="cls-1" d="M371.67,298.16h1.61a2,2,0,1,1,.06,4.06h-1.67V302h.24c.2,0,.23-.06.23-.62v-2.58c0-.39,0-.53-.21-.53h-.26Zm1.11,3.89h.5c1.09,0,1.37-.95,1.37-1.85s-.29-1.87-1.4-1.87h-.46Z" transform="translate(-352.29 -285.3)"/><path class="cls-1" d="M376.53,300.8c0,1,.15,1.33.67,1.33a.84.84,0,0,0,.88-.9h.23a1,1,0,0,1-1.12,1.07,1.52,1.52,0,0,1,0-3c.81,0,1.18.79,1.16,1.5Zm1.19-.17c0-.68-.15-1.17-.59-1.17s-.58.49-.6,1.17Z" transform="translate(-352.29 -285.3)"/><path class="cls-1" d="M380.61,302.3a.92.92,0,0,1-.86-.51h0v1.1c0,.32.06.39.21.39h.25v.17H378.7v-.17H379c.15,0,.21-.07.21-.39v-2.8c0-.43,0-.54-.22-.54h-.25v-.17h.62a.92.92,0,0,0,.39-.09v.58h0a1,1,0,0,1,.89-.58c.8,0,1.07.81,1.07,1.49S381.32,302.3,380.61,302.3Zm.43-1.51c0-.68-.12-1.22-.58-1.22s-.74.33-.74,1.22.27,1.25.74,1.25S381,301.47,381,300.79Z" transform="translate(-352.29 -285.3)"/><path class="cls-1" d="M385,301.6c0,.42-.12.71-.59.71a.51.51,0,0,1-.55-.38.84.84,0,0,1-.78.38.78.78,0,0,1-.89-.8c0-.65.73-1,1.32-1h.34V300c0-.32-.05-.55-.43-.55-.1,0-.43,0-.43.19s.09.13.09.3a.32.32,0,0,1-.34.31.36.36,0,0,1-.37-.39c0-.49.75-.58,1-.58.6,0,1,.21,1,.84v1.69c0,.11,0,.21.16.21s.22-.26.22-.44v-.14h.2Zm-1.15-.89-.3,0a.76.76,0,0,0-.76.82c0,.34.16.57.51.57a.55.55,0,0,0,.55-.55Z" transform="translate(-352.29 -285.3)"/><path class="cls-1" d="M385.43,302h.26c.2,0,.21-.11.21-.34v-1.56c0-.48,0-.59-.18-.59h-.28v-.17H386a.92.92,0,0,0,.39-.09V300h0a1,1,0,0,1,.83-.67.46.46,0,0,1,.51.44.34.34,0,0,1-.37.38c-.16,0-.33-.07-.33-.24a1,1,0,0,1,0-.15s-.07,0-.11,0c-.35,0-.54.38-.54,1.41v.62c0,.26,0,.34.21.34H387v.17h-1.58Z" transform="translate(-352.29 -285.3)"/><path class="cls-1" d="M389.91,299.56h-.65v2.2c0,.17.07.27.23.27s.26-.22.26-.52v-.09H390v.11c0,.46-.09.77-.68.77s-.62-.23-.62-.66v-2.09h-.48v-.17a.94.94,0,0,0,.86-1h.19v1h.65Z" transform="translate(-352.29 -285.3)"/><path class="cls-1" d="M390.34,302h.26c.2,0,.21-.11.21-.34v-1.56c0-.48,0-.59-.18-.59h-.29v-.17h.26a2,2,0,0,0,.75-.09v.51h0a1,1,0,0,1,.93-.51.74.74,0,0,1,.77.52h0a.93.93,0,0,1,.93-.52.73.73,0,0,1,.83.79v1.5c0,.36,0,.46.19.46h.25v.17h-1.45V302H394c.21,0,.23-.1.23-.46V300.3c0-.51-.1-.73-.51-.73s-.65.47-.65,1v.94c0,.51,0,.58.18.58h.26v.17h-1.44V302h.25c.14,0,.17-.11.17-.5v-1.23c0-.36,0-.75-.48-.75s-.68.62-.68,1.09v1c0,.26,0,.34.21.34h.24v.17h-1.48Z" transform="translate(-352.29 -285.3)"/><path class="cls-1" d="M396.23,300.8c0,1,.15,1.33.67,1.33a.84.84,0,0,0,.88-.9H398a1,1,0,0,1-1.12,1.07,1.52,1.52,0,0,1,0-3c.81,0,1.18.79,1.16,1.5Zm1.19-.17c0-.68-.15-1.17-.59-1.17s-.58.49-.6,1.17Z" transform="translate(-352.29 -285.3)"/><path class="cls-1" d="M398.42,302h.26c.2,0,.21-.11.21-.34v-1.56c0-.48,0-.59-.18-.59h-.28v-.17h.26a2,2,0,0,0,.75-.09v.51h0a1,1,0,0,1,.93-.51.77.77,0,0,1,.87.84v1.45c0,.36,0,.46.19.46h.25v.17h-1.45V302h.22c.2,0,.23-.1.23-.46v-1.34c0-.34-.11-.68-.54-.68-.58,0-.68.62-.68,1.09v1c0,.26,0,.34.21.34h.24v.17h-1.48Z" transform="translate(-352.29 -285.3)"/><path class="cls-1" d="M403.5,299.56h-.66v2.2c0,.17.07.27.23.27s.26-.22.26-.52v-.09h.23v.11c0,.46-.09.77-.68.77s-.62-.23-.62-.66v-2.09h-.48v-.17a.94.94,0,0,0,.86-1h.19v1h.66Z" transform="translate(-352.29 -285.3)"/><path class="cls-1" d="M407,302.3a1.52,1.52,0,1,1,1.3-1.5A1.33,1.33,0,0,1,407,302.3Zm0-2.84c-.51,0-.67.37-.67,1.34s.15,1.33.67,1.33.67-.37.67-1.33S407.48,299.47,407,299.47Z" transform="translate(-352.29 -285.3)"/><path class="cls-1" d="M408.6,302h.26c.2,0,.21-.11.21-.34v-2.15h-.45v-.17h.45V299c0-.63.26-1.15,1-1.15.39,0,.75.18.75.59a.33.33,0,0,1-.35.36.29.29,0,0,1-.32-.29c0-.23.17-.25.17-.31s-.13-.18-.24-.18c-.39,0-.44.34-.44,1v.36h.57v.17h-.57v2.16c0,.25,0,.33.24.33h.33v.17H408.6Z" transform="translate(-352.29 -285.3)"/><path class="cls-1" d="M412.32,302h.25c.21,0,.22-.1.22-.59V298.9c0-.55,0-.58-.22-.58h-.25v-.16h3v.94h-.2c0-.68-.46-.77-1-.77h-.71v1.8h.6c.46,0,.72-.17.72-.64h.2v1.44h-.2c0-.48-.27-.63-.72-.63h-.6v1.17c0,.31,0,.59.26.59h.22v.17h-1.58Z" transform="translate(-352.29 -285.3)"/><path class="cls-1" d="M417,302.3a1.52,1.52,0,1,1,1.3-1.5A1.33,1.33,0,0,1,417,302.3Zm0-2.84c-.51,0-.67.37-.67,1.34s.15,1.33.67,1.33.67-.37.67-1.33S417.54,299.47,417,299.47Z" transform="translate(-352.29 -285.3)"/><path class="cls-1" d="M418.66,302h.26c.2,0,.21-.11.21-.34v-1.56c0-.48,0-.59-.18-.59h-.28v-.17h.62a.91.91,0,0,0,.39-.09V300h0a1,1,0,0,1,.83-.67.46.46,0,0,1,.51.44.34.34,0,0,1-.37.38c-.16,0-.32-.07-.32-.24a1,1,0,0,1,0-.15s-.07,0-.11,0c-.35,0-.54.38-.54,1.41v.62c0,.26,0,.34.21.34h.34v.17h-1.58Z" transform="translate(-352.29 -285.3)"/><path class="cls-1" d="M422.06,300.8c0,1,.15,1.33.67,1.33a.84.84,0,0,0,.88-.9h.23a1,1,0,0,1-1.12,1.07,1.52,1.52,0,0,1,0-3c.81,0,1.18.79,1.16,1.5Zm1.19-.17c0-.68-.15-1.17-.59-1.17s-.58.49-.6,1.17Z" transform="translate(-352.29 -285.3)"/><path class="cls-1" d="M424.24,302h.24c.15,0,.21-.07.21-.39v-1.72c0-.29,0-.38-.21-.38h-.25v-.17h.35a2.12,2.12,0,0,0,.7-.09,5.64,5.64,0,0,0,0,.59v1.77c0,.32.06.39.21.39h.24v.17h-1.48Zm.74-4a.39.39,0,0,1,.39.39.38.38,0,0,1-.39.39.39.39,0,0,1-.39-.39A.4.4,0,0,1,425,298.06Z" transform="translate(-352.29 -285.3)"/><path class="cls-1" d="M427.53,301.71c.6,0,1.13.17,1.13.85s-.75,1-1.38,1-1.31-.1-1.31-.74a.66.66,0,0,1,.64-.63h0a.49.49,0,0,1-.33-.47.52.52,0,0,1,.42-.52h0a.85.85,0,0,1-.61-.83,1,1,0,0,1,1.16-1,1.31,1.31,0,0,1,.27,0,1.32,1.32,0,0,0,.26,0,.81.81,0,0,0,.4-.13.83.83,0,0,1,.4-.13.28.28,0,0,1,.29.32.28.28,0,0,1-.29.31c-.29,0-.21-.29-.33-.29a.81.81,0,0,0-.27.07.92.92,0,0,1,.42.75c0,.89-.83,1-1.22,1s-.63.07-.63.22.13.21.51.21Zm-1.07,1.07c0,.43.34.59.87.59.34,0,.85-.17.85-.59s-.39-.57-.76-.57C426.85,302.21,426.46,302.29,426.46,302.78Zm.25-2.47c0,.41.09.79.57.79s.53-.42.53-.78-.08-.85-.52-.85S426.71,299.88,426.71,300.31Z" transform="translate(-352.29 -285.3)"/><path class="cls-1" d="M429.24,302h.26c.2,0,.21-.11.21-.34v-1.56c0-.48,0-.59-.18-.59h-.29v-.17h.26a2,2,0,0,0,.75-.09v.51h0a1.05,1.05,0,0,1,.93-.51.77.77,0,0,1,.87.84v1.45c0,.36,0,.46.19.46h.25v.17H431V302h.22c.21,0,.23-.1.23-.46v-1.34c0-.34-.11-.68-.54-.68-.58,0-.68.62-.68,1.09v1c0,.26,0,.34.21.34h.24v.17h-1.48Z" transform="translate(-352.29 -285.3)"/><path class="cls-1" d="M436.49,298.1a6.7,6.7,0,0,0,.22.63l1,2.6c.27.7.38.71.56.71h.07v.17H436.8V302h.13c.26,0,.31,0,.31-.14a.77.77,0,0,0-.06-.26l-.3-.76H435.3l-.2.48a1.49,1.49,0,0,0-.15.51c0,.18.17.18.38.18h.07v.17h-1.17V302h.06c.17,0,.31-.06.45-.39l1.24-3a4.27,4.27,0,0,0,.21-.58Zm.31,2.62-.7-1.77-.74,1.77Z" transform="translate(-352.29 -285.3)"/><path class="cls-1" d="M438.68,302h.26c.2,0,.21-.11.21-.34v-2.15h-.45v-.17h.45V299c0-.63.26-1.15,1-1.15.39,0,.75.18.75.59a.33.33,0,0,1-.35.36.29.29,0,0,1-.32-.29c0-.23.17-.25.17-.31s-.13-.18-.24-.18c-.39,0-.44.34-.44,1v.36h.57v.17h-.57v2.16c0,.25,0,.33.24.33h.33v.17h-1.61Z" transform="translate(-352.29 -285.3)"/><path class="cls-1" d="M440.76,302H441c.2,0,.21-.11.21-.34v-2.15h-.45v-.17h.45V299c0-.63.26-1.15,1-1.15.39,0,.75.18.75.59a.33.33,0,0,1-.35.36.29.29,0,0,1-.32-.29c0-.23.17-.25.17-.31s-.13-.18-.24-.18c-.39,0-.44.34-.44,1v.36h.57v.17h-.57v2.16c0,.25,0,.33.24.33h.33v.17h-1.61Z" transform="translate(-352.29 -285.3)"/><path class="cls-1" d="M445.63,301.6c0,.42-.12.71-.59.71a.51.51,0,0,1-.55-.38.85.85,0,0,1-.78.38.78.78,0,0,1-.89-.8c0-.65.73-1,1.32-1h.34V300c0-.32-.05-.55-.43-.55-.1,0-.43,0-.43.19s.09.13.09.3a.32.32,0,0,1-.34.31.36.36,0,0,1-.37-.39c0-.49.75-.58,1-.58.6,0,1,.21,1,.84v1.69c0,.11,0,.21.16.21s.22-.26.22-.44v-.14h.2Zm-1.15-.89-.3,0a.75.75,0,0,0-.76.82c0,.34.16.57.51.57a.55.55,0,0,0,.55-.55Z" transform="translate(-352.29 -285.3)"/><path class="cls-1" d="M446,302h.24c.15,0,.21-.07.21-.39v-1.72c0-.29,0-.38-.2-.38H446v-.17h.35a2.13,2.13,0,0,0,.7-.09,5.32,5.32,0,0,0,0,.59v1.77c0,.32.06.39.21.39h.25v.17H446Zm.74-4a.39.39,0,0,1,.39.39.38.38,0,0,1-.39.39.39.39,0,0,1-.39-.39A.4.4,0,0,1,446.74,298.06Z" transform="translate(-352.29 -285.3)"/><path class="cls-1" d="M447.87,302h.26c.2,0,.21-.11.21-.34v-1.56c0-.48,0-.59-.18-.59h-.29v-.17h.62a.91.91,0,0,0,.39-.09V300h0a1,1,0,0,1,.83-.67.46.46,0,0,1,.51.44.34.34,0,0,1-.37.38c-.16,0-.32-.07-.32-.24a1.07,1.07,0,0,1,0-.15s-.07,0-.11,0c-.35,0-.54.38-.54,1.41v.62c0,.26,0,.34.21.34h.34v.17h-1.58Z" transform="translate(-352.29 -285.3)"/><path class="cls-1" d="M452.66,300.17h-.17a.78.78,0,0,0-.79-.71.51.51,0,0,0-.53.53c0,.8,1.65.18,1.65,1.37a1,1,0,0,1-1.07.93,2,2,0,0,1-.41-.05,1.75,1.75,0,0,0-.34,0,.47.47,0,0,0-.27.09h0v-1h.16a.83.83,0,0,0,.87.8.53.53,0,0,0,.57-.56c0-.88-1.61-.18-1.61-1.38a.91.91,0,0,1,1-.89,1.65,1.65,0,0,1,.36,0,1.65,1.65,0,0,0,.28,0,.58.58,0,0,0,.27-.08h0Z" transform="translate(-352.29 -285.3)"/><path class="cls-1" d="M457.9,301.6c0,.42-.12.71-.59.71a.51.51,0,0,1-.55-.38.85.85,0,0,1-.78.38.78.78,0,0,1-.89-.8c0-.65.73-1,1.32-1h.34V300c0-.32-.05-.55-.43-.55-.1,0-.43,0-.43.19s.09.13.09.3a.33.33,0,0,1-.34.31.36.36,0,0,1-.37-.39c0-.49.75-.58,1-.58.6,0,1,.21,1,.84v1.69c0,.11,0,.21.16.21s.22-.26.22-.44v-.14h.2Zm-1.15-.89-.3,0a.76.76,0,0,0-.76.82c0,.34.16.57.51.57a.55.55,0,0,0,.55-.55Z" transform="translate(-352.29 -285.3)"/><path class="cls-1" d="M458.28,302h.26c.2,0,.21-.11.21-.34v-1.56c0-.48,0-.59-.18-.59h-.29v-.17h.26a2,2,0,0,0,.75-.09v.51h0a1.05,1.05,0,0,1,.93-.51.77.77,0,0,1,.87.84v1.45c0,.36,0,.46.19.46h.25v.17h-1.45V302h.22c.21,0,.23-.1.23-.46v-1.34c0-.34-.11-.68-.54-.68-.58,0-.68.62-.68,1.09v1c0,.26,0,.34.21.34h.24v.17h-1.48Z" transform="translate(-352.29 -285.3)"/><path class="cls-1" d="M462.94,299.3a.93.93,0,0,1,.86.52h0v-1.24c0-.36,0-.44-.18-.44h-.27V298h1v3.59c0,.42,0,.49.21.49h.25v.17h-1v-.46h0a1,1,0,0,1-.89.55c-.71,0-1.07-.74-1.07-1.51S462.14,299.3,462.94,299.3Zm.88,1.49c0-.89-.29-1.22-.74-1.22s-.58.54-.58,1.22.07,1.25.58,1.25S463.82,301.63,463.82,300.79Z" transform="translate(-352.29 -285.3)"/><path class="cls-1" d="M467.74,302H468c.23,0,.23-.11.23-.6v-3.13h-.31a.8.8,0,0,0-.88.83h-.2v-1h3.42v1h-.2a.8.8,0,0,0-.88-.83h-.31v3.13c0,.49,0,.6.23.6h.27v.17h-1.64Z" transform="translate(-352.29 -285.3)"/><path class="cls-1" d="M470.26,302h.26c.2,0,.21-.11.21-.34v-1.56c0-.48,0-.59-.18-.59h-.28v-.17h.62a.92.92,0,0,0,.39-.09V300h0a1,1,0,0,1,.83-.67.46.46,0,0,1,.51.44.34.34,0,0,1-.37.38c-.16,0-.33-.07-.33-.24a1,1,0,0,1,0-.15s-.07,0-.11,0c-.35,0-.54.38-.54,1.41v.62c0,.26,0,.34.2.34h.34v.17h-1.58Z" transform="translate(-352.29 -285.3)"/><path class="cls-1" d="M475.86,301.6c0,.42-.12.71-.59.71a.51.51,0,0,1-.55-.38.84.84,0,0,1-.78.38.78.78,0,0,1-.89-.8c0-.65.74-1,1.32-1h.34V300c0-.32-.05-.55-.43-.55-.1,0-.43,0-.43.19s.09.13.09.3a.33.33,0,0,1-.34.31.36.36,0,0,1-.37-.39c0-.49.75-.58,1-.58.6,0,1,.21,1,.84v1.69c0,.11,0,.21.16.21s.22-.26.22-.44v-.14h.2Zm-1.15-.89-.29,0a.76.76,0,0,0-.76.82c0,.34.16.57.51.57a.55.55,0,0,0,.55-.55Z" transform="translate(-352.29 -285.3)"/><path class="cls-1" d="M477.38,299.3a.93.93,0,0,1,.86.52h0v-1.24c0-.36,0-.44-.18-.44h-.27V298h1v3.59c0,.42,0,.49.21.49h.25v.17h-1v-.46h0a1,1,0,0,1-.89.55c-.71,0-1.07-.74-1.07-1.51S476.58,299.3,477.38,299.3Zm.88,1.49c0-.89-.29-1.22-.74-1.22s-.58.54-.58,1.22.07,1.25.58,1.25S478.27,301.63,478.27,300.79Z" transform="translate(-352.29 -285.3)"/><path class="cls-1" d="M480.24,300.8c0,1,.15,1.33.67,1.33a.84.84,0,0,0,.88-.9H482a1,1,0,0,1-1.12,1.07,1.52,1.52,0,0,1,0-3c.81,0,1.18.79,1.16,1.5Zm1.19-.17c0-.68-.15-1.17-.59-1.17s-.58.49-.6,1.17Z" transform="translate(-352.29 -285.3)"/><path class="cls-1" d="M358.55,285.33l-2.44,2.24.47.66.12-.11c1.41,2,3,3.13,4.55,3.13a4.83,4.83,0,0,0,3-.92A1.39,1.39,0,0,1,365,290c.09,0,.22,0,.27.36l0,.09.33-.13v-.06a.63.63,0,0,0-.59-.57,1.76,1.76,0,0,0-.9.38,4.69,4.69,0,0,1-2.82.85c-1.54,0-3.22-1.23-4.51-3.3.24-.22,1.73-1.6,2-1.9.63,1,2.19,3.14,4.12,3.14a2.38,2.38,0,0,0,.94-.27,3.3,3.3,0,0,1,1.4-.36,1.65,1.65,0,0,1,1.51.77,1.7,1.7,0,0,1,.12,1.56l0,0,.28.34,0-.11a2.07,2.07,0,0,0-.13-2,2.15,2.15,0,0,0-1.81-.92,4.18,4.18,0,0,0-1.55.4,2.5,2.5,0,0,1-.78.24c-1.3,0-2.78-1.17-4-3.14l0,0-.36-.09Z" transform="translate(-352.29 -285.3)"/><path class="cls-1" d="M354.39,304.8l-.19.14.71,1.15a4.17,4.17,0,0,1,.87,1.83c0,.28,0,.33-.06.33l-.07,0a.71.71,0,0,0-.38-.12.61.61,0,0,0-.63.63.63.63,0,0,0,.23.5.83.83,0,0,0,.6.15.57.57,0,0,0,0,.08.48.48,0,0,0,.09.28.64.64,0,0,0,.56.23c1.25,0,3.26-1.57,3.91-3.06l0-.08-.4-.1,0,.07a5.05,5.05,0,0,1-3.55,2.86.31.31,0,0,1-.28-.12.51.51,0,0,1,0-.46l.11-.2-.2.09a1.27,1.27,0,0,1-.35.07c-.3,0-.41-.17-.41-.33a.29.29,0,0,1,.26-.32.48.48,0,0,1,.28.1l.22.09c.38,0,.38-.52.38-.7a4.23,4.23,0,0,0-.94-2l-.74-1.17Z" transform="translate(-352.29 -285.3)"/><path class="cls-1" d="M356.67,287.85a16.74,16.74,0,0,0-1.62,1.88l0,.06.19.16,0-.07a13,13,0,0,1,1.6-1.81l0,0-.16-.25Z" transform="translate(-352.29 -285.3)"/><path class="cls-1" d="M354.5,290.52a13,13,0,0,0-2.22,7.17,13.41,13.41,0,0,0,1.47,6.46l0,.1L354,304l0,0a13.3,13.3,0,0,1,.7-13.27l0,0-.17-.2Z" transform="translate(-352.29 -285.3)"/><path class="cls-1" d="M358.14,289.63a11.14,11.14,0,0,0-3.31,8.26,11.49,11.49,0,0,0,4,8.85l.25-.28,0,0a10.9,10.9,0,0,1-3.85-8.52,10.76,10.76,0,0,1,3.26-8l.06-.05-.29-.26Z" transform="translate(-352.29 -285.3)"/><path class="cls-1" d="M367.25,291.05a1,1,0,0,0-.29-.76,1.13,1.13,0,0,0-.81-.32c-.71,0-1.06.37-1.51,1.11l0,.08h0L357,304.64l.18.22,7.62-13.61h0l0-.05.08-.14a.3.3,0,0,1,.27-.16c.06,0,.12.08.12.18l-.06.19-.08.21-6.46,15.12.1,0,0,.1,3,.68,5.41-15A1.7,1.7,0,0,0,367.25,291.05Zm-.3,1.23L361.61,307l-2.49-.55,6.31-14.9.12-.29.06-.2a.37.37,0,0,0-.36-.42h0a1,1,0,0,1,.85-.37.78.78,0,0,1,.85.88,1.19,1.19,0,0,1,.12.5A2,2,0,0,1,367,292.28Z" transform="translate(-352.29 -285.3)"/><path class="cls-1" d="M354.18,290a.88.88,0,0,0,.32.58,1.64,1.64,0,0,1,.54,1.22l-.08.2a14,14,0,0,0-1.38,5.75,15.38,15.38,0,0,0,.75,4.48l.06.21a2.47,2.47,0,0,1-.65,1.55,1.19,1.19,0,0,0-.35.67.54.54,0,0,0,.6.56c.67,0,.95-1,.95-1.61a6,6,0,0,0-.32-1.4,15.16,15.16,0,0,1-.76-4.46,13.54,13.54,0,0,1,1.38-5.68,4.26,4.26,0,0,0,.46-1.33c0-.76-.37-1.34-.87-1.34A.58.58,0,0,0,354.18,290Zm.53.35c-.12-.14-.22-.26-.22-.35,0-.25.18-.3.32-.3.32,0,.58.48.58,1a1.85,1.85,0,0,1-.15.57A2.18,2.18,0,0,0,354.71,290.35Zm-1,14.31a1,1,0,0,1,.29-.52,2.75,2.75,0,0,0,.57-1.05,2.57,2.57,0,0,1,.08.54c0,.62-.27,1.31-.64,1.31C353.79,304.93,353.69,304.85,353.69,304.66Z" transform="translate(-352.29 -285.3)"/><path class="cls-1" d="M356,289.54l-.15,0v.06a.64.64,0,0,0,.7.66.68.68,0,0,0,.7-.66v-.07H357v.08a.45.45,0,0,1-.91,0v-.09Z" transform="translate(-352.29 -285.3)"/><path class="cls-1" d="M355.87,289.63v.09l.24,0v-.06a.43.43,0,0,1,.45-.43.41.41,0,0,1,.45.44v.07h.26v-.08a.7.7,0,0,0-1.4,0Z" transform="translate(-352.29 -285.3)"/><path class="cls-1" d="M355.39,305.36a.83.83,0,0,0,.82.88.71.71,0,0,0,.8-.73v-.07h-.29v.08a.44.44,0,0,1-.5.47.57.57,0,0,1-.58-.6v-.07l-.25,0Z" transform="translate(-352.29 -285.3)"/><path class="cls-1" d="M355.39,305.36v.07l.25,0v-.08a.46.46,0,0,1,.49-.48.58.58,0,0,1,.6.61v.07H357v-.08a.84.84,0,0,0-.89-.85A.7.7,0,0,0,355.39,305.36Z" transform="translate(-352.29 -285.3)"/><path class="cls-1" d="M363.23,296.28l0,0,.06.25,3.6-3.46.22-.33-.11-.1Z" transform="translate(-352.29 -285.3)"/><path class="cls-1" d="M364.94,292.4s.28,5,.28,5v.17l.22-.22-.28-5.12-.14,0Z" transform="translate(-352.29 -285.3)"/><polygon class="cls-1" points="11.67 15.63 7.46 19.14 7.33 19.6 11.73 15.92 11.85 15.48 11.67 15.63"/><path class="cls-1" d="M361.81,299.69l-.09.21s.53,5.6.53,5.6v.12l.25-.15-.59-6Z" transform="translate(-352.29 -285.3)"/><polygon class="cls-1" points="5.3 3.67 5.11 3.59 5.11 18.96 5.38 18.53 5.38 3.74 5.3 3.67"/><polygon class="cls-1" points="6.22 4.49 6.03 4.49 6.03 17.36 6.29 16.9 6.29 4.49 6.22 4.49"/><polygon class="cls-1" points="7.13 5.13 6.94 5.13 6.94 15.78 7.21 15.29 7.21 5.13 7.13 5.13"/><polygon class="cls-1" points="8.05 5.54 7.86 5.54 7.86 14 8 13.9 8.12 13.66 8.12 5.54 8.05 5.54"/><polygon class="cls-1" points="8.96 5.71 8.78 5.71 8.78 12.38 8.92 12.28 9.04 12.03 9.04 5.71 8.96 5.71"/><polygon class="cls-1" points="9.88 5.64 9.69 5.64 9.69 10.75 9.83 10.69 9.96 10.42 9.96 5.64 9.88 5.64"/><polygon class="cls-1" points="10.79 5.42 10.61 5.42 10.61 9.13 10.75 9.01 10.87 8.73 10.87 5.42 10.79 5.42"/><polygon class="cls-1" points="11.71 4.98 11.52 4.98 11.52 7.5 11.67 7.4 11.79 7.11 11.79 4.98 11.71 4.98"/><path class="cls-1" d="M351.67,295.64" transform="translate(-352.29 -285.3)"/></svg>