<?xml version="1.0" encoding="utf-8"?>
<!-- Generator: Adobe Illustrator 21.1.0, SVG Export Plug-In . SVG Version: 6.00 Build 0)  -->
<svg version="1.1" id="Layer_1" xmlns="http://www.w3.org/2000/svg" xmlns:xlink="http://www.w3.org/1999/xlink" x="0px" y="0px"
	 viewBox="0 0 100 100" style="enable-background:new 0 0 100 100;" xml:space="preserve">
<path style="fill:#323232;" d="M96.5,22.5h-93C1.6,22.5,0,20.9,0,19v0c0-1.9,1.6-3.5,3.5-3.5h93c1.9,0,3.5,1.6,3.5,3.5v0
	C100,20.9,98.4,22.5,96.5,22.5z"/>
<path style="fill:#323232;" d="M96.5,53.5h-93C1.6,53.5,0,51.9,0,50v0c0-1.9,1.6-3.5,3.5-3.5h93c1.9,0,3.5,1.6,3.5,3.5v0
	C100,51.9,98.4,53.5,96.5,53.5z"/>
<path style="fill:#323232;" d="M96.5,84.5h-93C1.6,84.5,0,82.9,0,81l0,0c0-1.9,1.6-3.5,3.5-3.5h93c1.9,0,3.5,1.6,3.5,3.5l0,0
	C100,82.9,98.4,84.5,96.5,84.5z"/>
</svg>
