<?xml version="1.0" encoding="utf-8"?>
<!-- Generator: Adobe Illustrator 21.0.2, SVG Export Plug-In . SVG Version: 6.00 Build 0)  -->
<svg version="1.1"
	 id="Layer_1" xmlns:cc="http://creativecommons.org/ns#" xmlns:dc="http://purl.org/dc/elements/1.1/" xmlns:inkscape="http://www.inkscape.org/namespaces/inkscape" xmlns:rdf="http://www.w3.org/1999/02/22-rdf-syntax-ns#" xmlns:sodipodi="http://sodipodi.sourceforge.net/DTD/sodipodi-0.dtd" xmlns:svg="http://www.w3.org/2000/svg"
	 xmlns="http://www.w3.org/2000/svg" xmlns:xlink="http://www.w3.org/1999/xlink" x="0px" y="0px" viewBox="0 0 100 100"
	 style="enable-background:new 0 0 100 100;" xml:space="preserve">
<g transform="translate(0,-952.36218)">
	<path style="fill:#006845;" d="M100,1002.4c0-27.6-22.4-50-50-50s-50,22.4-50,50s22.4,50,50,50S100,1030,100,1002.4z M95,1002.4
		c0,24.9-20.1,45-45,45s-45-20.1-45-45s20.1-45,45-45S95,977.5,95,1002.4z M57.5,974.9c0-4.1-3.4-7.5-7.5-7.5s-7.5,3.4-7.5,7.5
		s3.4,7.5,7.5,7.5S57.5,979,57.5,974.9z M57.5,1002.4c0-4.1-3.4-7.5-7.5-7.5s-7.5,3.4-7.5,7.5s3.4,7.5,7.5,7.5
		S57.5,1006.5,57.5,1002.4z M57.5,1029.9c0-4.1-3.4-7.5-7.5-7.5s-7.5,3.4-7.5,7.5s3.4,7.5,7.5,7.5S57.5,1034,57.5,1029.9z"/>
</g>
</svg>
