<?xml version="1.0" encoding="utf-8"?>
<!-- Generator: Adobe Illustrator 21.0.2, SVG Export Plug-In . SVG Version: 6.00 Build 0)  -->
<svg version="1.1"
	 id="Layer_1" xmlns:cc="http://creativecommons.org/ns#" xmlns:dc="http://purl.org/dc/elements/1.1/" xmlns:inkscape="http://www.inkscape.org/namespaces/inkscape" xmlns:rdf="http://www.w3.org/1999/02/22-rdf-syntax-ns#" xmlns:sodipodi="http://sodipodi.sourceforge.net/DTD/sodipodi-0.dtd" xmlns:svg="http://www.w3.org/2000/svg"
	 xmlns="http://www.w3.org/2000/svg" xmlns:xlink="http://www.w3.org/1999/xlink" x="0px" y="0px" viewBox="0 0 100 100"
	 style="enable-background:new 0 0 100 100;" xml:space="preserve">
<style type="text/css">
	.st0{fill:#006845;}
	.st1{display:none;enable-background:new    ;}
	.st2{display:inline;}
	.st3{fill:#FFFFFF;}
</style>
<path class="st0" d="M50,10c-22.1,0-40,17.9-40,40s17.9,40,40,40s40-17.9,40-40S72.1,10,50,10z M50,14c19.9,0,36,16.1,36,36
	S69.9,86,50,86S14,69.9,14,50S30.1,14,50,14z M28,44c-3.3,0-6,2.7-6,6s2.7,6,6,6s6-2.7,6-6S31.3,44,28,44z M50,44c-3.3,0-6,2.7-6,6
	s2.7,6,6,6s6-2.7,6-6S53.3,44,50,44z M72,44c-3.3,0-6,2.7-6,6s2.7,6,6,6s6-2.7,6-6S75.3,44,72,44z"/>
<text transform="matrix(1 0 0 1 0 115)" class="st1" style="font-family:'Arial-BoldMT'; font-size:5px;">Created by unlimicon</text>
<text transform="matrix(1 0 0 1 0 120)" class="st1" style="font-family:'Arial-BoldMT'; font-size:5px;">from the Noun Project</text>
<circle class="st0" cx="50" cy="50" r="40"/>
<circle class="st3" cx="50" cy="50" r="6"/>
<circle class="st3" cx="28.3" cy="50" r="6"/>
<circle class="st3" cx="72.3" cy="50" r="6"/>
</svg>
