<?xml version="1.0" encoding="utf-8"?>
<!-- Generator: Adobe Illustrator 21.0.2, SVG Export Plug-In . SVG Version: 6.00 Build 0)  -->
<svg version="1.1"
	 id="Layer_1" xmlns:cc="http://creativecommons.org/ns#" xmlns:dc="http://purl.org/dc/elements/1.1/" xmlns:inkscape="http://www.inkscape.org/namespaces/inkscape" xmlns:rdf="http://www.w3.org/1999/02/22-rdf-syntax-ns#" xmlns:sodipodi="http://sodipodi.sourceforge.net/DTD/sodipodi-0.dtd" xmlns:svg="http://www.w3.org/2000/svg"
	 xmlns="http://www.w3.org/2000/svg" xmlns:xlink="http://www.w3.org/1999/xlink" x="0px" y="0px" viewBox="0 0 100 100"
	 style="enable-background:new 0 0 100 100;" xml:space="preserve">
<g transform="translate(0,-952.36218)">
	<path style="fill:#FFFFFF;" d="M34,958.4c-4.4,0-8,3.6-8,8v72c0,4.4,3.6,8,8,8h32c4.4,0,8-3.6,8-8v-72c0-4.4-3.6-8-8-8H34z
		 M34,962.4h32c2.3,0,4,1.7,4,4v2H30v-2C30,964.1,31.7,962.4,34,962.4z M30,972.4h40v56H30V972.4z M30,1032.4h40v6c0,2.3-1.7,4-4,4
		H34c-2.3,0-4-1.7-4-4V1032.4z M42.8,1035.4c-1,0-2,1-1.9,2.1c0,1,1,2,2.1,1.9h14c1.1,0,2-0.9,2-2s-1-2-2-2H43
		C42.9,1035.4,42.9,1035.4,42.8,1035.4z"/>
</g>
<text transform="matrix(1 0 0 1 0 115)" style="display:none;enable-background:new    ; font-family:'Arial-BoldMT'; font-size:5px;">Created by Icons Bazaar</text>
<text transform="matrix(1 0 0 1 0 120)" style="display:none;enable-background:new    ; font-family:'Arial-BoldMT'; font-size:5px;">from the Noun Project</text>
</svg>
