<?xml version="1.0" encoding="utf-8"?>
<!-- Generator: Adobe Illustrator 21.0.2, SVG Export Plug-In . SVG Version: 6.00 Build 0)  -->
<svg version="1.1" id="Layer_1" xmlns="http://www.w3.org/2000/svg" xmlns:xlink="http://www.w3.org/1999/xlink" x="0px" y="0px"
	 viewBox="0 0 82.4 103" style="enable-background:new 0 0 82.4 103;" xml:space="preserve">
<path style="fill:#006845;" d="M56.9,14.6c-4.6,0-16.6,9.3-25.8,18.6c-8.2-0.5-18.4-0.4-20,1.3c-3.4,3.7-1.7,29.3,0,30.8
	c1.4,1.2,13.1,2.1,21.6,1.7c9.5,9.3,21.2,18.4,24.6,18.4c4.1,0,1.5-7.3,1.5-35.9C58.9,22.4,61.1,14.6,56.9,14.6z M68.1,36.6
	c-1-1-2.7-1-3.7,0s-1,2.7,0,3.7c5.8,5.8,5.8,15.3,0,21.1c-1,1-1,2.7,0,3.7c0.5,0.5,1.2,0.8,1.9,0.8s1.4-0.3,1.9-0.8
	C75.9,57.2,75.9,44.4,68.1,36.6z"/>
<text transform="matrix(1 0 0 1 0 115)" style="display:none;enable-background:new    ; font-family:'Arial-BoldMT'; font-size:5px;">Created by Luke Peek</text>
<text transform="matrix(1 0 0 1 0 120)" style="display:none;enable-background:new    ; font-family:'Arial-BoldMT'; font-size:5px;">from the Noun Project</text>
</svg>
