<?xml version="1.0" encoding="utf-8"?>
<!-- Generator: Adobe Illustrator 21.0.2, SVG Export Plug-In . SVG Version: 6.00 Build 0)  -->
<svg version="1.1"
	 id="Layer_1" xmlns:cc="http://creativecommons.org/ns#" xmlns:dc="http://purl.org/dc/elements/1.1/" xmlns:inkscape="http://www.inkscape.org/namespaces/inkscape" xmlns:rdf="http://www.w3.org/1999/02/22-rdf-syntax-ns#" xmlns:sodipodi="http://sodipodi.sourceforge.net/DTD/sodipodi-0.dtd" xmlns:svg="http://www.w3.org/2000/svg"
	 xmlns="http://www.w3.org/2000/svg" xmlns:xlink="http://www.w3.org/1999/xlink" x="0px" y="0px" viewBox="0 0 100 100"
	 style="enable-background:new 0 0 100 100;" xml:space="preserve">
<g transform="translate(0,-952.36218)">
	<path style="fill:#FFFFFF;" d="M50,952.9c-12.7,0-25.4,4.8-35,14.5c-19.3,19.3-19.3,50.7,0,70c19.3,19.3,50.7,19.3,70,0
		c19.3-19.3,19.3-50.7,0-70C75.4,957.7,62.7,952.9,50,952.9z M50,959.6c10.9,0,21.9,4.2,30.3,12.5c16.7,16.7,16.7,43.8,0,60.5
		c-16.7,16.7-43.8,16.7-60.5,0c-16.7-16.7-16.7-43.7,0-60.5C28.1,963.8,39.1,959.6,50,959.6z M50,973.9c-0.1,0-0.2,0-0.4,0
		c-1.7,0.2-3,1.7-3,3.4v36.2c0,1.9,1.5,3.4,3.3,3.4s3.4-1.5,3.4-3.3c0,0,0-0.1,0-0.1v-36.2c0-1.9-1.4-3.4-3.3-3.4
		C50,973.9,50,973.9,50,973.9L50,973.9z M50,1021.9c-2.4,0-4.5,2-4.5,4.4c0,2.4,2,4.5,4.5,4.5c2.4,0,4.5-2,4.5-4.5
		C54.5,1023.9,52.4,1021.9,50,1021.9L50,1021.9z"/>
</g>
</svg>
