<svg viewBox="0 0 100 100" xmlns="http://www.w3.org/2000/svg"><symbol viewBox="0 0 100 100" id="arrow-short"><title>arrow-short</title> <polygon points="88.9,52.6 1,52.6 1,47.4 88.9,47.4 56.5,15 60.2,11.2 99,50 60.2,88.8 56.5,85 "/> </symbol><symbol viewBox="0 0 100 100" id="arrow"><title>arrow</title> <polygon points="89,47.4 67.2,25.7 71,22 99,50 71,78 67.2,74.3 89,52.6 1,52.6 1,47.4 "/> </symbol><symbol viewBox="0 0 100 100" id="circles"><title>circles</title> <style type="text/css"> .st0{fill:#FFFFFF;} </style> <path class="st0" d="M33.7,66.3C15.6,66.3,1,51.7,1,33.7S15.6,1,33.7,1s32.7,14.6,32.7,32.7c18,0,32.7,14.6,32.7,32.7
	S84.4,99,66.3,99S33.7,84.4,33.7,66.3z M60.9,33.7c0-15-12.2-27.2-27.2-27.2S6.4,18.6,6.4,33.7s12.2,27.2,27.2,27.2
	c0.2,0,0.3,0,0.5,0c2.3-13.7,13.1-24.5,26.8-26.8C60.9,34,60.9,33.8,60.9,33.7z M66.3,39.1c-15,0-27.2,12.2-27.2,27.2
	s12.2,27.2,27.2,27.2s27.2-12.2,27.2-27.2S81.4,39.1,66.3,39.1z"/> </symbol><symbol viewBox="0 0 100 100" id="close-x"><title>close-x</title> <polygon points="43.5,50 1,7.5 7.5,1 50,43.5 92.5,1 99,7.5 56.5,50 99,92.5 92.5,99 50,56.5 7.5,99 1,92.5 "/> </symbol><symbol viewBox="0 0 100 100" id="design"><title>design</title> <style type="text/css"> .st0{fill:#FFFFFF;} </style> <path class="st0" d="M20.6,25.5H1v-4.9h19.6V1h4.9v19.6h53.9v53.9H99v4.9H79.4V99h-4.9V79.4H20.6V25.5z M25.5,25.5v49h49v-49H25.5z"/> </symbol><symbol viewBox="0 0 100 100" id="eye"><title>eye</title> <path d="M1.5,48.9C9.5,30.1,28.7,17.5,50,17.5s40.5,12.6,48.5,31.4L99,50l-0.5,1.1C90.5,69.9,71.3,82.5,50,82.5S9.5,69.9,1.5,51.1
	L1,50L1.5,48.9z M50,77.1c18.7,0,35.6-10.9,43.1-27.1C85.6,33.8,68.7,22.9,50,22.9S14.4,33.8,6.9,50C14.4,66.2,31.3,77.1,50,77.1z
	 M50,63.5c-7.5,0-13.5-6.1-13.5-13.5S42.5,36.5,50,36.5S63.5,42.5,63.5,50S57.5,63.5,50,63.5z M50,58.1c4.5,0,8.1-3.6,8.1-8.1
	s-3.6-8.1-8.1-8.1s-8.1,3.6-8.1,8.1S45.5,58.1,50,58.1z"/> </symbol><symbol viewBox="0 0 100 100" id="grid-thin"><title>grid-thin</title> <path d="M48.1,48.3V2.2H2v46.1H48.1z M4.8,5h40.5v40.5H4.8V5z M98,2.2H51.9v46.1H98V2.2z M95.2,45.5H54.7V5h40.5V45.5z M48.1,51.7H2
	v46.1h46.1V51.7z M45.3,95H4.8V54.5h40.5V95z M98,51.7H51.9v46.1H98V51.7z M95.2,95H54.7V54.5h40.5V95z"/> </symbol><symbol viewBox="0 0 100 100" id="home copy"><title>home copy</title> <path d="M97.7,98H2.3V34.5L50,2l47.7,32.5V98z M92.4,37.3L50,8.4L7.6,37.3v55.4h84.8V37.3z"/> </symbol><symbol viewBox="0 0 100 100" id="home"><title>home</title> <path d="M97.7,98H2.3V34.5L50,2l47.7,32.5V98z M92.4,37.3L50,8.4L7.6,37.3v55.4h84.8V37.3z"/> </symbol><symbol viewBox="0 0 100 100" id="menu-thin"><title>menu-thin</title> <path d="M99,22v6H1v-6H99z M99,47v6H1v-6H99z M1,74.5v6h98v-6H1z"/> </symbol><symbol viewBox="0 0 100 100" id="move-icon"><title>move-icon</title> <path d="M52.5,83.7l15.4-15.4l3.5,3.5L50,93.1L28.7,71.8l3.5-3.5l15.4,15.4V55.9h4.9V83.7z M1,41.2v-4.9h98v4.9H1z M1,11.8V6.9h98
	v4.9H1z"/> </symbol><symbol viewBox="0 0 100 100" id="pause"><title>pause</title> <path d="M99,1v98H1V1H99z M6.4,6.4v87.1h87.1V6.4H6.4z M39.4,71h-5.4V30h5.4V71z M66.1,71h-5.4V30h5.4V71z"/> </symbol><symbol viewBox="0 0 100 100" id="play"><title>play</title> <path d="M50,99C22.9,99,1,77.1,1,50S22.9,1,50,1s49,21.9,49,49S77.1,99,50,99z M50,93.6c24.1,0,43.6-19.5,43.6-43.6S74.1,6.4,50,6.4
	S6.4,25.9,6.4,50S25.9,93.6,50,93.6z M36.4,75.8V24.2L75.1,50L36.4,75.8z M41.8,34.4v31.2L65.3,50L41.8,34.4z"/> </symbol><symbol viewBox="0 0 100 100" id="text-icon-thin"><title>text-icon-thin</title> <path d="M99,1v98H1V1H99z M5.4,5.4v89.1h89.1V5.4H5.4z M77.2,63.6V69H22.8v-5.4H77.2z M77.2,30.9v5.4H22.8v-5.4H77.2z"/> </symbol></svg>