<?xml version="1.0" encoding="utf-8"?>
<!-- Generator: Adobe Illustrator 22.1.0, SVG Export Plug-In . SVG Version: 6.00 Build 0)  -->
<svg version="1.1" id="Layer_1" xmlns="http://www.w3.org/2000/svg" xmlns:xlink="http://www.w3.org/1999/xlink" x="0px" y="0px"
	 viewBox="0 0 100 100" style="enable-background:new 0 0 100 100;" xml:space="preserve">
<style type="text/css">
	.st0{fill:#FFFFFF;}
</style>
<path class="st0" d="M33.7,66.3C15.6,66.3,1,51.7,1,33.7S15.6,1,33.7,1s32.7,14.6,32.7,32.7c18,0,32.7,14.6,32.7,32.7
	S84.4,99,66.3,99S33.7,84.4,33.7,66.3z M60.9,33.7c0-15-12.2-27.2-27.2-27.2S6.4,18.6,6.4,33.7s12.2,27.2,27.2,27.2
	c0.2,0,0.3,0,0.5,0c2.3-13.7,13.1-24.5,26.8-26.8C60.9,34,60.9,33.8,60.9,33.7z M66.3,39.1c-15,0-27.2,12.2-27.2,27.2
	s12.2,27.2,27.2,27.2s27.2-12.2,27.2-27.2S81.4,39.1,66.3,39.1z"/>
</svg>
