<?xml version="1.0" encoding="utf-8"?>
<!-- Generator: Adobe Illustrator 21.0.1, SVG Export Plug-In . SVG Version: 6.00 Build 0)  -->
<svg version="1.1"
	 id="Layer_1" xmlns:cc="http://creativecommons.org/ns#" xmlns:dc="http://purl.org/dc/elements/1.1/" xmlns:inkscape="http://www.inkscape.org/namespaces/inkscape" xmlns:rdf="http://www.w3.org/1999/02/22-rdf-syntax-ns#" xmlns:sodipodi="http://sodipodi.sourceforge.net/DTD/sodipodi-0.dtd" xmlns:svg="http://www.w3.org/2000/svg"
	 xmlns="http://www.w3.org/2000/svg" xmlns:xlink="http://www.w3.org/1999/xlink" x="0px" y="0px" viewBox="0 0 100 100"
	 style="enable-background:new 0 0 100 100;" xml:space="preserve">
<style type="text/css">
	.st0{fill:#323232;}
</style>
<g transform="translate(0,-952.36218)">
	<path class="st0" d="M50,960.4c-23.2,0-42,18.8-42,42c0,23.2,18.8,42,42,42s42-18.8,42-42C92,979.2,73.2,960.4,50,960.4z
		 M27.8,1000.4c0.1,0,0.1,0,0.2,0h44c1.1,0,2,0.9,2,2c0,1.1-0.9,2-2,2c0,0,0,0-0.1,0H28c-1.1,0.1-2-0.8-2.1-1.9
		S26.7,1000.4,27.8,1000.4z"/>
</g>
<text transform="matrix(1 0 0 1 0 115)" style="display:none;enable-background:new    ; font-family:'Arial-BoldMT'; font-size:5px;">Created by Icons Bazaar</text>
<text transform="matrix(1 0 0 1 0 120)" style="display:none;enable-background:new    ; font-family:'Arial-BoldMT'; font-size:5px;">from the Noun Project</text>
</svg>
