<?xml version="1.0" encoding="utf-8"?>
<!-- Generator: Adobe Illustrator 21.0.1, SVG Export Plug-In . SVG Version: 6.00 Build 0)  -->
<svg version="1.1"
	 id="Layer_1" xmlns:cc="http://creativecommons.org/ns#" xmlns:dc="http://purl.org/dc/elements/1.1/" xmlns:inkscape="http://www.inkscape.org/namespaces/inkscape" xmlns:rdf="http://www.w3.org/1999/02/22-rdf-syntax-ns#" xmlns:sodipodi="http://sodipodi.sourceforge.net/DTD/sodipodi-0.dtd" xmlns:svg="http://www.w3.org/2000/svg"
	 xmlns="http://www.w3.org/2000/svg" xmlns:xlink="http://www.w3.org/1999/xlink" x="0px" y="0px" viewBox="0 0 100 100"
	 style="enable-background:new 0 0 100 100;" xml:space="preserve">
<style type="text/css">
	.st0{fill:#006845;}
</style>
<g transform="translate(0,-952.36218)">
	<path class="st0" d="M50,957.4c-24.8,0-45,20.2-45,45s20.2,45,45,45s45-20.2,45-45S74.8,957.4,50,957.4z M50,963.4
		c21.6,0,39,17.4,39,39c0,21.6-17.4,39-39,39s-39-17.4-39-39C11,980.8,28.4,963.4,50,963.4z M32.7,982.3c-1.6,0.2-2.8,1.7-2.7,3.3
		c0.1,0.7,0.4,1.3,0.9,1.8l14.9,14.9l-14.9,14.9c-1.2,1.1-1.4,3-0.3,4.2c1.1,1.2,3,1.4,4.2,0.3c0.1-0.1,0.2-0.2,0.3-0.3l14.9-14.9
		l14.9,14.9c1.1,1.2,3,1.4,4.2,0.3c1.2-1.1,1.4-3,0.3-4.2c-0.1-0.1-0.2-0.2-0.3-0.3l-14.9-14.9l14.9-14.9c1.2-1.2,1.2-3.1,0.1-4.2
		c-0.7-0.7-1.6-1-2.5-0.9c-0.7,0.1-1.3,0.4-1.8,0.9L50,998.1l-14.9-14.9C34.5,982.6,33.6,982.2,32.7,982.3z"/>
</g>
<text transform="matrix(1 0 0 1 0 115)" style="display:none;enable-background:new    ; font-family:'Arial-BoldMT'; font-size:5px;">Created by Icons Bazaar</text>
<text transform="matrix(1 0 0 1 0 120)" style="display:none;enable-background:new    ; font-family:'Arial-BoldMT'; font-size:5px;">from the Noun Project</text>
</svg>
