<?xml version="1.0" encoding="utf-8"?>
<!-- Generator: Adobe Illustrator 21.0.2, SVG Export Plug-In . SVG Version: 6.00 Build 0)  -->
<svg version="1.1"
	 id="Layer_1" xmlns:cc="http://creativecommons.org/ns#" xmlns:dc="http://purl.org/dc/elements/1.1/" xmlns:inkscape="http://www.inkscape.org/namespaces/inkscape" xmlns:rdf="http://www.w3.org/1999/02/22-rdf-syntax-ns#" xmlns:sodipodi="http://sodipodi.sourceforge.net/DTD/sodipodi-0.dtd" xmlns:svg="http://www.w3.org/2000/svg"
	 xmlns="http://www.w3.org/2000/svg" xmlns:xlink="http://www.w3.org/1999/xlink" x="0px" y="0px" viewBox="0 0 100 100"
	 style="enable-background:new 0 0 100 100;" xml:space="preserve">
<path style="fill:#FFFFFF;" d="M50,5C25.2,5,5,25.2,5,50c0,24.8,20.2,45,45,45s45-20.2,45-45S74.8,5,50,5z M50,11
	c21.6,0,39,17.4,39,39S71.6,89,50,89S11,71.6,11,50C11,28.4,28.4,11,50,11z M39.8,24.9c-1.7,0.1-2.9,1.5-2.9,3.1
	c0,0.8,0.4,1.5,1,2.1l21.6,19.8L38,69.7c-1.3,1.1-1.4,3-0.4,4.2c1.1,1.3,3,1.4,4.2,0.4c0.1-0.1,0.1-0.1,0.2-0.2l24-22
	c1.2-1.1,1.3-3,0.2-4.2c-0.1-0.1-0.1-0.1-0.2-0.2l-24-22C41.4,25.2,40.7,24.9,39.8,24.9z"/>
</svg>
