<?xml version="1.0" encoding="utf-8"?>
<!-- Generator: Adobe Illustrator 21.0.1, SVG Export Plug-In . SVG Version: 6.00 Build 0)  -->
<svg version="1.1"
	 id="Layer_1" xmlns:cc="http://creativecommons.org/ns#" xmlns:dc="http://purl.org/dc/elements/1.1/" xmlns:inkscape="http://www.inkscape.org/namespaces/inkscape" xmlns:rdf="http://www.w3.org/1999/02/22-rdf-syntax-ns#" xmlns:sodipodi="http://sodipodi.sourceforge.net/DTD/sodipodi-0.dtd" xmlns:svg="http://www.w3.org/2000/svg"
	 xmlns="http://www.w3.org/2000/svg" xmlns:xlink="http://www.w3.org/1999/xlink" x="0px" y="0px" viewBox="0 0 100 100.3"
	 style="enable-background:new 0 0 100 100.3;" xml:space="preserve">
<style type="text/css">
	.st0{fill:#323232;}
</style>
<g transform="translate(0,-952.36218)">
	<path class="st0" d="M17.7,967.3c-1.6,0.2-2.8,1.7-2.7,3.3c0.1,0.7,0.4,1.3,0.9,1.8l29.9,29.9l-29.9,29.9c-1.2,1.1-1.4,3-0.3,4.2
		s3,1.4,4.2,0.3c0.1-0.1,0.2-0.2,0.3-0.3l29.9-29.9l29.9,29.9c1.1,1.2,3,1.4,4.2,0.3s1.4-3,0.3-4.2c-0.1-0.1-0.2-0.2-0.3-0.3
		l-29.9-29.9l29.9-29.9c1.2-1.2,1.2-3.1,0.1-4.2c-0.7-0.7-1.6-1-2.5-0.9c-0.7,0.1-1.3,0.4-1.8,0.9L50,998.1l-29.9-29.9
		C19.5,967.6,18.6,967.2,17.7,967.3z"/>
</g>
<text transform="matrix(1 0 0 1 0 115)" style="display:none;enable-background:new    ; font-family:'Arial-BoldMT'; font-size:5px;">Created by Icons Bazaar</text>
<text transform="matrix(1 0 0 1 0 120)" style="display:none;enable-background:new    ; font-family:'Arial-BoldMT'; font-size:5px;">from the Noun Project</text>
</svg>
