<?xml version="1.0" encoding="utf-8"?>
<svg version="1.1" xmlns="http://www.w3.org/2000/svg" xmlns:xlink="http://www.w3.org/1999/xlink" x="0px" y="0px"
	 viewBox="0 0 104.3 26.8" style="enable-background:new 0 0 104.3 26.8;" xml:space="preserve">
<style type="text/css">
	.Arched_x0020_Green{fill:url(#SVGID_1_);stroke:#FFFFFF;stroke-width:0.25;stroke-miterlimit:1;}
	.st0{fill:#FFFFFF;}
</style>
<linearGradient id="SVGID_1_" gradientUnits="userSpaceOnUse" x1="-370.8333" y1="310.6136" x2="-370.1262" y2="309.9065">
	<stop  offset="0" style="stop-color:#20AC4B"/>
	<stop  offset="0.9831" style="stop-color:#19361A"/>
</linearGradient>
<g id="Layer_1">
	<g>
		<g>
			<g>
				<g>
					<path class="st0" d="M8.5,1L6.1,3.3l0.5,0.7c0,0,0.1-0.1,0.1-0.1c1.4,2,3,3.1,4.5,3.1c1.6,0,2.5-0.5,3-0.9
						c0.3-0.2,0.5-0.3,0.7-0.3c0.1,0,0.2,0,0.3,0.4l0,0.1L15.5,6l0-0.1c0-0.3-0.2-0.6-0.6-0.6c-0.3,0-0.6,0.2-0.9,0.4
						c-0.6,0.4-1.3,0.8-2.8,0.8C9.7,6.6,8,5.4,6.7,3.3c0.2-0.2,1.7-1.6,2-1.9c0.6,1,2.2,3.1,4.1,3.1c0.3,0,0.6-0.1,0.9-0.3
						c0.4-0.2,0.8-0.4,1.4-0.4c0.9,0,1.3,0.4,1.5,0.8c0.3,0.5,0.3,1.2,0.1,1.6l0,0l0.3,0.3l0-0.1c0.3-0.7,0.2-1.4-0.1-2
						C16.6,4,16,3.6,15.2,3.6c-0.6,0-1.1,0.2-1.5,0.4c-0.3,0.1-0.6,0.2-0.8,0.2c-1.3,0-2.8-1.2-4-3.1l0,0L8.5,1L8.5,1z"/>
				</g>
				<g>
					<path class="st0" d="M4.4,20.5l-0.2,0.1l0.7,1.2c0.5,0.8,0.9,1.4,0.9,1.8c0,0.3,0,0.3-0.1,0.3c0,0-0.1,0-0.1,0
						c-0.1,0-0.2-0.1-0.4-0.1c-0.3,0-0.6,0.2-0.6,0.6c0,0.2,0.1,0.4,0.2,0.5c0.2,0.1,0.4,0.2,0.6,0.2c0,0,0,0.1,0,0.1
						c0,0.1,0,0.2,0.1,0.3c0.1,0.1,0.2,0.2,0.6,0.2c1.3,0,3.3-1.6,3.9-3.1l0-0.1l-0.4-0.1l0,0.1C9,24,7,25.4,6,25.4
						c-0.1,0-0.2,0-0.3-0.1c-0.1-0.1,0-0.3,0-0.5l0.1-0.2l-0.2,0.1c-0.1,0-0.3,0.1-0.3,0.1c-0.3,0-0.4-0.2-0.4-0.3
						c0-0.2,0.1-0.3,0.3-0.3c0.1,0,0.2,0.1,0.3,0.1l0.2,0.1c0.4,0,0.4-0.5,0.4-0.7c0-0.5-0.4-1.1-0.9-2L4.4,20.5L4.4,20.5z"/>
				</g>
				<g>
					<path class="st0" d="M6.6,3.5C6.1,4.1,5.5,4.8,5,5.4l0,0.1l0.2,0.2l0-0.1c0.6-0.9,1.2-1.5,1.6-1.8l0,0L6.6,3.5L6.6,3.5z"/>
				</g>
				<g>
					<path class="st0" d="M4.5,6.2C3,8.5,2.3,10.9,2.3,13.4c0,2.9,0.6,4.7,1.5,6.5l0,0.1L4,19.7l0,0c-0.7-1.4-1.4-3.3-1.4-6.3
						c0-3,1.2-5.5,2.1-7l0,0L4.5,6.2L4.5,6.2z"/>
				</g>
				<g>
					<path class="st0" d="M8.1,5.3c-2.3,2.3-3.3,4.9-3.3,8.3c0,3.5,1.3,6.5,4,8.8L9,22.2l0,0c-2.4-1.9-3.9-5.1-3.9-8.5
						c0-3.2,1.2-6.2,3.3-8l0.1-0.1L8.1,5.3L8.1,5.3z"/>
				</g>
				<g>
					<g>
						<path class="st0" d="M17.2,6.8c0-0.3-0.1-0.6-0.3-0.8c-0.2-0.2-0.5-0.3-0.8-0.3c-0.7,0-1.1,0.4-1.5,1.1l0,0.1l0,0
							C14,8,7,20.3,7,20.3l0.2,0.2L14.8,7l0,0l0-0.1c0,0,0.1-0.1,0.1-0.1c0.1-0.1,0.2-0.2,0.3-0.2c0.1,0,0.1,0.1,0.1,0.2L15.3,7
							l-0.1,0.2L8.7,22.3l0.1,0l0,0.1l3,0.7l5.4-15C17.3,7.9,17.5,7.2,17.2,6.8z M16.9,8c0,0-5.1,14.1-5.3,14.7
							c-0.1,0-1.9-0.4-2.5-0.5l6.3-14.9L15.5,7l0.1-0.2c0-0.2-0.1-0.4-0.4-0.4h0C15.4,6.1,15.7,6,16.1,6c0.6,0,0.9,0.3,0.9,0.9
							C17,7,17,7.2,17,7.4C17,7.6,17,7.7,16.9,8z"/>
					</g>
				</g>
			</g>
			<g>
				<path class="st0" d="M4.1,5.7c0,0.2,0.2,0.4,0.3,0.6C4.7,6.5,5,6.9,5,7.5C5,7.6,5,7.6,4.9,7.7C4.4,9,3.5,10.9,3.5,13.5
					c0,1.9,0.4,3.4,0.7,4.5c0,0.1,0,0.1,0.1,0.2c0,0.8-0.4,1.2-0.6,1.6c-0.2,0.2-0.4,0.4-0.4,0.7c0,0.3,0.2,0.6,0.6,0.6
					c0.7,0,0.9-1.1,0.9-1.6c0-0.3-0.1-0.8-0.3-1.4c-0.3-1.1-0.8-2.6-0.8-4.5c0-2.5,0.8-4.4,1.4-5.7c0.3-0.6,0.5-1,0.5-1.3
					c0-0.8-0.4-1.3-0.9-1.3C4.4,5.1,4.1,5.3,4.1,5.7z M4.7,6C4.6,5.9,4.5,5.8,4.5,5.7c0-0.3,0.2-0.3,0.3-0.3c0.3,0,0.6,0.5,0.6,1
					c0,0.1-0.1,0.3-0.1,0.6C5.1,6.5,4.9,6.3,4.7,6z M3.7,20.4c0-0.1,0.1-0.3,0.3-0.5c0.2-0.3,0.5-0.6,0.6-1.1c0,0.2,0.1,0.4,0.1,0.5
					c0,0.6-0.3,1.3-0.6,1.3C3.8,20.6,3.7,20.6,3.7,20.4z"/>
			</g>
			<g>
				<g>
					<path class="st0" d="M6,5.2l-0.1,0v0.1C5.8,5.7,6.1,6,6.5,6c0.2,0,0.7-0.2,0.7-0.7V5.3L7,5.3v0.1c0,0.3-0.2,0.4-0.5,0.4
						C6.2,5.8,6.1,5.5,6,5.2L6,5.2L6,5.2z"/>
				</g>
				<g>
					<path class="st0" d="M5.8,5.3L5.8,5.3l0.2,0V5.3c0-0.2,0.2-0.4,0.5-0.4C6.7,4.9,7,5,7,5.3v0.1l0.3,0V5.3c0-0.4-0.4-0.7-0.7-0.7
						C6.2,4.7,5.8,4.9,5.8,5.3z"/>
				</g>
			</g>
			<g>
				<path class="st0" d="M5.4,21.1c0,0.6,0.5,0.9,0.8,0.9c0.5,0,0.8-0.3,0.8-0.7v-0.1l-0.3,0v0.1c0,0.1,0,0.5-0.5,0.5
					c-0.3,0-0.6-0.2-0.6-0.6V21L5.4,21.1L5.4,21.1z"/>
				<path class="st0" d="M5.4,21.1L5.4,21.1l0.2,0.1v-0.1c0-0.1,0-0.5,0.5-0.5c0.3,0,0.6,0.2,0.6,0.6v0.1l0.3,0v-0.1
					c0-0.5-0.4-0.9-0.9-0.9C5.7,20.4,5.4,20.6,5.4,21.1z"/>
			</g>
			<g>
				<path class="st0" d="M13.2,12L13.2,12l0,0.3l3.6-3.5c0,0,0.2-0.3,0.2-0.3l-0.1-0.1L13.2,12z"/>
			</g>
			<g>
				<path class="st0" d="M14.9,8.1c0,0,0.3,5,0.3,5l0,0.2l0.2-0.2l-0.3-5.1l-0.1,0L14.9,8.1z"/>
			</g>
			<g>
				<polygon class="st0" points="13.9,16.6 9.7,20.1 9.6,20.6 14,16.9 14.1,16.5 				"/>
			</g>
			<g>
				<path class="st0" d="M11.8,15.4l-0.1,0.2c0,0,0.5,5.6,0.5,5.6l0,0.1l0.3-0.1l-0.6-6L11.8,15.4z"/>
			</g>
			<g>
				<g>
					<polygon class="st0" points="7.6,4.7 7.4,4.6 7.4,20 7.6,19.5 7.6,4.7 					"/>
				</g>
				<g>
					<polygon class="st0" points="8.5,5.5 8.3,5.5 8.3,18.4 8.5,17.9 8.5,5.5 					"/>
				</g>
				<g>
					<polygon class="st0" points="9.4,6.1 9.2,6.1 9.2,16.8 9.5,16.3 9.5,6.1 					"/>
				</g>
				<g>
					<polygon class="st0" points="10.3,6.5 10.1,6.5 10.1,15 10.3,14.9 10.4,14.7 10.4,6.5 					"/>
				</g>
				<g>
					<polygon class="st0" points="11.2,6.7 11,6.7 11,13.4 11.2,13.3 11.3,13 11.3,6.7 					"/>
				</g>
				<g>
					<polygon class="st0" points="12.1,6.6 11.9,6.6 11.9,11.8 12.1,11.7 12.2,11.4 12.2,6.6 					"/>
				</g>
				<g>
					<polygon class="st0" points="13,6.4 12.9,6.4 12.9,10.1 13,10 13.1,9.7 13.1,6.4 					"/>
				</g>
				<g>
					<polygon class="st0" points="14,6 13.8,6 13.8,8.5 13.9,8.4 14,8.1 14,6 					"/>
				</g>
			</g>
			<path class="st0" d="M1.6,11.3"/>
		</g>
		<g>
			<path class="st0" d="M23.7,1.1c0.1,0.2,0.1,0.4,0.2,0.6l1,2.6c0.3,0.7,0.4,0.7,0.6,0.7h0.1v0.2H24V5.1h0.1c0.3,0,0.3,0,0.3-0.1
				c0-0.1,0-0.1-0.1-0.3l-0.3-0.8h-1.6l-0.2,0.5c-0.1,0.3-0.2,0.4-0.2,0.5c0,0.2,0.2,0.2,0.4,0.2h0.1v0.2h-1.2V5.1h0.1
				c0.2,0,0.3-0.1,0.4-0.4l1.2-3c0.1-0.2,0.2-0.4,0.2-0.6H23.7z M24,3.7L23.3,2l-0.7,1.8H24z"/>
			<path class="st0" d="M25.9,5.1h0.3c0.2,0,0.2-0.1,0.2-0.3V3.2c0-0.5,0-0.6-0.2-0.6h-0.3V2.4h0.3c0.4,0,0.6,0,0.7-0.1v0.5h0
				c0.2-0.3,0.5-0.5,0.9-0.5c0.5,0,0.9,0.3,0.9,0.8v1.5c0,0.4,0,0.5,0.2,0.5h0.3v0.2h-1.5V5.1h0.2c0.2,0,0.2-0.1,0.2-0.5V3.3
				c0-0.3-0.1-0.7-0.5-0.7c-0.6,0-0.7,0.6-0.7,1.1v1c0,0.3,0,0.3,0.2,0.3h0.2v0.2h-1.5V5.1z"/>
			<path class="st0" d="M31.1,5.1h0.2c0.2,0,0.3-0.1,0.3-0.3V1.7c0-0.3-0.1-0.3-0.3-0.3h-0.2V1.2H33c0.7,0,1.3,0.2,1.3,0.9
				c0,0.5-0.5,0.9-1,1v0c0.7,0.1,0.8,0.3,0.8,1l0,0.7c0,0.1,0,0.2,0.1,0.2c0.1,0,0.2-0.1,0.3-0.3l0.2,0.1c-0.1,0.3-0.3,0.5-0.6,0.5
				c-0.5,0-0.6-0.4-0.6-0.8l0-0.8c0-0.5-0.3-0.6-0.8-0.6h-0.4v1.5c0,0.3,0,0.3,0.3,0.3h0.2v0.2h-1.6V5.1z M32.2,3h0.4
				c0.5,0,0.9-0.2,0.9-0.8c0-0.6-0.3-0.8-0.9-0.8h-0.4V3z"/>
			<path class="st0" d="M36.4,5.3c-0.9,0-1.3-0.7-1.3-1.5c0-0.8,0.4-1.5,1.3-1.5c0.9,0,1.3,0.7,1.3,1.5C37.7,4.6,37.3,5.3,36.4,5.3z
				 M36.4,2.5c-0.5,0-0.7,0.4-0.7,1.3c0,1,0.2,1.3,0.7,1.3c0.5,0,0.7-0.4,0.7-1.3C37.1,2.9,36.9,2.5,36.4,2.5z"/>
			<path class="st0" d="M38,5.1h0.2c0.1,0,0.2-0.1,0.2-0.4V3c0-0.3,0-0.4-0.2-0.4H38V2.4h0.4c0.3,0,0.6,0,0.7-0.1c0,0.1,0,0.3,0,0.6
				v1.8c0,0.3,0.1,0.4,0.2,0.4h0.2v0.2H38V5.1z M38.8,1.1c0.2,0,0.4,0.2,0.4,0.4c0,0.2-0.2,0.4-0.4,0.4c-0.2,0-0.4-0.2-0.4-0.4
				C38.4,1.3,38.6,1.1,38.8,1.1z"/>
			<path class="st0" d="M39.9,5.1h0.3c0.2,0,0.2-0.1,0.2-0.3V3.2c0-0.5,0-0.6-0.2-0.6h-0.3V2.4h0.3c0.4,0,0.6,0,0.7-0.1v0.5h0
				c0.2-0.3,0.5-0.5,0.9-0.5c0.5,0,0.9,0.3,0.9,0.8v1.5c0,0.4,0,0.5,0.2,0.5h0.3v0.2h-1.5V5.1h0.2c0.2,0,0.2-0.1,0.2-0.5V3.3
				c0-0.3-0.1-0.7-0.5-0.7c-0.6,0-0.7,0.6-0.7,1.1v1c0,0.3,0,0.3,0.2,0.3h0.2v0.2h-1.5V5.1z"/>
			<path class="st0" d="M43.5,5.1h0.3C44,5.1,44,5,44,4.7V3.2c0-0.5,0-0.6-0.2-0.6h-0.3V2.4h0.3c0.4,0,0.6,0,0.7-0.1v0.5h0
				c0.2-0.3,0.5-0.5,0.9-0.5c0.5,0,0.9,0.3,0.9,0.8v1.5c0,0.4,0,0.5,0.2,0.5h0.3v0.2h-1.5V5.1h0.2c0.2,0,0.2-0.1,0.2-0.5V3.3
				c0-0.3-0.1-0.7-0.5-0.7c-0.6,0-0.7,0.6-0.7,1.1v1c0,0.3,0,0.3,0.2,0.3H45v0.2h-1.5V5.1z"/>
			<path class="st0" d="M52,2.2h-0.2c0-0.6-0.4-1-1-1c-1,0-1.2,1.2-1.2,2c0,0.9,0.2,1.9,1.1,1.9c0.4,0,0.8-0.2,0.8-0.8V3.9
				c0-0.2-0.1-0.3-0.2-0.3h-0.2V3.4h1.4v0.2h-0.2c-0.2,0-0.2,0.1-0.2,0.4v1.3h-0.2c0-0.1,0-0.1-0.2-0.1c-0.2,0-0.5,0.2-1.1,0.2
				c-1.4,0-1.8-0.9-1.8-2.2c0-1.1,0.7-2.1,1.9-2.1c0.3,0,0.5,0,0.6,0.1c0.1,0,0.3,0.1,0.3,0.1c0.1,0,0.1-0.1,0.1-0.1H52V2.2z"/>
			<path class="st0" d="M52.7,5.1H53c0.2,0,0.2-0.1,0.2-0.3V3.2c0-0.5,0-0.6-0.2-0.6h-0.3V2.4H53c0.4,0,0.6,0,0.7-0.1v0.5h0
				c0.2-0.3,0.5-0.5,0.9-0.5c0.5,0,0.9,0.3,0.9,0.8v1.5c0,0.4,0,0.5,0.2,0.5H56v0.2h-1.5V5.1h0.2c0.2,0,0.2-0.1,0.2-0.5V3.3
				c0-0.3-0.1-0.7-0.5-0.7c-0.6,0-0.7,0.6-0.7,1.1v1c0,0.3,0,0.3,0.2,0.3h0.2v0.2h-1.5V5.1z"/>
			<path class="st0" d="M58.9,3.8c0,0.8-0.4,1.5-1.3,1.5c-0.9,0-1.3-0.7-1.3-1.5c0-0.8,0.4-1.5,1.3-1.5C58.4,2.3,58.9,3,58.9,3.8z
				 M58.2,3.8c0-1-0.2-1.3-0.7-1.3c-0.5,0-0.7,0.4-0.7,1.3c0,1,0.2,1.3,0.7,1.3C58.1,5.2,58.2,4.8,58.2,3.8z M57.3,1.9l0.8-0.9
				c0.1-0.1,0.2-0.2,0.3-0.2c0.1,0,0.3,0.1,0.3,0.2c0,0.1-0.1,0.2-0.2,0.3l-0.9,0.5H57.3z"/>
			<path class="st0" d="M60.9,2.6h-0.7v2.2c0,0.2,0.1,0.3,0.2,0.3c0.2,0,0.3-0.2,0.3-0.5V4.4h0.2v0.1c0,0.5-0.1,0.8-0.7,0.8
				c-0.5,0-0.6-0.2-0.6-0.7V2.6h-0.5V2.4c0.5,0,0.8-0.5,0.9-1h0.2v1h0.7V2.6z"/>
			<path class="st0" d="M61.3,5.1h0.3c0.2,0,0.2-0.1,0.2-0.3V1.6c0-0.4,0-0.5-0.2-0.5h-0.2V1h1v1.8h0c0.2-0.3,0.5-0.5,0.9-0.5
				c0.5,0,0.9,0.3,0.9,0.8v1.5c0,0.4,0,0.5,0.2,0.5h0.3v0.2h-1.5V5.1h0.2c0.2,0,0.2-0.1,0.2-0.5V3.3c0-0.3-0.1-0.7-0.5-0.7
				c-0.6,0-0.7,0.6-0.7,1.1v1c0,0.3,0,0.3,0.2,0.3h0.2v0.2h-1.5V5.1z"/>
			<path class="st0" d="M67.8,4.6c0,0.4-0.1,0.7-0.6,0.7c-0.3,0-0.5-0.1-0.5-0.4c-0.2,0.3-0.5,0.4-0.8,0.4c-0.5,0-0.9-0.3-0.9-0.8
				c0-0.6,0.7-1,1.3-1c0.1,0,0.2,0,0.3,0V3c0-0.3-0.1-0.6-0.4-0.6c-0.1,0-0.4,0-0.4,0.2c0,0.1,0.1,0.1,0.1,0.3
				c0,0.2-0.2,0.3-0.3,0.3c-0.2,0-0.4-0.2-0.4-0.4c0-0.5,0.7-0.6,1-0.6c0.6,0,1,0.2,1,0.8v1.7c0,0.1,0,0.2,0.2,0.2
				c0.2,0,0.2-0.3,0.2-0.4V4.5h0.2V4.6z M66.6,3.7c-0.1,0-0.2,0-0.3,0c-0.5,0-0.8,0.4-0.8,0.8c0,0.3,0.2,0.6,0.5,0.6
				c0.3,0,0.5-0.3,0.5-0.6V3.7z"/>
			<path class="st0" d="M68.2,5.2V5.1h0.2c0.1,0,0.2-0.1,0.2-0.4V3c0-0.3,0-0.4-0.2-0.4h-0.3V2.4h0.4c0.3,0,0.6,0,0.7-0.1
				c0,0.1,0,0.3,0,0.6v1.8c0,0.3,0.1,0.4,0.2,0.4h0.2v0.2H68.2z M68.6,1.9l0.8-0.9c0.1-0.1,0.2-0.2,0.3-0.2C69.9,0.9,70,1,70,1.2
				c0,0.1-0.1,0.2-0.2,0.3l-0.9,0.5H68.6z"/>
			<path class="st0" d="M71.7,5.1h0.2c0.1,0,0.2,0,0.2-0.4v-3c0-0.3,0-0.4-0.3-0.4h-0.2V1.2h3.1v0.9h-0.2c0-0.6-0.3-0.8-0.8-0.8h-1
				v1.7h0.8c0.4,0,0.5-0.3,0.5-0.6h0.2v1.4h-0.2c0-0.4-0.1-0.6-0.5-0.6h-0.8v1.8h1c0.5,0,0.8-0.2,0.8-0.8h0.2v1h-3.2V5.1z"/>
			<path class="st0" d="M78.3,4.6c0,0.4-0.1,0.7-0.6,0.7c-0.3,0-0.5-0.1-0.5-0.4c-0.2,0.3-0.5,0.4-0.8,0.4c-0.5,0-0.9-0.3-0.9-0.8
				c0-0.6,0.7-1,1.3-1c0.1,0,0.2,0,0.3,0V3c0-0.3-0.1-0.6-0.4-0.6c-0.1,0-0.4,0-0.4,0.2c0,0.1,0.1,0.1,0.1,0.3
				c0,0.2-0.2,0.3-0.3,0.3c-0.2,0-0.4-0.2-0.4-0.4c0-0.5,0.7-0.6,1-0.6c0.6,0,1,0.2,1,0.8v1.7c0,0.1,0,0.2,0.2,0.2
				c0.2,0,0.2-0.3,0.2-0.4V4.5h0.2V4.6z M77.2,3.7c-0.1,0-0.2,0-0.3,0c-0.5,0-0.8,0.4-0.8,0.8c0,0.3,0.2,0.6,0.5,0.6
				c0.3,0,0.5-0.3,0.5-0.6V3.7z"/>
			<path class="st0" d="M81.1,4.3c0,0.6-0.4,1.1-1,1.1c-0.9,0-1.3-0.7-1.3-1.5c0-0.8,0.4-1.5,1.3-1.5c0.4,0,1,0.2,1,0.6
				c0,0.2-0.2,0.3-0.4,0.3c-0.2,0-0.3-0.1-0.3-0.3c0-0.2,0.1-0.2,0.1-0.3c0-0.2-0.2-0.2-0.3-0.2c-0.5,0-0.7,0.4-0.7,1.3
				c0,0.6,0.1,1.3,0.7,1.3c0.5,0,0.8-0.4,0.8-0.9H81.1z"/>
			<path class="st0" d="M81.4,5.1h0.3c0.2,0,0.2-0.1,0.2-0.3V1.6c0-0.4,0-0.5-0.2-0.5h-0.2V1h1v1.8h0c0.2-0.3,0.5-0.5,0.9-0.5
				c0.5,0,0.9,0.3,0.9,0.8v1.5c0,0.4,0,0.5,0.2,0.5h0.3v0.2h-1.5V5.1h0.2c0.2,0,0.2-0.1,0.2-0.5V3.3c0-0.3-0.1-0.7-0.5-0.7
				c-0.6,0-0.7,0.6-0.7,1.1v1c0,0.3,0,0.3,0.2,0.3h0.2v0.2h-1.5V5.1z"/>
			<path class="st0" d="M86.5,2.6h-0.7v2.2c0,0.2,0.1,0.3,0.2,0.3c0.2,0,0.3-0.2,0.3-0.5V4.4h0.2v0.1c0,0.5-0.1,0.8-0.7,0.8
				c-0.5,0-0.6-0.2-0.6-0.7V2.6h-0.5V2.4c0.5,0,0.8-0.5,0.9-1h0.2v1h0.7V2.6z"/>
			<path class="st0" d="M87,5.1h0.3c0.2,0,0.2-0.1,0.2-0.3V3.2c0-0.5,0-0.6-0.2-0.6H87V2.4h0.6c0.1,0,0.3,0,0.4-0.1V3h0
				c0.2-0.3,0.4-0.7,0.8-0.7c0.3,0,0.5,0.2,0.5,0.4c0,0.2-0.1,0.4-0.4,0.4c-0.2,0-0.3-0.1-0.3-0.2c0-0.1,0-0.1,0-0.2
				c0,0-0.1,0-0.1,0c-0.3,0-0.5,0.4-0.5,1.4v0.6c0,0.3,0,0.3,0.2,0.3h0.3v0.2H87V5.1z"/>
			<path class="st0" d="M92.6,4.6c0,0.4-0.1,0.7-0.6,0.7c-0.3,0-0.5-0.1-0.5-0.4c-0.2,0.3-0.5,0.4-0.8,0.4c-0.5,0-0.9-0.3-0.9-0.8
				c0-0.6,0.7-1,1.3-1c0.1,0,0.2,0,0.3,0V3c0-0.3-0.1-0.6-0.4-0.6c-0.1,0-0.4,0-0.4,0.2c0,0.1,0.1,0.1,0.1,0.3
				c0,0.2-0.2,0.3-0.3,0.3c-0.2,0-0.4-0.2-0.4-0.4c0-0.5,0.7-0.6,1-0.6c0.6,0,1,0.2,1,0.8v1.7c0,0.1,0,0.2,0.2,0.2
				c0.2,0,0.2-0.3,0.2-0.4V4.5h0.2V4.6z M91.4,3.7c-0.1,0-0.2,0-0.3,0c-0.5,0-0.8,0.4-0.8,0.8c0,0.3,0.2,0.6,0.5,0.6
				c0.3,0,0.5-0.3,0.5-0.6V3.7z"/>
			<path class="st0" d="M95.3,4.3c0,0.6-0.4,1.1-1,1.1c-0.9,0-1.3-0.7-1.3-1.5c0-0.8,0.4-1.5,1.3-1.5c0.4,0,1,0.2,1,0.6
				c0,0.2-0.2,0.3-0.4,0.3c-0.2,0-0.3-0.1-0.3-0.3c0-0.2,0.1-0.2,0.1-0.3c0-0.2-0.2-0.2-0.3-0.2c-0.5,0-0.7,0.4-0.7,1.3
				c0,0.6,0.1,1.3,0.7,1.3c0.5,0,0.8-0.4,0.8-0.9H95.3z"/>
			<path class="st0" d="M95.7,5.1h0.3c0.2,0,0.2-0.1,0.2-0.3V1.6c0-0.4,0-0.5-0.2-0.5h-0.2V1h1v1.8h0c0.2-0.3,0.5-0.5,0.9-0.5
				c0.5,0,0.9,0.3,0.9,0.8v1.5c0,0.4,0,0.5,0.2,0.5h0.3v0.2h-1.5V5.1h0.2c0.2,0,0.2-0.1,0.2-0.5V3.3c0-0.3-0.1-0.7-0.5-0.7
				c-0.6,0-0.7,0.6-0.7,1.1v1c0,0.3,0,0.3,0.2,0.3h0.2v0.2h-1.5V5.1z"/>
			<path class="st0" d="M102.2,4.6c0,0.4-0.1,0.7-0.6,0.7c-0.3,0-0.5-0.1-0.5-0.4c-0.2,0.3-0.5,0.4-0.8,0.4c-0.5,0-0.9-0.3-0.9-0.8
				c0-0.6,0.7-1,1.3-1c0.1,0,0.2,0,0.3,0V3c0-0.3-0.1-0.6-0.4-0.6c-0.1,0-0.4,0-0.4,0.2c0,0.1,0.1,0.1,0.1,0.3
				c0,0.2-0.2,0.3-0.3,0.3c-0.2,0-0.4-0.2-0.4-0.4c0-0.5,0.7-0.6,1-0.6c0.6,0,1,0.2,1,0.8v1.7c0,0.1,0,0.2,0.2,0.2
				c0.2,0,0.2-0.3,0.2-0.4V4.5h0.2V4.6z M101,3.7c-0.1,0-0.2,0-0.3,0c-0.5,0-0.8,0.4-0.8,0.8c0,0.3,0.2,0.6,0.5,0.6
				c0.3,0,0.5-0.3,0.5-0.6V3.7z"/>
			<path class="st0" d="M24.6,10.8c0,0.4-0.1,0.7-0.6,0.7c-0.3,0-0.5-0.1-0.5-0.4c-0.2,0.3-0.5,0.4-0.8,0.4c-0.5,0-0.9-0.3-0.9-0.8
				c0-0.6,0.7-1,1.3-1c0.1,0,0.2,0,0.3,0V9.2c0-0.3-0.1-0.6-0.4-0.6c-0.1,0-0.4,0-0.4,0.2c0,0.1,0.1,0.1,0.1,0.3
				c0,0.2-0.2,0.3-0.3,0.3c-0.2,0-0.4-0.2-0.4-0.4c0-0.5,0.7-0.6,1-0.6c0.6,0,1,0.2,1,0.8V11c0,0.1,0,0.2,0.2,0.2
				c0.2,0,0.2-0.3,0.2-0.4v-0.1h0.2V10.8z M23.5,9.9c-0.1,0-0.2,0-0.3,0c-0.5,0-0.8,0.4-0.8,0.8c0,0.3,0.2,0.6,0.5,0.6
				c0.3,0,0.5-0.3,0.5-0.6V9.9z"/>
			<path class="st0" d="M26.5,10.9c0.6,0,1.1,0.2,1.1,0.8c0,0.7-0.8,1-1.4,1c-0.5,0-1.3-0.1-1.3-0.7c0-0.4,0.3-0.6,0.6-0.6v0
				c-0.2-0.1-0.3-0.3-0.3-0.5c0-0.3,0.2-0.5,0.4-0.5v0C25.3,10.2,25,9.9,25,9.5c0-0.7,0.5-1,1.2-1c0.1,0,0.2,0,0.3,0
				c0.1,0,0.2,0,0.3,0c0.2,0,0.3-0.1,0.4-0.1c0.1-0.1,0.2-0.1,0.4-0.1c0.2,0,0.3,0.1,0.3,0.3s-0.1,0.3-0.3,0.3
				c-0.3,0-0.2-0.3-0.3-0.3c-0.1,0-0.2,0-0.3,0.1c0.3,0.2,0.4,0.5,0.4,0.8c0,0.9-0.8,1-1.2,1c-0.5,0-0.6,0.1-0.6,0.2
				c0,0.2,0.1,0.2,0.5,0.2H26.5z M25.4,12c0,0.4,0.3,0.6,0.9,0.6c0.3,0,0.8-0.2,0.8-0.6c0-0.5-0.4-0.6-0.8-0.6
				C25.8,11.4,25.4,11.5,25.4,12z M25.6,9.5c0,0.4,0.1,0.8,0.6,0.8c0.4,0,0.5-0.4,0.5-0.8c0-0.3-0.1-0.8-0.5-0.8
				C25.7,8.7,25.6,9.1,25.6,9.5z"/>
			<path class="st0" d="M28.2,8.6h0.3c0.3,0,0.7,0,0.8-0.1c0,0.2,0,0.4,0,0.6v1.4c0,0.4,0.1,0.8,0.5,0.8c0.4,0,0.7-0.4,0.7-1.1V9.3
				c0-0.5,0-0.5-0.2-0.5H30V8.6h0.3c0.3,0,0.7,0,0.8-0.1c0,0.2,0,0.4,0,0.6v1.7c0,0.4,0,0.5,0.2,0.5h0.3v0.2H31c-0.2,0-0.4,0-0.5,0
				V11h0c-0.2,0.3-0.5,0.5-0.9,0.5c-0.8,0-0.9-0.3-0.9-0.9V9.3c0-0.5,0-0.6-0.2-0.6h-0.3V8.6z"/>
			<path class="st0" d="M33.9,9.4h-0.2c-0.1-0.4-0.3-0.7-0.8-0.7c-0.3,0-0.5,0.2-0.5,0.5c0,0.8,1.7,0.2,1.7,1.4
				c0,0.6-0.5,0.9-1.1,0.9c-0.1,0-0.3,0-0.4-0.1c-0.1,0-0.2,0-0.3,0c-0.1,0-0.2,0.1-0.3,0.1h0v-1h0.2c0,0.5,0.4,0.8,0.9,0.8
				c0.3,0,0.6-0.2,0.6-0.6c0-0.9-1.6-0.2-1.6-1.4c0-0.6,0.5-0.9,1-0.9c0.1,0,0.3,0,0.4,0c0.1,0,0.2,0,0.3,0c0.1,0,0.2-0.1,0.3-0.1h0
				V9.4z"/>
			<path class="st0" d="M37.1,11.2h0.3c0.2,0,0.2-0.1,0.2-0.6V7.5h-0.3c-0.5,0-0.9,0.3-0.9,0.8h-0.2v-1h3.4v1h-0.2
				c0-0.5-0.4-0.8-0.9-0.8h-0.3v3.1c0,0.5,0,0.6,0.2,0.6h0.3v0.2h-1.6V11.2z"/>
			<path class="st0" d="M39.6,11.2h0.3c0.2,0,0.2-0.1,0.2-0.3V9.3c0-0.5,0-0.6-0.2-0.6h-0.3V8.6h0.6c0.1,0,0.3,0,0.4-0.1v0.7h0
				c0.2-0.3,0.4-0.7,0.8-0.7c0.3,0,0.5,0.2,0.5,0.4c0,0.2-0.1,0.4-0.4,0.4c-0.2,0-0.3-0.1-0.3-0.2c0-0.1,0-0.1,0-0.2
				c0,0-0.1,0-0.1,0c-0.3,0-0.5,0.4-0.5,1.4v0.6c0,0.3,0,0.3,0.2,0.3h0.3v0.2h-1.6V11.2z"/>
			<path class="st0" d="M45.2,10.7v0.1c0,0.4-0.1,0.7-0.6,0.7c-0.3,0-0.5-0.1-0.5-0.4c-0.2,0.3-0.5,0.4-0.8,0.4
				c-0.5,0-0.9-0.3-0.9-0.8c0-0.6,0.7-1,1.3-1c0.1,0,0.2,0,0.3,0V9.2c0-0.3-0.1-0.6-0.4-0.6c-0.1,0-0.4,0-0.4,0.2
				c0,0.1,0.1,0.1,0.1,0.3c0,0.2-0.2,0.3-0.3,0.3c-0.2,0-0.4-0.2-0.4-0.4c0-0.5,0.7-0.6,1-0.6c0.6,0,1,0.2,1,0.8V11
				c0,0.1,0,0.2,0.2,0.2c0.2,0,0.2-0.3,0.2-0.4v-0.1H45.2z M44,10.7V9.9c-0.1,0-0.2,0-0.3,0c-0.5,0-0.8,0.4-0.8,0.8
				c0,0.3,0.2,0.6,0.5,0.6C43.8,11.3,44,11,44,10.7z M43.4,8.1l0.8-0.9c0.1-0.1,0.2-0.2,0.3-0.2c0.1,0,0.3,0.1,0.3,0.2
				c0,0.1-0.1,0.2-0.2,0.3l-0.9,0.5H43.4z"/>
			<path class="st0" d="M46.7,8.5c0.3,0,0.7,0.2,0.9,0.5h0V7.8c0-0.4,0-0.4-0.2-0.4h-0.3V7.2h1v3.6c0,0.4,0,0.5,0.2,0.5h0.3v0.2h-1
				v-0.5h0c-0.2,0.4-0.5,0.6-0.9,0.6c-0.7,0-1.1-0.7-1.1-1.5C45.6,9.3,45.9,8.5,46.7,8.5z M47.6,10c0-0.9-0.3-1.2-0.7-1.2
				c-0.5,0-0.6,0.5-0.6,1.2s0.1,1.2,0.6,1.2C47.3,11.2,47.6,10.8,47.6,10z"/>
			<path class="st0" d="M51.8,10.7v0.1c0,0.4-0.1,0.7-0.6,0.7c-0.3,0-0.5-0.1-0.5-0.4c-0.2,0.3-0.5,0.4-0.8,0.4
				c-0.5,0-0.9-0.3-0.9-0.8c0-0.6,0.7-1,1.3-1c0.1,0,0.2,0,0.3,0V9.2c0-0.3-0.1-0.6-0.4-0.6c-0.1,0-0.4,0-0.4,0.2
				c0,0.1,0.1,0.1,0.1,0.3c0,0.2-0.2,0.3-0.3,0.3c-0.2,0-0.4-0.2-0.4-0.4c0-0.5,0.7-0.6,1-0.6c0.6,0,1,0.2,1,0.8V11
				c0,0.1,0,0.2,0.2,0.2c0.2,0,0.2-0.3,0.2-0.4v-0.1H51.8z M50.7,10.7V9.9c-0.1,0-0.2,0-0.3,0c-0.5,0-0.8,0.4-0.8,0.8
				c0,0.3,0.2,0.6,0.5,0.6C50.4,11.3,50.7,11,50.7,10.7z M50.1,8.1l0.8-0.9C51,7.1,51,7.1,51.1,7.1c0.1,0,0.3,0.1,0.3,0.2
				c0,0.1-0.1,0.2-0.2,0.3l-0.9,0.5H50.1z"/>
			<path class="st0" d="M52.2,11.2h0.2c0.1,0,0.2-0.1,0.2-0.4v-3c0-0.5,0-0.5-0.2-0.5h-0.3V7.2h1v3.7c0,0.3,0.1,0.4,0.2,0.4h0.2v0.2
				h-1.5V11.2z"/>
			<path class="st0" d="M56.9,10.8c0,0.4-0.1,0.7-0.6,0.7c-0.3,0-0.5-0.1-0.5-0.4c-0.2,0.3-0.5,0.4-0.8,0.4c-0.5,0-0.9-0.3-0.9-0.8
				c0-0.6,0.7-1,1.3-1c0.1,0,0.2,0,0.3,0V9.2c0-0.3-0.1-0.6-0.4-0.6c-0.1,0-0.4,0-0.4,0.2C54.9,8.9,55,9,55,9.2
				c0,0.2-0.2,0.3-0.3,0.3c-0.2,0-0.4-0.2-0.4-0.4c0-0.5,0.7-0.6,1-0.6c0.6,0,1,0.2,1,0.8V11c0,0.1,0,0.2,0.2,0.2
				c0.2,0,0.2-0.3,0.2-0.4v-0.1h0.2V10.8z M55.8,9.9c-0.1,0-0.2,0-0.3,0c-0.5,0-0.8,0.4-0.8,0.8c0,0.3,0.2,0.6,0.5,0.6
				c0.3,0,0.5-0.3,0.5-0.6V9.9z"/>
			<path class="st0" d="M21.6,15.4h1.6c1.3,0,2.1,0.8,2.1,2.1c0,1.4-1,2-2,2h-1.7v-0.2h0.2c0.2,0,0.2-0.1,0.2-0.6v-2.6
				c0-0.4,0-0.5-0.2-0.5h-0.3V15.4z M22.7,19.3h0.5c1.1,0,1.4-0.9,1.4-1.9c0-1-0.3-1.9-1.4-1.9h-0.5V19.3z"/>
			<path class="st0" d="M26.5,18.1c0,1,0.2,1.3,0.7,1.3c0.5,0,0.9-0.4,0.9-0.9h0.2c0,0.7-0.5,1.1-1.1,1.1c-0.9,0-1.3-0.7-1.3-1.5
				c0-0.8,0.4-1.5,1.3-1.5c0.8,0,1.2,0.8,1.2,1.5H26.5z M27.7,17.9c0-0.7-0.2-1.2-0.6-1.2c-0.4,0-0.6,0.5-0.6,1.2H27.7z"/>
			<path class="st0" d="M30.6,19.6c-0.3,0-0.7-0.1-0.9-0.5h0v1.1c0,0.3,0.1,0.4,0.2,0.4h0.2v0.2h-1.5v-0.2h0.3
				c0.1,0,0.2-0.1,0.2-0.4v-2.8c0-0.4,0-0.5-0.2-0.5h-0.3v-0.2h0.6c0.1,0,0.3,0,0.4-0.1v0.6h0c0.2-0.3,0.5-0.6,0.9-0.6
				c0.8,0,1.1,0.8,1.1,1.5C31.6,18.8,31.3,19.6,30.6,19.6z M31,18.1c0-0.7-0.1-1.2-0.6-1.2c-0.5,0-0.7,0.3-0.7,1.2
				c0,0.8,0.3,1.2,0.7,1.2C30.9,19.3,31,18.7,31,18.1z"/>
			<path class="st0" d="M35,18.9c0,0.4-0.1,0.7-0.6,0.7c-0.3,0-0.5-0.1-0.5-0.4c-0.2,0.3-0.5,0.4-0.8,0.4c-0.5,0-0.9-0.3-0.9-0.8
				c0-0.6,0.7-1,1.3-1c0.1,0,0.2,0,0.3,0v-0.5c0-0.3-0.1-0.6-0.4-0.6c-0.1,0-0.4,0-0.4,0.2c0,0.1,0.1,0.1,0.1,0.3
				c0,0.2-0.2,0.3-0.3,0.3c-0.2,0-0.4-0.2-0.4-0.4c0-0.5,0.7-0.6,1-0.6c0.6,0,1,0.2,1,0.8v1.7c0,0.1,0,0.2,0.2,0.2
				c0.2,0,0.2-0.3,0.2-0.4v-0.1H35V18.9z M33.9,18c-0.1,0-0.2,0-0.3,0c-0.5,0-0.8,0.4-0.8,0.8c0,0.3,0.2,0.6,0.5,0.6
				c0.3,0,0.5-0.3,0.5-0.6V18z"/>
			<path class="st0" d="M35.4,19.3h0.3c0.2,0,0.2-0.1,0.2-0.3v-1.6c0-0.5,0-0.6-0.2-0.6h-0.3v-0.2H36c0.1,0,0.3,0,0.4-0.1v0.7h0
				c0.2-0.3,0.4-0.7,0.8-0.7c0.3,0,0.5,0.2,0.5,0.4c0,0.2-0.1,0.4-0.4,0.4c-0.2,0-0.3-0.1-0.3-0.2c0-0.1,0-0.1,0-0.2
				c0,0-0.1,0-0.1,0c-0.3,0-0.5,0.4-0.5,1.4V19c0,0.3,0,0.3,0.2,0.3H37v0.2h-1.6V19.3z"/>
			<path class="st0" d="M39.9,16.8h-0.7V19c0,0.2,0.1,0.3,0.2,0.3c0.2,0,0.3-0.2,0.3-0.5v-0.1h0.2v0.1c0,0.5-0.1,0.8-0.7,0.8
				c-0.5,0-0.6-0.2-0.6-0.7v-2.1h-0.5v-0.2c0.5,0,0.8-0.5,0.9-1h0.2v1h0.7V16.8z"/>
			<path class="st0" d="M40.3,19.3h0.3c0.2,0,0.2-0.1,0.2-0.3v-1.6c0-0.5,0-0.6-0.2-0.6h-0.3v-0.2h0.3c0.4,0,0.6,0,0.7-0.1v0.5h0
				c0.2-0.3,0.5-0.5,0.9-0.5c0.4,0,0.7,0.2,0.8,0.5h0c0.2-0.4,0.5-0.5,0.9-0.5c0.5,0,0.8,0.3,0.8,0.8v1.5c0,0.4,0,0.5,0.2,0.5h0.3
				v0.2h-1.5v-0.2H44c0.2,0,0.2-0.1,0.2-0.5v-1.3c0-0.5-0.1-0.7-0.5-0.7c-0.5,0-0.6,0.5-0.6,1v0.9c0,0.5,0,0.6,0.2,0.6h0.3v0.2h-1.4
				v-0.2h0.3c0.1,0,0.2-0.1,0.2-0.5v-1.2c0-0.4,0-0.8-0.5-0.8c-0.6,0-0.7,0.6-0.7,1.1v1c0,0.3,0,0.3,0.2,0.3h0.2v0.2h-1.5V19.3z"/>
			<path class="st0" d="M46.2,18.1c0,1,0.2,1.3,0.7,1.3c0.5,0,0.9-0.4,0.9-0.9H48c0,0.7-0.5,1.1-1.1,1.1c-0.9,0-1.3-0.7-1.3-1.5
				c0-0.8,0.4-1.5,1.3-1.5c0.8,0,1.2,0.8,1.2,1.5H46.2z M47.4,17.9c0-0.7-0.2-1.2-0.6-1.2c-0.4,0-0.6,0.5-0.6,1.2H47.4z"/>
			<path class="st0" d="M48.4,19.3h0.3c0.2,0,0.2-0.1,0.2-0.3v-1.6c0-0.5,0-0.6-0.2-0.6h-0.3v-0.2h0.3c0.4,0,0.6,0,0.7-0.1v0.5h0
				c0.2-0.3,0.5-0.5,0.9-0.5c0.5,0,0.9,0.3,0.9,0.8v1.5c0,0.4,0,0.5,0.2,0.5h0.3v0.2h-1.5v-0.2h0.2c0.2,0,0.2-0.1,0.2-0.5v-1.3
				c0-0.3-0.1-0.7-0.5-0.7c-0.6,0-0.7,0.6-0.7,1.1v1c0,0.3,0,0.3,0.2,0.3h0.2v0.2h-1.5V19.3z"/>
			<path class="st0" d="M53.5,16.8h-0.7V19c0,0.2,0.1,0.3,0.2,0.3c0.2,0,0.3-0.2,0.3-0.5v-0.1h0.2v0.1c0,0.5-0.1,0.8-0.7,0.8
				c-0.5,0-0.6-0.2-0.6-0.7v-2.1h-0.5v-0.2c0.5,0,0.8-0.5,0.9-1h0.2v1h0.7V16.8z"/>
			<path class="st0" d="M56.9,19.6c-0.9,0-1.3-0.7-1.3-1.5c0-0.8,0.4-1.5,1.3-1.5c0.9,0,1.3,0.7,1.3,1.5
				C58.2,18.9,57.8,19.6,56.9,19.6z M56.9,16.7c-0.5,0-0.7,0.4-0.7,1.3c0,1,0.2,1.3,0.7,1.3c0.5,0,0.7-0.4,0.7-1.3
				C57.6,17.1,57.4,16.7,56.9,16.7z"/>
			<path class="st0" d="M58.6,19.3h0.3c0.2,0,0.2-0.1,0.2-0.3v-2.1h-0.5v-0.2H59v-0.4c0-0.6,0.3-1.2,1-1.2c0.4,0,0.8,0.2,0.8,0.6
				c0,0.2-0.1,0.4-0.3,0.4c-0.2,0-0.3-0.1-0.3-0.3c0-0.2,0.2-0.2,0.2-0.3c0-0.1-0.1-0.2-0.2-0.2c-0.4,0-0.4,0.3-0.4,1v0.4h0.6v0.2
				h-0.6V19c0,0.3,0,0.3,0.2,0.3h0.3v0.2h-1.6V19.3z"/>
			<path class="st0" d="M62.3,19.3h0.2c0.2,0,0.2-0.1,0.2-0.6v-2.6c0-0.6,0-0.6-0.2-0.6h-0.2v-0.2h3v0.9h-0.2c0-0.7-0.5-0.8-1-0.8
				h-0.7v1.8H64c0.5,0,0.7-0.2,0.7-0.6h0.2v1.4h-0.2c0-0.5-0.3-0.6-0.7-0.6h-0.6v1.2c0,0.3,0,0.6,0.3,0.6h0.2v0.2h-1.6V19.3z"/>
			<path class="st0" d="M67,19.6c-0.9,0-1.3-0.7-1.3-1.5c0-0.8,0.4-1.5,1.3-1.5c0.9,0,1.3,0.7,1.3,1.5C68.3,18.9,67.9,19.6,67,19.6z
				 M67,16.7c-0.5,0-0.7,0.4-0.7,1.3c0,1,0.2,1.3,0.7,1.3c0.5,0,0.7-0.4,0.7-1.3C67.7,17.1,67.5,16.7,67,16.7z"/>
			<path class="st0" d="M68.6,19.3h0.3c0.2,0,0.2-0.1,0.2-0.3v-1.6c0-0.5,0-0.6-0.2-0.6h-0.3v-0.2h0.6c0.1,0,0.3,0,0.4-0.1v0.7h0
				c0.2-0.3,0.4-0.7,0.8-0.7c0.3,0,0.5,0.2,0.5,0.4c0,0.2-0.1,0.4-0.4,0.4c-0.2,0-0.3-0.1-0.3-0.2c0-0.1,0-0.1,0-0.2
				c0,0-0.1,0-0.1,0c-0.3,0-0.5,0.4-0.5,1.4V19c0,0.3,0,0.3,0.2,0.3h0.3v0.2h-1.6V19.3z"/>
			<path class="st0" d="M72,18.1c0,1,0.2,1.3,0.7,1.3c0.5,0,0.9-0.4,0.9-0.9h0.2c0,0.7-0.5,1.1-1.1,1.1c-0.9,0-1.3-0.7-1.3-1.5
				c0-0.8,0.4-1.5,1.3-1.5c0.8,0,1.2,0.8,1.2,1.5H72z M73.2,17.9c0-0.7-0.2-1.2-0.6-1.2c-0.4,0-0.6,0.5-0.6,1.2H73.2z"/>
			<path class="st0" d="M74.2,19.3h0.2c0.1,0,0.2-0.1,0.2-0.4v-1.7c0-0.3,0-0.4-0.2-0.4h-0.3v-0.2h0.4c0.3,0,0.6,0,0.7-0.1
				c0,0.1,0,0.3,0,0.6v1.8c0,0.3,0.1,0.4,0.2,0.4h0.2v0.2h-1.5V19.3z M74.9,15.3c0.2,0,0.4,0.2,0.4,0.4c0,0.2-0.2,0.4-0.4,0.4
				c-0.2,0-0.4-0.2-0.4-0.4C74.6,15.5,74.7,15.3,74.9,15.3z"/>
			<path class="st0" d="M77.5,19c0.6,0,1.1,0.2,1.1,0.8c0,0.7-0.8,1-1.4,1c-0.5,0-1.3-0.1-1.3-0.7c0-0.4,0.3-0.6,0.6-0.6v0
				c-0.2-0.1-0.3-0.3-0.3-0.5c0-0.3,0.2-0.5,0.4-0.5v0c-0.4-0.2-0.6-0.4-0.6-0.8c0-0.7,0.5-1,1.2-1c0.1,0,0.2,0,0.3,0
				c0.1,0,0.2,0,0.3,0c0.2,0,0.3-0.1,0.4-0.1c0.1-0.1,0.2-0.1,0.4-0.1c0.2,0,0.3,0.1,0.3,0.3c0,0.2-0.1,0.3-0.3,0.3
				c-0.3,0-0.2-0.3-0.3-0.3c-0.1,0-0.2,0-0.3,0.1c0.3,0.2,0.4,0.5,0.4,0.8c0,0.9-0.8,1-1.2,1c-0.5,0-0.6,0.1-0.6,0.2
				c0,0.2,0.1,0.2,0.5,0.2H77.5z M76.4,20.1c0,0.4,0.3,0.6,0.9,0.6c0.3,0,0.8-0.2,0.8-0.6c0-0.5-0.4-0.6-0.8-0.6
				C76.8,19.5,76.4,19.6,76.4,20.1z M76.7,17.6c0,0.4,0.1,0.8,0.6,0.8c0.4,0,0.5-0.4,0.5-0.8c0-0.3-0.1-0.8-0.5-0.8
				C76.8,16.7,76.7,17.2,76.7,17.6z"/>
			<path class="st0" d="M79.2,19.3h0.3c0.2,0,0.2-0.1,0.2-0.3v-1.6c0-0.5,0-0.6-0.2-0.6h-0.3v-0.2h0.3c0.4,0,0.6,0,0.7-0.1v0.5h0
				c0.2-0.3,0.5-0.5,0.9-0.5c0.5,0,0.9,0.3,0.9,0.8v1.5c0,0.4,0,0.5,0.2,0.5h0.3v0.2H81v-0.2h0.2c0.2,0,0.2-0.1,0.2-0.5v-1.3
				c0-0.3-0.1-0.7-0.5-0.7c-0.6,0-0.7,0.6-0.7,1.1v1c0,0.3,0,0.3,0.2,0.3h0.2v0.2h-1.5V19.3z"/>
			<path class="st0" d="M86.5,15.4c0.1,0.2,0.1,0.4,0.2,0.6l1,2.6c0.3,0.7,0.4,0.7,0.6,0.7h0.1v0.2h-1.6v-0.2h0.1
				c0.3,0,0.3,0,0.3-0.1c0-0.1,0-0.1-0.1-0.3l-0.3-0.8h-1.6l-0.2,0.5c-0.1,0.3-0.2,0.4-0.2,0.5c0,0.2,0.2,0.2,0.4,0.2h0.1v0.2h-1.2
				v-0.2h0.1c0.2,0,0.3-0.1,0.5-0.4l1.2-3c0.1-0.2,0.2-0.4,0.2-0.6H86.5z M86.8,18l-0.7-1.8L85.3,18H86.8z"/>
			<path class="st0" d="M88.6,19.3h0.3c0.2,0,0.2-0.1,0.2-0.3v-2.1h-0.4v-0.2h0.4v-0.4c0-0.6,0.3-1.2,1-1.2c0.4,0,0.8,0.2,0.8,0.6
				c0,0.2-0.1,0.4-0.3,0.4c-0.2,0-0.3-0.1-0.3-0.3c0-0.2,0.2-0.2,0.2-0.3c0-0.1-0.1-0.2-0.2-0.2c-0.4,0-0.4,0.3-0.4,1v0.4h0.6v0.2
				h-0.6V19c0,0.3,0,0.3,0.2,0.3h0.3v0.2h-1.6V19.3z"/>
			<path class="st0" d="M90.7,19.3H91c0.2,0,0.2-0.1,0.2-0.3v-2.1h-0.5v-0.2h0.5v-0.4c0-0.6,0.3-1.2,1-1.2c0.4,0,0.8,0.2,0.8,0.6
				c0,0.2-0.1,0.4-0.3,0.4c-0.2,0-0.3-0.1-0.3-0.3c0-0.2,0.2-0.2,0.2-0.3c0-0.1-0.1-0.2-0.2-0.2c-0.4,0-0.4,0.3-0.4,1v0.4h0.6v0.2
				h-0.6V19c0,0.3,0,0.3,0.2,0.3h0.3v0.2h-1.6V19.3z"/>
			<path class="st0" d="M95.6,18.9c0,0.4-0.1,0.7-0.6,0.7c-0.3,0-0.5-0.1-0.5-0.4c-0.2,0.3-0.5,0.4-0.8,0.4c-0.5,0-0.9-0.3-0.9-0.8
				c0-0.6,0.7-1,1.3-1c0.1,0,0.2,0,0.3,0v-0.5c0-0.3-0.1-0.6-0.4-0.6c-0.1,0-0.4,0-0.4,0.2c0,0.1,0.1,0.1,0.1,0.3
				c0,0.2-0.2,0.3-0.3,0.3c-0.2,0-0.4-0.2-0.4-0.4c0-0.5,0.7-0.6,1-0.6c0.6,0,1,0.2,1,0.8v1.7c0,0.1,0,0.2,0.2,0.2
				c0.2,0,0.2-0.3,0.2-0.4v-0.1h0.2V18.9z M94.4,18c-0.1,0-0.2,0-0.3,0c-0.5,0-0.8,0.4-0.8,0.8c0,0.3,0.2,0.6,0.5,0.6
				c0.3,0,0.5-0.3,0.5-0.6V18z"/>
			<path class="st0" d="M96,19.3h0.2c0.1,0,0.2-0.1,0.2-0.4v-1.7c0-0.3,0-0.4-0.2-0.4H96v-0.2h0.4c0.3,0,0.6,0,0.7-0.1
				c0,0.1,0,0.3,0,0.6v1.8c0,0.3,0.1,0.4,0.2,0.4h0.2v0.2H96V19.3z M96.7,15.3c0.2,0,0.4,0.2,0.4,0.4c0,0.2-0.2,0.4-0.4,0.4
				c-0.2,0-0.4-0.2-0.4-0.4C96.3,15.5,96.5,15.3,96.7,15.3z"/>
			<path class="st0" d="M97.8,19.3h0.3c0.2,0,0.2-0.1,0.2-0.3v-1.6c0-0.5,0-0.6-0.2-0.6h-0.3v-0.2h0.6c0.1,0,0.3,0,0.4-0.1v0.7h0
				c0.2-0.3,0.4-0.7,0.8-0.7c0.3,0,0.5,0.2,0.5,0.4c0,0.2-0.1,0.4-0.4,0.4c-0.2,0-0.3-0.1-0.3-0.2c0-0.1,0-0.1,0-0.2
				c0,0-0.1,0-0.1,0c-0.3,0-0.5,0.4-0.5,1.4V19c0,0.3,0,0.3,0.2,0.3h0.3v0.2h-1.6V19.3z"/>
			<path class="st0" d="M102.6,17.4h-0.2c-0.1-0.4-0.3-0.7-0.8-0.7c-0.3,0-0.5,0.2-0.5,0.5c0,0.8,1.7,0.2,1.7,1.4
				c0,0.6-0.5,0.9-1.1,0.9c-0.1,0-0.3,0-0.4-0.1c-0.1,0-0.2,0-0.3,0c-0.1,0-0.2,0.1-0.3,0.1h0v-1h0.2c0,0.5,0.4,0.8,0.9,0.8
				c0.3,0,0.6-0.2,0.6-0.6c0-0.9-1.6-0.2-1.6-1.4c0-0.6,0.5-0.9,1-0.9c0.1,0,0.3,0,0.4,0c0.1,0,0.2,0,0.3,0c0.1,0,0.2-0.1,0.3-0.1h0
				V17.4z"/>
			<path class="st0" d="M24.6,25c0,0.4-0.1,0.7-0.6,0.7c-0.3,0-0.5-0.1-0.5-0.4c-0.2,0.3-0.5,0.4-0.8,0.4c-0.5,0-0.9-0.3-0.9-0.8
				c0-0.6,0.7-1,1.3-1c0.1,0,0.2,0,0.3,0v-0.5c0-0.3-0.1-0.6-0.4-0.6c-0.1,0-0.4,0-0.4,0.2c0,0.1,0.1,0.1,0.1,0.3
				c0,0.2-0.2,0.3-0.3,0.3c-0.2,0-0.4-0.2-0.4-0.4c0-0.5,0.7-0.6,1-0.6c0.6,0,1,0.2,1,0.8v1.7c0,0.1,0,0.2,0.2,0.2
				c0.2,0,0.2-0.3,0.2-0.4v-0.1h0.2V25z M23.5,24.2c-0.1,0-0.2,0-0.3,0c-0.5,0-0.8,0.4-0.8,0.8c0,0.3,0.2,0.6,0.5,0.6
				c0.3,0,0.5-0.3,0.5-0.6V24.2z"/>
			<path class="st0" d="M25,25.5h0.3c0.2,0,0.2-0.1,0.2-0.3v-1.6c0-0.5,0-0.6-0.2-0.6H25v-0.2h0.3c0.4,0,0.6,0,0.7-0.1v0.5h0
				c0.2-0.3,0.5-0.5,0.9-0.5c0.5,0,0.9,0.3,0.9,0.8V25c0,0.4,0,0.5,0.2,0.5h0.3v0.2h-1.5v-0.2H27c0.2,0,0.2-0.1,0.2-0.5v-1.3
				c0-0.3-0.1-0.7-0.5-0.7c-0.6,0-0.7,0.6-0.7,1.1v1c0,0.3,0,0.3,0.2,0.3h0.2v0.2H25V25.5z"/>
			<path class="st0" d="M29.6,22.7c0.3,0,0.7,0.2,0.9,0.5h0V22c0-0.4,0-0.4-0.2-0.4h-0.3v-0.2h1V25c0,0.4,0,0.5,0.2,0.5h0.3v0.2h-1
				v-0.5h0c-0.2,0.4-0.5,0.6-0.9,0.6c-0.7,0-1.1-0.7-1.1-1.5C28.6,23.6,28.8,22.7,29.6,22.7z M30.5,24.2c0-0.9-0.3-1.2-0.7-1.2
				c-0.5,0-0.6,0.5-0.6,1.2c0,0.7,0.1,1.2,0.6,1.2C30.3,25.5,30.5,25.1,30.5,24.2z"/>
			<path class="st0" d="M34.4,25.5h0.3c0.2,0,0.2-0.1,0.2-0.6v-3.1h-0.3c-0.5,0-0.9,0.3-0.9,0.8h-0.2v-1H37v1h-0.2
				c0-0.5-0.4-0.8-0.9-0.8h-0.3v3.1c0,0.5,0,0.6,0.2,0.6h0.3v0.2h-1.6V25.5z"/>
			<path class="st0" d="M37,25.5h0.3c0.2,0,0.2-0.1,0.2-0.3v-1.6c0-0.5,0-0.6-0.2-0.6H37v-0.2h0.6c0.1,0,0.3,0,0.4-0.1v0.7h0
				c0.2-0.3,0.4-0.7,0.8-0.7c0.3,0,0.5,0.2,0.5,0.4c0,0.2-0.1,0.4-0.4,0.4c-0.2,0-0.3-0.1-0.3-0.2c0-0.1,0-0.1,0-0.2
				c0,0-0.1,0-0.1,0c-0.3,0-0.5,0.4-0.5,1.4v0.6c0,0.3,0,0.3,0.2,0.3h0.3v0.2H37V25.5z"/>
			<path class="st0" d="M42.6,25c0,0.4-0.1,0.7-0.6,0.7c-0.3,0-0.5-0.1-0.5-0.4c-0.2,0.3-0.5,0.4-0.8,0.4c-0.5,0-0.9-0.3-0.9-0.8
				c0-0.6,0.7-1,1.3-1c0.1,0,0.2,0,0.3,0v-0.5c0-0.3-0.1-0.6-0.4-0.6c-0.1,0-0.4,0-0.4,0.2c0,0.1,0.1,0.1,0.1,0.3
				c0,0.2-0.2,0.3-0.3,0.3c-0.2,0-0.4-0.2-0.4-0.4c0-0.5,0.7-0.6,1-0.6c0.6,0,1,0.2,1,0.8v1.7c0,0.1,0,0.2,0.2,0.2
				c0.2,0,0.2-0.3,0.2-0.4v-0.1h0.2V25z M41.4,24.2c-0.1,0-0.2,0-0.3,0c-0.5,0-0.8,0.4-0.8,0.8c0,0.3,0.2,0.6,0.5,0.6
				c0.3,0,0.5-0.3,0.5-0.6V24.2z"/>
			<path class="st0" d="M44.1,22.7c0.3,0,0.7,0.2,0.9,0.5h0V22c0-0.4,0-0.4-0.2-0.4h-0.3v-0.2h1V25c0,0.4,0,0.5,0.2,0.5H46v0.2h-1
				v-0.5h0c-0.2,0.4-0.5,0.6-0.9,0.6c-0.7,0-1.1-0.7-1.1-1.5C43,23.6,43.3,22.7,44.1,22.7z M45,24.2c0-0.9-0.3-1.2-0.7-1.2
				c-0.5,0-0.6,0.5-0.6,1.2c0,0.7,0.1,1.2,0.6,1.2C44.7,25.5,45,25.1,45,24.2z"/>
			<path class="st0" d="M47,24.3c0,1,0.2,1.3,0.7,1.3c0.5,0,0.9-0.4,0.9-0.9h0.2c0,0.7-0.5,1.1-1.1,1.1c-0.9,0-1.3-0.7-1.3-1.5
				c0-0.8,0.4-1.5,1.3-1.5c0.8,0,1.2,0.8,1.2,1.5H47z M48.1,24.1c0-0.7-0.2-1.2-0.6-1.2c-0.4,0-0.6,0.5-0.6,1.2H48.1z"/>
		</g>
	</g>
</g>
<g id="Layer_2">
</g>
</svg>
