<?xml version="1.0" encoding="utf-8"?>
<!-- Generator: Adobe Illustrator 21.0.1, SVG Export Plug-In . SVG Version: 6.00 Build 0)  -->
<svg version="1.1"
	 id="Layer_1" xmlns:cc="http://creativecommons.org/ns#" xmlns:dc="http://purl.org/dc/elements/1.1/" xmlns:inkscape="http://www.inkscape.org/namespaces/inkscape" xmlns:rdf="http://www.w3.org/1999/02/22-rdf-syntax-ns#" xmlns:sodipodi="http://sodipodi.sourceforge.net/DTD/sodipodi-0.dtd" xmlns:svg="http://www.w3.org/2000/svg"
	 xmlns="http://www.w3.org/2000/svg" xmlns:xlink="http://www.w3.org/1999/xlink" x="0px" y="0px" viewBox="0 0 100 101.3"
	 style="enable-background:new 0 0 100 101.3;" xml:space="preserve">
<style type="text/css">
	.st0{fill:#006845;}
</style>
<g transform="translate(0,-952.36218)">
	<path class="st0" d="M50,957.4c-13.8,0-25,11.2-25,25c0,12.8,9.6,23.3,22,24.8v37.2c0,1.6,1.4,3,3,3s3-1.4,3-3v-37.2
		c12.4-1.5,22-12.1,22-24.8C75,968.6,63.8,957.4,50,957.4z M50,963.4c10.5,0,19,8.5,19,19s-8.5,19-19,19s-19-8.5-19-19
		S39.5,963.4,50,963.4z"/>
</g>
<text transform="matrix(1 0 0 1 0 115)" style="display:none;enable-background:new    ; font-family:'Arial-BoldMT'; font-size:5px;">Created by Icons Bazaar</text>
<text transform="matrix(1 0 0 1 0 120)" style="display:none;enable-background:new    ; font-family:'Arial-BoldMT'; font-size:5px;">from the Noun Project</text>
</svg>
