<?xml version="1.0" encoding="utf-8"?>
<!-- Generator: Adobe Illustrator 21.0.1, SVG Export Plug-In . SVG Version: 6.00 Build 0)  -->
<svg version="1.1" id="Layer_1" xmlns="http://www.w3.org/2000/svg" xmlns:xlink="http://www.w3.org/1999/xlink" x="0px" y="0px"
	 viewBox="0 0 80 78.7" style="enable-background:new 0 0 80 78.7;" xml:space="preserve">
<style type="text/css">
	.st0{fill:#FFFFFF;}
</style>
<path class="st0" d="M40,3C20.1,3,4,19.1,4,39s16.1,36,36,36s36-16.1,36-36S59.9,3,40,3z M53,51H27c-1.1,0-2-0.9-2-2s0.9-2,2-2h26
	c1.1,0,2,0.9,2,2S54.1,51,53,51z M53,41H27c-1.1,0-2-0.9-2-2s0.9-2,2-2h26c1.1,0,2,0.9,2,2S54.1,41,53,41z M53,32H27
	c-1.1,0-2-0.9-2-2s0.9-2,2-2h26c1.1,0,2,0.9,2,2S54.1,32,53,32z"/>
<text transform="matrix(1 0 0 1 -10 104)" style="display:none;enable-background:new    ; font-family:'Arial-BoldMT'; font-size:5px;">Created by Shastry</text>
<text transform="matrix(1 0 0 1 -10 109)" style="display:none;enable-background:new    ; font-family:'Arial-BoldMT'; font-size:5px;">from the Noun Project</text>
</svg>
