<?xml version="1.0" encoding="utf-8"?>
<!-- Generator: Adobe Illustrator 21.0.1, SVG Export Plug-In . SVG Version: 6.00 Build 0)  -->
<svg version="1.1"
	 id="Layer_1" xmlns:cc="http://creativecommons.org/ns#" xmlns:dc="http://purl.org/dc/elements/1.1/" xmlns:inkscape="http://www.inkscape.org/namespaces/inkscape" xmlns:rdf="http://www.w3.org/1999/02/22-rdf-syntax-ns#" xmlns:sodipodi="http://sodipodi.sourceforge.net/DTD/sodipodi-0.dtd" xmlns:svg="http://www.w3.org/2000/svg"
	 xmlns="http://www.w3.org/2000/svg" xmlns:xlink="http://www.w3.org/1999/xlink" x="0px" y="0px" viewBox="0 0 100 100"
	 style="enable-background:new 0 0 100 100;" xml:space="preserve">
<g transform="translate(0,-952.36218)">
	<path style="fill:#FFFFFF;" d="M50,952.4c-27.6,0-50,22.4-50,50c0,27.6,22.4,50,50,50s50-22.4,50-50C100,974.8,77.6,952.4,50,952.4
		z M50,959.1c24,0,43.3,19.3,43.3,43.3S74,1045.7,50,1045.7s-43.3-19.3-43.3-43.3C6.7,978.4,26,959.1,50,959.1z M25.2,999.1
		c-1.9,0.1-3.2,1.7-3.1,3.6c0.1,1.9,1.7,3.2,3.6,3.1l0,0h48.9c1.9,0,3.3-1.4,3.3-3.3s-1.4-3.3-3.3-3.3h-0.1H25.6
		C25.4,999.1,25.3,999.1,25.2,999.1z"/>
</g>
</svg>
