<?xml version="1.0" encoding="utf-8"?>
<!-- Generator: Adobe Illustrator 21.1.0, SVG Export Plug-In . SVG Version: 6.00 Build 0)  -->
<svg version="1.1" id="Layer_1" xmlns="http://www.w3.org/2000/svg" xmlns:xlink="http://www.w3.org/1999/xlink" x="0px" y="0px"
	 viewBox="0 0 602 89" style="enable-background:new 0 0 602 89;" xml:space="preserve">
<g>
	<g>
		<g>
			<path style="fill:#FFFFFF;" d="M22.9,0.1l-8.8,8.1l1.7,2.4c0,0,0.3-0.3,0.4-0.4c5.1,7.3,10.9,11.3,16.4,11.3
				c5.9,0,8.9-2,10.8-3.3c1-0.7,1.7-1.2,2.5-1.2c0.3,0,0.8,0.1,1,1.3l0.1,0.3l1.2-0.5v-0.2c-0.2-1-0.8-2.1-2.1-2.1
				c-1.1,0-2,0.6-3.2,1.4c-2,1.3-4.8,3.1-10.1,3.1c-5.5,0-11.6-4.4-16.2-11.9c0.9-0.8,6.2-5.8,7.3-6.8c2.3,3.6,7.9,11.3,14.8,11.3
				c1.2,0,2.2-0.5,3.4-1c1.4-0.6,3-1.3,5.1-1.3c3.1,0,4.7,1.5,5.5,2.8c1.2,1.9,1.1,4.3,0.4,5.6L53,19.2l1,1.2l0.2-0.4
				c1.1-2.6,0.9-5.1-0.5-7.2s-3.8-3.3-6.5-3.3c-2,0-4,0.8-5.6,1.5c-1.1,0.5-2.1,0.9-2.8,0.9c-4.7,0-10-4.2-14.2-11.3l-0.1-0.1L23,0
				L22.9,0.1z"/>
		</g>
		<g>
			<path style="fill:#FFFFFF;" d="M7.9,70.2l-0.7,0.5l2.6,4.1c1.8,2.8,3.1,4.9,3.1,6.6c0,1-0.1,1.2-0.2,1.2l-0.2-0.1
				c-0.3-0.2-0.7-0.4-1.4-0.4c-1.1,0-2.3,0.8-2.3,2.3c0,0.7,0.3,1.4,0.8,1.8c0.6,0.5,1.3,0.6,2.2,0.5c0,0.1-0.1,0.2-0.1,0.3
				c0,0.4,0.1,0.7,0.3,1c0.3,0.4,0.8,0.8,2,0.8c4.5,0,11.7-5.7,14.1-11l0.1-0.3l-1.4-0.4l-0.1,0.2c-2,5.5-9.4,10.3-12.8,10.3
				c-0.5,0-0.8-0.2-1-0.4c-0.3-0.5-0.1-1.1,0.2-1.6l0.4-0.7l-0.7,0.3c-0.3,0.1-1,0.3-1.3,0.3c-1.1,0-1.5-0.6-1.5-1.2
				c0-0.7,0.5-1.1,1-1.1c0.4,0,0.7,0.2,1,0.4l0.8,0.3c1.4,0,1.4-1.9,1.4-2.5c0-2-1.4-4.1-3.4-7.1L8.2,70L7.9,70.2z"/>
		</g>
		<g>
			<path style="fill:#FFFFFF;" d="M16.2,9.2c-2.1,2.1-4.1,4.4-5.8,6.8l-0.2,0.2l0.7,0.6l0.2-0.2c2.3-3.1,4.4-5.2,5.8-6.5L17,9.8
				l-0.6-0.9L16.2,9.2z"/>
		</g>
		<g>
			<path style="fill:#FFFFFF;" d="M8.4,18.8c-5.3,8.1-8,16.8-8,25.8c0,10.3,2.1,16.8,5.3,23.2l0.2,0.4l0.8-0.9l-0.1-0.2
				C4,62,1.4,55.2,1.4,44.6c0-10.9,4.2-19.8,7.7-25.2l0.1-0.2l-0.6-0.7L8.4,18.8z"/>
		</g>
		<g>
			<path style="fill:#FFFFFF;" d="M21.4,15.6C13.3,23.9,9.5,33.4,9.5,45.3c0,12.6,4.8,23.3,14.3,31.8l0.9-1L24.6,76
				c-8.7-6.9-13.9-18.4-13.9-30.6c0-11.5,4.4-22.3,11.7-28.8l0.2-0.2l-1.1-0.9L21.4,15.6z"/>
		</g>
		<g>
			<g>
				<path style="fill:#FFFFFF;" d="M54.2,20.7c0.1-1-0.3-2-1.1-2.7c-0.7-0.7-1.8-1.1-2.9-1.1c-2.5,0-3.8,1.4-5.4,4l-0.2,0.3l0,0
					C42.5,25,17.5,69.6,17.5,69.6l0.7,0.8l27.4-49l0,0l0.1-0.2c0.1-0.2,0.2-0.3,0.3-0.5c0.3-0.4,0.6-0.6,1-0.6
					c0.2,0,0.4,0.3,0.4,0.6l-0.2,0.7l-0.3,0.8L23.6,76.7l0.4,0.1l-0.2,0.4l10.9,2.4l19.5-54.1C54.5,24.7,55.3,22.2,54.2,20.7z
					 M53.2,25.1c0,0-18.4,50.6-19.2,53c-0.4-0.1-6.8-1.5-9-2l22.7-53.6l0.4-1.1l0.2-0.7c0-0.9-0.5-1.5-1.3-1.5l0,0
					c0.7-0.8,1.6-1.3,3.1-1.3c2,0,3.1,1.1,3.1,3.2c0.3,0.7,0.4,1.2,0.4,1.8C53.6,23.6,53.4,24.3,53.2,25.1z"/>
			</g>
		</g>
	</g>
	<g>
		<path style="fill:#FFFFFF;" d="M7.2,16.9c0,0.8,0.5,1.4,1.2,2.1c0.9,0.9,1.9,2.1,1.9,4.4c-0.1,0.2-0.2,0.5-0.3,0.7
			c-2,4.6-5,11.6-5,20.7C5,51.6,6.6,57,7.7,60.9c0.1,0.3,0.1,0.5,0.2,0.8c-0.1,2.7-1.3,4.3-2.3,5.6c-0.7,0.9-1.3,1.6-1.3,2.4
			c0,1.3,0.8,2,2.2,2c2.4,0,3.4-3.8,3.4-5.8c0-1.2-0.5-2.9-1.1-5C7.6,57,6.1,51.6,6.1,44.8c0-9.1,3-15.9,5-20.4
			c1-2.2,1.6-3.7,1.6-4.8c0-2.8-1.3-4.8-3.1-4.8C8.1,14.8,7.2,15.6,7.2,16.9z M9.1,18.2c-0.5-0.5-0.8-0.9-0.8-1.3
			c0-0.9,0.6-1.1,1.2-1.1c1.1,0,2.1,1.7,2.1,3.7c0,0.5-0.2,1.2-0.5,2C10.6,19.9,9.8,18.9,9.1,18.2z M5.4,69.7c0-0.5,0.5-1.1,1-1.9
			C7.1,66.9,8,65.7,8.5,64c0.2,0.7,0.3,1.4,0.3,1.9c0,2.2-1,4.7-2.3,4.7C5.8,70.7,5.4,70.3,5.4,69.7z"/>
	</g>
	<g>
		<g>
			<path style="fill:#FFFFFF;" d="M13.8,15.3l-0.5,0.1v0.2c0,1.2,0.8,2.4,2.5,2.4c0.8,0,2.5-0.6,2.5-2.4v-0.3h-0.9v0.3
				c0,1.1-0.8,1.5-1.6,1.5c-1.2,0-1.6-0.8-1.6-1.6v-0.3L13.8,15.3z"/>
		</g>
		<g>
			<path style="fill:#FFFFFF;" d="M13.3,15.6v0.3l0.8-0.2v-0.2c0-0.9,0.7-1.5,1.6-1.5c0.8,0,1.6,0.4,1.6,1.6v0.3h0.9v-0.3
				c0-1.6-1.3-2.4-2.5-2.4C14.6,13.2,13.3,14,13.3,15.6z"/>
		</g>
	</g>
	<g>
		<path style="fill:#FFFFFF;" d="M11.5,72.2c0,2.3,1.8,3.2,3,3.2c1.8,0,2.9-1,2.9-2.6v-0.3h-1v0.3c0,0.5-0.2,1.7-1.8,1.7
			c-1,0-2.1-0.8-2.1-2.2V72l-0.9-0.1v0.3H11.5z"/>
		<path style="fill:#FFFFFF;" d="M11.5,72.2v0.2l0.9,0.1v-0.3c0-0.2,0-1.7,1.7-1.7c1,0,2.2,0.7,2.2,2.2V73h1v-0.3
			c0-1.8-1.3-3.1-3.2-3.1C12.9,69.6,11.5,70.5,11.5,72.2z"/>
	</g>
	<g>
		<path style="fill:#FFFFFF;" d="M39.8,39.5L39.8,39.5l0.1,1l12.9-12.4l0.8-1.2l-0.4-0.3L39.8,39.5z"/>
	</g>
	<g>
		<path style="fill:#FFFFFF;" d="M45.9,25.5c0,0.1,1,17.9,1,17.9V44l0.8-0.8l-1-18.4l-0.5-0.1L45.9,25.5z"/>
	</g>
	<g>
		<polygon style="fill:#FFFFFF;" points="42.4,56.2 27.2,68.8 26.7,70.5 42.6,57.3 43,55.7 		"/>
	</g>
	<g>
		<path style="fill:#FFFFFF;" d="M34.6,51.8l-0.3,0.8c0,0.1,1.9,20.1,1.9,20.1v0.4l0.9-0.5L35,50.8L34.6,51.8z"/>
	</g>
	<g>
		<g>
			<polygon style="fill:#FFFFFF;" points="19.5,13.2 18.8,12.9 18.8,68.2 19.7,66.7 19.7,13.4 			"/>
		</g>
		<g>
			<polygon style="fill:#FFFFFF;" points="22.8,16.2 22.1,16.2 22.1,62.5 23,60.8 23,16.2 			"/>
		</g>
		<g>
			<polygon style="fill:#FFFFFF;" points="26,18.5 25.4,18.5 25.4,56.8 26.3,55 26.3,18.5 			"/>
		</g>
		<g>
			<polygon style="fill:#FFFFFF;" points="29.3,19.9 28.7,19.9 28.7,50.4 29.2,50 29.6,49.1 29.6,19.9 			"/>
		</g>
		<g>
			<polygon style="fill:#FFFFFF;" points="32.6,20.5 32,20.5 32,44.5 32.5,44.2 32.9,43.3 32.9,20.5 			"/>
		</g>
		<g>
			<polygon style="fill:#FFFFFF;" points="35.9,20.3 35.3,20.3 35.3,38.7 35.8,38.4 36.2,37.5 36.2,20.3 			"/>
		</g>
		<g>
			<polygon style="fill:#FFFFFF;" points="39.2,19.5 38.6,19.5 38.6,32.8 39.1,32.4 39.5,31.4 39.5,19.5 			"/>
		</g>
		<g>
			<polygon style="fill:#FFFFFF;" points="42.5,17.9 41.8,17.9 41.8,27 42.4,26.6 42.8,25.6 42.8,17.9 			"/>
		</g>
	</g>
</g>
<g>
	<path style="fill:#FFFFFF;" d="M79.1,21.6c0.3,1,0.6,2,1,2.9l4.6,11.9c1.2,3.2,1.7,3.2,2.6,3.2h0.3v0.8h-7.1v-0.8H81
		c1.2,0,1.4-0.2,1.4-0.7c0-0.3-0.1-0.6-0.3-1.2l-1.4-3.5h-7.2l-0.9,2.2c-0.5,1.3-0.7,1.9-0.7,2.3c0,0.8,0.8,0.8,1.7,0.8h0.3v0.8
		h-5.4v-0.8H69c0.8,0,1.4-0.3,2.1-1.8l5.7-13.6c0.4-0.9,0.7-1.7,0.9-2.6h1.4V21.6z M80.5,33.5l-3.2-8.1l-3.4,8.1H80.5z"/>
	<path style="fill:#FFFFFF;" d="M87.8,39.6H89c0.9,0,0.9-0.5,0.9-1.6v-7c0-2.2-0.1-2.7-0.8-2.7h-1.3v-0.8H89c1.8,0,2.9-0.2,3.4-0.4
		v2.3h0.1c1.1-1.6,2.4-2.3,4.2-2.3c2.5,0,4,1.3,4,3.8v6.6c0,1.6,0,2.1,0.9,2.1h1.1v0.8h-6.6v-0.8h1c0.9,0,1-0.4,1-2.1v-6.1
		c0-1.6-0.5-3.1-2.4-3.1c-2.7,0-3.1,2.8-3.1,5v4.8c0,1.2,0.2,1.6,0.9,1.6h1.1v0.8h-6.8C87.8,40.5,87.8,39.6,87.8,39.6z"/>
	<path style="fill:#FFFFFF;" d="M111.9,39.6h0.8c1.1,0,1.3-0.4,1.3-1.3V24.1c0-1.4-0.4-1.5-1.4-1.5h-0.7v-0.8h8.5
		c3.1,0,5.9,1.1,5.9,4.1c0,2.3-2.3,4.2-4.6,4.6v0.1c3.2,0.6,3.7,1.3,3.8,4.8l0.1,3.2c0,0.4,0.1,0.9,0.6,0.9c0.6,0,1-0.6,1.2-1.3
		l0.8,0.3c-0.6,1.4-1.5,2.2-2.9,2.2c-2.3,0-2.7-1.8-2.8-3.5l-0.2-3.5c-0.1-2.1-1.2-2.8-3.7-2.8h-1.7v7c0,1.1,0.1,1.6,1.3,1.6h0.8
		v0.8h-7.2L111.9,39.6L111.9,39.6z M116.9,30.3h2c2.2,0,4-1,4-3.8c0-2.9-1.5-3.8-4.1-3.8h-2L116.9,30.3L116.9,30.3z"/>
	<path style="fill:#FFFFFF;" d="M135.9,40.8c-4,0-6-3.1-6-6.8s2-6.9,6-6.9s6,3.1,6,6.9C141.9,37.6,139.9,40.8,135.9,40.8z
		 M135.9,27.8c-2.3,0-3,1.7-3,6.1s0.7,6.1,3,6.1s3-1.7,3-6.1C139,29.5,138.3,27.8,135.9,27.8z"/>
	<path style="fill:#FFFFFF;" d="M143.6,39.6h1.1c0.7,0,1-0.3,1-1.8V30c0-1.3,0-1.7-0.9-1.7h-1.1v-0.8h1.6c1.2,0,2.7-0.2,3.2-0.4
		c-0.1,0.5-0.1,1.3-0.1,2.7v8.1c0,1.5,0.3,1.8,1,1.8h1.1v0.8h-6.8v-0.9H143.6z M147,21.4c1,0,1.8,0.8,1.8,1.8S148,25,147,25
		s-1.8-0.8-1.8-1.8C145.2,22.3,146.1,21.4,147,21.4z"/>
	<path style="fill:#FFFFFF;" d="M151.4,39.6h1.2c0.9,0,0.9-0.5,0.9-1.6v-7c0-2.2-0.1-2.7-0.8-2.7h-1.3v-0.8h1.2
		c1.8,0,2.9-0.2,3.4-0.4v2.3h0.1c1.1-1.6,2.4-2.3,4.2-2.3c2.5,0,4,1.3,4,3.8v6.6c0,1.6,0,2.1,0.9,2.1h1.1v0.8h-6.6v-0.8h1
		c0.9,0,1-0.4,1-2.1v-6.1c0-1.6-0.5-3.1-2.4-3.1c-2.7,0-3.1,2.8-3.1,5v4.8c0,1.2,0.2,1.6,0.9,1.6h1.1v0.8h-6.8L151.4,39.6
		L151.4,39.6z"/>
	<path style="fill:#FFFFFF;" d="M167.3,39.6h1.2c0.9,0,0.9-0.5,0.9-1.6v-7c0-2.2-0.1-2.7-0.8-2.7h-1.3v-0.8h1.2
		c1.8,0,2.9-0.2,3.4-0.4v2.3h0.1c1.1-1.6,2.4-2.3,4.2-2.3c2.5,0,4,1.3,4,3.8v6.6c0,1.6,0,2.1,0.9,2.1h1.1v0.8h-6.6v-0.8h1
		c0.9,0,1-0.4,1-2.1v-6.1c0-1.6-0.5-3.1-2.4-3.1c-2.7,0-3.1,2.8-3.1,5v4.8c0,1.2,0.2,1.6,0.9,1.6h1.1v0.8h-6.8L167.3,39.6
		L167.3,39.6z"/>
	<path style="fill:#FFFFFF;" d="M205.9,26.6H205c-0.2-2.5-2-4.4-4.6-4.4c-4.7,0-5.5,5.4-5.5,9.1c0,3.9,0.8,8.6,5.2,8.8
		c1.8,0.1,3.7-1,3.6-3.6v-2.1c0-1-0.3-1.4-0.9-1.4h-1.1v-0.8h6.4V33h-0.7c-0.8,0-1,0.3-1,1.6v6h-0.7c-0.1-0.3-0.2-0.6-0.8-0.6
		c-0.9,0-2.1,0.8-4.8,0.8c-6.2,0-8.4-4.3-8.4-9.9c0-5.1,3.1-9.5,8.5-9.5c1.3,0,2.2,0.2,2.8,0.4c0.7,0.2,1.1,0.4,1.6,0.4
		c0.3,0,0.4-0.3,0.4-0.7h0.9V26.6z"/>
	<path style="fill:#FFFFFF;" d="M209.2,39.6h1.2c0.9,0,0.9-0.5,0.9-1.6v-7c0-2.2-0.1-2.7-0.8-2.7h-1.3v-0.8h1.2
		c1.8,0,2.9-0.2,3.4-0.4v2.3h0.1c1.1-1.6,2.4-2.3,4.2-2.3c2.5,0,4,1.3,4,3.8v6.6c0,1.6,0,2.1,0.9,2.1h1.1v0.8h-6.6v-0.8h1
		c0.9,0,1-0.4,1-2.1v-6.1c0-1.6-0.5-3.1-2.4-3.1c-2.7,0-3.1,2.8-3.1,5v4.8c0,1.2,0.2,1.6,0.9,1.6h1.1v0.8h-6.8L209.2,39.6
		L209.2,39.6z"/>
	<path style="fill:#FFFFFF;" d="M231.7,40.8c-4,0-6-3.1-6-6.8s2-6.9,6-6.9s6,3.1,6,6.9C237.7,37.6,235.7,40.8,231.7,40.8z
		 M231.7,27.8c-2.3,0-3,1.7-3,6.1s0.7,6.1,3,6.1s3-1.7,3-6.1C234.8,29.5,234.1,27.8,231.7,27.8z M234.2,21.4
		c0.5-0.5,0.8-0.7,1.2-0.7c0.6,0,1.2,0.5,1.2,1.1s-0.3,0.8-0.8,1.1l-4,2.4h-1.4L234.2,21.4z"/>
	<path style="fill:#FFFFFF;" d="M247.2,28.3h-3v10.1c0,0.8,0.3,1.2,1.1,1.2c1,0,1.2-1,1.2-2.4v-0.4h1.1v0.5c0,2.1-0.4,3.5-3.1,3.5
		c-2.1,0-2.8-1-2.8-3v-9.5h-2.2v-0.8c2.4-0.1,3.8-2.2,3.9-4.4h0.9v4.4h3L247.2,28.3L247.2,28.3z"/>
	<path style="fill:#FFFFFF;" d="M248.7,39.6h1.2c0.9,0,0.9-0.5,0.9-1.6V23.9c0-1.8-0.2-2.2-1-2.2h-1.1V21h4.7v8.4h0.1
		c0.9-1.6,2.3-2.3,4.1-2.3c2.5,0,4,1.3,4,3.8v6.6c0,1.6,0,2.1,0.9,2.1h1.1v0.8H257v-0.8h1c0.9,0,1-0.4,1-2.1v-6.1
		c0-1.6-0.5-3.1-2.4-3.1c-2.7,0-3.1,2.9-3.1,5v4.8c0,1.2,0.2,1.6,0.9,1.6h1.1v0.8h-6.8L248.7,39.6L248.7,39.6z"/>
	<path style="fill:#FFFFFF;" d="M278.3,37.6c0,1.9-0.5,3.2-2.7,3.2c-1.2,0-2.2-0.5-2.5-1.7c-0.8,1.3-2.1,1.7-3.6,1.7
		c-2.3,0-4.1-1.2-4.1-3.6c0-3,3.4-4.5,6-4.5c0.5,0,1,0,1.6,0.1v-2.3c0-1.5-0.2-2.5-1.9-2.5c-0.4,0-2,0.2-2,0.9
		c0,0.2,0.4,0.6,0.4,1.4s-0.7,1.4-1.5,1.4c-1,0-1.7-0.8-1.7-1.8c0-2.2,3.4-2.7,4.8-2.7c2.8,0,4.5,0.9,4.5,3.8v7.7
		c0,0.5,0.2,0.9,0.7,0.9c1,0,1-1.2,1-2v-0.7h0.9v0.7H278.3z M273,33.5c-0.5-0.1-0.9-0.1-1.4-0.1c-2.1,0-3.5,1.6-3.5,3.7
		c0,1.6,0.7,2.6,2.3,2.6c1.4,0,2.5-1.1,2.5-2.5v-3.7H273z"/>
	<path style="fill:#FFFFFF;" d="M279.4,39.6h1.1c0.7,0,1-0.3,1-1.8V30c0-1.3,0-1.7-0.9-1.7h-1.1v-0.8h1.6c1.2,0,2.7-0.2,3.2-0.4
		c-0.1,0.5-0.1,1.3-0.1,2.7v8.1c0,1.5,0.3,1.8,1,1.8h1.1v0.8h-6.8v-0.9H279.4z M285.2,21.4c0.5-0.5,0.8-0.7,1.2-0.7
		c0.6,0,1.2,0.5,1.2,1.1s-0.3,0.8-0.8,1.1l-4,2.4h-1.4L285.2,21.4z"/>
	<path style="fill:#FFFFFF;" d="M295.5,39.6h1c0.7,0,1.1-0.2,1.1-1.7V24.4c0-1.5-0.1-1.7-1.2-1.7h-0.9v-0.8h14.2v4.3h-0.9
		c0-2.5-1.3-3.6-3.8-3.6h-4.5v8h3.9c1.7,0,2.4-1.2,2.4-2.8h0.9v6.4h-0.9c0-1.7-0.6-2.9-2.4-2.9h-3.9v8.3h4.8c2.4,0,3.8-1.1,3.8-3.6
		h0.9v4.4h-14.5V39.6z"/>
	<path style="fill:#FFFFFF;" d="M326,37.6c0,1.9-0.5,3.2-2.7,3.2c-1.2,0-2.2-0.5-2.5-1.7c-0.8,1.3-2.1,1.7-3.6,1.7
		c-2.3,0-4.1-1.2-4.1-3.6c0-3,3.4-4.5,6-4.5c0.5,0,1,0,1.6,0.1v-2.3c0-1.5-0.2-2.5-1.9-2.5c-0.4,0-2,0.2-2,0.9
		c0,0.2,0.4,0.6,0.4,1.4s-0.7,1.4-1.5,1.4c-1,0-1.7-0.8-1.7-1.8c0-2.2,3.4-2.7,4.8-2.7c2.8,0,4.5,0.9,4.5,3.8v7.7
		c0,0.5,0.2,0.9,0.7,0.9c1,0,1-1.2,1-2v-0.7h0.9v0.7H326z M320.7,33.5c-0.5-0.1-0.9-0.1-1.4-0.1c-2.1,0-3.5,1.6-3.5,3.7
		c0,1.6,0.7,2.6,2.3,2.6c1.4,0,2.5-1.1,2.5-2.5v-3.7H320.7z"/>
	<path style="fill:#FFFFFF;" d="M338.5,36c0,3-2,4.8-4.7,4.8c-4,0-6-3.1-6-6.8s2-6.9,6-6.9c2,0,4.4,0.8,4.4,2.8c0,1-0.7,1.6-1.7,1.6
		c-0.9,0-1.6-0.6-1.6-1.4c0-0.9,0.4-0.9,0.4-1.4c0-0.7-1-0.8-1.5-0.8c-2.3,0-3,1.7-3,6.1c0,2.9,0.5,6.1,3.2,6.1c2.3,0,3.4-2,3.4-4.1
		H338.5z"/>
	<path style="fill:#FFFFFF;" d="M340.1,39.6h1.2c0.9,0,0.9-0.5,0.9-1.6V23.9c0-1.8-0.2-2.2-1-2.2h-1.1V21h4.7v8.4h0.1
		c0.9-1.6,2.3-2.3,4.1-2.3c2.5,0,4,1.3,4,3.8v6.6c0,1.6,0,2.1,0.9,2.1h1.1v0.8h-6.6v-0.8h1c0.9,0,1-0.4,1-2.1v-6.1
		c0-1.6-0.5-3.1-2.4-3.1c-2.7,0-3.1,2.9-3.1,5v4.8c0,1.2,0.2,1.6,0.9,1.6h1.1v0.8h-6.8L340.1,39.6L340.1,39.6z"/>
	<path style="fill:#FFFFFF;" d="M363.7,28.3h-3v10.1c0,0.8,0.3,1.2,1.1,1.2c1,0,1.2-1,1.2-2.4v-0.4h1.1v0.5c0,2.1-0.4,3.5-3.1,3.5
		c-2.1,0-2.8-1-2.8-3v-9.5H356v-0.8c2.4-0.1,3.8-2.2,3.9-4.4h0.9v4.4h3v0.8H363.7z"/>
	<path style="fill:#FFFFFF;" d="M365.2,39.6h1.2c0.9,0,0.9-0.5,0.9-1.6v-7c0-2.2-0.1-2.7-0.8-2.7h-1.3v-0.8h2.8
		c0.7,0,1.3-0.2,1.8-0.4v3h0.1c0.8-1.5,1.9-3,3.8-3c1.2,0,2.3,0.7,2.3,2c0,1.1-0.6,1.7-1.7,1.7c-0.7,0-1.5-0.3-1.5-1.1
		c0-0.4,0.1-0.5,0.1-0.7s-0.3-0.2-0.5-0.2c-1.6,0-2.4,1.7-2.4,6.4V38c0,1.2,0.2,1.6,0.9,1.6h1.6v0.8h-7.2L365.2,39.6L365.2,39.6z"/>
	<path style="fill:#FFFFFF;" d="M391,37.6c0,1.9-0.5,3.2-2.7,3.2c-1.2,0-2.2-0.5-2.5-1.7c-0.8,1.3-2.1,1.7-3.6,1.7
		c-2.3,0-4.1-1.2-4.1-3.6c0-3,3.4-4.5,6-4.5c0.5,0,1,0,1.6,0.1v-2.3c0-1.5-0.2-2.5-2-2.5c-0.4,0-2,0.2-2,0.9c0,0.2,0.4,0.6,0.4,1.4
		s-0.7,1.4-1.5,1.4c-1,0-1.7-0.8-1.7-1.8c0-2.2,3.4-2.7,4.8-2.7c2.8,0,4.5,0.9,4.5,3.8v7.7c0,0.5,0.2,0.9,0.7,0.9c1,0,1-1.2,1-2
		v-0.7h0.9v0.7H391z M385.7,33.5c-0.5-0.1-0.9-0.1-1.4-0.1c-2.1,0-3.5,1.6-3.5,3.7c0,1.6,0.7,2.6,2.3,2.6c1.4,0,2.5-1.1,2.5-2.5
		v-3.7H385.7z"/>
	<path style="fill:#FFFFFF;" d="M403.5,36c0,3-2,4.8-4.7,4.8c-4,0-6-3.1-6-6.8s2-6.9,6-6.9c2,0,4.4,0.8,4.4,2.8c0,1-0.7,1.6-1.7,1.6
		c-0.9,0-1.6-0.6-1.6-1.4c0-0.9,0.4-0.9,0.4-1.4c0-0.7-1-0.8-1.5-0.8c-2.3,0-3,1.7-3,6.1c0,2.9,0.5,6.1,3.2,6.1c2.3,0,3.4-2,3.4-4.1
		H403.5z"/>
	<path style="fill:#FFFFFF;" d="M405.1,39.6h1.2c0.9,0,0.9-0.5,0.9-1.6V23.9c0-1.8-0.2-2.2-1-2.2h-1.1V21h4.7v8.4h0.1
		c0.9-1.6,2.3-2.3,4.1-2.3c2.5,0,4,1.3,4,3.8v6.6c0,1.6,0,2.1,0.9,2.1h1.1v0.8h-6.6v-0.8h1c0.9,0,1-0.4,1-2.1v-6.1
		c0-1.6-0.5-3.1-2.4-3.1c-2.7,0-3.1,2.9-3.1,5v4.8c0,1.2,0.2,1.6,0.9,1.6h1.1v0.8h-6.8L405.1,39.6L405.1,39.6z"/>
	<path style="fill:#FFFFFF;" d="M434.8,37.6c0,1.9-0.5,3.2-2.7,3.2c-1.2,0-2.2-0.5-2.5-1.7c-0.8,1.3-2.1,1.7-3.6,1.7
		c-2.3,0-4.1-1.2-4.1-3.6c0-3,3.4-4.5,6-4.5c0.5,0,1,0,1.6,0.1v-2.3c0-1.5-0.2-2.5-1.9-2.5c-0.4,0-2,0.2-2,0.9
		c0,0.2,0.4,0.6,0.4,1.4s-0.7,1.4-1.5,1.4c-1,0-1.7-0.8-1.7-1.8c0-2.2,3.4-2.7,4.8-2.7c2.8,0,4.5,0.9,4.5,3.8v7.7
		c0,0.5,0.2,0.9,0.7,0.9c1,0,1-1.2,1-2v-0.7h0.9v0.7H434.8z M429.5,33.5c-0.5-0.1-0.9-0.1-1.4-0.1c-2.1,0-3.5,1.6-3.5,3.7
		c0,1.6,0.7,2.6,2.3,2.6c1.4,0,2.5-1.1,2.5-2.5v-3.7H429.5z"/>
	<path style="fill:#FFFFFF;" d="M457.4,37.6c0,1.9-0.5,3.2-2.7,3.2c-1.2,0-2.2-0.5-2.5-1.7c-0.8,1.3-2.1,1.7-3.6,1.7
		c-2.3,0-4.1-1.2-4.1-3.6c0-3,3.4-4.5,6-4.5c0.5,0,1,0,1.6,0.1v-2.3c0-1.5-0.2-2.5-1.9-2.5c-0.4,0-2,0.2-2,0.9
		c0,0.2,0.4,0.6,0.4,1.4s-0.7,1.4-1.5,1.4c-1,0-1.7-0.8-1.7-1.8c0-2.2,3.4-2.7,4.8-2.7c2.8,0,4.5,0.9,4.5,3.8v7.7
		c0,0.5,0.2,0.9,0.7,0.9c1,0,1-1.2,1-2v-0.7h0.9v0.7H457.4z M452.1,33.5c-0.5-0.1-0.9-0.1-1.4-0.1c-2.1,0-3.5,1.6-3.5,3.7
		c0,1.6,0.7,2.6,2.3,2.6c1.4,0,2.5-1.1,2.5-2.5v-3.7H452.1z"/>
	<path style="fill:#FFFFFF;" d="M466.1,38.1c2.7,0,5.2,0.8,5.2,3.9c0,3.3-3.4,4.5-6.3,4.5c-2.2,0-6-0.5-6-3.4c0-1.6,1.4-2.8,2.9-2.9
		v-0.1c-0.9-0.3-1.5-1.1-1.5-2.2c0-1.2,0.8-2.1,1.9-2.4v-0.1c-1.7-0.7-2.8-1.8-2.8-3.8c0-3.1,2.3-4.6,5.3-4.6c0.5,0,0.9,0.1,1.2,0.2
		c0.4,0.1,0.8,0.2,1.2,0.2c0.7,0,1.3-0.3,1.8-0.6c0.5-0.3,1.1-0.6,1.8-0.6c0.9,0,1.3,0.7,1.3,1.5s-0.5,1.4-1.3,1.4
		c-1.3,0-1-1.3-1.5-1.3c-0.4,0-0.9,0.2-1.2,0.3c1.1,0.8,1.9,2.1,1.9,3.4c0,4.1-3.8,4.5-5.6,4.6c-2.4,0.1-2.9,0.3-2.9,1s0.6,1,2.3,1
		H466.1z M461.3,43c0,2,1.6,2.7,4,2.7c1.6,0,3.9-0.8,3.9-2.7c0-2.4-1.8-2.6-3.5-2.6C463,40.4,461.3,40.7,461.3,43z M462.4,31.7
		c0,1.9,0.4,3.6,2.6,3.6c2,0,2.4-1.9,2.4-3.6c0-1.6-0.4-3.9-2.4-3.9C462.8,27.8,462.4,29.7,462.4,31.7z"/>
	<path style="fill:#FFFFFF;" d="M473,27.5h1.2c1.3,0,3.1-0.2,3.7-0.4c-0.1,0.8-0.2,1.7-0.2,2.6v6.4c0,2,0.5,3.5,2.4,3.5
		c2,0,3.1-1.9,3.1-4.8v-4.1c0-2.1,0-2.4-1-2.4H481v-0.8h1.2c1.3,0,3.1-0.2,3.7-0.4c-0.1,0.8-0.2,1.7-0.2,2.6v7.9
		c0,1.6,0,2.1,0.9,2.1h1.1v0.8h-2.2c-0.9,0-1.8,0.1-2.3,0.1v-2.1h-0.1c-0.8,1.5-2.2,2.4-4.1,2.4c-3.5,0-4.1-1.5-4.1-4.2V31
		c0-2.2-0.1-2.7-0.8-2.7H473V27.5z"/>
	<path style="fill:#FFFFFF;" d="M498.5,31.1h-0.8c-0.4-1.9-1.6-3.2-3.6-3.2c-1.4,0-2.4,1-2.4,2.4c0,3.6,7.5,0.8,7.5,6.3
		c0,2.7-2.3,4.3-4.9,4.3c-0.6,0-1.2-0.1-1.9-0.2c-0.5-0.1-1-0.2-1.6-0.2s-1.1,0.3-1.2,0.4h-0.2v-4.4h0.8c0.2,2.2,1.7,3.7,4,3.7
		c1.5,0,2.6-0.9,2.6-2.6c0-4-7.4-0.8-7.4-6.3c0-2.7,2.1-4.1,4.6-4.1c0.6,0,1.2,0.1,1.6,0.2c0.5,0.1,0.9,0.2,1.3,0.2
		c0.5,0,1-0.2,1.2-0.4h0.2v3.9H498.5z"/>
	<path style="fill:#FFFFFF;" d="M510.6,39.6h1.2c1.1,0,1.1-0.5,1.1-2.7V22.6h-1.4c-2.3,0-4,1.3-4,3.8h-0.9v-4.5h15.6v4.5h-0.9
		c-0.1-2.4-1.7-3.8-4-3.8h-1.4v14.3c0,2.2,0,2.7,1.1,2.7h1.2v0.8h-7.5L510.6,39.6L510.6,39.6z"/>
	<path style="fill:#FFFFFF;" d="M522.2,39.6h1.2c0.9,0,0.9-0.5,0.9-1.6v-7c0-2.2-0.1-2.7-0.8-2.7h-1.3v-0.8h2.8
		c0.7,0,1.3-0.2,1.8-0.4v3h0.1c0.8-1.5,1.9-3,3.8-3c1.2,0,2.3,0.7,2.3,2c0,1.1-0.6,1.7-1.7,1.7c-0.7,0-1.5-0.3-1.5-1.1
		c0-0.4,0.1-0.5,0.1-0.7s-0.3-0.2-0.5-0.2c-1.6,0-2.4,1.7-2.4,6.4V38c0,1.2,0.2,1.6,0.9,1.6h1.6v0.8h-7.2L522.2,39.6L522.2,39.6z"/>
	<path style="fill:#FFFFFF;" d="M548,37.6c0,1.9-0.5,3.2-2.7,3.2c-1.2,0-2.2-0.5-2.5-1.7c-0.8,1.3-2.1,1.7-3.6,1.7
		c-2.3,0-4.1-1.2-4.1-3.6c0-3,3.4-4.5,6-4.5c0.5,0,1,0,1.6,0.1v-2.3c0-1.5-0.2-2.5-1.9-2.5c-0.4,0-2,0.2-2,0.9
		c0,0.2,0.4,0.6,0.4,1.4s-0.7,1.4-1.5,1.4c-1,0-1.7-0.8-1.7-1.8c0-2.2,3.4-2.7,4.8-2.7c2.8,0,4.5,0.9,4.5,3.8v7.7
		c0,0.5,0.2,0.9,0.7,0.9c1,0,1-1.2,1-2v-0.7h0.9L548,37.6L548,37.6z M542.7,33.5c-0.5-0.1-0.9-0.1-1.4-0.1c-2.1,0-3.5,1.6-3.5,3.7
		c0,1.6,0.7,2.6,2.3,2.6c1.4,0,2.5-1.1,2.5-2.5v-3.7H542.7z M543.5,21.4c0.5-0.5,0.8-0.7,1.2-0.7c0.6,0,1.2,0.5,1.2,1.1
		s-0.3,0.8-0.8,1.1l-4,2.4h-1.4L543.5,21.4z"/>
	<path style="fill:#FFFFFF;" d="M554.8,27.1c1.6,0,3.1,0.7,3.9,2.4h0.1v-5.7c0-1.7-0.1-2-0.8-2h-1.2V21h4.7v16.4
		c0,1.9,0.1,2.2,0.9,2.2h1.1v0.8H559v-2.1h-0.1c-0.9,1.7-2.2,2.5-4.1,2.5c-3.2,0-4.9-3.4-4.9-6.9C549.9,30.8,551.1,27.1,554.8,27.1z
		 M558.8,33.9c0-4.1-1.3-5.6-3.4-5.6s-2.6,2.4-2.6,5.6s0.3,5.7,2.6,5.7C557.5,39.6,558.8,37.7,558.8,33.9z"/>
	<path style="fill:#FFFFFF;" d="M578.3,37.6c0,1.9-0.5,3.2-2.7,3.2c-1.2,0-2.2-0.5-2.5-1.7c-0.8,1.3-2.1,1.7-3.6,1.7
		c-2.3,0-4.1-1.2-4.1-3.6c0-3,3.4-4.5,6-4.5c0.5,0,1,0,1.6,0.1v-2.3c0-1.5-0.2-2.5-1.9-2.5c-0.4,0-2,0.2-2,0.9
		c0,0.2,0.4,0.6,0.4,1.4s-0.7,1.4-1.5,1.4c-1,0-1.7-0.8-1.7-1.8c0-2.2,3.4-2.7,4.8-2.7c2.8,0,4.5,0.9,4.5,3.8v7.7
		c0,0.5,0.2,0.9,0.7,0.9c1,0,1-1.2,1-2v-0.7h0.9L578.3,37.6L578.3,37.6z M573.1,33.5c-0.5-0.1-0.9-0.1-1.4-0.1
		c-2.1,0-3.5,1.6-3.5,3.7c0,1.6,0.7,2.6,2.3,2.6c1.4,0,2.5-1.1,2.5-2.5v-3.7H573.1z M573.9,21.4c0.5-0.5,0.8-0.7,1.2-0.7
		c0.6,0,1.2,0.5,1.2,1.1s-0.3,0.8-0.8,1.1l-4,2.4h-1.4L573.9,21.4z"/>
	<path style="fill:#FFFFFF;" d="M579.4,39.6h1.1c0.7,0,1-0.3,1-1.8V24.2c0-2.1-0.1-2.4-0.9-2.4h-1.1V21h4.7v16.8
		c0,1.5,0.3,1.8,1,1.8h1.1v0.8h-6.8L579.4,39.6L579.4,39.6z"/>
	<path style="fill:#FFFFFF;" d="M600.4,37.6c0,1.9-0.5,3.2-2.7,3.2c-1.2,0-2.2-0.5-2.5-1.7c-0.8,1.3-2.1,1.7-3.6,1.7
		c-2.3,0-4.1-1.2-4.1-3.6c0-3,3.4-4.5,6-4.5c0.5,0,1,0,1.6,0.1v-2.3c0-1.5-0.2-2.5-1.9-2.5c-0.4,0-2,0.2-2,0.9
		c0,0.2,0.4,0.6,0.4,1.4s-0.7,1.4-1.5,1.4c-1,0-1.7-0.8-1.7-1.8c0-2.2,3.4-2.7,4.8-2.7c2.8,0,4.5,0.9,4.5,3.8v7.7
		c0,0.5,0.2,0.9,0.7,0.9c1,0,1-1.2,1-2v-0.7h0.9L600.4,37.6L600.4,37.6z M595.2,33.5c-0.5-0.1-0.9-0.1-1.4-0.1
		c-2.1,0-3.5,1.6-3.5,3.7c0,1.6,0.7,2.6,2.3,2.6c1.4,0,2.5-1.1,2.5-2.5v-3.7H595.2z"/>
	<path style="fill:#FFFFFF;" d="M69.7,53.1h7.4c6,0,9.4,3.5,9.4,9.4c0,6.5-4.8,9.1-9.2,9.1h-7.6v-0.8h1.1c0.9,0,1-0.3,1-2.8V56.2
		c0-1.8-0.1-2.4-1-2.4h-1.2L69.7,53.1L69.7,53.1z M74.7,70.8H77c5,0,6.2-4.3,6.2-8.5c0-4.4-1.3-8.6-6.4-8.6h-2.1V70.8z"/>
	<path style="fill:#FFFFFF;" d="M91.4,65.1c0,4.4,0.7,6.1,3,6.1c2.5,0,4-1.7,4-4.1h1.1c0,3-2.2,4.9-5.1,4.9c-4,0-6-3.1-6-6.8
		c0-3.7,2-6.9,6-6.9c3.7,0,5.4,3.6,5.3,6.9L91.4,65.1L91.4,65.1z M96.9,64.4c-0.1-3.1-0.7-5.4-2.7-5.4s-2.7,2.2-2.7,5.4H96.9z"/>
	<path style="fill:#FFFFFF;" d="M109.9,72c-1.5,0-3.1-0.7-3.9-2.3l0,0v5c0,1.5,0.3,1.8,1,1.8h1.1v0.8h-6.8v-0.8h1.2
		c0.7,0,1-0.3,1-1.8V61.9c0-2,0.1-2.4-1-2.4h-1.1v-0.8h2.8c0.7,0,1.3-0.2,1.8-0.4V61h0.1c0.7-1.6,2.2-2.7,4.1-2.7
		c3.7,0,4.9,3.7,4.9,6.8C114.8,68.6,113.2,72,109.9,72z M111.9,65.1c0-3.1-0.5-5.6-2.6-5.6s-3.4,1.5-3.4,5.6c0,3.8,1.2,5.7,3.4,5.7
		C111.6,70.8,111.9,68.2,111.9,65.1z"/>
	<path style="fill:#FFFFFF;" d="M129.9,68.8c0,1.9-0.5,3.2-2.7,3.2c-1.2,0-2.2-0.5-2.5-1.7c-0.8,1.3-2.1,1.7-3.6,1.7
		c-2.3,0-4.1-1.2-4.1-3.6c0-3,3.4-4.5,6-4.5c0.5,0,1,0,1.6,0.1v-2.3c0-1.5-0.2-2.5-2-2.5c-0.4,0-2,0.2-2,0.9c0,0.2,0.4,0.6,0.4,1.4
		c0,0.8-0.7,1.4-1.5,1.4c-1,0-1.7-0.8-1.7-1.8c0-2.2,3.4-2.7,4.8-2.7c2.8,0,4.6,0.9,4.6,3.8v7.7c0,0.5,0.2,0.9,0.7,0.9
		c1,0,1-1.2,1-2v-0.6h0.9v0.6H129.9z M124.6,64.7c-0.5-0.1-0.9-0.1-1.4-0.1c-2.1,0-3.5,1.6-3.5,3.7c0,1.6,0.7,2.6,2.3,2.6
		c1.4,0,2.5-1.1,2.5-2.5L124.6,64.7L124.6,64.7z"/>
	<path style="fill:#FFFFFF;" d="M130.5,70.8h1.2c0.9,0,0.9-0.5,0.9-1.6v-7.1c0-2.2-0.1-2.7-0.8-2.7h-1.3v-0.8h2.8
		c0.6,0,1.3-0.2,1.8-0.4v3h0.1c0.8-1.5,1.9-3,3.8-3c1.2,0,2.3,0.7,2.3,2c0,1.1-0.6,1.7-1.7,1.7c-0.7,0-1.5-0.3-1.5-1.1
		c0-0.4,0.1-0.5,0.1-0.7s-0.3-0.2-0.5-0.2c-1.6,0-2.4,1.7-2.4,6.4v2.8c0,1.2,0.2,1.6,0.9,1.6h1.6v0.8h-7.2v-0.7H130.5z"/>
	<path style="fill:#FFFFFF;" d="M149.8,59.5h-3v10.1c0,0.8,0.3,1.2,1.1,1.2c1,0,1.2-1,1.2-2.4V68h1.1v0.5c0,2.1-0.4,3.5-3.1,3.5
		c-2.1,0-2.8-1-2.8-3v-9.5H142v-0.8c2.4-0.1,3.8-2.2,3.9-4.4h0.9v4.4h3L149.8,59.5L149.8,59.5z"/>
	<path style="fill:#FFFFFF;" d="M150.7,70.8h1.2c0.9,0,0.9-0.5,0.9-1.6v-7.1c0-2.2-0.1-2.7-0.8-2.7h-1.3v-0.8h1.2
		c1.8,0,2.9-0.2,3.4-0.4v2.3h0.1c1.1-1.6,2.4-2.3,4.2-2.3c1.7,0,3,0.7,3.5,2.4h0.1c1.1-1.8,2.2-2.4,4.2-2.4c2.3,0,3.8,1.1,3.8,3.6
		v6.9c0,1.6,0,2.1,0.9,2.1h1.1v0.8h-6.6v-0.8h1c0.9,0,1-0.4,1-2.1v-5.9c0-2.3-0.4-3.4-2.3-3.4c-2.2,0-3,2.1-3,4.4v4.3
		c0,2.3,0.2,2.6,0.8,2.6h1.2v0.8h-6.6v-0.8h1.1c0.6,0,0.8-0.5,0.8-2.3v-5.6c0-1.6,0-3.4-2.2-3.4c-2.7,0-3.1,2.8-3.1,5v4.8
		c0,1.2,0.2,1.6,0.9,1.6h1.1v0.8h-6.8v-0.8H150.7z"/>
	<path style="fill:#FFFFFF;" d="M177.4,65.1c0,4.4,0.7,6.1,3,6.1c2.5,0,4-1.7,4-4.1h1.1c0,3-2.2,4.9-5.1,4.9c-4,0-6-3.1-6-6.8
		c0-3.7,2-6.9,6-6.9c3.7,0,5.4,3.6,5.3,6.9L177.4,65.1L177.4,65.1z M182.8,64.4c-0.1-3.1-0.7-5.4-2.7-5.4s-2.7,2.2-2.7,5.4H182.8z"
		/>
	<path style="fill:#FFFFFF;" d="M187.2,70.8h1.2c0.9,0,0.9-0.5,0.9-1.6v-7.1c0-2.2-0.1-2.7-0.8-2.7h-1.3v-0.8h1.2
		c1.8,0,2.9-0.2,3.4-0.4v2.3h0.1c1.1-1.6,2.4-2.3,4.2-2.3c2.5,0,4,1.3,4,3.8v6.6c0,1.6,0,2.1,0.9,2.1h1.1v0.8h-6.6v-0.8h1
		c0.9,0,1-0.4,1-2.1v-6.1c0-1.6-0.5-3.1-2.4-3.1c-2.7,0-3.1,2.8-3.1,5v4.8c0,1.2,0.2,1.6,0.9,1.6h1.1v0.8h-6.8L187.2,70.8
		L187.2,70.8z"/>
	<path style="fill:#FFFFFF;" d="M210.3,59.5h-3v10.1c0,0.8,0.3,1.2,1.1,1.2c1,0,1.2-1,1.2-2.4V68h1.1v0.5c0,2.1-0.4,3.5-3.1,3.5
		c-2.1,0-2.8-1-2.8-3v-9.5h-2.2v-0.8c2.4-0.1,3.8-2.2,3.9-4.4h0.9v4.4h3L210.3,59.5L210.3,59.5z"/>
	<path style="fill:#FFFFFF;" d="M225,72c-4,0-6-3.1-6-6.8c0-3.7,2-6.9,6-6.9s6,3.1,6,6.9C231,68.8,229,72,225,72z M225,59
		c-2.3,0-3,1.7-3,6.1s0.7,6.1,3,6.1s3-1.7,3-6.1C228.1,60.7,227.4,59,225,59z"/>
	<path style="fill:#FFFFFF;" d="M232.3,70.8h1.2c0.9,0,0.9-0.5,0.9-1.6v-9.8h-2.1v-0.8h2.1V57c0-2.9,1.2-5.3,4.6-5.3
		c1.8,0,3.4,0.8,3.4,2.7c0,1-0.6,1.7-1.6,1.7c-0.8,0-1.5-0.5-1.5-1.3c0-1.1,0.8-1.1,0.8-1.4c0-0.6-0.6-0.8-1.1-0.8
		c-1.8,0-2,1.6-2,4.5v1.7h2.6v0.8H237v9.9c0,1.1,0.2,1.5,1.1,1.5h1.5v0.8h-7.3V70.8z"/>
	<path style="fill:#FFFFFF;" d="M248.2,70.8h1.1c0.9,0,1-0.5,1-2.7V56.5c0-2.5-0.1-2.7-1-2.7h-1.1V53h13.9v4.3h-0.9
		c-0.1-3.1-2.1-3.5-4.7-3.5h-3.2V62h2.7c2.1,0,3.3-0.8,3.3-2.9h0.9v6.6h-0.9c-0.1-2.2-1.2-2.9-3.3-2.9h-2.8v5.4c0,1.4,0,2.7,1.2,2.7
		h1v0.8h-7.2L248.2,70.8L248.2,70.8z"/>
	<path style="fill:#FFFFFF;" d="M270.2,72c-4,0-6-3.1-6-6.8c0-3.7,2-6.9,6-6.9s6,3.1,6,6.9C276.1,68.8,274.1,72,270.2,72z M270.2,59
		c-2.3,0-3,1.7-3,6.1s0.7,6.1,3,6.1s3-1.7,3-6.1S272.5,59,270.2,59z"/>
	<path style="fill:#FFFFFF;" d="M277.4,70.8h1.2c0.9,0,0.9-0.5,0.9-1.6v-7.1c0-2.2-0.1-2.7-0.8-2.7h-1.3v-0.8h2.8
		c0.7,0,1.3-0.2,1.8-0.4v3h0.1c0.8-1.5,1.9-3,3.8-3c1.2,0,2.3,0.7,2.3,2c0,1.1-0.6,1.7-1.7,1.7c-0.7,0-1.5-0.3-1.5-1.1
		c0-0.4,0.1-0.5,0.1-0.7s-0.3-0.2-0.5-0.2c-1.6,0-2.4,1.7-2.4,6.4v2.8c0,1.2,0.2,1.6,0.9,1.6h1.6v0.8h-7.2L277.4,70.8L277.4,70.8z"
		/>
	<path style="fill:#FFFFFF;" d="M292.6,65.1c0,4.4,0.7,6.1,3,6.1c2.5,0,4-1.7,4-4.1h1.1c0,3-2.2,4.9-5.1,4.9c-4,0-6-3.1-6-6.8
		c0-3.7,2-6.9,6-6.9c3.7,0,5.4,3.6,5.3,6.9L292.6,65.1L292.6,65.1z M298,64.4c-0.1-3.1-0.7-5.4-2.7-5.4s-2.7,2.2-2.7,5.4H298z"/>
	<path style="fill:#FFFFFF;" d="M302.3,70.8h1.1c0.7,0,1-0.3,1-1.8v-7.9c0-1.3,0-1.7-0.9-1.7h-1.1v-0.8h1.6c1.2,0,2.7-0.2,3.2-0.4
		c-0.1,0.5-0.1,1.3-0.1,2.7V69c0,1.5,0.3,1.8,1,1.8h1.1v0.8h-6.8v-0.8H302.3z M305.7,52.6c1,0,1.8,0.8,1.8,1.8s-0.8,1.8-1.8,1.8
		s-1.8-0.8-1.8-1.8C303.9,53.5,304.7,52.6,305.7,52.6z"/>
	<path style="fill:#FFFFFF;" d="M317.1,69.3c2.7,0,5.2,0.8,5.2,3.9c0,3.3-3.4,4.5-6.3,4.5c-2.2,0-6-0.5-6-3.4c0-1.6,1.4-2.8,2.9-2.9
		v-0.1c-0.9-0.3-1.5-1.1-1.5-2.2c0-1.2,0.8-2.1,1.9-2.4v-0.1c-1.7-0.7-2.8-1.8-2.8-3.8c0-3.1,2.3-4.6,5.3-4.6c0.5,0,0.9,0.1,1.2,0.2
		c0.4,0.1,0.8,0.2,1.2,0.2c0.7,0,1.3-0.3,1.8-0.6s1.1-0.6,1.8-0.6c0.9,0,1.3,0.7,1.3,1.5s-0.5,1.4-1.3,1.4c-1.3,0-1-1.3-1.5-1.3
		c-0.4,0-0.9,0.2-1.2,0.3c1.1,0.8,1.9,2.1,1.9,3.4c0,4.1-3.8,4.5-5.6,4.6c-2.4,0.1-2.9,0.3-2.9,1s0.6,1,2.3,1L317.1,69.3L317.1,69.3
		z M312.3,74.2c0,2,1.6,2.7,4,2.7c1.6,0,3.9-0.8,3.9-2.7c0-2.4-1.8-2.6-3.5-2.6C314,71.6,312.3,71.9,312.3,74.2z M313.4,62.9
		c0,1.9,0.4,3.6,2.6,3.6c2,0,2.4-1.9,2.4-3.6c0-1.6-0.4-3.9-2.4-3.9C313.8,59,313.4,60.9,313.4,62.9z"/>
	<path style="fill:#FFFFFF;" d="M323.5,70.8h1.2c0.9,0,0.9-0.5,0.9-1.6v-7.1c0-2.2-0.1-2.7-0.8-2.7h-1.3v-0.8h1.2
		c1.8,0,2.9-0.2,3.4-0.4v2.3h0.1c1.1-1.6,2.4-2.3,4.2-2.3c2.5,0,4,1.3,4,3.8v6.6c0,1.6,0,2.1,0.9,2.1h1.1v0.8h-6.6v-0.8h1
		c0.9,0,1-0.4,1-2.1v-6.1c0-1.6-0.5-3.1-2.4-3.1c-2.7,0-3.1,2.8-3.1,5v4.8c0,1.2,0.2,1.6,0.9,1.6h1.1v0.8h-6.8L323.5,70.8
		L323.5,70.8z"/>
	<path style="fill:#FFFFFF;" d="M353.6,52.8c0.3,1,0.6,2,1,2.9l4.6,11.9c1.2,3.2,1.7,3.2,2.6,3.2h0.3v0.8H355v-0.8h0.6
		c1.2,0,1.4-0.2,1.4-0.7c0-0.3-0.1-0.6-0.3-1.2l-1.4-3.5h-7.2l-0.9,2.2c-0.5,1.3-0.7,1.9-0.7,2.3c0,0.8,0.8,0.8,1.7,0.8h0.3v0.8
		h-5.4v-0.8h0.3c0.8,0,1.4-0.3,2.1-1.8l5.7-13.6c0.4-0.9,0.7-1.7,0.9-2.6L353.6,52.8L353.6,52.8z M355,64.7l-3.2-8.1l-3.4,8.1H355z"
		/>
	<path style="fill:#FFFFFF;" d="M361.9,70.8h1.2c0.9,0,0.9-0.5,0.9-1.6v-9.8h-2v-0.8h2.1V57c0-2.9,1.2-5.3,4.6-5.3
		c1.8,0,3.4,0.8,3.4,2.7c0,1-0.6,1.7-1.6,1.7c-0.8,0-1.5-0.5-1.5-1.3c0-1.1,0.8-1.1,0.8-1.4c0-0.6-0.6-0.8-1.1-0.8
		c-1.8,0-2,1.6-2,4.5v1.7h2.6v0.8h-2.6v9.9c0,1.1,0.2,1.5,1.1,1.5h1.5v0.8H362v-1H361.9z"/>
	<path style="fill:#FFFFFF;" d="M370,70.8h1.2c0.9,0,0.9-0.5,0.9-1.6v-9.8H370v-0.8h2.1V57c0-2.9,1.2-5.3,4.6-5.3
		c1.8,0,3.4,0.8,3.4,2.7c0,1-0.6,1.7-1.6,1.7c-0.8,0-1.5-0.5-1.5-1.3c0-1.1,0.8-1.1,0.8-1.4c0-0.6-0.6-0.8-1.1-0.8
		c-1.8,0-2,1.6-2,4.5v1.7h2.6v0.8h-2.6v9.9c0,1.1,0.2,1.5,1.1,1.5h1.5v0.8H370V70.8z"/>
	<path style="fill:#FFFFFF;" d="M391.9,68.8c0,1.9-0.5,3.2-2.7,3.2c-1.2,0-2.2-0.5-2.5-1.7c-0.8,1.3-2.1,1.7-3.6,1.7
		c-2.3,0-4.1-1.2-4.1-3.6c0-3,3.4-4.5,6-4.5c0.5,0,1,0,1.6,0.1v-2.3c0-1.5-0.2-2.5-1.9-2.5c-0.4,0-2,0.2-2,0.9
		c0,0.2,0.4,0.6,0.4,1.4c0,0.8-0.7,1.4-1.5,1.4c-1,0-1.7-0.8-1.7-1.8c0-2.2,3.4-2.7,4.8-2.7c2.8,0,4.5,0.9,4.5,3.8v7.7
		c0,0.5,0.2,0.9,0.7,0.9c1,0,1-1.2,1-2v-0.6h0.9v0.6H391.9z M386.7,64.7c-0.5-0.1-0.9-0.1-1.4-0.1c-2.1,0-3.5,1.6-3.5,3.7
		c0,1.6,0.7,2.6,2.3,2.6c1.4,0,2.5-1.1,2.5-2.5v-3.7H386.7z"/>
	<path style="fill:#FFFFFF;" d="M392.5,70.8h1.1c0.7,0,1-0.3,1-1.8v-7.9c0-1.3,0-1.7-0.9-1.7h-1.1v-0.8h1.6c1.2,0,2.7-0.2,3.2-0.4
		c-0.1,0.5-0.1,1.3-0.1,2.7V69c0,1.5,0.3,1.8,1,1.8h1.1v0.8h-6.8v-0.8H392.5z M395.9,52.6c1,0,1.8,0.8,1.8,1.8s-0.8,1.8-1.8,1.8
		s-1.8-0.8-1.8-1.8C394.1,53.5,394.9,52.6,395.9,52.6z"/>
	<path style="fill:#FFFFFF;" d="M399.7,70.8h1.2c0.9,0,0.9-0.5,0.9-1.6v-7.1c0-2.2-0.1-2.7-0.8-2.7h-1.3v-0.8h2.8
		c0.7,0,1.3-0.2,1.8-0.4v3h0.1c0.8-1.5,1.9-3,3.8-3c1.2,0,2.3,0.7,2.3,2c0,1.1-0.6,1.7-1.7,1.7c-0.7,0-1.5-0.3-1.5-1.1
		c0-0.4,0.1-0.5,0.1-0.7s-0.3-0.2-0.5-0.2c-1.6,0-2.4,1.7-2.4,6.4v2.8c0,1.2,0.2,1.6,0.9,1.6h1.6v0.8h-7.2L399.7,70.8L399.7,70.8z"
		/>
	<path style="fill:#FFFFFF;" d="M420.8,62.3H420c-0.4-1.9-1.6-3.2-3.6-3.2c-1.4,0-2.4,1-2.4,2.4c0,3.6,7.5,0.8,7.5,6.3
		c0,2.7-2.3,4.3-4.9,4.3c-0.6,0-1.2-0.1-1.9-0.2c-0.5-0.1-1-0.2-1.6-0.2s-1.1,0.3-1.2,0.4h-0.2v-4.4h0.8c0.2,2.2,1.7,3.7,4,3.7
		c1.5,0,2.6-0.9,2.6-2.6c0-4-7.4-0.8-7.4-6.3c0-2.7,2.1-4.1,4.6-4.1c0.6,0,1.2,0.1,1.6,0.2c0.5,0.1,0.9,0.2,1.3,0.2
		c0.5,0,1-0.2,1.2-0.4h0.2v3.9H420.8z"/>
	<path style="fill:#FFFFFF;" d="M443.7,68.8c0,1.9-0.5,3.2-2.7,3.2c-1.2,0-2.2-0.5-2.5-1.7c-0.8,1.3-2.1,1.7-3.6,1.7
		c-2.3,0-4.1-1.2-4.1-3.6c0-3,3.4-4.5,6-4.5c0.5,0,1,0,1.6,0.1v-2.3c0-1.5-0.2-2.5-1.9-2.5c-0.4,0-2,0.2-2,0.9
		c0,0.2,0.4,0.6,0.4,1.4c0,0.8-0.7,1.4-1.5,1.4c-1,0-1.7-0.8-1.7-1.8c0-2.2,3.4-2.7,4.8-2.7c2.8,0,4.5,0.9,4.5,3.8v7.7
		c0,0.5,0.2,0.9,0.7,0.9c1,0,1-1.2,1-2v-0.6h0.9v0.6H443.7z M438.5,64.7c-0.5-0.1-0.9-0.1-1.4-0.1c-2.1,0-3.5,1.6-3.5,3.7
		c0,1.6,0.7,2.6,2.3,2.6c1.4,0,2.5-1.1,2.5-2.5v-3.7H438.5z"/>
	<path style="fill:#FFFFFF;" d="M444.4,70.8h1.2c0.9,0,0.9-0.5,0.9-1.6v-7.1c0-2.2-0.1-2.7-0.8-2.7h-1.3v-0.8h1.2
		c1.8,0,2.9-0.2,3.4-0.4v2.3h0.1c1.1-1.6,2.4-2.3,4.2-2.3c2.5,0,4,1.3,4,3.8v6.6c0,1.6,0,2.1,0.9,2.1h1.1v0.8h-6.6v-0.8h1
		c0.9,0,1-0.4,1-2.1v-6.1c0-1.6-0.5-3.1-2.4-3.1c-2.7,0-3.1,2.8-3.1,5v4.8c0,1.2,0.2,1.6,0.9,1.6h1.1v0.8h-6.8L444.4,70.8
		L444.4,70.8z"/>
	<path style="fill:#FFFFFF;" d="M465.3,58.3c1.6,0,3.1,0.7,3.9,2.4h0.1V55c0-1.7-0.1-2-0.8-2h-1.2v-0.8h4.7v16.4
		c0,1.9,0.1,2.2,0.9,2.2h1.1v0.8h-4.5v-2.1h-0.1c-0.9,1.7-2.2,2.5-4.1,2.5c-3.2,0-4.9-3.4-4.9-6.9C460.5,62,461.7,58.3,465.3,58.3z
		 M469.4,65.1c0-4.1-1.3-5.6-3.4-5.6s-2.6,2.4-2.6,5.6s0.3,5.7,2.6,5.7C468.1,70.8,469.4,68.9,469.4,65.1z"/>
	<path style="fill:#FFFFFF;" d="M483.8,70.8h1.2c1.1,0,1.1-0.5,1.1-2.7V53.8h-1.4c-2.3,0-4,1.3-4,3.8h-0.9v-4.5h15.6v4.5h-0.9
		c-0.1-2.4-1.7-3.8-4-3.8H489v14.3c0,2.2,0,2.7,1.1,2.7h1.2v0.8h-7.5L483.8,70.8L483.8,70.8z"/>
	<path style="fill:#FFFFFF;" d="M494.8,70.8h1.2c0.9,0,0.9-0.5,0.9-1.6v-7.1c0-2.2-0.1-2.7-0.8-2.7h-1.3v-0.8h2.8
		c0.7,0,1.3-0.2,1.8-0.4v3h0.1c0.8-1.5,1.9-3,3.8-3c1.2,0,2.3,0.7,2.3,2c0,1.1-0.6,1.7-1.7,1.7c-0.7,0-1.5-0.3-1.5-1.1
		c0-0.4,0.1-0.5,0.1-0.7s-0.3-0.2-0.5-0.2c-1.6,0-2.4,1.7-2.4,6.4v2.8c0,1.2,0.2,1.6,0.9,1.6h1.6v0.8h-7.2L494.8,70.8L494.8,70.8z"
		/>
	<path style="fill:#FFFFFF;" d="M520.1,68.8c0,1.9-0.5,3.2-2.7,3.2c-1.2,0-2.2-0.5-2.5-1.7c-0.8,1.3-2.1,1.7-3.6,1.7
		c-2.3,0-4.1-1.2-4.1-3.6c0-3,3.4-4.5,6-4.5c0.5,0,1,0,1.6,0.1v-2.3c0-1.5-0.2-2.5-2-2.5c-0.4,0-2,0.2-2,0.9c0,0.2,0.4,0.6,0.4,1.4
		c0,0.8-0.7,1.4-1.5,1.4c-1,0-1.7-0.8-1.7-1.8c0-2.2,3.4-2.7,4.8-2.7c2.8,0,4.5,0.9,4.5,3.8v7.7c0,0.5,0.2,0.9,0.7,0.9
		c1,0,1-1.2,1-2v-0.6h0.9v0.6H520.1z M514.8,64.7c-0.5-0.1-0.9-0.1-1.4-0.1c-2.1,0-3.5,1.6-3.5,3.7c0,1.6,0.7,2.6,2.3,2.6
		c1.4,0,2.5-1.1,2.5-2.5v-3.7H514.8z"/>
	<path style="fill:#FFFFFF;" d="M526.4,58.3c1.6,0,3.1,0.7,3.9,2.4h0.1V55c0-1.7-0.1-2-0.8-2h-1.2v-0.8h4.7v16.4
		c0,1.9,0.1,2.2,0.9,2.2h1.1v0.8h-4.5v-2.1h-0.1c-0.9,1.7-2.2,2.5-4.1,2.5c-3.2,0-4.9-3.4-4.9-6.9C521.5,62,522.7,58.3,526.4,58.3z
		 M530.4,65.1c0-4.1-1.3-5.6-3.4-5.6s-2.6,2.4-2.6,5.6s0.3,5.7,2.6,5.7C529.1,70.8,530.4,68.9,530.4,65.1z"/>
	<path style="fill:#FFFFFF;" d="M539.3,65.1c0,4.4,0.7,6.1,3,6.1c2.5,0,4-1.7,4-4.1h1.1c0,3-2.2,4.9-5.1,4.9c-4,0-6-3.1-6-6.8
		c0-3.7,2-6.9,6-6.9c3.7,0,5.4,3.6,5.3,6.9L539.3,65.1L539.3,65.1z M544.7,64.4c-0.1-3.1-0.7-5.4-2.7-5.4s-2.7,2.2-2.7,5.4H544.7z"
		/>
</g>
</svg>
