<svg id="Layer_1" data-name="Layer 1" xmlns="http://www.w3.org/2000/svg" viewBox="0 0 290.98 55.77"><defs><style>.cls-1{fill:#006946;}</style></defs><title>DFAT_Green_Detailed_Horizontal</title><path class="cls-1" d="M250.16,217.31l.66.17c2.58,4.31,6,7.2,9.17,7.19,1.15,0,3.13-1.51,5.29-1.49a4.47,4.47,0,0,1,4.27,6.39l-.4-.46a4,4,0,0,0-3.84-5.56c-2.44,0-3.77,1.47-5.36,1.47-4.09,0-7.55-4.27-9.34-7.2l-4.9,4.57c2.69,4.29,6.56,7.67,10.49,7.67,5.35,0,6.72-2.82,8.44-2.82a1.28,1.28,0,0,1,1.18,1.16l-.42.15c-.1-.59-.35-1-.76-1-1.57,0-2.85,2.87-8.43,2.87-3.46,0-7.14-2.53-10.36-7.2l-.24.28-.88-1.24Z" transform="translate(-236.03 -217.31)"/><path class="cls-1" d="M240.44,261.85C242.29,265,244,267,244,268.57c0,.71-.08.94-.32.94s-.46-.34-1-.36a1.22,1.22,0,0,0-1.27,1.28c0,1,.88,1.49,1.91,1.28-.22.64.1,1.39,1.25,1.39,2.72,0,7.28-3.54,8.72-6.88l-.56-.15c-1.25,3.51-6,6.65-8.23,6.65-1,0-1-.94-.67-1.53a2.87,2.87,0,0,1-.84.18,1,1,0,0,1-1.1-1,.83.83,0,0,1,.73-.89c.58,0,.85.45,1.17.45.47,0,.7-.43.69-1.39,0-1.7-1.82-3.72-3.7-6.9Z" transform="translate(-236.03 -217.31)"/><path class="cls-1" d="M242.45,227.46a31,31,0,0,1,3.62-4.16l-.18-.26a38.32,38.32,0,0,0-3.64,4.25Z" transform="translate(-236.03 -217.31)"/><path class="cls-1" d="M241,229.1a29.6,29.6,0,0,0-5,16.23,30.92,30.92,0,0,0,3.35,14.6l.24-.27a30.4,30.4,0,0,1-3.34-14.33,29.93,29.93,0,0,1,4.87-16.08Z" transform="translate(-236.03 -217.31)"/><path class="cls-1" d="M249.25,227.1c-4.25,4.36-7.45,9.93-7.42,18.68a26.13,26.13,0,0,0,9,20l.27-.47c-5.41-4.34-8.83-11.52-8.87-19.52s3.26-14.6,7.44-18.34Z" transform="translate(-236.03 -217.31)"/><path class="cls-1" d="M264.15,230.24c1-1.65,1.66-2.4,3.17-2.4a2.24,2.24,0,0,1,2.33,2.37c.55.76.27,2,0,2.86l-12.21,34.1-6.63-1.39.27-.47,6.1,1.34L269.32,233a3.18,3.18,0,0,0,0-2.62,1.9,1.9,0,0,0-2.12-2.14c-1.6,0-2.13,1-2.83,2.16Z" transform="translate(-236.03 -217.31)"/><path class="cls-1" d="M246.89,261.24l17.26-31a1.3,1.3,0,0,1,1.16-.84.72.72,0,0,1,.67.81,6.92,6.92,0,0,1-.38,1l-14.45,34.31-.32-.08,14.55-34.29a6.25,6.25,0,0,0,.36-1c0-.34-.21-.6-.47-.6-.43,0-.64.23-.89.72l-17.33,31Z" transform="translate(-236.03 -217.31)"/><path class="cls-1" d="M261.79,226.4a1.22,1.22,0,0,0,1.18.5,1.5,1.5,0,0,0,1.32-1.31,1.17,1.17,0,0,0,1.17,1.1,2,2,0,0,0,1.08-.3,1.28,1.28,0,0,0-.15.67,1.17,1.17,0,0,0,.79,1l1.26.37-.51-.3c-.59-.18-1.24-.45-1.22-1.06a1.92,1.92,0,0,1,.5-1.32l-.25-.21a1.66,1.66,0,0,1-1.4.89c-.65,0-1-.38-1-1.39l-.38,0c-.09.66-.38,1.66-1.27,1.66a1,1,0,0,1-1.16-.95l-.38.15a1.39,1.39,0,0,1-1.4,1.72c-1.12,0-1.32-.83-1.09-1.25l-1-.26a1.37,1.37,0,0,1-1.24.86,1.25,1.25,0,0,1-1.23-1.16,1,1,0,0,1,.4-.72l-.79-.53a1.53,1.53,0,0,1-1.38.56,1.31,1.31,0,0,1-1.17-1.31,1.25,1.25,0,0,1,.47-.93l-1.19-1.18a1.32,1.32,0,0,1-1,.48c-.5,0-.79-.38-1.21-1.11a8.63,8.63,0,0,1-1.15,1.11c.66.4,1,.67,1,1.24a1.13,1.13,0,0,1-.53.93l1.37,1.44a1.48,1.48,0,0,1,1-.49c1,0,1.26,1.49.76,1.88l1.4.84a1.33,1.33,0,0,1,1.15-.81c.68,0,1.09.79.95,1.47l1.07.13a1,1,0,0,1,1-1,1.24,1.24,0,0,1,1.09.93l.3-.14a1.31,1.31,0,0,0-1.36-1,1.21,1.21,0,0,0-1.29.84l-.44,0a1.41,1.41,0,0,0-1.21-1.49,1.47,1.47,0,0,0-1.31.68l-.93-.55a1.39,1.39,0,0,0-1.16-2,1.74,1.74,0,0,0-1,.31l-1.12-1a1.14,1.14,0,0,0,.52-.91c0-.59-.34-.89-.84-1.27l.71-.63a1.39,1.39,0,0,0,1.19.93,1.7,1.7,0,0,0,.88-.41l.86.89a1.52,1.52,0,0,0-.4.92,1.62,1.62,0,0,0,1.5,1.54,2,2,0,0,0,1.43-.53l.3.27a1.1,1.1,0,0,0-.24.71,1.49,1.49,0,0,0,1.45,1.33,1.6,1.6,0,0,0,1.42-.71l.46.13c-.14.65.59,1.3,1.47,1.3A1.78,1.78,0,0,0,261.79,226.4Z" transform="translate(-236.03 -217.31)"/><path class="cls-1" d="M250.73,220.46a.43.43,0,0,1,.41.38.24.24,0,0,1-.22.25.4.4,0,0,1-.4-.4C250.49,220.51,250.61,220.46,250.73,220.46Z" transform="translate(-236.03 -217.31)"/><path class="cls-1" d="M253.6,223.47a.34.34,0,0,1,.37.36.22.22,0,0,1-.22.23.38.38,0,0,1-.41-.38A.22.22,0,0,1,253.6,223.47Z" transform="translate(-236.03 -217.31)"/><path class="cls-1" d="M256.77,225.51c.14,0,.33,0,.33.31a.24.24,0,0,1-.25.27.37.37,0,0,1-.36-.37A.22.22,0,0,1,256.77,225.51Z" transform="translate(-236.03 -217.31)"/><path class="cls-1" d="M260.18,226c.15,0,.29.11.29.22s-.18.25-.33.25a.22.22,0,0,1-.27-.22A.28.28,0,0,1,260.18,226Z" transform="translate(-236.03 -217.31)"/><path class="cls-1" d="M262.83,225.13c.18,0,.29.1.3.21s-.1.3-.3.3a.22.22,0,0,1-.27-.22C262.57,225.23,262.78,225.16,262.83,225.13Z" transform="translate(-236.03 -217.31)"/><path class="cls-1" d="M265.44,225.26a.29.29,0,0,1,.29-.31.22.22,0,0,1,.24.23.31.31,0,0,1-.31.33A.22.22,0,0,1,265.44,225.26Z" transform="translate(-236.03 -217.31)"/><path class="cls-1" d="M267.92,226.66a.32.32,0,0,1,.34.32c0,.12-.19.21-.33.21s-.35-.09-.33-.25A.32.32,0,0,1,267.92,226.66Z" transform="translate(-236.03 -217.31)"/><path class="cls-1" d="M248.25,222.86a.4.4,0,0,1,.3.41.24.24,0,0,1-.26.24.35.35,0,0,1-.35-.33A.34.34,0,0,1,248.25,222.86Z" transform="translate(-236.03 -217.31)"/><path class="cls-1" d="M251,226.28a.27.27,0,0,1,.26.3.2.2,0,0,1-.2.2c-.19,0-.31-.12-.3-.27S250.91,226.28,251,226.28Z" transform="translate(-236.03 -217.31)"/><path class="cls-1" d="M254.44,228.2a.26.26,0,0,1,.29.23c0,.15-.13.2-.27.2a.24.24,0,0,1-.24-.22A.2.2,0,0,1,254.44,228.2Z" transform="translate(-236.03 -217.31)"/><path class="cls-1" d="M257.7,228.64a.25.25,0,0,1,.3.23c0,.15-.16.25-.32.27a.27.27,0,0,1-.25-.25A.26.26,0,0,1,257.7,228.64Z" transform="translate(-236.03 -217.31)"/><path class="cls-1" d="M248.14,265l-.15.32c-.92-.62-2,.51-1,1.29l-.17.25c-.95-.7-1.69.51-.84,1.24l-.11.25c-1.39-1.12-.36-2.29.5-2C245.85,265.38,246.94,264.4,248.14,265Z" transform="translate(-236.03 -217.31)"/><path class="cls-1" d="M248.88,267.32l-.45-1-3.12,4.07a8,8,0,0,0,5.11-3.09,3.4,3.4,0,0,1-1.54,0l.19-.3a3.69,3.69,0,0,0,1.64,0l.11.16a7.87,7.87,0,0,1-5.91,3.62l-.06-.11L248.3,266l.21-.1.56,1.16Z" transform="translate(-236.03 -217.31)"/><path class="cls-1" d="M238.55,261.24a1.07,1.07,0,0,0,1.18,1.11c1.36,0,2-2.19,2-3.46,0-2-2.41-6.63-2.41-13.28,0-8.51,4.06-13.93,4.06-15.83,0-1.72-.8-2.86-1.77-2.86a1.15,1.15,0,0,0-1.29,1.19c0,1.24,2.22,1.53,1.94,4.69l.28-.82c-.12-2.41-1.87-3.12-1.9-3.86a.84.84,0,0,1,.94-.87c.84,0,1.47,1.17,1.47,2.51,0,1.87-4.07,7.47-4.07,15.88,0,6.66,2.42,11.16,2.42,13.26,0,1.36-.58,3.15-1.6,3.15-.61,0-.85-.31-.85-.8,0-1,2.09-2.07,2.08-4.74l-.18-.59C240.88,259.11,238.57,260,238.55,261.24Z" transform="translate(-236.03 -217.31)"/><polygon class="cls-1" points="3.07 29.08 6.42 32.28 4.28 36.52 4.18 36.1 6.01 32.34 3.13 29.53 3.07 29.08"/><polygon class="cls-1" points="3.98 21.59 6.3 25.6 3.08 29.07 3.13 28.66 5.92 25.56 3.92 22.05 3.98 21.59"/><polygon class="cls-1" points="6.57 14.36 7.82 18.75 3.97 21.48 4.08 21.07 7.46 18.64 6.39 14.77 6.57 14.36"/><path class="cls-1" d="M246.76,230.14h0l-.29.09a1.82,1.82,0,0,1-.61.07c-.64,0-1.26-.4-1.59-1.48l-.22.07a1.87,1.87,0,0,0,1.56,1.66l-2.94,1-.1.3,4.14-1.46.23-.35Z" transform="translate(-236.03 -217.31)"/><path class="cls-1" d="M240.39,253.86c.44.18,3.09,1.59,3.66,1.76-.39.91-1.15,4.24-1.28,4.53a3,3,0,0,1,1.91-.76,5.41,5.41,0,0,1,.94.14l.11.23a4.28,4.28,0,0,0-1-.13,3,3,0,0,0-2.22,1.2l-.18-.15c.21-.8,1.23-4.62,1.33-4.87-.54-.2-3-1.59-3.2-1.66Z" transform="translate(-236.03 -217.31)"/><path class="cls-1" d="M237.79,255.55a1.36,1.36,0,1,1,1,2.5l-.17-.31c.51-.19.86-.42.86-1a1,1,0,0,0-1.58-.84Z" transform="translate(-236.03 -217.31)"/><path class="cls-1" d="M236.39,242.26a1.78,1.78,0,0,1,1.51,1.66,1.64,1.64,0,0,1-1.65,1.87v-.32a1.33,1.33,0,0,0,1.37-1.47,1.42,1.42,0,0,0-1.22-1.5Z" transform="translate(-236.03 -217.31)"/><path class="cls-1" d="M240.31,230.44a1.4,1.4,0,0,1,.88,1.33,1.27,1.27,0,0,1-1.33,1.31,1.77,1.77,0,0,1-.79-.23l.12-.29a1.23,1.23,0,0,0,.67.25,1.07,1.07,0,0,0,1.09-1c0-.53-.17-.76-.74-1.14Z" transform="translate(-236.03 -217.31)"/><path class="cls-1" d="M246.66,227.24a1.11,1.11,0,0,1-1.19,1.17,1.16,1.16,0,0,1-1.19-1.18l-.17.05a1.25,1.25,0,0,0,1.4,1.27,1.34,1.34,0,0,0,1.43-1.31Z" transform="translate(-236.03 -217.31)"/><path class="cls-1" d="M246.94,227.24a1.42,1.42,0,0,0-2.83,0l.17-.05a1.2,1.2,0,0,1,1.21-1.13,1.06,1.06,0,0,1,1.17,1.14Z" transform="translate(-236.03 -217.31)"/><path class="cls-1" d="M246.24,263.14a1.29,1.29,0,0,1-1.46,1.37,1.57,1.57,0,0,1-1.63-1.67l-.27-.05a2,2,0,0,0,1.86,2.05,1.62,1.62,0,0,0,1.82-1.69Z" transform="translate(-236.03 -217.31)"/><path class="cls-1" d="M246.57,263.14a1.84,1.84,0,0,0-2-1.92,1.53,1.53,0,0,0-1.66,1.56l.27.05a1.33,1.33,0,0,1,1.36-1.41,1.63,1.63,0,0,1,1.73,1.71Z" transform="translate(-236.03 -217.31)"/><polygon class="cls-1" points="0.18 30.56 3.1 30.14 3.16 30.44 0.21 30.87 0.18 30.56"/><polygon class="cls-1" points="1.26 36.83 4.23 36.13 4.28 36.42 1.31 37.13 1.26 36.83"/><polygon class="cls-1" points="0.21 30.92 0.38 30.63 4.12 36.08 3.98 36.31 0.21 30.92"/><polygon class="cls-1" points="0.66 22.79 3.54 23.36 3.46 23.65 0.63 23.14 0.66 22.79"/><polygon class="cls-1" points="2.58 16.79 5.34 17.75 5.24 18 2.44 17.07 2.58 16.79"/><polygon class="cls-1" points="0.56 22.8 5.08 17.79 5.24 18 0.69 22.99 0.56 22.8"/><polygon class="cls-1" points="18.79 33.39 22.67 25.82 22.9 25.97 18.98 33.48 18.79 33.39"/><polygon class="cls-1" points="22.05 23.95 26.63 20.39 26.52 20.7 21.85 24.34 22.05 23.95"/><polygon class="cls-1" points="11.19 43.57 20.22 35.57 20.01 36.08 10.96 44.16 11.19 43.57"/><polygon class="cls-1" points="15.31 47.38 16.97 33.16 16.6 33.88 14.91 48.1 15.31 47.38"/><polygon class="cls-1" points="26.71 20.39 26.91 15.24 26.75 15.52 26.54 20.74 26.71 20.39"/><path class="cls-1" d="M255.51,246a15.91,15.91,0,0,0,3.07,1.56l.11-.25a14.17,14.17,0,0,1-3-1.56Z" transform="translate(-236.03 -217.31)"/><path class="cls-1" d="M254.21,248.4c-.09.81,0,2,.8,2.26a2.78,2.78,0,0,0,2.46-.66l-.1.28a2.71,2.71,0,0,1-2.51.6,1.93,1.93,0,0,1-.86-2.11Z" transform="translate(-236.03 -217.31)"/><path class="cls-1" d="M256.79,243.74a1.79,1.79,0,0,1,1.81-.47,1.75,1.75,0,0,1,.87,2.19l.25-.55a1.65,1.65,0,0,0-1-1.88c-.46-.18-1.54-.15-1.87.38Z" transform="translate(-236.03 -217.31)"/><path class="cls-1" d="M247.32,261.75a2.36,2.36,0,0,1,2.55-.29c1,.89.79,2.47.37,3.38l-.26-.14a2.59,2.59,0,0,0-.28-3,2,2,0,0,0-2.22.29Z" transform="translate(-236.03 -217.31)"/><path class="cls-1" d="M267.56,234.19a.86.86,0,0,1-.94.84.85.85,0,0,1-.9-.88l.23,0a.63.63,0,0,0,.65.61c.44,0,.72-.23.72-.61Z" transform="translate(-236.03 -217.31)"/><path class="cls-1" d="M267.32,234.19a.71.71,0,0,0-.66-.63.66.66,0,0,0-.7.63l-.23,0a.9.9,0,0,1,.94-.84.93.93,0,0,1,.9.88Z" transform="translate(-236.03 -217.31)"/><path class="cls-1" d="M268.88,230.13a.84.84,0,0,1-.91.84.85.85,0,0,1-.92-.85h.23a.67.67,0,0,0,.64.65c.48,0,.76-.28.72-.59Z" transform="translate(-236.03 -217.31)"/><path class="cls-1" d="M268.64,230.18a.68.68,0,0,0-.67-.68.66.66,0,0,0-.69.62H267a.89.89,0,0,1,.89-.84.92.92,0,0,1,.95.85Z" transform="translate(-236.03 -217.31)"/><path class="cls-1" d="M265.31,231.75a.67.67,0,0,0,.56.75.69.69,0,0,0,.69-.69.63.63,0,0,0-.58-.7,1,1,0,0,0-.46.15l.08-.25a1.54,1.54,0,0,1,.32-.1.75.75,0,0,1,.86.84.93.93,0,0,1-.89.94c-.43,0-.58-.24-.75-.68Z" transform="translate(-236.03 -217.31)"/><path class="cls-1" d="M269.47,232.36a.61.61,0,0,0-.58-.44.59.59,0,0,0-.6.5.62.62,0,0,0,.65.61.56.56,0,0,0,.46-.18l0,.28c-.41.18-1.29.15-1.29-.68a.82.82,0,0,1,.83-.79,1,1,0,0,1,.7.38Z" transform="translate(-236.03 -217.31)"/><path class="cls-1" d="M261.48,250.13a1,1,0,0,1-1.12,1,.91.91,0,0,1-.94-.94h.25a.73.73,0,0,0,.71.7c.37,0,.83-.29.83-.73Z" transform="translate(-236.03 -217.31)"/><path class="cls-1" d="M261.21,250.15a.8.8,0,0,0-.73-.79.84.84,0,0,0-.81.83h-.25a1,1,0,0,1,1.08-1.06,1,1,0,0,1,1,1Z" transform="translate(-236.03 -217.31)"/><path class="cls-1" d="M260.51,247.52a1,1,0,0,1-1.08,1,.91.91,0,0,1-.89-1l.24,0a.77.77,0,0,0,.7.78.74.74,0,0,0,.76-.76Z" transform="translate(-236.03 -217.31)"/><path class="cls-1" d="M260.25,247.53a.75.75,0,0,0-.76-.75.73.73,0,0,0-.7.73l-.24,0a1,1,0,0,1,1.06-1.06.94.94,0,0,1,.9,1Z" transform="translate(-236.03 -217.31)"/><polygon class="cls-1" points="24.68 25.07 32.93 17.11 32.61 17.61 24.73 25.26 24.68 25.07"/><polygon class="cls-1" points="29.23 27.38 29.41 27.19 28.74 15.72 28.57 16.22 29.23 27.38"/><polygon class="cls-1" points="16.87 43.48 26.33 35.59 26.22 36.04 16.73 43.95 16.87 43.48"/><polygon class="cls-1" points="22.56 45.77 22.8 45.64 21.51 32.72 21.3 33.21 22.56 45.77"/><path class="cls-1" d="M263.58,244.45a1.4,1.4,0,0,0,.36-.85,1,1,0,0,0-1.11-1.08,1.09,1.09,0,0,0-1.09,1.32l-.26,0a1.38,1.38,0,0,1,1.42-1.62,1.24,1.24,0,0,1,1.34,1.24,1.62,1.62,0,0,1-.46,1.06Z" transform="translate(-236.03 -217.31)"/><path class="cls-1" d="M256.54,263a1.4,1.4,0,0,0,.5-.93,1.15,1.15,0,0,0-1.25-1.23,1.25,1.25,0,0,0-1.3,1.52l-.32,0a1.57,1.57,0,0,1,1.62-1.8,1.37,1.37,0,0,1,1.54,1.38,1.56,1.56,0,0,1-.57,1.22Z" transform="translate(-236.03 -217.31)"/><path class="cls-1" d="M261.21,252a1.5,1.5,0,0,1-1.5,1.49,1.27,1.27,0,0,1-1.28-1.41,1.37,1.37,0,0,1,.42-.94l.22.17a1.08,1.08,0,0,0-.33.73,1,1,0,0,0,1.07,1.13,1.08,1.08,0,0,0,1.09-1.17Z" transform="translate(-236.03 -217.31)"/><path class="cls-1" d="M255.72,264.37a.94.94,0,0,0-1-.91.79.79,0,0,0-.88.8l-.27,0c0-.66.45-1,1.22-1a1.21,1.21,0,0,1,1.14,1.08Z" transform="translate(-236.03 -217.31)"/><path class="cls-1" d="M256,264.34a1.08,1.08,0,0,1-1.21,1.09,1.1,1.1,0,0,1-1.15-1.16l.27,0a.88.88,0,0,0,.88.91c.7,0,1-.43,1-.8Z" transform="translate(-236.03 -217.31)"/><path class="cls-1" d="M262.79,246a.72.72,0,0,0-.78-.71c-.33,0-.66.15-.66.72h-.28a.92.92,0,0,1,1-1,1,1,0,0,1,1,1Z" transform="translate(-236.03 -217.31)"/><path class="cls-1" d="M263.08,246a1,1,0,0,1-1.07.91.88.88,0,0,1-.94-.91h.28a.68.68,0,0,0,.69.7.7.7,0,0,0,.75-.71Z" transform="translate(-236.03 -217.31)"/><path class="cls-1" d="M261.94,248.69a1,1,0,0,1,1.1-1,.9.9,0,0,1,.9,1h-.26a.71.71,0,0,0-.72-.72.77.77,0,0,0-.75.74Z" transform="translate(-236.03 -217.31)"/><path class="cls-1" d="M263.94,248.66c0,.67-.44,1-1,1a1,1,0,0,1-1-.94l.28,0a.78.78,0,0,0,.75.71.72.72,0,0,0,.72-.73Z" transform="translate(-236.03 -217.31)"/><polygon class="cls-1" points="11.84 42.44 11.61 42.84 11.55 8.01 11.76 8.01 11.84 42.44"/><polygon class="cls-1" points="13.92 38.7 13.66 39.17 13.6 10.07 13.85 10.07 13.92 38.7"/><polygon class="cls-1" points="15.95 34.98 15.71 35.48 15.65 11.6 15.92 11.61 15.95 34.98"/><polygon class="cls-1" points="18.04 31.28 17.78 31.78 17.73 12.54 17.99 12.54 18.04 31.28"/><polygon class="cls-1" points="20.1 27.56 19.83 28.12 19.81 12.87 20.05 12.87 20.1 27.56"/><polygon class="cls-1" points="22.18 23.88 21.87 24.44 21.85 12.79 22.14 12.77 22.18 23.88"/><polygon class="cls-1" points="24.22 20.14 23.96 20.74 23.92 12.35 24.22 12.33 24.22 20.14"/><polygon class="cls-1" points="26.27 16.44 26.02 17.09 26.01 11.21 26.23 11.2 26.27 16.44"/><path class="cls-1" d="M283.33,233.18c.13.47.3.9.47,1.33l2.13,5.48c.56,1.46.8,1.5,1.19,1.5h.14v.35H284v-.35h.26c.54,0,.65-.07.65-.3a1.61,1.61,0,0,0-.13-.55l-.62-1.61h-3.31l-.42,1a3.08,3.08,0,0,0-.32,1.07c0,.38.36.38.79.38H281v.35h-2.47v-.35h.13c.36,0,.65-.12.95-.83l2.62-6.27a9.2,9.2,0,0,0,.43-1.21Zm.66,5.5L282.53,235,281,238.68Z" transform="translate(-236.03 -217.31)"/><path class="cls-1" d="M287.93,241.49h.55c.42,0,.43-.24.43-.72V237.5c0-1-.06-1.25-.38-1.25h-.6v-.35h.55a4.28,4.28,0,0,0,1.57-.19v1.07h0a2.21,2.21,0,0,1,2-1.07,1.62,1.62,0,0,1,1.83,1.76v3.06c0,.76,0,1,.4,1h.53v.35h-3.06v-.35h.46c.43,0,.48-.2.48-1v-2.82c0-.72-.24-1.44-1.13-1.44-1.22,0-1.43,1.31-1.43,2.29v2.21c0,.54.07.72.43.72h.5v.35h-3.12Z" transform="translate(-236.03 -217.31)"/><path class="cls-1" d="M299,241.49h.37c.49,0,.61-.18.61-.6v-6.54c0-.62-.17-.71-.66-.71H299v-.35h3.91c1.42,0,2.7.5,2.7,1.89a2.45,2.45,0,0,1-2.1,2.13v0c1.46.29,1.71.6,1.77,2.21l.06,1.49c0,.19.06.42.29.42s.47-.29.58-.61l.35.16a1.47,1.47,0,0,1-1.36,1c-1,0-1.26-.83-1.29-1.62l-.08-1.61c0-.95-.55-1.28-1.7-1.28h-.79v3.25c0,.53,0,.72.59.72h.38v.35H299Zm2.33-4.32h.94a1.64,1.64,0,0,0,1.86-1.76c0-1.32-.71-1.76-1.9-1.76h-.9Z" transform="translate(-236.03 -217.31)"/><path class="cls-1" d="M310.08,242c-1.82,0-2.75-1.45-2.75-3.15s.92-3.17,2.75-3.17,2.75,1.45,2.75,3.17S311.9,242,310.08,242Zm0-6c-1.08,0-1.4.78-1.4,2.82s.32,2.81,1.4,2.81,1.4-.78,1.4-2.81S311.16,236.06,310.08,236.06Z" transform="translate(-236.03 -217.31)"/><path class="cls-1" d="M313.51,241.49H314c.31,0,.44-.14.44-.82v-3.62c0-.61,0-.8-.43-.8h-.53v-.35h.74a4.52,4.52,0,0,0,1.48-.19,10.7,10.7,0,0,0-.06,1.23v3.73c0,.67.13.82.44.82h.52v.35h-3.12Zm1.56-8.38a.82.82,0,0,1,.82.82.81.81,0,0,1-.82.82.82.82,0,0,1-.82-.82A.84.84,0,0,1,315.07,233.11Z" transform="translate(-236.03 -217.31)"/><path class="cls-1" d="M317.44,241.49H318c.42,0,.43-.24.43-.72V237.5c0-1-.06-1.25-.38-1.25h-.6v-.35H318a4.28,4.28,0,0,0,1.57-.19v1.07h0a2.21,2.21,0,0,1,2-1.07,1.62,1.62,0,0,1,1.83,1.76v3.06c0,.76,0,1,.4,1h.53v.35h-3.06v-.35h.46c.43,0,.48-.2.48-1v-2.82c0-.72-.24-1.44-1.13-1.44-1.22,0-1.43,1.31-1.43,2.29v2.21c0,.54.07.72.43.72h.5v.35h-3.12Z" transform="translate(-236.03 -217.31)"/><path class="cls-1" d="M325.13,241.49h.55c.42,0,.43-.24.43-.72V237.5c0-1-.06-1.25-.38-1.25h-.6v-.35h.55a4.29,4.29,0,0,0,1.57-.19v1.07h0a2.21,2.21,0,0,1,2-1.07,1.63,1.63,0,0,1,1.83,1.76v3.06c0,.76,0,1,.4,1H332v.35h-3.06v-.35h.46c.43,0,.48-.2.48-1v-2.82c0-.72-.24-1.44-1.13-1.44-1.22,0-1.43,1.31-1.43,2.29v2.21c0,.54.07.72.43.72h.5v.35h-3.12Z" transform="translate(-236.03 -217.31)"/><path class="cls-1" d="M342.93,235.47h-.42a2.08,2.08,0,0,0-2.13-2c-2.18,0-2.53,2.48-2.53,4.19s.36,4,2.39,4A1.54,1.54,0,0,0,341.9,240v-1c0-.46-.12-.62-.43-.62H341v-.35h3v.35h-.32c-.38,0-.46.16-.46.76V242h-.34a.33.33,0,0,0-.38-.29,11.06,11.06,0,0,1-2.23.36c-2.88,0-3.86-2-3.86-4.55,0-2.35,1.43-4.38,3.92-4.38a4.12,4.12,0,0,1,1.31.19,3,3,0,0,0,.72.19c.13,0,.19-.13.21-.31h.42Z" transform="translate(-236.03 -217.31)"/><path class="cls-1" d="M344.42,241.49H345c.42,0,.43-.24.43-.72V237.5c0-1-.06-1.25-.38-1.25h-.6v-.35H345a4.29,4.29,0,0,0,1.57-.19v1.07h0a2.21,2.21,0,0,1,2-1.07,1.63,1.63,0,0,1,1.83,1.76v3.06c0,.76,0,1,.4,1h.53v.35h-3.06v-.35h.46c.43,0,.48-.2.48-1v-2.82c0-.72-.24-1.44-1.13-1.44-1.22,0-1.43,1.31-1.43,2.29v2.21c0,.54.07.72.43.72h.5v.35h-3.12Z" transform="translate(-236.03 -217.31)"/><path class="cls-1" d="M357.42,238.87c0,1.7-.92,3.15-2.75,3.15s-2.75-1.45-2.75-3.15.92-3.17,2.75-3.17S357.42,237.16,357.42,238.87Zm-1.34,0c0-2-.32-2.82-1.4-2.82s-1.4.78-1.4,2.82.32,2.81,1.4,2.81S356.07,240.9,356.07,238.87Zm-2-4,1.7-1.8c.22-.24.35-.32.56-.32a.55.55,0,0,1,.56.49c0,.26-.14.38-.38.53l-1.82,1.1Z" transform="translate(-236.03 -217.31)"/><path class="cls-1" d="M361.62,236.25h-1.38v4.64c0,.35.16.58.49.58s.55-.47.55-1.1v-.19h.49v.23c0,1-.19,1.63-1.43,1.63-.95,0-1.31-.48-1.31-1.39v-4.39h-1v-.35a2,2,0,0,0,1.81-2.05h.41v2.05h1.38Z" transform="translate(-236.03 -217.31)"/><path class="cls-1" d="M362.54,241.49h.55c.42,0,.43-.24.43-.72v-6.52c0-.84-.07-1-.47-1h-.52v-.35h2.18v3.87h0a2,2,0,0,1,1.89-1.07,1.63,1.63,0,0,1,1.84,1.76v3.06c0,.76,0,1,.4,1h.53v.35h-3.06v-.35h.46c.43,0,.48-.2.48-1v-2.82c0-.72-.24-1.44-1.13-1.44-1.22,0-1.43,1.33-1.43,2.29v2.21c0,.54.07.72.43.72h.5v.35h-3.12Z" transform="translate(-236.03 -217.31)"/><path class="cls-1" d="M376.21,240.54c0,.89-.25,1.49-1.25,1.49a1.07,1.07,0,0,1-1.15-.79,1.78,1.78,0,0,1-1.64.79,1.65,1.65,0,0,1-1.87-1.68c0-1.37,1.55-2.07,2.77-2.07l.72,0v-1.08c0-.68-.11-1.16-.9-1.16-.21,0-.91.1-.91.41,0,.11.19.26.19.62a.68.68,0,0,1-.71.66.76.76,0,0,1-.78-.82c0-1,1.57-1.22,2.21-1.22,1.27,0,2.1.43,2.1,1.77V241c0,.24.08.43.34.43.44,0,.47-.55.47-.92v-.3h.42Zm-2.42-1.87a5.78,5.78,0,0,0-.62,0,1.59,1.59,0,0,0-1.6,1.72c0,.72.34,1.2,1.07,1.2a1.16,1.16,0,0,0,1.15-1.16Z" transform="translate(-236.03 -217.31)"/><path class="cls-1" d="M377,241.84v-.35h.52c.31,0,.44-.14.44-.82v-3.62c0-.61,0-.8-.43-.8H377v-.35h.74a4.52,4.52,0,0,0,1.48-.19,10.7,10.7,0,0,0-.06,1.23v3.73c0,.67.13.82.44.82h.52v.35Zm1-7,1.7-1.8c.22-.24.35-.32.56-.32a.55.55,0,0,1,.56.49c0,.26-.14.38-.38.53l-1.82,1.1Z" transform="translate(-236.03 -217.31)"/><path class="cls-1" d="M384.43,241.49h.48c.3,0,.49-.07.49-.77v-6.27c0-.7-.06-.8-.55-.8h-.42v-.35H391v2h-.42c0-1.18-.6-1.64-1.75-1.64h-2.07v3.68h1.79c.8,0,1.13-.56,1.13-1.29h.42v3h-.42c0-.78-.29-1.32-1.13-1.32h-1.79v3.81h2.19c1.13,0,1.77-.52,1.77-1.68h.42v2h-6.7Z" transform="translate(-236.03 -217.31)"/><path class="cls-1" d="M398.36,240.54c0,.89-.25,1.49-1.25,1.49a1.07,1.07,0,0,1-1.15-.79,1.78,1.78,0,0,1-1.64.79,1.65,1.65,0,0,1-1.87-1.68c0-1.37,1.55-2.07,2.77-2.07l.72,0v-1.08c0-.68-.11-1.16-.9-1.16-.2,0-.91.1-.91.41,0,.11.19.26.19.62a.68.68,0,0,1-.71.66.77.77,0,0,1-.78-.82c0-1,1.57-1.22,2.21-1.22,1.27,0,2.1.43,2.1,1.77V241c0,.24.08.43.34.43.44,0,.47-.55.47-.92v-.3h.42Zm-2.42-1.87a5.8,5.8,0,0,0-.62,0,1.59,1.59,0,0,0-1.59,1.72c0,.72.33,1.2,1.07,1.2a1.16,1.16,0,0,0,1.15-1.16Z" transform="translate(-236.03 -217.31)"/><path class="cls-1" d="M404.23,239.81a2.08,2.08,0,0,1-2.17,2.22c-1.82,0-2.75-1.45-2.75-3.15s.92-3.17,2.75-3.17c.9,0,2,.35,2,1.28a.7.7,0,0,1-.77.73.67.67,0,0,1-.72-.65c0-.42.18-.43.18-.64s-.48-.38-.71-.38c-1.08,0-1.4.78-1.4,2.82,0,1.33.24,2.81,1.5,2.81a1.67,1.67,0,0,0,1.58-1.87Z" transform="translate(-236.03 -217.31)"/><path class="cls-1" d="M404.92,241.49h.55c.42,0,.43-.24.43-.72v-6.52c0-.84-.07-1-.47-1h-.52v-.35h2.18v3.87h0a2.05,2.05,0,0,1,1.9-1.07,1.62,1.62,0,0,1,1.83,1.76v3.06c0,.76,0,1,.4,1h.53v.35h-3.06v-.35h.46c.43,0,.48-.2.48-1v-2.82c0-.72-.24-1.44-1.13-1.44-1.22,0-1.43,1.33-1.43,2.29v2.21c0,.54.07.72.43.72h.5v.35h-3.12Z" transform="translate(-236.03 -217.31)"/><path class="cls-1" d="M415.62,236.25h-1.38v4.64c0,.35.16.58.49.58s.55-.47.55-1.1v-.19h.49v.23c0,1-.19,1.63-1.43,1.63-.95,0-1.31-.48-1.31-1.39v-4.39h-1v-.35a2,2,0,0,0,1.81-2.05h.41v2.05h1.38Z" transform="translate(-236.03 -217.31)"/><path class="cls-1" d="M416.54,241.49h.55c.42,0,.43-.24.43-.72V237.5c0-1-.06-1.25-.38-1.25h-.6v-.35h1.31a2,2,0,0,0,.82-.19v1.4h0a2.08,2.08,0,0,1,1.75-1.4,1,1,0,0,1,1.07.92.72.72,0,0,1-.78.79c-.34,0-.68-.16-.68-.5a2.14,2.14,0,0,1,0-.32c0-.08-.16-.1-.24-.1-.73,0-1.13.8-1.13,3v1.3c0,.54.07.72.43.72h.72v.35h-3.33Z" transform="translate(-236.03 -217.31)"/><path class="cls-1" d="M428.32,240.54c0,.89-.25,1.49-1.25,1.49a1.07,1.07,0,0,1-1.15-.79,1.78,1.78,0,0,1-1.64.79,1.65,1.65,0,0,1-1.87-1.68c0-1.37,1.55-2.07,2.77-2.07l.72,0v-1.08c0-.68-.11-1.16-.9-1.16-.21,0-.91.1-.91.41,0,.11.19.26.19.62a.68.68,0,0,1-.71.66.76.76,0,0,1-.78-.82c0-1,1.57-1.22,2.21-1.22,1.27,0,2.1.43,2.1,1.77V241c0,.24.08.43.34.43.44,0,.47-.55.47-.92v-.3h.42Zm-2.42-1.87a5.78,5.78,0,0,0-.62,0,1.59,1.59,0,0,0-1.6,1.72c0,.72.34,1.2,1.07,1.2a1.16,1.16,0,0,0,1.15-1.16Z" transform="translate(-236.03 -217.31)"/><path class="cls-1" d="M434.19,239.81A2.08,2.08,0,0,1,432,242c-1.82,0-2.75-1.45-2.75-3.15s.92-3.17,2.75-3.17c.9,0,2,.35,2,1.28a.7.7,0,0,1-.77.73.66.66,0,0,1-.72-.65c0-.42.18-.43.18-.64s-.48-.38-.71-.38c-1.08,0-1.4.78-1.4,2.82,0,1.33.24,2.81,1.5,2.81a1.67,1.67,0,0,0,1.58-1.87Z" transform="translate(-236.03 -217.31)"/><path class="cls-1" d="M434.88,241.49h.55c.42,0,.43-.24.43-.72v-6.52c0-.84-.07-1-.47-1h-.52v-.35h2.18v3.87h0a2.05,2.05,0,0,1,1.9-1.07,1.63,1.63,0,0,1,1.83,1.76v3.06c0,.76,0,1,.4,1h.53v.35h-3.06v-.35h.46c.43,0,.48-.2.48-1v-2.82c0-.72-.24-1.44-1.13-1.44-1.22,0-1.43,1.33-1.43,2.29v2.21c0,.54.07.72.43.72h.5v.35h-3.12Z" transform="translate(-236.03 -217.31)"/><path class="cls-1" d="M448.54,240.54c0,.89-.25,1.49-1.25,1.49a1.07,1.07,0,0,1-1.15-.79,1.78,1.78,0,0,1-1.64.79,1.65,1.65,0,0,1-1.87-1.68c0-1.37,1.55-2.07,2.77-2.07l.72,0v-1.08c0-.68-.11-1.16-.9-1.16-.21,0-.91.1-.91.41,0,.11.19.26.19.62a.68.68,0,0,1-.71.66.76.76,0,0,1-.78-.82c0-1,1.57-1.22,2.21-1.22,1.27,0,2.1.43,2.1,1.77V241c0,.24.08.43.34.43.44,0,.47-.55.47-.92v-.3h.42Zm-2.42-1.87a5.78,5.78,0,0,0-.62,0,1.59,1.59,0,0,0-1.6,1.72c0,.72.34,1.2,1.07,1.2a1.16,1.16,0,0,0,1.15-1.16Z" transform="translate(-236.03 -217.31)"/><path class="cls-1" d="M459,240.54c0,.89-.25,1.49-1.25,1.49a1.07,1.07,0,0,1-1.15-.79,1.78,1.78,0,0,1-1.64.79,1.65,1.65,0,0,1-1.87-1.68c0-1.37,1.55-2.07,2.77-2.07l.72,0v-1.08c0-.68-.11-1.16-.9-1.16-.2,0-.91.1-.91.41,0,.11.19.26.19.62a.68.68,0,0,1-.71.66.77.77,0,0,1-.78-.82c0-1,1.57-1.22,2.21-1.22,1.27,0,2.1.43,2.1,1.77V241c0,.24.08.43.34.43.44,0,.47-.55.47-.92v-.3H459Zm-2.42-1.87a5.8,5.8,0,0,0-.62,0,1.59,1.59,0,0,0-1.59,1.72c0,.72.33,1.2,1.07,1.2a1.16,1.16,0,0,0,1.15-1.16Z" transform="translate(-236.03 -217.31)"/><path class="cls-1" d="M462.9,240.78c1.26,0,2.39.36,2.39,1.79s-1.58,2.06-2.9,2.06c-1,0-2.75-.22-2.75-1.56a1.38,1.38,0,0,1,1.36-1.33v0a1,1,0,0,1-.7-1,1.1,1.1,0,0,1,.89-1.1v0a1.79,1.79,0,0,1-1.28-1.75,2.15,2.15,0,0,1,2.44-2.13,2.8,2.8,0,0,1,.58.07,2.88,2.88,0,0,0,.54.07,1.71,1.71,0,0,0,.85-.28,1.74,1.74,0,0,1,.84-.26.6.6,0,0,1,.6.67.59.59,0,0,1-.6.65c-.61,0-.44-.61-.7-.61a1.65,1.65,0,0,0-.58.16,1.94,1.94,0,0,1,.89,1.58c0,1.87-1.75,2.07-2.57,2.11-1.13,0-1.33.14-1.33.47s.28.44,1.08.44ZM460.66,243c0,.91.72,1.25,1.82,1.25.72,0,1.79-.36,1.79-1.25,0-1.09-.82-1.2-1.61-1.2C461.47,241.84,460.66,242,460.66,243Zm.52-5.21c0,.86.19,1.66,1.2,1.66s1.12-.89,1.12-1.64-.17-1.79-1.09-1.79S461.17,236.93,461.17,237.83Z" transform="translate(-236.03 -217.31)"/><path class="cls-1" d="M466.49,235.9h.56a6.1,6.1,0,0,0,1.7-.19,7.62,7.62,0,0,0-.08,1.19v3c0,.94.25,1.6,1.12,1.6s1.44-.88,1.44-2.22v-1.89c0-1,0-1.1-.44-1.1h-.54v-.35h.56a6.1,6.1,0,0,0,1.7-.19,7.62,7.62,0,0,0-.08,1.19v3.63c0,.76,0,1,.4,1h.53v.35h-1a7.33,7.33,0,0,0-1,.06v-1h0a2,2,0,0,1-1.88,1.1c-1.61,0-1.91-.67-1.91-1.92V237.5c0-1-.06-1.25-.38-1.25h-.6Z" transform="translate(-236.03 -217.31)"/><path class="cls-1" d="M478.46,237.54h-.35a1.65,1.65,0,0,0-1.66-1.49,1.06,1.06,0,0,0-1.12,1.12c0,1.68,3.48.38,3.48,2.89a2.06,2.06,0,0,1-2.24,2,4.24,4.24,0,0,1-.86-.11,3.69,3.69,0,0,0-.72-.08,1,1,0,0,0-.56.18h-.1v-2h.35a1.74,1.74,0,0,0,1.84,1.69,1.12,1.12,0,0,0,1.2-1.19c0-1.86-3.39-.37-3.39-2.9a1.91,1.91,0,0,1,2.13-1.88,3.42,3.42,0,0,1,.76.1,3.47,3.47,0,0,0,.59.1,1.21,1.21,0,0,0,.56-.17h.1Z" transform="translate(-236.03 -217.31)"/><path class="cls-1" d="M485.18,241.49h.56c.49,0,.49-.23.49-1.26v-6.58h-.65a1.69,1.69,0,0,0-1.86,1.74h-.42V233.3h7.2v2.09h-.42a1.69,1.69,0,0,0-1.86-1.74h-.65v6.58c0,1,0,1.26.49,1.26h.56v.35h-3.45Z" transform="translate(-236.03 -217.31)"/><path class="cls-1" d="M490.49,241.49H491c.42,0,.43-.24.43-.72V237.5c0-1-.06-1.25-.38-1.25h-.6v-.35h1.31a1.94,1.94,0,0,0,.82-.19v1.4h0a2.08,2.08,0,0,1,1.75-1.4,1,1,0,0,1,1.07.92.72.72,0,0,1-.78.79c-.34,0-.68-.16-.68-.5a2.14,2.14,0,0,1,0-.32c0-.08-.16-.1-.24-.1-.73,0-1.13.8-1.13,3v1.3c0,.54.07.72.43.72h.72v.35h-3.33Z" transform="translate(-236.03 -217.31)"/><path class="cls-1" d="M502.27,240.24v.3c0,.89-.25,1.49-1.25,1.49a1.07,1.07,0,0,1-1.15-.79,1.78,1.78,0,0,1-1.64.79,1.65,1.65,0,0,1-1.87-1.68c0-1.37,1.55-2.07,2.77-2.07l.72,0v-1.08c0-.68-.11-1.16-.9-1.16-.2,0-.91.1-.91.41,0,.11.19.26.19.62a.68.68,0,0,1-.71.66.77.77,0,0,1-.78-.82c0-1,1.57-1.22,2.21-1.22,1.27,0,2.1.43,2.1,1.77V241c0,.24.08.43.34.43.44,0,.47-.55.47-.92v-.3Zm-2.42.13v-1.7a5.8,5.8,0,0,0-.62,0,1.59,1.59,0,0,0-1.59,1.72c0,.72.34,1.2,1.07,1.2A1.16,1.16,0,0,0,499.85,240.37Zm-1.32-5.49,1.7-1.8c.22-.24.35-.32.56-.32a.55.55,0,0,1,.56.49c0,.26-.14.38-.38.53l-1.82,1.1Z" transform="translate(-236.03 -217.31)"/><path class="cls-1" d="M505.48,235.71a2,2,0,0,1,1.81,1.09h0v-2.61c0-.77,0-.94-.38-.94h-.58v-.35h2.16v7.56c0,.88.06,1,.43,1h.53v.35h-2.1v-1h0a2,2,0,0,1-1.87,1.16c-1.5,0-2.25-1.56-2.25-3.19C503.23,237.42,503.79,235.71,505.48,235.71Zm1.86,3.13c0-1.87-.6-2.57-1.56-2.57s-1.21,1.13-1.21,2.57.16,2.63,1.21,2.63S507.34,240.61,507.34,238.84Z" transform="translate(-236.03 -217.31)"/><path class="cls-1" d="M516.32,240.24v.3c0,.89-.25,1.49-1.25,1.49a1.07,1.07,0,0,1-1.15-.79,1.78,1.78,0,0,1-1.64.79,1.65,1.65,0,0,1-1.87-1.68c0-1.37,1.55-2.07,2.77-2.07l.72,0v-1.08c0-.68-.11-1.16-.9-1.16-.2,0-.91.1-.91.41,0,.11.19.26.19.62a.68.68,0,0,1-.71.66.77.77,0,0,1-.78-.82c0-1,1.57-1.22,2.21-1.22,1.27,0,2.1.43,2.1,1.77V241c0,.24.08.43.34.43.44,0,.47-.55.47-.92v-.3Zm-2.42.13v-1.7a5.8,5.8,0,0,0-.62,0,1.59,1.59,0,0,0-1.59,1.72c0,.72.34,1.2,1.07,1.2A1.16,1.16,0,0,0,513.9,240.37Zm-1.32-5.49,1.7-1.8c.22-.24.35-.32.56-.32a.55.55,0,0,1,.56.49c0,.26-.14.38-.38.53l-1.82,1.1Z" transform="translate(-236.03 -217.31)"/><path class="cls-1" d="M517.11,241.49h.52c.31,0,.44-.14.44-.82v-6.31c0-1-.06-1.12-.43-1.12h-.53v-.35h2.16v7.77c0,.67.13.82.44.82h.52v.35h-3.12Z" transform="translate(-236.03 -217.31)"/><path class="cls-1" d="M527,240.54c0,.89-.25,1.49-1.25,1.49a1.07,1.07,0,0,1-1.15-.79A1.78,1.78,0,0,1,523,242a1.65,1.65,0,0,1-1.87-1.68c0-1.37,1.55-2.07,2.77-2.07l.72,0v-1.08c0-.68-.11-1.16-.9-1.16-.2,0-.91.1-.91.41,0,.11.19.26.19.62a.68.68,0,0,1-.71.66.77.77,0,0,1-.78-.82c0-1,1.57-1.22,2.21-1.22,1.27,0,2.1.43,2.1,1.77V241c0,.24.08.43.34.43.44,0,.47-.55.47-.92v-.3H527Zm-2.42-1.87a5.8,5.8,0,0,0-.62,0,1.59,1.59,0,0,0-1.59,1.72c0,.72.34,1.2,1.07,1.2a1.16,1.16,0,0,0,1.15-1.16Z" transform="translate(-236.03 -217.31)"/><path class="cls-1" d="M279,246.3h3.39c2.78,0,4.34,1.61,4.34,4.35a4,4,0,0,1-4.22,4.19H279v-.35h.5c.42,0,.48-.12.48-1.31v-5.42c0-.82,0-1.12-.44-1.12H279Zm2.33,8.19h1c2.3,0,2.88-2,2.88-3.9s-.6-3.95-3-3.95h-1Z" transform="translate(-236.03 -217.31)"/><path class="cls-1" d="M289.26,251.87c0,2,.32,2.81,1.4,2.81a1.77,1.77,0,0,0,1.86-1.89H293a2.19,2.19,0,0,1-2.35,2.24c-1.82,0-2.75-1.45-2.75-3.15s.92-3.17,2.75-3.17,2.48,1.67,2.45,3.17Zm2.51-.35c0-1.44-.32-2.47-1.25-2.47s-1.22,1-1.26,2.47Z" transform="translate(-236.03 -217.31)"/><path class="cls-1" d="M297.84,255A1.93,1.93,0,0,1,296,254h0v2.31c0,.67.13.82.44.82H297v.35h-3.14v-.35h.54c.31,0,.44-.14.44-.82v-5.9c0-.9,0-1.13-.46-1.13h-.53v-.35h1.31a1.94,1.94,0,0,0,.82-.19v1.22h0a2,2,0,0,1,1.87-1.22c1.69,0,2.25,1.71,2.25,3.13C300.1,253.47,299.34,255,297.84,255Zm.91-3.19c0-1.44-.25-2.57-1.21-2.57s-1.56.7-1.56,2.57.58,2.63,1.56,2.63S298.76,253.28,298.76,251.84Z" transform="translate(-236.03 -217.31)"/><path class="cls-1" d="M307.18,253.54c0,.89-.25,1.49-1.25,1.49a1.07,1.07,0,0,1-1.15-.79,1.78,1.78,0,0,1-1.64.79,1.65,1.65,0,0,1-1.87-1.68c0-1.37,1.55-2.08,2.77-2.08l.72,0v-1.08c0-.68-.11-1.16-.9-1.16-.2,0-.91.1-.91.41,0,.11.19.26.19.62a.68.68,0,0,1-.71.66.77.77,0,0,1-.78-.82c0-1,1.57-1.22,2.21-1.22,1.27,0,2.1.43,2.1,1.78V254c0,.24.08.43.34.43.44,0,.47-.55.47-.92v-.3h.42Zm-2.42-1.87a5.8,5.8,0,0,0-.62,0,1.59,1.59,0,0,0-1.59,1.72c0,.72.34,1.2,1.07,1.2a1.16,1.16,0,0,0,1.15-1.16Z" transform="translate(-236.03 -217.31)"/><path class="cls-1" d="M308,254.49h.55c.42,0,.43-.24.43-.72V250.5c0-1-.06-1.25-.38-1.25H308v-.35h1.31a1.94,1.94,0,0,0,.82-.19v1.4h0a2.08,2.08,0,0,1,1.75-1.4,1,1,0,0,1,1.07.92.72.72,0,0,1-.78.79c-.34,0-.68-.16-.68-.5a2.2,2.2,0,0,1,0-.32c0-.08-.16-.1-.24-.1-.73,0-1.13.8-1.13,3v1.3c0,.54.07.72.43.72h.72v.35H308Z" transform="translate(-236.03 -217.31)"/><path class="cls-1" d="M317.41,249.25H316v4.64c0,.35.16.58.49.58s.55-.47.55-1.1v-.19h.49v.23c0,1-.19,1.63-1.43,1.63-.95,0-1.31-.48-1.31-1.39v-4.39h-1v-.35a2,2,0,0,0,1.81-2.05H316v2.05h1.38Z" transform="translate(-236.03 -217.31)"/><path class="cls-1" d="M318.33,254.49h.55c.42,0,.43-.24.43-.72V250.5c0-1-.06-1.25-.38-1.25h-.6v-.35h.55a4.27,4.27,0,0,0,1.57-.19v1.07h0a2.21,2.21,0,0,1,2-1.07,1.56,1.56,0,0,1,1.63,1.1h0a2,2,0,0,1,2-1.1,1.53,1.53,0,0,1,1.74,1.66v3.17c0,.75,0,1,.4,1h.53v.35h-3.06v-.35h.45c.43,0,.48-.2.48-1v-2.71c0-1.07-.21-1.55-1.07-1.55s-1.37,1-1.37,2v2c0,1.08.08,1.21.38,1.21h.55v.35h-3v-.35h.53c.3,0,.36-.23.36-1v-2.59c0-.75,0-1.58-1-1.58-1.22,0-1.43,1.31-1.43,2.29v2.21c0,.54.07.72.43.72h.5v.35h-3.12Z" transform="translate(-236.03 -217.31)"/><path class="cls-1" d="M330.73,251.87c0,2,.32,2.81,1.4,2.81a1.77,1.77,0,0,0,1.86-1.89h.49a2.19,2.19,0,0,1-2.35,2.24c-1.82,0-2.75-1.45-2.75-3.15s.92-3.17,2.75-3.17,2.48,1.67,2.45,3.17Zm2.51-.35c0-1.44-.32-2.47-1.25-2.47s-1.22,1-1.26,2.47Z" transform="translate(-236.03 -217.31)"/><path class="cls-1" d="M335.33,254.49h.55c.42,0,.43-.24.43-.72V250.5c0-1-.06-1.25-.38-1.25h-.6v-.35h.55a4.25,4.25,0,0,0,1.57-.19v1.07h0a2.21,2.21,0,0,1,2-1.07,1.63,1.63,0,0,1,1.83,1.76v3.06c0,.75,0,1,.4,1h.53v.35h-3.06v-.35h.46c.43,0,.48-.2.48-1v-2.82c0-.72-.24-1.44-1.13-1.44-1.22,0-1.43,1.31-1.43,2.29v2.21c0,.54.07.72.43.72h.5v.35h-3.12Z" transform="translate(-236.03 -217.31)"/><path class="cls-1" d="M346,249.25h-1.38v4.64c0,.35.16.58.49.58s.55-.47.55-1.1v-.19h.49v.23c0,1-.19,1.63-1.43,1.63-.95,0-1.31-.48-1.31-1.39v-4.39h-1v-.35a2,2,0,0,0,1.81-2.05h.41v2.05H346Z" transform="translate(-236.03 -217.31)"/><path class="cls-1" d="M353.33,255c-1.82,0-2.75-1.45-2.75-3.15s.92-3.17,2.75-3.17,2.75,1.45,2.75,3.17S355.15,255,353.33,255Zm0-6c-1.08,0-1.4.78-1.4,2.82s.32,2.81,1.4,2.81,1.4-.78,1.4-2.81S354.41,249.06,353.33,249.06Z" transform="translate(-236.03 -217.31)"/><path class="cls-1" d="M356.77,254.49h.55c.42,0,.43-.24.43-.72v-4.52h-.95v-.35h.95v-.77c0-1.33.55-2.42,2.1-2.42.83,0,1.58.37,1.58,1.24a.7.7,0,0,1-.73.77.62.62,0,0,1-.68-.61c0-.49.36-.52.36-.66s-.28-.38-.5-.38c-.82,0-.92.72-.92,2.08v.77h1.2v.35H359v4.55c0,.53.07.7.5.7h.7v.35h-3.38Z" transform="translate(-236.03 -217.31)"/><path class="cls-1" d="M364.61,254.49h.52c.43,0,.46-.22.46-1.24v-5.39c0-1.16,0-1.22-.46-1.22h-.52v-.35H371v2h-.42c0-1.44-1-1.63-2.16-1.63h-1.5v3.79h1.26c1,0,1.51-.35,1.52-1.34h.42v3h-.42c0-1-.58-1.33-1.51-1.33h-1.27v2.47c0,.65,0,1.24.55,1.24h.47v.35h-3.33Z" transform="translate(-236.03 -217.31)"/><path class="cls-1" d="M374.51,255c-1.82,0-2.75-1.45-2.75-3.15s.92-3.17,2.75-3.17,2.75,1.45,2.75,3.17S376.33,255,374.51,255Zm0-6c-1.08,0-1.4.78-1.4,2.82s.32,2.81,1.4,2.81,1.4-.78,1.4-2.81S375.59,249.06,374.51,249.06Z" transform="translate(-236.03 -217.31)"/><path class="cls-1" d="M378,254.49h.55c.42,0,.43-.24.43-.72V250.5c0-1-.06-1.25-.38-1.25H378v-.35h1.31a1.94,1.94,0,0,0,.82-.19v1.4h0a2.08,2.08,0,0,1,1.75-1.4,1,1,0,0,1,1.07.92.72.72,0,0,1-.78.79c-.34,0-.68-.16-.68-.5a2.11,2.11,0,0,1,0-.32c0-.08-.16-.1-.24-.1-.73,0-1.13.8-1.13,3v1.3c0,.54.07.72.43.72h.72v.35H378Z" transform="translate(-236.03 -217.31)"/><path class="cls-1" d="M385.11,251.87c0,2,.32,2.81,1.4,2.81a1.77,1.77,0,0,0,1.86-1.89h.49a2.19,2.19,0,0,1-2.35,2.24c-1.82,0-2.75-1.45-2.75-3.15s.92-3.17,2.75-3.17,2.48,1.67,2.45,3.17Zm2.51-.35c0-1.44-.32-2.47-1.25-2.47s-1.22,1-1.26,2.47Z" transform="translate(-236.03 -217.31)"/><path class="cls-1" d="M389.69,254.49h.52c.31,0,.44-.14.44-.82v-3.62c0-.61,0-.8-.43-.8h-.53v-.35h.74a4.5,4.5,0,0,0,1.47-.19,10.94,10.94,0,0,0-.06,1.24v3.73c0,.67.13.82.44.82h.52v.35h-3.12Zm1.56-8.38a.82.82,0,0,1,.82.82.81.81,0,0,1-.82.82.82.82,0,0,1-.82-.82A.84.84,0,0,1,391.25,246.11Z" transform="translate(-236.03 -217.31)"/><path class="cls-1" d="M396.62,253.78c1.26,0,2.39.36,2.39,1.79s-1.58,2.06-2.9,2.06c-1,0-2.75-.22-2.75-1.56a1.38,1.38,0,0,1,1.36-1.33v0a1,1,0,0,1-.7-1,1.1,1.1,0,0,1,.89-1.1v0a1.79,1.79,0,0,1-1.28-1.75,2.15,2.15,0,0,1,2.44-2.13,2.8,2.8,0,0,1,.58.07,2.89,2.89,0,0,0,.54.07,1.71,1.71,0,0,0,.85-.28,1.74,1.74,0,0,1,.84-.26.6.6,0,0,1,.6.67.59.59,0,0,1-.6.65c-.61,0-.44-.61-.7-.61a1.66,1.66,0,0,0-.58.16,1.94,1.94,0,0,1,.89,1.58c0,1.87-1.75,2.08-2.57,2.11-1.13,0-1.33.14-1.33.47s.28.44,1.08.44ZM394.38,256c0,.91.72,1.25,1.82,1.25.72,0,1.79-.36,1.79-1.25,0-1.09-.82-1.2-1.61-1.2C395.2,254.84,394.38,255,394.38,256Zm.52-5.21c0,.86.19,1.66,1.2,1.66s1.12-.89,1.12-1.64-.17-1.79-1.09-1.79S394.9,249.93,394.9,250.83Z" transform="translate(-236.03 -217.31)"/><path class="cls-1" d="M400.22,254.49h.55c.42,0,.43-.24.43-.72V250.5c0-1-.06-1.25-.38-1.25h-.6v-.35h.55a4.25,4.25,0,0,0,1.57-.19v1.07h0a2.21,2.21,0,0,1,2-1.07,1.63,1.63,0,0,1,1.83,1.76v3.06c0,.75,0,1,.4,1h.53v.35H404v-.35h.46c.43,0,.48-.2.48-1v-2.82c0-.72-.24-1.44-1.13-1.44-1.22,0-1.43,1.31-1.43,2.29v2.21c0,.54.07.72.43.72h.5v.35h-3.12Z" transform="translate(-236.03 -217.31)"/><path class="cls-1" d="M415.49,246.18c.13.47.3.9.47,1.33l2.13,5.48c.56,1.46.8,1.5,1.19,1.5h.14v.35h-3.29v-.35h.26c.54,0,.65-.07.65-.3a1.61,1.61,0,0,0-.13-.55L416.3,252H413l-.42,1a3.08,3.08,0,0,0-.32,1.07c0,.38.36.38.79.38h.16v.35h-2.47v-.35h.13c.36,0,.65-.12.95-.83l2.62-6.27a9.25,9.25,0,0,0,.43-1.21Zm.66,5.5L414.69,248l-1.56,3.72Z" transform="translate(-236.03 -217.31)"/><path class="cls-1" d="M420.09,254.49h.55c.42,0,.43-.24.43-.72v-4.52h-.95v-.35h.95v-.77c0-1.33.55-2.42,2.1-2.42.83,0,1.58.37,1.58,1.24a.7.7,0,0,1-.73.77.62.62,0,0,1-.68-.61c0-.49.36-.52.36-.66s-.28-.38-.5-.38c-.82,0-.92.72-.92,2.08v.77h1.2v.35h-1.2v4.55c0,.53.07.7.5.7h.7v.35h-3.38Z" transform="translate(-236.03 -217.31)"/><path class="cls-1" d="M424.47,254.49H425c.42,0,.43-.24.43-.72v-4.52h-.95v-.35h.95v-.77c0-1.33.55-2.42,2.1-2.42.83,0,1.58.37,1.58,1.24a.7.7,0,0,1-.73.77.62.62,0,0,1-.68-.61c0-.49.36-.52.36-.66s-.28-.38-.5-.38c-.82,0-.92.72-.92,2.08v.77h1.2v.35h-1.2v4.55c0,.53.07.7.5.7h.7v.35h-3.38Z" transform="translate(-236.03 -217.31)"/><path class="cls-1" d="M434.72,253.54c0,.89-.25,1.49-1.25,1.49a1.07,1.07,0,0,1-1.15-.79,1.78,1.78,0,0,1-1.64.79,1.65,1.65,0,0,1-1.87-1.68c0-1.37,1.55-2.08,2.77-2.08l.72,0v-1.08c0-.68-.11-1.16-.9-1.16-.2,0-.91.1-.91.41,0,.11.19.26.19.62a.68.68,0,0,1-.71.66.77.77,0,0,1-.78-.82c0-1,1.57-1.22,2.21-1.22,1.27,0,2.1.43,2.1,1.78V254c0,.24.08.43.34.43.44,0,.47-.55.47-.92v-.3h.42Zm-2.42-1.87a5.84,5.84,0,0,0-.62,0,1.59,1.59,0,0,0-1.59,1.72c0,.72.34,1.2,1.07,1.2a1.16,1.16,0,0,0,1.15-1.16Z" transform="translate(-236.03 -217.31)"/><path class="cls-1" d="M435.5,254.49H436c.31,0,.44-.14.44-.82v-3.62c0-.61,0-.8-.43-.8h-.53v-.35h.74a4.5,4.5,0,0,0,1.47-.19,11,11,0,0,0-.06,1.24v3.73c0,.67.13.82.44.82h.52v.35H435.5Zm1.56-8.38a.82.82,0,0,1,.82.82.81.81,0,0,1-.82.82.82.82,0,0,1-.82-.82A.84.84,0,0,1,437.06,246.11Z" transform="translate(-236.03 -217.31)"/><path class="cls-1" d="M439.44,254.49H440c.42,0,.43-.24.43-.72V250.5c0-1-.06-1.25-.38-1.25h-.6v-.35h1.31a1.93,1.93,0,0,0,.81-.19v1.4h0a2.08,2.08,0,0,1,1.75-1.4,1,1,0,0,1,1.07.92.72.72,0,0,1-.78.79c-.34,0-.68-.16-.68-.5a2.15,2.15,0,0,1,0-.32c0-.08-.16-.1-.24-.1-.73,0-1.13.8-1.13,3v1.3c0,.54.07.72.43.72h.72v.35h-3.33Z" transform="translate(-236.03 -217.31)"/><path class="cls-1" d="M449.52,250.54h-.35a1.65,1.65,0,0,0-1.65-1.49,1.06,1.06,0,0,0-1.12,1.12c0,1.68,3.48.38,3.48,2.89a2.06,2.06,0,0,1-2.24,2,4.21,4.21,0,0,1-.86-.11,3.7,3.7,0,0,0-.72-.08,1,1,0,0,0-.56.18h-.1v-2h.35a1.74,1.74,0,0,0,1.83,1.69,1.12,1.12,0,0,0,1.2-1.19c0-1.86-3.39-.37-3.39-2.9a1.91,1.91,0,0,1,2.13-1.88,3.48,3.48,0,0,1,.75.1,3.39,3.39,0,0,0,.59.1,1.21,1.21,0,0,0,.56-.17h.1Z" transform="translate(-236.03 -217.31)"/><path class="cls-1" d="M460.56,253.54c0,.89-.25,1.49-1.25,1.49a1.07,1.07,0,0,1-1.15-.79,1.78,1.78,0,0,1-1.64.79,1.65,1.65,0,0,1-1.87-1.68c0-1.37,1.55-2.08,2.77-2.08l.72,0v-1.08c0-.68-.11-1.16-.9-1.16-.2,0-.91.1-.91.41,0,.11.19.26.19.62a.68.68,0,0,1-.71.66.77.77,0,0,1-.78-.82c0-1,1.57-1.22,2.21-1.22,1.27,0,2.1.43,2.1,1.78V254c0,.24.08.43.34.43.44,0,.47-.55.47-.92v-.3h.42Zm-2.42-1.87a5.84,5.84,0,0,0-.62,0,1.59,1.59,0,0,0-1.59,1.72c0,.72.34,1.2,1.07,1.2a1.16,1.16,0,0,0,1.15-1.16Z" transform="translate(-236.03 -217.31)"/><path class="cls-1" d="M461.37,254.49h.55c.42,0,.43-.24.43-.72V250.5c0-1-.06-1.25-.38-1.25h-.6v-.35h.55a4.25,4.25,0,0,0,1.57-.19v1.07h0a2.21,2.21,0,0,1,2-1.07,1.63,1.63,0,0,1,1.83,1.76v3.06c0,.75,0,1,.4,1h.53v.35h-3.06v-.35h.46c.43,0,.48-.2.48-1v-2.82c0-.72-.24-1.44-1.13-1.44-1.22,0-1.43,1.31-1.43,2.29v2.21c0,.54.07.72.43.72h.5v.35h-3.12Z" transform="translate(-236.03 -217.31)"/><path class="cls-1" d="M471.17,248.71A2,2,0,0,1,473,249.8h0v-2.62c0-.77,0-.94-.38-.94H472v-.35h2.16v7.56c0,.88.06,1,.43,1h.53v.35h-2.1v-1h0a2,2,0,0,1-1.87,1.16c-1.5,0-2.25-1.56-2.25-3.19C468.91,250.42,469.48,248.71,471.17,248.71Zm1.86,3.13c0-1.87-.6-2.57-1.56-2.57s-1.21,1.13-1.21,2.57.16,2.63,1.21,2.63S473,253.61,473,251.84Z" transform="translate(-236.03 -217.31)"/><path class="cls-1" d="M481.27,254.49h.56c.49,0,.49-.23.49-1.26v-6.58h-.65a1.69,1.69,0,0,0-1.86,1.74h-.42V246.3h7.2v2.09h-.42a1.69,1.69,0,0,0-1.86-1.74h-.65v6.58c0,1,0,1.26.49,1.26h.56v.35h-3.45Z" transform="translate(-236.03 -217.31)"/><path class="cls-1" d="M486.59,254.49h.55c.42,0,.43-.24.43-.72V250.5c0-1-.06-1.25-.38-1.25h-.6v-.35h1.31a1.94,1.94,0,0,0,.82-.19v1.4h0a2.08,2.08,0,0,1,1.75-1.4,1,1,0,0,1,1.07.92.72.72,0,0,1-.78.79c-.34,0-.68-.16-.68-.5a2.15,2.15,0,0,1,0-.32c0-.08-.16-.1-.24-.1-.73,0-1.13.8-1.13,3v1.3c0,.54.07.72.43.72h.72v.35h-3.33Z" transform="translate(-236.03 -217.31)"/><path class="cls-1" d="M498.37,253.54c0,.89-.25,1.49-1.25,1.49a1.07,1.07,0,0,1-1.15-.79,1.78,1.78,0,0,1-1.64.79,1.65,1.65,0,0,1-1.87-1.68c0-1.37,1.55-2.08,2.77-2.08l.72,0v-1.08c0-.68-.11-1.16-.9-1.16-.2,0-.91.1-.91.41,0,.11.19.26.19.62a.68.68,0,0,1-.71.66.76.76,0,0,1-.78-.82c0-1,1.57-1.22,2.21-1.22,1.27,0,2.1.43,2.1,1.78V254c0,.24.08.43.34.43.44,0,.47-.55.47-.92v-.3h.42Zm-2.42-1.87a5.81,5.81,0,0,0-.62,0,1.59,1.59,0,0,0-1.6,1.72c0,.72.34,1.2,1.07,1.2a1.16,1.16,0,0,0,1.15-1.16Z" transform="translate(-236.03 -217.31)"/><path class="cls-1" d="M501.58,248.71a2,2,0,0,1,1.81,1.09h0v-2.62c0-.77,0-.94-.38-.94h-.58v-.35h2.16v7.56c0,.88.06,1,.43,1h.53v.35h-2.1v-1h0a2,2,0,0,1-1.87,1.16c-1.5,0-2.25-1.56-2.25-3.19C499.32,250.42,499.89,248.71,501.58,248.71Zm1.86,3.13c0-1.87-.6-2.57-1.56-2.57s-1.21,1.13-1.21,2.57.16,2.63,1.21,2.63S503.44,253.61,503.44,251.84Z" transform="translate(-236.03 -217.31)"/><path class="cls-1" d="M507.59,251.87c0,2,.32,2.81,1.4,2.81a1.77,1.77,0,0,0,1.86-1.89h.49A2.19,2.19,0,0,1,509,255c-1.82,0-2.75-1.45-2.75-3.15s.92-3.17,2.75-3.17,2.48,1.67,2.45,3.17Zm2.51-.35c0-1.44-.32-2.47-1.25-2.47s-1.22,1-1.26,2.47Z" transform="translate(-236.03 -217.31)"/></svg>