<svg id="Layer_1" data-name="Layer 1" xmlns="http://www.w3.org/2000/svg" viewBox="0 0 290.98 55.77"><title>DFAT_Spot_Detailed_Horizontal</title><path d="M36.16,22.19l.66.17c2.58,4.31,6,7.2,9.17,7.19,1.15,0,3.13-1.51,5.29-1.49a4.47,4.47,0,0,1,4.27,6.39l-.4-.46a4,4,0,0,0-3.84-5.56c-2.44,0-3.77,1.47-5.36,1.47-4.09,0-7.55-4.27-9.34-7.2l-4.9,4.57c2.69,4.29,6.56,7.67,10.49,7.67,5.35,0,6.72-2.82,8.44-2.82a1.28,1.28,0,0,1,1.18,1.16l-.42.15c-.1-.59-.35-1-.76-1-1.57,0-2.85,2.87-8.43,2.87-3.46,0-7.14-2.53-10.36-7.2l-.24.28-.88-1.24Z" transform="translate(-22.03 -22.19)" style="fill:#008752"/><path d="M26.44,66.73C28.29,69.87,30,71.86,30,73.45c0,.71-.08.94-.32.94s-.46-.34-1-.36a1.22,1.22,0,0,0-1.27,1.28c0,1,.88,1.49,1.91,1.28-.22.64.1,1.39,1.25,1.39,2.72,0,7.28-3.54,8.72-6.88l-.56-.15c-1.25,3.51-6,6.65-8.23,6.65-1,0-1-.94-.67-1.53a2.87,2.87,0,0,1-.84.18,1,1,0,0,1-1.1-1,.83.83,0,0,1,.73-.89c.58,0,.85.45,1.17.45.47,0,.7-.43.69-1.39,0-1.7-1.82-3.72-3.7-6.9Z" transform="translate(-22.03 -22.19)" style="fill:#008752"/><path d="M28.45,32.34a31,31,0,0,1,3.62-4.16l-.18-.26a38.32,38.32,0,0,0-3.64,4.25Z" transform="translate(-22.03 -22.19)" style="fill:#008752"/><path d="M27,34a29.6,29.6,0,0,0-5,16.23,30.92,30.92,0,0,0,3.35,14.6l.24-.27a30.4,30.4,0,0,1-3.34-14.33,29.93,29.93,0,0,1,4.87-16.08Z" transform="translate(-22.03 -22.19)" style="fill:#008752"/><path d="M35.25,32C31,36.34,27.8,41.91,27.84,50.67a26.13,26.13,0,0,0,9,20l.27-.47c-5.41-4.34-8.83-11.52-8.87-19.52s3.26-14.6,7.44-18.34Z" transform="translate(-22.03 -22.19)" style="fill:#008752"/><path d="M50.15,35.12c1-1.65,1.66-2.4,3.17-2.4a2.24,2.24,0,0,1,2.33,2.37c.55.76.27,2,0,2.86L43.45,72l-6.63-1.39.27-.47,6.1,1.34L55.32,37.84a3.18,3.18,0,0,0,0-2.62,1.9,1.9,0,0,0-2.12-2.14c-1.6,0-2.13,1-2.83,2.16Z" transform="translate(-22.03 -22.19)" style="fill:#008752"/><path d="M32.89,66.12l17.26-31a1.3,1.3,0,0,1,1.16-.84.72.72,0,0,1,.67.81,6.92,6.92,0,0,1-.38,1L37.14,70.45l-.32-.08L51.37,36.08a6.25,6.25,0,0,0,.36-1c0-.34-.21-.6-.47-.6-.43,0-.64.23-.89.72L33,66.29Z" transform="translate(-22.03 -22.19)" style="fill:#008752"/><path d="M47.79,31.28a1.22,1.22,0,0,0,1.18.5,1.5,1.5,0,0,0,1.32-1.31,1.17,1.17,0,0,0,1.17,1.1,2,2,0,0,0,1.08-.3,1.28,1.28,0,0,0-.15.67,1.17,1.17,0,0,0,.79,1l1.26.37-.51-.3c-.59-.18-1.24-.45-1.22-1.06a1.92,1.92,0,0,1,.5-1.32L53,30.39a1.66,1.66,0,0,1-1.4.89c-.65,0-1-.38-1-1.39l-.38,0c-.09.66-.38,1.66-1.27,1.66a1,1,0,0,1-1.16-.95l-.38.15A1.39,1.39,0,0,1,46,32.44c-1.12,0-1.32-.83-1.09-1.25l-1-.26a1.37,1.37,0,0,1-1.24.86,1.25,1.25,0,0,1-1.23-1.16,1,1,0,0,1,.4-.72l-.79-.53a1.53,1.53,0,0,1-1.38.56,1.31,1.31,0,0,1-1.17-1.31,1.25,1.25,0,0,1,.47-.93L37.8,26.51a1.32,1.32,0,0,1-1,.48c-.5,0-.79-.38-1.21-1.11A8.63,8.63,0,0,1,34.48,27c.66.4,1,.67,1,1.24a1.13,1.13,0,0,1-.53.93l1.37,1.44a1.48,1.48,0,0,1,1-.49c1,0,1.26,1.49.76,1.88l1.4.84A1.33,1.33,0,0,1,40.67,32c.68,0,1.09.79.95,1.47l1.07.13a1,1,0,0,1,1-1,1.24,1.24,0,0,1,1.08.93l.3-.14a1.31,1.31,0,0,0-1.36-1,1.21,1.21,0,0,0-1.29.84l-.44,0a1.41,1.41,0,0,0-1.21-1.49,1.47,1.47,0,0,0-1.31.68l-.93-.55a1.39,1.39,0,0,0-1.16-2,1.74,1.74,0,0,0-1,.31l-1.12-1a1.14,1.14,0,0,0,.52-.91c0-.59-.34-.89-.84-1.27l.71-.63a1.39,1.39,0,0,0,1.19.93,1.7,1.7,0,0,0,.88-.41l.86.89a1.52,1.52,0,0,0-.4.92,1.62,1.62,0,0,0,1.5,1.54,2,2,0,0,0,1.43-.53l.3.27a1.1,1.1,0,0,0-.24.71A1.49,1.49,0,0,0,42.63,32,1.6,1.6,0,0,0,44,31.27l.46.13c-.14.65.59,1.3,1.47,1.3A1.78,1.78,0,0,0,47.79,31.28Z" transform="translate(-22.03 -22.19)" style="fill:#008752"/><path d="M36.73,25.34a.43.43,0,0,1,.41.38.24.24,0,0,1-.22.25.4.4,0,0,1-.4-.4C36.49,25.39,36.61,25.34,36.73,25.34Z" transform="translate(-22.03 -22.19)" style="fill:#008752"/><path d="M39.6,28.35a.34.34,0,0,1,.37.36.22.22,0,0,1-.22.23.38.38,0,0,1-.41-.38A.22.22,0,0,1,39.6,28.35Z" transform="translate(-22.03 -22.19)" style="fill:#008752"/><path d="M42.77,30.39c.14,0,.33,0,.33.31a.24.24,0,0,1-.25.27.37.37,0,0,1-.36-.37A.22.22,0,0,1,42.77,30.39Z" transform="translate(-22.03 -22.19)" style="fill:#008752"/><path d="M46.18,30.86c.15,0,.29.11.29.22s-.18.25-.33.25a.22.22,0,0,1-.27-.22A.28.28,0,0,1,46.18,30.86Z" transform="translate(-22.03 -22.19)" style="fill:#008752"/><path d="M48.83,30c.18,0,.29.1.3.21s-.1.3-.3.3a.22.22,0,0,1-.27-.22C48.57,30.11,48.78,30,48.83,30Z" transform="translate(-22.03 -22.19)" style="fill:#008752"/><path d="M51.44,30.14a.29.29,0,0,1,.29-.31.22.22,0,0,1,.24.23.31.31,0,0,1-.31.33A.22.22,0,0,1,51.44,30.14Z" transform="translate(-22.03 -22.19)" style="fill:#008752"/><path d="M53.92,31.54a.32.32,0,0,1,.34.32c0,.12-.19.21-.33.21s-.35-.09-.33-.25A.32.32,0,0,1,53.92,31.54Z" transform="translate(-22.03 -22.19)" style="fill:#008752"/><path d="M34.25,27.74a.4.4,0,0,1,.3.41.24.24,0,0,1-.26.24.35.35,0,0,1-.35-.33A.34.34,0,0,1,34.25,27.74Z" transform="translate(-22.03 -22.19)" style="fill:#008752"/><path d="M37,31.16a.27.27,0,0,1,.26.3.2.2,0,0,1-.2.2c-.19,0-.31-.12-.3-.27S36.91,31.16,37,31.16Z" transform="translate(-22.03 -22.19)" style="fill:#008752"/><path d="M40.44,33.08a.26.26,0,0,1,.29.23c0,.15-.13.2-.27.2a.24.24,0,0,1-.24-.22A.2.2,0,0,1,40.44,33.08Z" transform="translate(-22.03 -22.19)" style="fill:#008752"/><path d="M43.7,33.52a.25.25,0,0,1,.3.23c0,.15-.16.25-.32.27a.27.27,0,0,1-.25-.25A.26.26,0,0,1,43.7,33.52Z" transform="translate(-22.03 -22.19)" style="fill:#008752"/><path d="M34.14,69.87l-.15.32c-.92-.62-2,.51-1,1.29l-.17.25c-.95-.7-1.69.51-.84,1.24l-.11.25c-1.39-1.12-.36-2.29.5-2C31.85,70.26,32.94,69.28,34.14,69.87Z" transform="translate(-22.03 -22.19)" style="fill:#008752"/><path d="M34.88,72.2l-.45-1L31.31,75.3a8,8,0,0,0,5.11-3.09,3.4,3.4,0,0,1-1.54,0l.19-.3a3.69,3.69,0,0,0,1.64,0l.11.16a7.87,7.87,0,0,1-5.91,3.62l-.06-.11,3.45-4.69.21-.1.56,1.16Z" transform="translate(-22.03 -22.19)" style="fill:#008752"/><path d="M24.55,66.12a1.07,1.07,0,0,0,1.18,1.11c1.36,0,2-2.19,2-3.46,0-2-2.41-6.63-2.41-13.28,0-8.51,4.06-13.93,4.06-15.83,0-1.72-.8-2.86-1.77-2.86A1.15,1.15,0,0,0,26.3,33c0,1.24,2.22,1.53,1.94,4.69l.28-.82c-.12-2.41-1.87-3.12-1.9-3.86a.84.84,0,0,1,.94-.87c.84,0,1.47,1.17,1.47,2.51C29.05,36.5,25,42.1,25,50.5c0,6.66,2.42,11.16,2.42,13.26,0,1.36-.58,3.15-1.6,3.15-.61,0-.85-.31-.85-.8,0-1,2.09-2.07,2.08-4.74l-.18-.59C26.88,64,24.57,64.91,24.55,66.12Z" transform="translate(-22.03 -22.19)" style="fill:#008752"/><polygon points="3.07 29.08 6.42 32.28 4.28 36.52 4.18 36.1 6.01 32.34 3.13 29.53 3.07 29.08" style="fill:#008752"/><polygon points="3.98 21.59 6.3 25.6 3.08 29.07 3.13 28.66 5.92 25.56 3.92 22.05 3.98 21.59" style="fill:#008752"/><polygon points="6.57 14.36 7.82 18.75 3.97 21.48 4.08 21.07 7.46 18.64 6.39 14.77 6.57 14.36" style="fill:#008752"/><path d="M32.76,35h0l-.29.09a1.82,1.82,0,0,1-.61.07c-.64,0-1.26-.4-1.59-1.48l-.22.07a1.87,1.87,0,0,0,1.56,1.66l-2.94,1-.1.3,4.14-1.46.23-.35Z" transform="translate(-22.03 -22.19)" style="fill:#008752"/><path d="M26.39,58.74c.44.18,3.09,1.59,3.66,1.76-.39.91-1.15,4.24-1.28,4.53a3,3,0,0,1,1.91-.76,5.41,5.41,0,0,1,.94.14l.11.23a4.28,4.28,0,0,0-1-.13,3,3,0,0,0-2.22,1.2l-.18-.15c.21-.8,1.23-4.62,1.33-4.87-.54-.2-3-1.59-3.2-1.66Z" transform="translate(-22.03 -22.19)" style="fill:#008752"/><path d="M23.79,60.43a1.36,1.36,0,1,1,1,2.5l-.17-.31c.51-.19.86-.42.86-1a1,1,0,0,0-1.58-.84Z" transform="translate(-22.03 -22.19)" style="fill:#008752"/><path d="M22.39,47.14A1.78,1.78,0,0,1,23.9,48.8a1.64,1.64,0,0,1-1.65,1.87v-.32a1.33,1.33,0,0,0,1.37-1.47,1.42,1.42,0,0,0-1.22-1.5Z" transform="translate(-22.03 -22.19)" style="fill:#008752"/><path d="M26.31,35.32a1.4,1.4,0,0,1,.88,1.33,1.27,1.27,0,0,1-1.33,1.31,1.77,1.77,0,0,1-.79-.23l.12-.29a1.23,1.23,0,0,0,.67.25,1.07,1.07,0,0,0,1.09-1c0-.53-.17-.76-.74-1.14Z" transform="translate(-22.03 -22.19)" style="fill:#008752"/><path d="M32.66,32.12a1.11,1.11,0,0,1-1.19,1.17,1.16,1.16,0,0,1-1.19-1.18l-.17.05a1.25,1.25,0,0,0,1.4,1.27,1.34,1.34,0,0,0,1.43-1.31Z" transform="translate(-22.03 -22.19)" style="fill:#008752"/><path d="M32.94,32.12a1.42,1.42,0,0,0-2.83,0l.17-.05A1.2,1.2,0,0,1,31.49,31a1.06,1.06,0,0,1,1.17,1.14Z" transform="translate(-22.03 -22.19)" style="fill:#008752"/><path d="M32.24,68a1.29,1.29,0,0,1-1.46,1.37,1.57,1.57,0,0,1-1.63-1.67l-.27-.05a2,2,0,0,0,1.86,2.05A1.62,1.62,0,0,0,32.57,68Z" transform="translate(-22.03 -22.19)" style="fill:#008752"/><path d="M32.57,68a1.84,1.84,0,0,0-2-1.92,1.53,1.53,0,0,0-1.66,1.56l.27.05a1.33,1.33,0,0,1,1.36-1.41A1.63,1.63,0,0,1,32.24,68Z" transform="translate(-22.03 -22.19)" style="fill:#008752"/><polygon points="0.18 30.56 3.1 30.14 3.16 30.44 0.21 30.87 0.18 30.56" style="fill:#008752"/><polygon points="1.26 36.83 4.23 36.13 4.28 36.42 1.31 37.13 1.26 36.83" style="fill:#008752"/><polygon points="0.21 30.92 0.38 30.63 4.12 36.08 3.98 36.31 0.21 30.92" style="fill:#008752"/><polygon points="0.66 22.79 3.54 23.36 3.46 23.65 0.63 23.14 0.66 22.79" style="fill:#008752"/><polygon points="2.58 16.79 5.34 17.75 5.24 18 2.44 17.07 2.58 16.79" style="fill:#008752"/><polygon points="0.56 22.8 5.08 17.79 5.24 18 0.69 22.99 0.56 22.8" style="fill:#008752"/><polygon points="18.79 33.39 22.67 25.82 22.9 25.97 18.98 33.48 18.79 33.39" style="fill:#008752"/><polygon points="22.05 23.95 26.63 20.39 26.52 20.7 21.85 24.34 22.05 23.95" style="fill:#008752"/><polygon points="11.19 43.57 20.22 35.57 20.01 36.08 10.96 44.16 11.19 43.57" style="fill:#008752"/><polygon points="15.31 47.38 16.97 33.16 16.6 33.88 14.91 48.1 15.31 47.38" style="fill:#008752"/><polygon points="26.71 20.39 26.91 15.24 26.75 15.52 26.54 20.74 26.71 20.39" style="fill:#008752"/><path d="M41.51,50.87a15.91,15.91,0,0,0,3.07,1.56l.11-.25a14.17,14.17,0,0,1-3-1.56Z" transform="translate(-22.03 -22.19)" style="fill:#008752"/><path d="M40.21,53.28c-.09.81,0,2,.8,2.26a2.78,2.78,0,0,0,2.46-.66l-.1.28a2.71,2.71,0,0,1-2.51.6A1.93,1.93,0,0,1,40,53.65Z" transform="translate(-22.03 -22.19)" style="fill:#008752"/><path d="M42.79,48.62a1.79,1.79,0,0,1,1.81-.47,1.75,1.75,0,0,1,.87,2.19l.25-.55a1.65,1.65,0,0,0-1-1.88c-.46-.18-1.54-.15-1.87.38Z" transform="translate(-22.03 -22.19)" style="fill:#008752"/><path d="M33.32,66.63a2.36,2.36,0,0,1,2.55-.29c1,.89.79,2.47.37,3.38L36,69.57a2.59,2.59,0,0,0-.28-3,2,2,0,0,0-2.22.29Z" transform="translate(-22.03 -22.19)" style="fill:#008752"/><path d="M53.56,39.07a.86.86,0,0,1-.94.84.85.85,0,0,1-.9-.88l.23,0a.63.63,0,0,0,.65.61c.44,0,.72-.23.72-.61Z" transform="translate(-22.03 -22.19)" style="fill:#008752"/><path d="M53.32,39.07a.71.71,0,0,0-.66-.63.66.66,0,0,0-.7.63l-.23,0a.9.9,0,0,1,.94-.84.93.93,0,0,1,.9.88Z" transform="translate(-22.03 -22.19)" style="fill:#008752"/><path d="M54.88,35a.84.84,0,0,1-.91.84A.85.85,0,0,1,53,35h.23a.67.67,0,0,0,.64.65c.48,0,.76-.28.72-.59Z" transform="translate(-22.03 -22.19)" style="fill:#008752"/><path d="M54.64,35.06a.68.68,0,0,0-.67-.68.66.66,0,0,0-.69.62H53a.89.89,0,0,1,.89-.84.92.92,0,0,1,.95.85Z" transform="translate(-22.03 -22.19)" style="fill:#008752"/><path d="M51.31,36.63a.67.67,0,0,0,.56.75.69.69,0,0,0,.69-.69A.63.63,0,0,0,52,36a1,1,0,0,0-.46.15l.08-.25a1.54,1.54,0,0,1,.32-.1.75.75,0,0,1,.86.84.93.93,0,0,1-.89.94c-.43,0-.58-.24-.75-.68Z" transform="translate(-22.03 -22.19)" style="fill:#008752"/><path d="M55.47,37.24a.61.61,0,0,0-.58-.44.59.59,0,0,0-.6.5.62.62,0,0,0,.65.61.56.56,0,0,0,.46-.18l0,.28c-.41.18-1.29.15-1.29-.68a.82.82,0,0,1,.83-.79,1,1,0,0,1,.7.38Z" transform="translate(-22.03 -22.19)" style="fill:#008752"/><path d="M47.48,55a1,1,0,0,1-1.12,1,.91.91,0,0,1-.94-.94h.25a.73.73,0,0,0,.71.7c.37,0,.83-.29.83-.73Z" transform="translate(-22.03 -22.19)" style="fill:#008752"/><path d="M47.21,55a.8.8,0,0,0-.73-.79.84.84,0,0,0-.81.83h-.25A1,1,0,0,1,46.51,54a1,1,0,0,1,1,1Z" transform="translate(-22.03 -22.19)" style="fill:#008752"/><path d="M46.51,52.4a1,1,0,0,1-1.08,1,.91.91,0,0,1-.89-1l.24,0a.77.77,0,0,0,.7.78.74.74,0,0,0,.76-.76Z" transform="translate(-22.03 -22.19)" style="fill:#008752"/><path d="M46.25,52.41a.75.75,0,0,0-.76-.75.73.73,0,0,0-.7.73l-.24,0a1,1,0,0,1,1.06-1.06.94.94,0,0,1,.9,1Z" transform="translate(-22.03 -22.19)" style="fill:#008752"/><polygon points="24.68 25.07 32.93 17.11 32.61 17.61 24.73 25.26 24.68 25.07" style="fill:#008752"/><polygon points="29.23 27.38 29.41 27.19 28.74 15.72 28.57 16.22 29.23 27.38" style="fill:#008752"/><polygon points="16.87 43.48 26.33 35.59 26.22 36.04 16.73 43.95 16.87 43.48" style="fill:#008752"/><polygon points="22.56 45.77 22.8 45.64 21.51 32.72 21.3 33.21 22.56 45.77" style="fill:#008752"/><path d="M49.58,49.33a1.4,1.4,0,0,0,.36-.85,1,1,0,0,0-1.11-1.08,1.09,1.09,0,0,0-1.09,1.32l-.26,0a1.38,1.38,0,0,1,1.42-1.62,1.24,1.24,0,0,1,1.34,1.24,1.62,1.62,0,0,1-.46,1.06Z" transform="translate(-22.03 -22.19)" style="fill:#008752"/><path d="M42.54,67.88a1.4,1.4,0,0,0,.5-.93,1.15,1.15,0,0,0-1.25-1.23,1.25,1.25,0,0,0-1.3,1.52l-.32,0a1.57,1.57,0,0,1,1.62-1.8,1.37,1.37,0,0,1,1.54,1.38A1.56,1.56,0,0,1,42.77,68Z" transform="translate(-22.03 -22.19)" style="fill:#008752"/><path d="M47.21,56.93a1.5,1.5,0,0,1-1.5,1.49A1.27,1.27,0,0,1,44.42,57a1.37,1.37,0,0,1,.42-.94l.22.17a1.08,1.08,0,0,0-.33.73,1,1,0,0,0,1.07,1.13,1.08,1.08,0,0,0,1.08-1.17Z" transform="translate(-22.03 -22.19)" style="fill:#008752"/><path d="M41.72,69.25a.94.94,0,0,0-1-.91.79.79,0,0,0-.88.8l-.27,0c0-.66.45-1,1.22-1A1.21,1.21,0,0,1,42,69.22Z" transform="translate(-22.03 -22.19)" style="fill:#008752"/><path d="M42,69.22a1.08,1.08,0,0,1-1.21,1.09,1.1,1.1,0,0,1-1.15-1.16l.27,0a.88.88,0,0,0,.88.91c.7,0,1-.43,1-.8Z" transform="translate(-22.03 -22.19)" style="fill:#008752"/><path d="M48.79,50.83a.72.72,0,0,0-.78-.71c-.33,0-.66.15-.66.72h-.28a.92.92,0,0,1,1-1,1,1,0,0,1,1,1Z" transform="translate(-22.03 -22.19)" style="fill:#008752"/><path d="M49.08,50.85a1,1,0,0,1-1.07.91.88.88,0,0,1-.93-.91h.28a.68.68,0,0,0,.69.7.7.7,0,0,0,.75-.71Z" transform="translate(-22.03 -22.19)" style="fill:#008752"/><path d="M47.94,53.57a1,1,0,0,1,1.1-1,.9.9,0,0,1,.9,1h-.26a.71.71,0,0,0-.72-.72.77.77,0,0,0-.75.74Z" transform="translate(-22.03 -22.19)" style="fill:#008752"/><path d="M49.94,53.54c0,.67-.44,1-1,1a1,1,0,0,1-1-.94l.28,0a.78.78,0,0,0,.75.71.72.72,0,0,0,.72-.73Z" transform="translate(-22.03 -22.19)" style="fill:#008752"/><polygon points="11.84 42.44 11.61 42.84 11.55 8.01 11.76 8.01 11.84 42.44" style="fill:#008752"/><polygon points="13.92 38.7 13.66 39.17 13.6 10.07 13.85 10.07 13.92 38.7" style="fill:#008752"/><polygon points="15.95 34.98 15.71 35.48 15.65 11.6 15.92 11.61 15.95 34.98" style="fill:#008752"/><polygon points="18.04 31.28 17.78 31.78 17.73 12.54 17.99 12.54 18.04 31.28" style="fill:#008752"/><polygon points="20.1 27.56 19.83 28.12 19.81 12.87 20.05 12.87 20.1 27.56" style="fill:#008752"/><polygon points="22.18 23.88 21.87 24.44 21.85 12.79 22.14 12.77 22.18 23.88" style="fill:#008752"/><polygon points="24.22 20.14 23.96 20.74 23.92 12.35 24.22 12.33 24.22 20.14" style="fill:#008752"/><polygon points="26.27 16.44 26.02 17.09 26.01 11.21 26.23 11.2 26.27 16.44" style="fill:#008752"/><path d="M69.33,38.06c.13.47.3.9.47,1.33l2.13,5.48c.56,1.46.8,1.5,1.19,1.5h.14v.35H70v-.35h.26c.54,0,.65-.07.65-.3a1.61,1.61,0,0,0-.13-.55l-.62-1.61H66.82l-.42,1A3.08,3.08,0,0,0,66.08,46c0,.38.36.38.79.38H67v.35H64.56v-.35h.13c.36,0,.65-.12.95-.83l2.62-6.27a9.2,9.2,0,0,0,.43-1.21Zm.66,5.5-1.46-3.72L67,43.56Z" transform="translate(-22.03 -22.19)" style="fill:#008752"/><path d="M73.93,46.37h.55c.42,0,.43-.24.43-.72V42.37c0-1-.06-1.25-.38-1.25h-.6v-.35h.55a4.28,4.28,0,0,0,1.57-.19v1.07h0a2.21,2.21,0,0,1,2-1.07,1.62,1.62,0,0,1,1.83,1.76v3.06c0,.76,0,1,.4,1h.53v.35H77.73v-.35h.46c.43,0,.48-.2.48-1V42.59c0-.72-.24-1.44-1.13-1.44-1.22,0-1.43,1.31-1.43,2.29v2.21c0,.54.07.72.43.72H77v.35H73.93Z" transform="translate(-22.03 -22.19)" style="fill:#008752"/><path d="M85,46.37h.37c.49,0,.61-.18.61-.6V39.23c0-.62-.17-.71-.66-.71H85v-.35h3.91c1.41,0,2.7.5,2.7,1.89a2.45,2.45,0,0,1-2.1,2.13v0c1.46.29,1.71.6,1.77,2.21l.06,1.49c0,.19.06.42.29.42s.47-.29.58-.61l.35.16a1.47,1.47,0,0,1-1.36,1c-1,0-1.26-.83-1.29-1.62l-.08-1.61c0-.95-.55-1.28-1.7-1.28h-.79v3.25c0,.53,0,.72.59.72h.38v.35H85Zm2.33-4.32h.94a1.64,1.64,0,0,0,1.86-1.76c0-1.32-.71-1.76-1.9-1.76h-.9Z" transform="translate(-22.03 -22.19)" style="fill:#008752"/><path d="M96.08,46.91c-1.82,0-2.75-1.45-2.75-3.15s.92-3.17,2.75-3.17,2.75,1.45,2.75,3.17S97.9,46.91,96.08,46.91Zm0-6c-1.08,0-1.4.78-1.4,2.82s.32,2.81,1.4,2.81,1.4-.78,1.4-2.81S97.16,40.94,96.08,40.94Z" transform="translate(-22.03 -22.19)" style="fill:#008752"/><path d="M99.51,46.37H100c.31,0,.44-.14.44-.82V41.93c0-.61,0-.8-.43-.8h-.53v-.35h.74a4.52,4.52,0,0,0,1.48-.19,10.7,10.7,0,0,0-.06,1.23v3.73c0,.67.13.82.44.82h.52v.35H99.51ZM101.07,38a.82.82,0,0,1,.82.82.81.81,0,0,1-.82.82.82.82,0,0,1-.82-.82A.84.84,0,0,1,101.07,38Z" transform="translate(-22.03 -22.19)" style="fill:#008752"/><path d="M103.44,46.37H104c.42,0,.43-.24.43-.72V42.37c0-1-.06-1.25-.38-1.25h-.6v-.35H104a4.28,4.28,0,0,0,1.57-.19v1.07h0a2.21,2.21,0,0,1,2-1.07,1.62,1.62,0,0,1,1.83,1.76v3.06c0,.76,0,1,.4,1h.53v.35h-3.06v-.35h.46c.43,0,.48-.2.48-1V42.59c0-.72-.24-1.44-1.13-1.44-1.22,0-1.43,1.31-1.43,2.29v2.21c0,.54.07.72.43.72h.5v.35h-3.12Z" transform="translate(-22.03 -22.19)" style="fill:#008752"/><path d="M111.13,46.37h.55c.42,0,.43-.24.43-.72V42.37c0-1-.06-1.25-.38-1.25h-.6v-.35h.55a4.29,4.29,0,0,0,1.57-.19v1.07h0a2.21,2.21,0,0,1,2-1.07,1.63,1.63,0,0,1,1.83,1.76v3.06c0,.76,0,1,.4,1H118v.35h-3.06v-.35h.46c.43,0,.48-.2.48-1V42.59c0-.72-.24-1.44-1.13-1.44-1.22,0-1.43,1.31-1.43,2.29v2.21c0,.54.07.72.43.72h.5v.35h-3.12Z" transform="translate(-22.03 -22.19)" style="fill:#008752"/><path d="M128.93,40.35h-.42a2.08,2.08,0,0,0-2.13-2c-2.18,0-2.53,2.48-2.53,4.19s.36,4,2.39,4a1.54,1.54,0,0,0,1.67-1.67v-1c0-.46-.12-.62-.43-.62H127V43h3v.35h-.32c-.38,0-.46.16-.46.76v2.78h-.34a.33.33,0,0,0-.38-.29,11.06,11.06,0,0,1-2.23.36c-2.88,0-3.86-2-3.86-4.55,0-2.35,1.43-4.38,3.92-4.38a4.12,4.12,0,0,1,1.31.19,3,3,0,0,0,.72.19c.13,0,.19-.13.21-.31h.42Z" transform="translate(-22.03 -22.19)" style="fill:#008752"/><path d="M130.42,46.37H131c.42,0,.43-.24.43-.72V42.37c0-1-.06-1.25-.38-1.25h-.6v-.35H131a4.29,4.29,0,0,0,1.57-.19v1.07h0a2.21,2.21,0,0,1,2-1.07,1.63,1.63,0,0,1,1.83,1.76v3.06c0,.76,0,1,.4,1h.53v.35h-3.06v-.35h.46c.43,0,.48-.2.48-1V42.59c0-.72-.24-1.44-1.13-1.44-1.22,0-1.43,1.31-1.43,2.29v2.21c0,.54.07.72.43.72h.5v.35h-3.12Z" transform="translate(-22.03 -22.19)" style="fill:#008752"/><path d="M143.42,43.75c0,1.7-.92,3.15-2.75,3.15s-2.75-1.45-2.75-3.15.92-3.17,2.75-3.17S143.42,42,143.42,43.75Zm-1.34,0c0-2-.32-2.82-1.4-2.82s-1.4.78-1.4,2.82.32,2.81,1.4,2.81S142.07,45.78,142.07,43.75Zm-2-4,1.7-1.8c.22-.24.35-.32.56-.32a.55.55,0,0,1,.56.49c0,.26-.14.38-.38.53l-1.82,1.1Z" transform="translate(-22.03 -22.19)" style="fill:#008752"/><path d="M147.62,41.13h-1.38v4.64c0,.35.16.58.49.58s.55-.47.55-1.1V45h.49v.23c0,1-.19,1.63-1.43,1.63-.95,0-1.31-.48-1.31-1.39V41.13h-1v-.35a2,2,0,0,0,1.81-2.05h.41v2.05h1.38Z" transform="translate(-22.03 -22.19)" style="fill:#008752"/><path d="M148.54,46.37h.55c.42,0,.43-.24.43-.72V39.12c0-.84-.07-1-.47-1h-.52v-.35h2.18v3.87h0a2,2,0,0,1,1.89-1.07,1.63,1.63,0,0,1,1.84,1.76v3.06c0,.76,0,1,.4,1h.53v.35h-3.06v-.35h.46c.43,0,.48-.2.48-1V42.59c0-.72-.24-1.44-1.13-1.44-1.22,0-1.43,1.33-1.43,2.29v2.21c0,.54.07.72.43.72h.5v.35h-3.12Z" transform="translate(-22.03 -22.19)" style="fill:#008752"/><path d="M162.21,45.42c0,.89-.25,1.49-1.25,1.49a1.07,1.07,0,0,1-1.15-.79,1.78,1.78,0,0,1-1.64.79,1.65,1.65,0,0,1-1.87-1.68c0-1.37,1.55-2.07,2.77-2.07l.72,0V42.1c0-.68-.11-1.16-.9-1.16-.21,0-.91.1-.91.41,0,.11.19.26.19.62a.68.68,0,0,1-.71.66.76.76,0,0,1-.78-.82c0-1,1.57-1.22,2.21-1.22,1.27,0,2.1.43,2.1,1.77v3.55c0,.24.08.43.34.43.44,0,.47-.55.47-.92v-.3h.42Zm-2.42-1.87a5.78,5.78,0,0,0-.62,0,1.59,1.59,0,0,0-1.6,1.72c0,.72.34,1.2,1.07,1.2a1.16,1.16,0,0,0,1.15-1.16Z" transform="translate(-22.03 -22.19)" style="fill:#008752"/><path d="M163,46.72v-.35h.52c.31,0,.44-.14.44-.82V41.93c0-.61,0-.8-.43-.8H163v-.35h.74a4.52,4.52,0,0,0,1.48-.19,10.7,10.7,0,0,0-.06,1.23v3.73c0,.67.13.82.44.82h.52v.35Zm1-7,1.7-1.8c.22-.24.35-.32.56-.32a.55.55,0,0,1,.56.49c0,.26-.14.38-.38.53l-1.82,1.1Z" transform="translate(-22.03 -22.19)" style="fill:#008752"/><path d="M170.43,46.37h.48c.3,0,.49-.07.49-.77V39.33c0-.7-.06-.8-.55-.8h-.42v-.35H177v2h-.42c0-1.18-.6-1.64-1.75-1.64h-2.07v3.68h1.79c.8,0,1.13-.56,1.13-1.29h.42v3h-.42c0-.78-.29-1.32-1.13-1.32h-1.79v3.81h2.19c1.13,0,1.77-.52,1.77-1.68h.42v2h-6.7Z" transform="translate(-22.03 -22.19)" style="fill:#008752"/><path d="M184.36,45.42c0,.89-.25,1.49-1.25,1.49a1.07,1.07,0,0,1-1.15-.79,1.78,1.78,0,0,1-1.64.79,1.65,1.65,0,0,1-1.87-1.68c0-1.37,1.55-2.07,2.77-2.07l.72,0V42.1c0-.68-.11-1.16-.9-1.16-.2,0-.91.1-.91.41,0,.11.19.26.19.62a.68.68,0,0,1-.71.66.77.77,0,0,1-.78-.82c0-1,1.57-1.22,2.21-1.22,1.27,0,2.1.43,2.1,1.77v3.55c0,.24.08.43.34.43.44,0,.47-.55.47-.92v-.3h.42Zm-2.42-1.87a5.8,5.8,0,0,0-.62,0,1.59,1.59,0,0,0-1.59,1.72c0,.72.33,1.2,1.07,1.2a1.16,1.16,0,0,0,1.15-1.16Z" transform="translate(-22.03 -22.19)" style="fill:#008752"/><path d="M190.23,44.69a2.08,2.08,0,0,1-2.17,2.22c-1.82,0-2.75-1.45-2.75-3.15s.92-3.17,2.75-3.17c.9,0,2,.35,2,1.28a.7.7,0,0,1-.77.73.67.67,0,0,1-.72-.65c0-.42.18-.43.18-.64s-.48-.38-.71-.38c-1.08,0-1.4.78-1.4,2.82,0,1.33.24,2.81,1.5,2.81a1.67,1.67,0,0,0,1.58-1.87Z" transform="translate(-22.03 -22.19)" style="fill:#008752"/><path d="M190.92,46.37h.55c.42,0,.43-.24.43-.72V39.12c0-.84-.07-1-.47-1h-.52v-.35h2.18v3.87h0a2.05,2.05,0,0,1,1.9-1.07,1.62,1.62,0,0,1,1.83,1.76v3.06c0,.76,0,1,.4,1h.53v.35h-3.06v-.35h.46c.43,0,.48-.2.48-1V42.59c0-.72-.24-1.44-1.13-1.44-1.22,0-1.43,1.33-1.43,2.29v2.21c0,.54.07.72.43.72h.5v.35h-3.12Z" transform="translate(-22.03 -22.19)" style="fill:#008752"/><path d="M201.62,41.13h-1.38v4.64c0,.35.16.58.49.58s.55-.47.55-1.1V45h.49v.23c0,1-.19,1.63-1.43,1.63-.95,0-1.31-.48-1.31-1.39V41.13h-1v-.35a2,2,0,0,0,1.81-2.05h.41v2.05h1.38Z" transform="translate(-22.03 -22.19)" style="fill:#008752"/><path d="M202.54,46.37h.55c.42,0,.43-.24.43-.72V42.37c0-1-.06-1.25-.38-1.25h-.6v-.35h1.31a2,2,0,0,0,.82-.19V42h0a2.08,2.08,0,0,1,1.75-1.4,1,1,0,0,1,1.07.92.72.72,0,0,1-.78.79c-.34,0-.68-.16-.68-.5a2.14,2.14,0,0,1,0-.32c0-.08-.16-.1-.24-.1-.73,0-1.13.8-1.13,3v1.3c0,.54.07.72.43.72h.72v.35h-3.33Z" transform="translate(-22.03 -22.19)" style="fill:#008752"/><path d="M214.32,45.42c0,.89-.25,1.49-1.25,1.49a1.07,1.07,0,0,1-1.15-.79,1.78,1.78,0,0,1-1.64.79,1.65,1.65,0,0,1-1.87-1.68c0-1.37,1.55-2.07,2.77-2.07l.72,0V42.1c0-.68-.11-1.16-.9-1.16-.21,0-.91.1-.91.41,0,.11.19.26.19.62a.68.68,0,0,1-.71.66.76.76,0,0,1-.78-.82c0-1,1.57-1.22,2.21-1.22,1.27,0,2.1.43,2.1,1.77v3.55c0,.24.08.43.34.43.44,0,.47-.55.47-.92v-.3h.42Zm-2.42-1.87a5.78,5.78,0,0,0-.62,0,1.59,1.59,0,0,0-1.6,1.72c0,.72.34,1.2,1.07,1.2a1.16,1.16,0,0,0,1.15-1.16Z" transform="translate(-22.03 -22.19)" style="fill:#008752"/><path d="M220.19,44.69A2.08,2.08,0,0,1,218,46.91c-1.82,0-2.75-1.45-2.75-3.15s.92-3.17,2.75-3.17c.9,0,2,.35,2,1.28a.7.7,0,0,1-.77.73.66.66,0,0,1-.72-.65c0-.42.18-.43.18-.64s-.48-.38-.71-.38c-1.08,0-1.4.78-1.4,2.82,0,1.33.24,2.81,1.5,2.81a1.67,1.67,0,0,0,1.58-1.87Z" transform="translate(-22.03 -22.19)" style="fill:#008752"/><path d="M220.88,46.37h.55c.42,0,.43-.24.43-.72V39.12c0-.84-.07-1-.47-1h-.52v-.35h2.18v3.87h0a2.05,2.05,0,0,1,1.9-1.07,1.63,1.63,0,0,1,1.83,1.76v3.06c0,.76,0,1,.4,1h.53v.35h-3.06v-.35h.46c.43,0,.48-.2.48-1V42.59c0-.72-.24-1.44-1.13-1.44-1.22,0-1.43,1.33-1.43,2.29v2.21c0,.54.07.72.43.72h.5v.35h-3.12Z" transform="translate(-22.03 -22.19)" style="fill:#008752"/><path d="M234.54,45.42c0,.89-.25,1.49-1.25,1.49a1.07,1.07,0,0,1-1.15-.79,1.78,1.78,0,0,1-1.64.79,1.65,1.65,0,0,1-1.87-1.68c0-1.37,1.55-2.07,2.77-2.07l.72,0V42.1c0-.68-.11-1.16-.9-1.16-.2,0-.91.1-.91.41,0,.11.19.26.19.62a.68.68,0,0,1-.71.66.76.76,0,0,1-.78-.82c0-1,1.57-1.22,2.21-1.22,1.27,0,2.1.43,2.1,1.77v3.55c0,.24.08.43.34.43.44,0,.47-.55.47-.92v-.3h.42Zm-2.42-1.87a5.78,5.78,0,0,0-.62,0,1.59,1.59,0,0,0-1.6,1.72c0,.72.34,1.2,1.07,1.2a1.16,1.16,0,0,0,1.15-1.16Z" transform="translate(-22.03 -22.19)" style="fill:#008752"/><path d="M245,45.42c0,.89-.25,1.49-1.25,1.49a1.07,1.07,0,0,1-1.15-.79,1.78,1.78,0,0,1-1.64.79,1.65,1.65,0,0,1-1.87-1.68c0-1.37,1.55-2.07,2.77-2.07l.72,0V42.1c0-.68-.11-1.16-.9-1.16-.2,0-.91.1-.91.41,0,.11.19.26.19.62a.68.68,0,0,1-.71.66.77.77,0,0,1-.78-.82c0-1,1.57-1.22,2.21-1.22,1.27,0,2.1.43,2.1,1.77v3.55c0,.24.08.43.34.43.44,0,.47-.55.47-.92v-.3H245Zm-2.42-1.87a5.8,5.8,0,0,0-.62,0,1.59,1.59,0,0,0-1.59,1.72c0,.72.33,1.2,1.07,1.2a1.16,1.16,0,0,0,1.15-1.16Z" transform="translate(-22.03 -22.19)" style="fill:#008752"/><path d="M248.9,45.66c1.26,0,2.39.36,2.39,1.79s-1.58,2.06-2.9,2.06c-1,0-2.75-.22-2.75-1.56A1.38,1.38,0,0,1,247,46.62v0a1,1,0,0,1-.7-1,1.1,1.1,0,0,1,.89-1.1v0a1.79,1.79,0,0,1-1.28-1.75,2.15,2.15,0,0,1,2.44-2.13,2.8,2.8,0,0,1,.58.07,2.88,2.88,0,0,0,.54.07,1.71,1.71,0,0,0,.85-.28,1.74,1.74,0,0,1,.84-.26.6.6,0,0,1,.6.67.59.59,0,0,1-.6.65c-.61,0-.44-.61-.7-.61a1.65,1.65,0,0,0-.58.16,1.94,1.94,0,0,1,.89,1.58c0,1.87-1.75,2.07-2.57,2.11-1.13,0-1.33.14-1.33.47s.28.44,1.08.44Zm-2.24,2.25c0,.91.72,1.25,1.82,1.25.72,0,1.79-.36,1.79-1.25,0-1.09-.82-1.2-1.61-1.2C247.47,46.72,246.66,46.88,246.66,47.92Zm.52-5.21c0,.86.19,1.66,1.2,1.66s1.12-.89,1.12-1.64-.17-1.79-1.09-1.79S247.17,41.81,247.17,42.71Z" transform="translate(-22.03 -22.19)" style="fill:#008752"/><path d="M252.49,40.78h.56a6.1,6.1,0,0,0,1.7-.19,7.62,7.62,0,0,0-.08,1.19v3c0,.94.25,1.6,1.12,1.6s1.44-.88,1.44-2.22V42.23c0-1,0-1.1-.44-1.1h-.54v-.35h.56a6.1,6.1,0,0,0,1.7-.19,7.62,7.62,0,0,0-.08,1.19v3.63c0,.76,0,1,.4,1h.53v.35h-1a7.33,7.33,0,0,0-1,.06v-1h0a2,2,0,0,1-1.88,1.1c-1.61,0-1.91-.67-1.91-1.92V42.37c0-1-.06-1.25-.38-1.25h-.6Z" transform="translate(-22.03 -22.19)" style="fill:#008752"/><path d="M264.46,42.42h-.35a1.65,1.65,0,0,0-1.66-1.49,1.06,1.06,0,0,0-1.12,1.12c0,1.68,3.48.38,3.48,2.89a2.06,2.06,0,0,1-2.24,2,4.24,4.24,0,0,1-.86-.11,3.69,3.69,0,0,0-.72-.08,1,1,0,0,0-.56.18h-.1v-2h.35a1.74,1.74,0,0,0,1.84,1.69,1.12,1.12,0,0,0,1.2-1.19c0-1.86-3.39-.37-3.39-2.9a1.91,1.91,0,0,1,2.13-1.88,3.42,3.42,0,0,1,.76.1,3.47,3.47,0,0,0,.59.1,1.21,1.21,0,0,0,.56-.17h.1Z" transform="translate(-22.03 -22.19)" style="fill:#008752"/><path d="M271.18,46.37h.56c.49,0,.49-.23.49-1.26V38.53h-.65a1.69,1.69,0,0,0-1.86,1.74h-.42V38.18h7.2v2.09h-.42a1.69,1.69,0,0,0-1.86-1.74h-.65v6.58c0,1,0,1.26.49,1.26h.56v.35h-3.45Z" transform="translate(-22.03 -22.19)" style="fill:#008752"/><path d="M276.49,46.37H277c.42,0,.43-.24.43-.72V42.37c0-1-.06-1.25-.38-1.25h-.6v-.35h1.31a1.94,1.94,0,0,0,.82-.19V42h0a2.08,2.08,0,0,1,1.75-1.4,1,1,0,0,1,1.07.92.72.72,0,0,1-.78.79c-.34,0-.68-.16-.68-.5a2.14,2.14,0,0,1,0-.32c0-.08-.16-.1-.24-.1-.73,0-1.13.8-1.13,3v1.3c0,.54.07.72.43.72h.72v.35h-3.33Z" transform="translate(-22.03 -22.19)" style="fill:#008752"/><path d="M288.27,45.12v.3c0,.89-.25,1.49-1.25,1.49a1.07,1.07,0,0,1-1.15-.79,1.78,1.78,0,0,1-1.64.79,1.65,1.65,0,0,1-1.87-1.68c0-1.37,1.55-2.07,2.77-2.07l.72,0V42.1c0-.68-.11-1.16-.9-1.16-.2,0-.91.1-.91.41,0,.11.19.26.19.62a.68.68,0,0,1-.71.66.77.77,0,0,1-.78-.82c0-1,1.57-1.22,2.21-1.22,1.27,0,2.1.43,2.1,1.77v3.55c0,.24.08.43.34.43.44,0,.47-.55.47-.92v-.3Zm-2.42.13v-1.7a5.8,5.8,0,0,0-.62,0,1.59,1.59,0,0,0-1.59,1.72c0,.72.34,1.2,1.07,1.2A1.16,1.16,0,0,0,285.85,45.25Zm-1.32-5.49,1.7-1.8c.22-.24.35-.32.56-.32a.55.55,0,0,1,.56.49c0,.26-.14.38-.38.53l-1.82,1.1Z" transform="translate(-22.03 -22.19)" style="fill:#008752"/><path d="M291.48,40.59a2,2,0,0,1,1.81,1.09h0V39.06c0-.77,0-.94-.38-.94h-.58v-.35h2.16v7.56c0,.88.06,1,.43,1h.53v.35h-2.1v-1h0a2,2,0,0,1-1.87,1.16c-1.5,0-2.25-1.56-2.25-3.19C289.23,42.3,289.79,40.59,291.48,40.59Zm1.86,3.13c0-1.87-.6-2.57-1.56-2.57s-1.21,1.13-1.21,2.57.16,2.63,1.21,2.63S293.34,45.49,293.34,43.72Z" transform="translate(-22.03 -22.19)" style="fill:#008752"/><path d="M302.32,45.12v.3c0,.89-.25,1.49-1.25,1.49a1.07,1.07,0,0,1-1.15-.79,1.78,1.78,0,0,1-1.64.79,1.65,1.65,0,0,1-1.87-1.68c0-1.37,1.55-2.07,2.77-2.07l.72,0V42.1c0-.68-.11-1.16-.9-1.16-.2,0-.91.1-.91.41,0,.11.19.26.19.62a.68.68,0,0,1-.71.66.77.77,0,0,1-.78-.82c0-1,1.57-1.22,2.21-1.22,1.27,0,2.1.43,2.1,1.77v3.55c0,.24.08.43.34.43.44,0,.47-.55.47-.92v-.3Zm-2.42.13v-1.7a5.8,5.8,0,0,0-.62,0,1.59,1.59,0,0,0-1.59,1.72c0,.72.34,1.2,1.07,1.2A1.16,1.16,0,0,0,299.9,45.25Zm-1.32-5.49,1.7-1.8c.22-.24.35-.32.56-.32a.55.55,0,0,1,.56.49c0,.26-.14.38-.38.53l-1.82,1.1Z" transform="translate(-22.03 -22.19)" style="fill:#008752"/><path d="M303.11,46.37h.52c.31,0,.44-.14.44-.82V39.25c0-1-.06-1.12-.43-1.12h-.53v-.35h2.16v7.77c0,.67.13.82.44.82h.52v.35h-3.12Z" transform="translate(-22.03 -22.19)" style="fill:#008752"/><path d="M313,45.42c0,.89-.25,1.49-1.25,1.49a1.07,1.07,0,0,1-1.15-.79,1.78,1.78,0,0,1-1.64.79,1.65,1.65,0,0,1-1.87-1.68c0-1.37,1.55-2.07,2.77-2.07l.72,0V42.1c0-.68-.11-1.16-.9-1.16-.2,0-.91.1-.91.41,0,.11.19.26.19.62a.68.68,0,0,1-.71.66.77.77,0,0,1-.78-.82c0-1,1.57-1.22,2.21-1.22,1.27,0,2.1.43,2.1,1.77v3.55c0,.24.08.43.34.43.44,0,.47-.55.47-.92v-.3H313Zm-2.42-1.87a5.8,5.8,0,0,0-.62,0,1.59,1.59,0,0,0-1.59,1.72c0,.72.34,1.2,1.07,1.2a1.16,1.16,0,0,0,1.15-1.16Z" transform="translate(-22.03 -22.19)" style="fill:#008752"/><path d="M65,51.18h3.39c2.78,0,4.34,1.61,4.34,4.35a4,4,0,0,1-4.22,4.19H65v-.35h.5c.42,0,.48-.12.48-1.31V52.64c0-.82,0-1.12-.44-1.12H65Zm2.33,8.19h1c2.3,0,2.88-2,2.88-3.9s-.6-3.95-3-3.95h-1Z" transform="translate(-22.03 -22.19)" style="fill:#008752"/><path d="M75.26,56.75c0,2,.32,2.81,1.4,2.81a1.77,1.77,0,0,0,1.86-1.89H79a2.19,2.19,0,0,1-2.35,2.24c-1.82,0-2.75-1.45-2.75-3.15s.92-3.17,2.75-3.17,2.48,1.67,2.45,3.17Zm2.51-.35c0-1.44-.32-2.47-1.25-2.47s-1.22,1-1.26,2.47Z" transform="translate(-22.03 -22.19)" style="fill:#008752"/><path d="M83.84,59.91A1.93,1.93,0,0,1,82,58.84h0v2.31c0,.67.13.82.44.82H83v.35H79.83V62h.54c.31,0,.44-.14.44-.82v-5.9c0-.9,0-1.13-.46-1.13h-.53v-.35h1.31a1.94,1.94,0,0,0,.82-.19v1.22h0a2,2,0,0,1,1.87-1.22c1.69,0,2.25,1.71,2.25,3.13C86.1,58.35,85.34,59.91,83.84,59.91Zm.91-3.19c0-1.44-.25-2.57-1.21-2.57S82,54.85,82,56.72s.58,2.63,1.56,2.63S84.76,58.16,84.76,56.72Z" transform="translate(-22.03 -22.19)" style="fill:#008752"/><path d="M93.18,58.42c0,.89-.25,1.49-1.25,1.49a1.07,1.07,0,0,1-1.15-.79,1.78,1.78,0,0,1-1.64.79,1.65,1.65,0,0,1-1.87-1.68c0-1.37,1.55-2.08,2.77-2.08l.72,0V55.1c0-.68-.11-1.16-.9-1.16-.2,0-.91.1-.91.41,0,.11.19.26.19.62a.68.68,0,0,1-.71.66.77.77,0,0,1-.78-.82c0-1,1.57-1.22,2.21-1.22,1.27,0,2.1.43,2.1,1.78v3.55c0,.24.08.43.34.43.44,0,.47-.55.47-.92v-.3h.42Zm-2.42-1.87a5.8,5.8,0,0,0-.62,0,1.59,1.59,0,0,0-1.59,1.72c0,.72.34,1.2,1.07,1.2a1.16,1.16,0,0,0,1.15-1.16Z" transform="translate(-22.03 -22.19)" style="fill:#008752"/><path d="M94,59.37h.55c.42,0,.43-.24.43-.72V55.37c0-1-.06-1.25-.38-1.25H94v-.35h1.31a1.94,1.94,0,0,0,.82-.19V55h0a2.08,2.08,0,0,1,1.75-1.4,1,1,0,0,1,1.07.92.72.72,0,0,1-.78.79c-.34,0-.68-.16-.68-.5a2.2,2.2,0,0,1,0-.32c0-.08-.16-.1-.24-.1-.73,0-1.13.8-1.13,3v1.3c0,.54.07.72.43.72h.72v.35H94Z" transform="translate(-22.03 -22.19)" style="fill:#008752"/><path d="M103.41,54.13H102v4.64c0,.35.16.58.49.58s.55-.47.55-1.1V58h.49v.23c0,1-.19,1.63-1.43,1.63-.95,0-1.31-.48-1.31-1.39V54.13h-1v-.35a2,2,0,0,0,1.81-2.05H102v2.05h1.38Z" transform="translate(-22.03 -22.19)" style="fill:#008752"/><path d="M104.33,59.37h.55c.42,0,.43-.24.43-.72V55.37c0-1-.06-1.25-.38-1.25h-.6v-.35h.55a4.27,4.27,0,0,0,1.57-.19v1.07h0a2.21,2.21,0,0,1,2-1.07,1.56,1.56,0,0,1,1.63,1.1h0a2,2,0,0,1,2-1.1,1.53,1.53,0,0,1,1.74,1.66v3.17c0,.75,0,1,.4,1h.53v.35h-3.06v-.35h.45c.43,0,.48-.2.48-1V55.7c0-1.07-.21-1.55-1.07-1.55s-1.37,1-1.37,2v2c0,1.08.08,1.21.38,1.21h.55v.35h-3v-.35h.53c.3,0,.36-.23.36-1V55.73c0-.75,0-1.58-1-1.58-1.22,0-1.43,1.31-1.43,2.29v2.21c0,.54.07.72.43.72h.5v.35h-3.12Z" transform="translate(-22.03 -22.19)" style="fill:#008752"/><path d="M116.73,56.75c0,2,.32,2.81,1.4,2.81A1.77,1.77,0,0,0,120,57.67h.49a2.19,2.19,0,0,1-2.35,2.24c-1.82,0-2.75-1.45-2.75-3.15s.92-3.17,2.75-3.17,2.48,1.67,2.45,3.17Zm2.51-.35c0-1.44-.32-2.47-1.25-2.47s-1.22,1-1.26,2.47Z" transform="translate(-22.03 -22.19)" style="fill:#008752"/><path d="M121.33,59.37h.55c.42,0,.43-.24.43-.72V55.37c0-1-.06-1.25-.38-1.25h-.6v-.35h.55a4.25,4.25,0,0,0,1.57-.19v1.07h0a2.21,2.21,0,0,1,2-1.07,1.63,1.63,0,0,1,1.83,1.76v3.06c0,.75,0,1,.4,1h.53v.35h-3.06v-.35h.46c.43,0,.48-.2.48-1V55.59c0-.72-.24-1.44-1.13-1.44-1.22,0-1.43,1.31-1.43,2.29v2.21c0,.54.07.72.43.72h.5v.35h-3.12Z" transform="translate(-22.03 -22.19)" style="fill:#008752"/><path d="M132,54.13h-1.38v4.64c0,.35.16.58.49.58s.55-.47.55-1.1V58h.49v.23c0,1-.19,1.63-1.43,1.63-.95,0-1.31-.48-1.31-1.39V54.13h-1v-.35a2,2,0,0,0,1.81-2.05h.41v2.05H132Z" transform="translate(-22.03 -22.19)" style="fill:#008752"/><path d="M139.33,59.91c-1.82,0-2.75-1.45-2.75-3.15s.92-3.17,2.75-3.17,2.75,1.45,2.75,3.17S141.15,59.91,139.33,59.91Zm0-6c-1.08,0-1.4.78-1.4,2.82s.32,2.81,1.4,2.81,1.4-.78,1.4-2.81S140.41,53.94,139.33,53.94Z" transform="translate(-22.03 -22.19)" style="fill:#008752"/><path d="M142.77,59.37h.55c.42,0,.43-.24.43-.72V54.13h-.95v-.35h.95V53c0-1.33.55-2.42,2.1-2.42.83,0,1.58.37,1.58,1.24a.7.7,0,0,1-.73.77A.62.62,0,0,1,146,52c0-.49.36-.52.36-.66s-.28-.38-.5-.38c-.82,0-.92.72-.92,2.08v.77h1.2v.35H145v4.55c0,.53.07.7.5.7h.7v.35h-3.38Z" transform="translate(-22.03 -22.19)" style="fill:#008752"/><path d="M150.61,59.37h.52c.43,0,.46-.22.46-1.24V52.75c0-1.16,0-1.22-.46-1.22h-.52v-.35H157v2h-.42c0-1.44-1-1.63-2.16-1.63h-1.5v3.79h1.26c1,0,1.51-.35,1.52-1.34h.42v3h-.42c0-1-.58-1.33-1.51-1.33h-1.27v2.47c0,.65,0,1.24.55,1.24h.47v.35h-3.33Z" transform="translate(-22.03 -22.19)" style="fill:#008752"/><path d="M160.51,59.91c-1.82,0-2.75-1.45-2.75-3.15s.92-3.17,2.75-3.17,2.75,1.45,2.75,3.17S162.33,59.91,160.51,59.91Zm0-6c-1.08,0-1.4.78-1.4,2.82s.32,2.81,1.4,2.81,1.4-.78,1.4-2.81S161.59,53.94,160.51,53.94Z" transform="translate(-22.03 -22.19)" style="fill:#008752"/><path d="M164,59.37h.55c.42,0,.43-.24.43-.72V55.37c0-1-.06-1.25-.38-1.25H164v-.35h1.31a1.94,1.94,0,0,0,.82-.19V55h0a2.08,2.08,0,0,1,1.75-1.4,1,1,0,0,1,1.07.92.72.72,0,0,1-.78.79c-.34,0-.68-.16-.68-.5a2.11,2.11,0,0,1,0-.32c0-.08-.16-.1-.24-.1-.73,0-1.13.8-1.13,3v1.3c0,.54.07.72.43.72h.72v.35H164Z" transform="translate(-22.03 -22.19)" style="fill:#008752"/><path d="M171.11,56.75c0,2,.32,2.81,1.4,2.81a1.77,1.77,0,0,0,1.86-1.89h.49a2.19,2.19,0,0,1-2.35,2.24c-1.82,0-2.75-1.45-2.75-3.15s.92-3.17,2.75-3.17S175,55.26,175,56.75Zm2.51-.35c0-1.44-.32-2.47-1.25-2.47s-1.22,1-1.26,2.47Z" transform="translate(-22.03 -22.19)" style="fill:#008752"/><path d="M175.69,59.37h.52c.31,0,.44-.14.44-.82V54.93c0-.61,0-.8-.43-.8h-.53v-.35h.74a4.5,4.5,0,0,0,1.47-.19,10.94,10.94,0,0,0-.06,1.24v3.73c0,.67.13.82.44.82h.52v.35h-3.12ZM177.25,51a.82.82,0,0,1,.82.82.81.81,0,0,1-.82.82.82.82,0,0,1-.82-.82A.84.84,0,0,1,177.25,51Z" transform="translate(-22.03 -22.19)" style="fill:#008752"/><path d="M182.62,58.66c1.26,0,2.39.36,2.39,1.79s-1.58,2.06-2.9,2.06c-1,0-2.75-.22-2.75-1.56a1.38,1.38,0,0,1,1.36-1.33v0a1,1,0,0,1-.7-1,1.1,1.1,0,0,1,.89-1.1v0a1.79,1.79,0,0,1-1.28-1.75,2.15,2.15,0,0,1,2.44-2.13,2.8,2.8,0,0,1,.58.07,2.89,2.89,0,0,0,.54.07,1.71,1.71,0,0,0,.85-.28,1.74,1.74,0,0,1,.84-.26.6.6,0,0,1,.6.67.59.59,0,0,1-.6.65c-.61,0-.44-.61-.7-.61a1.66,1.66,0,0,0-.58.16,1.94,1.94,0,0,1,.89,1.58c0,1.87-1.75,2.08-2.57,2.11-1.13,0-1.33.14-1.33.47s.28.44,1.08.44Zm-2.24,2.25c0,.91.72,1.25,1.82,1.25.72,0,1.79-.36,1.79-1.25,0-1.09-.82-1.2-1.61-1.2C181.2,59.72,180.38,59.88,180.38,60.92Zm.52-5.21c0,.86.19,1.66,1.2,1.66s1.12-.89,1.12-1.64-.17-1.79-1.09-1.79S180.9,54.81,180.9,55.71Z" transform="translate(-22.03 -22.19)" style="fill:#008752"/><path d="M186.22,59.37h.55c.42,0,.43-.24.43-.72V55.37c0-1-.06-1.25-.38-1.25h-.6v-.35h.55a4.25,4.25,0,0,0,1.57-.19v1.07h0a2.21,2.21,0,0,1,2-1.07,1.63,1.63,0,0,1,1.83,1.76v3.06c0,.75,0,1,.4,1h.53v.35H190v-.35h.46c.43,0,.48-.2.48-1V55.59c0-.72-.24-1.44-1.13-1.44-1.22,0-1.43,1.31-1.43,2.29v2.21c0,.54.07.72.43.72h.5v.35h-3.12Z" transform="translate(-22.03 -22.19)" style="fill:#008752"/><path d="M201.49,51.06c.13.47.3.9.47,1.33l2.13,5.48c.56,1.46.8,1.5,1.19,1.5h.14v.35h-3.29v-.35h.26c.54,0,.65-.07.65-.3a1.61,1.61,0,0,0-.13-.55l-.62-1.61H199l-.42,1a3.08,3.08,0,0,0-.32,1.07c0,.38.36.38.79.38h.16v.35h-2.47v-.35h.13c.36,0,.65-.12.95-.83l2.62-6.27a9.25,9.25,0,0,0,.43-1.21Zm.66,5.5-1.46-3.72-1.56,3.72Z" transform="translate(-22.03 -22.19)" style="fill:#008752"/><path d="M206.09,59.37h.55c.42,0,.43-.24.43-.72V54.13h-.95v-.35h.95V53c0-1.33.55-2.42,2.1-2.42.83,0,1.58.37,1.58,1.24a.7.7,0,0,1-.73.77.62.62,0,0,1-.68-.61c0-.49.36-.52.36-.66s-.28-.38-.5-.38c-.82,0-.92.72-.92,2.08v.77h1.2v.35h-1.2v4.55c0,.53.07.7.5.7h.7v.35h-3.38Z" transform="translate(-22.03 -22.19)" style="fill:#008752"/><path d="M210.47,59.37H211c.42,0,.43-.24.43-.72V54.13h-.95v-.35h.95V53c0-1.33.55-2.42,2.1-2.42.83,0,1.58.37,1.58,1.24a.7.7,0,0,1-.73.77.62.62,0,0,1-.68-.61c0-.49.36-.52.36-.66s-.28-.38-.5-.38c-.82,0-.92.72-.92,2.08v.77h1.2v.35h-1.2v4.55c0,.53.07.7.5.7h.7v.35h-3.38Z" transform="translate(-22.03 -22.19)" style="fill:#008752"/><path d="M220.72,58.42c0,.89-.25,1.49-1.25,1.49a1.07,1.07,0,0,1-1.15-.79,1.78,1.78,0,0,1-1.64.79,1.65,1.65,0,0,1-1.87-1.68c0-1.37,1.55-2.08,2.77-2.08l.72,0V55.1c0-.68-.11-1.16-.9-1.16-.2,0-.91.1-.91.41,0,.11.19.26.19.62a.68.68,0,0,1-.71.66.77.77,0,0,1-.78-.82c0-1,1.57-1.22,2.21-1.22,1.27,0,2.1.43,2.1,1.78v3.55c0,.24.08.43.34.43.44,0,.47-.55.47-.92v-.3h.42Zm-2.42-1.87a5.84,5.84,0,0,0-.62,0,1.59,1.59,0,0,0-1.59,1.72c0,.72.34,1.2,1.07,1.2a1.16,1.16,0,0,0,1.15-1.16Z" transform="translate(-22.03 -22.19)" style="fill:#008752"/><path d="M221.5,59.37H222c.31,0,.44-.14.44-.82V54.93c0-.61,0-.8-.43-.8h-.53v-.35h.74a4.5,4.5,0,0,0,1.47-.19,11,11,0,0,0-.06,1.24v3.73c0,.67.13.82.44.82h.52v.35H221.5ZM223.06,51a.82.82,0,0,1,.82.82.81.81,0,0,1-.82.82.82.82,0,0,1-.82-.82A.84.84,0,0,1,223.06,51Z" transform="translate(-22.03 -22.19)" style="fill:#008752"/><path d="M225.44,59.37H226c.42,0,.43-.24.43-.72V55.37c0-1-.06-1.25-.38-1.25h-.6v-.35h1.31a1.93,1.93,0,0,0,.81-.19V55h0a2.08,2.08,0,0,1,1.75-1.4,1,1,0,0,1,1.07.92.72.72,0,0,1-.78.79c-.34,0-.68-.16-.68-.5a2.15,2.15,0,0,1,0-.32c0-.08-.16-.1-.24-.1-.73,0-1.13.8-1.13,3v1.3c0,.54.07.72.43.72h.72v.35h-3.33Z" transform="translate(-22.03 -22.19)" style="fill:#008752"/><path d="M235.52,55.42h-.35a1.65,1.65,0,0,0-1.65-1.49,1.06,1.06,0,0,0-1.12,1.12c0,1.68,3.48.38,3.48,2.89a2.06,2.06,0,0,1-2.24,2,4.21,4.21,0,0,1-.86-.11,3.7,3.7,0,0,0-.72-.08,1,1,0,0,0-.56.18h-.1v-2h.35a1.74,1.74,0,0,0,1.83,1.69,1.12,1.12,0,0,0,1.2-1.19c0-1.86-3.39-.37-3.39-2.9a1.91,1.91,0,0,1,2.13-1.88,3.48,3.48,0,0,1,.75.1,3.39,3.39,0,0,0,.59.1,1.21,1.21,0,0,0,.56-.17h.1Z" transform="translate(-22.03 -22.19)" style="fill:#008752"/><path d="M246.56,58.42c0,.89-.25,1.49-1.25,1.49a1.07,1.07,0,0,1-1.15-.79,1.78,1.78,0,0,1-1.64.79,1.65,1.65,0,0,1-1.87-1.68c0-1.37,1.55-2.08,2.77-2.08l.72,0V55.1c0-.68-.11-1.16-.9-1.16-.2,0-.91.1-.91.41,0,.11.19.26.19.62a.68.68,0,0,1-.71.66.77.77,0,0,1-.78-.82c0-1,1.57-1.22,2.21-1.22,1.27,0,2.1.43,2.1,1.78v3.55c0,.24.08.43.34.43.44,0,.47-.55.47-.92v-.3h.42Zm-2.42-1.87a5.84,5.84,0,0,0-.62,0,1.59,1.59,0,0,0-1.59,1.72c0,.72.34,1.2,1.07,1.2a1.16,1.16,0,0,0,1.15-1.16Z" transform="translate(-22.03 -22.19)" style="fill:#008752"/><path d="M247.37,59.37h.55c.42,0,.43-.24.43-.72V55.37c0-1-.06-1.25-.38-1.25h-.6v-.35h.55a4.25,4.25,0,0,0,1.57-.19v1.07h0a2.21,2.21,0,0,1,2-1.07,1.63,1.63,0,0,1,1.84,1.76v3.06c0,.75,0,1,.4,1h.53v.35h-3.06v-.35h.46c.43,0,.48-.2.48-1V55.59c0-.72-.24-1.44-1.13-1.44-1.22,0-1.43,1.31-1.43,2.29v2.21c0,.54.07.72.43.72h.5v.35h-3.12Z" transform="translate(-22.03 -22.19)" style="fill:#008752"/><path d="M257.17,53.59A2,2,0,0,1,259,54.68h0V52.06c0-.77,0-.94-.38-.94H258v-.35h2.16v7.56c0,.87.06,1,.43,1h.53v.35h-2.1v-1h0a2,2,0,0,1-1.87,1.16c-1.5,0-2.25-1.56-2.25-3.19C254.91,55.3,255.48,53.59,257.17,53.59ZM259,56.72c0-1.87-.6-2.57-1.56-2.57s-1.21,1.13-1.21,2.57.16,2.63,1.21,2.63S259,58.49,259,56.72Z" transform="translate(-22.03 -22.19)" style="fill:#008752"/><path d="M267.27,59.37h.56c.49,0,.49-.23.49-1.26V51.53h-.65a1.69,1.69,0,0,0-1.86,1.74h-.42V51.18h7.2v2.09h-.42a1.69,1.69,0,0,0-1.86-1.74h-.65v6.58c0,1,0,1.26.49,1.26h.56v.35h-3.45Z" transform="translate(-22.03 -22.19)" style="fill:#008752"/><path d="M272.58,59.37h.55c.42,0,.43-.24.43-.72V55.37c0-1-.06-1.25-.38-1.25h-.6v-.35h1.31a1.94,1.94,0,0,0,.82-.19V55h0a2.08,2.08,0,0,1,1.75-1.4,1,1,0,0,1,1.07.92.72.72,0,0,1-.78.79c-.34,0-.68-.16-.68-.5a2.15,2.15,0,0,1,0-.32c0-.08-.16-.1-.24-.1-.73,0-1.13.8-1.13,3v1.3c0,.54.07.72.43.72h.72v.35h-3.33Z" transform="translate(-22.03 -22.19)" style="fill:#008752"/><path d="M284.37,58.42c0,.89-.25,1.49-1.25,1.49a1.07,1.07,0,0,1-1.15-.79,1.78,1.78,0,0,1-1.64.79,1.65,1.65,0,0,1-1.87-1.68c0-1.37,1.55-2.08,2.77-2.08l.72,0V55.1c0-.68-.11-1.16-.9-1.16-.2,0-.91.1-.91.41,0,.11.19.26.19.62a.68.68,0,0,1-.71.66.76.76,0,0,1-.78-.82c0-1,1.57-1.22,2.21-1.22,1.27,0,2.1.43,2.1,1.78v3.55c0,.24.08.43.34.43.44,0,.47-.55.47-.92v-.3h.42Zm-2.42-1.87a5.81,5.81,0,0,0-.62,0,1.59,1.59,0,0,0-1.6,1.72c0,.72.34,1.2,1.07,1.2a1.16,1.16,0,0,0,1.15-1.16Z" transform="translate(-22.03 -22.19)" style="fill:#008752"/><path d="M287.58,53.59a2,2,0,0,1,1.81,1.09h0V52.06c0-.77,0-.94-.38-.94h-.58v-.35h2.16v7.56c0,.87.06,1,.43,1h.53v.35h-2.1v-1h0a2,2,0,0,1-1.87,1.16c-1.5,0-2.25-1.56-2.25-3.19C285.32,55.3,285.89,53.59,287.58,53.59Zm1.86,3.13c0-1.87-.6-2.57-1.56-2.57s-1.21,1.13-1.21,2.57.16,2.63,1.21,2.63S289.44,58.49,289.44,56.72Z" transform="translate(-22.03 -22.19)" style="fill:#008752"/><path d="M293.59,56.75c0,2,.32,2.81,1.4,2.81a1.77,1.77,0,0,0,1.86-1.89h.49A2.19,2.19,0,0,1,295,59.91c-1.82,0-2.75-1.45-2.75-3.15s.92-3.17,2.75-3.17,2.48,1.67,2.45,3.17Zm2.51-.35c0-1.44-.32-2.47-1.25-2.47s-1.22,1-1.26,2.47Z" transform="translate(-22.03 -22.19)" style="fill:#008752"/></svg>