<?xml version="1.0" encoding="utf-8"?>
<!-- Generator: Adobe Illustrator 21.0.1, SVG Export Plug-In . SVG Version: 6.00 Build 0)  -->
<svg version="1.1" id="Layer_1" xmlns="http://www.w3.org/2000/svg" xmlns:xlink="http://www.w3.org/1999/xlink" x="0px" y="0px"
	 viewBox="0 0 130 25" style="enable-background:new 0 0 130 25;" xml:space="preserve">
<style type="text/css">
	.st0{fill:none;}
	.st1{font-family:'FreightTextProSemibold-Regular';}
	.st2{font-size:6px;}
</style>
<g>
	<path d="M6.5,0.2L4.1,2.4l0.5,0.7L4.7,3c1.4,2,3,3.1,4.5,3.1c1.1,0,2.1-0.3,3-0.9C12.4,5,12.7,4.9,13,4.9c0.1,0,0.2,0,0.3,0.4v0.1
		l0.3-0.1V5.1c0-0.3-0.3-0.6-0.6-0.6c-0.3,0-0.6,0.2-0.9,0.4c-0.8,0.6-1.8,0.9-2.8,0.9C7.7,5.8,6,4.5,4.8,2.5c0.2-0.2,1.7-1.6,2-1.9
		c0.6,1,2.2,3.1,4.1,3.1c0.3,0,0.6-0.1,0.9-0.3c0.4-0.2,0.9-0.3,1.4-0.4c0.6,0,1.2,0.3,1.5,0.8c0.3,0.5,0.3,1.1,0.1,1.6l0,0l0.3,0.3
		V5.6c0.3-0.6,0.3-1.4-0.1-2c-0.4-0.6-1.1-0.9-1.8-0.9c-0.5,0-1.1,0.2-1.5,0.4c-0.2,0.1-0.5,0.2-0.8,0.2c-1.3,0-2.8-1.2-4-3.1l0,0
		L6.5,0.2L6.5,0.2z"/>
	<path d="M2.4,19.7l-0.2,0.1l0.7,1.1c0.4,0.5,0.7,1.2,0.9,1.8c0,0.3,0,0.3-0.1,0.3H3.6C3.5,23,3.4,23,3.2,23c-0.3,0-0.6,0.3-0.6,0.6
		c0,0,0,0,0,0c0,0.2,0.1,0.4,0.2,0.5c0.2,0.1,0.4,0.2,0.6,0.1c0,0,0,0.1,0,0.1c0,0.1,0,0.2,0.1,0.3c0.1,0.2,0.3,0.3,0.6,0.2
		c1.3,0,3.3-1.6,3.9-3.1v-0.1l-0.4-0.1v0.1c-0.7,1.5-2,2.5-3.5,2.9c-0.1,0-0.2,0-0.3-0.1c-0.1-0.1-0.1-0.3,0-0.5l0.1-0.2l-0.2,0.1
		c-0.1,0-0.2,0.1-0.4,0.1c-0.3,0-0.4-0.2-0.4-0.3c0-0.2,0.1-0.3,0.3-0.3c0,0,0,0,0,0c0.1,0,0.2,0,0.3,0.1l0.2,0.1
		c0.4,0,0.4-0.5,0.4-0.7c-0.1-0.7-0.5-1.4-0.9-2L2.4,19.7L2.4,19.7z"/>
	<path d="M4.6,2.7C4.1,3.3,3.5,3.9,3,4.6v0.1l0.2,0.2V4.7c0.5-0.7,1-1.3,1.6-1.8l0,0L4.6,2.7L4.6,2.7z"/>
	<path d="M2.5,5.4C1,7.5,0.3,10,0.3,12.5C0.2,14.8,0.7,17,1.7,19v0.1L2,18.9l0,0c-2.2-4.2-1.9-9.3,0.7-13.3l0,0L2.5,5.4L2.5,5.4z"/>
	<path d="M6.1,4.5c-2.2,2.2-3.4,5.2-3.3,8.3c0,3.4,1.4,6.6,4,8.9l0.3-0.3l0,0c-2.5-2.1-3.9-5.2-3.9-8.5c-0.1-3,1.1-5.9,3.3-8l0.1,0
		L6.2,4.5L6.1,4.5z"/>
	<path d="M15.2,5.9c0-0.3-0.1-0.6-0.3-0.8c-0.2-0.2-0.5-0.3-0.8-0.3c-0.7,0-1.1,0.4-1.5,1.1V6l0,0L5,19.5l0.2,0.2l7.6-13.6l0,0v0
		l0.1-0.1c0.1-0.1,0.2-0.2,0.3-0.2c0.1,0,0.1,0.1,0.1,0.2l-0.1,0.2l-0.1,0.2L6.6,21.5h0.1v0.1l3,0.7l5.4-15
		C15.4,6.8,15.4,6.3,15.2,5.9z M14.9,7.1L9.6,21.9l-2.5-0.5l6.3-14.9l0.1-0.3l0.1-0.2c0-0.2-0.1-0.4-0.3-0.4c0,0,0,0,0,0l0,0
		c0.2-0.3,0.5-0.4,0.9-0.4c0.4,0,0.8,0.3,0.9,0.7c0,0.1,0,0.1,0,0.2C15,6.2,15,6.3,15,6.5C15.1,6.7,15,6.9,14.9,7.1L14.9,7.1z"/>
	<path d="M2.2,4.9c0,0.2,0.1,0.4,0.3,0.6C2.8,5.8,3,6.2,3,6.7L2.9,6.9c-0.9,1.8-1.3,3.8-1.4,5.8c0,1.5,0.3,3,0.8,4.5l0.1,0.2
		c0,0.6-0.3,1.1-0.6,1.5c-0.2,0.2-0.3,0.4-0.4,0.7c0,0.3,0.2,0.5,0.5,0.6c0,0,0.1,0,0.1,0c0.7,0,1-1,1-1.6c-0.1-0.5-0.2-0.9-0.3-1.4
		c-0.5-1.4-0.7-2.9-0.8-4.5c0-2,0.5-3.9,1.4-5.7c0.2-0.4,0.4-0.9,0.5-1.3c0-0.8-0.4-1.3-0.9-1.3C2.5,4.2,2.2,4.4,2.2,4.9
		C2.2,4.8,2.2,4.8,2.2,4.9z M2.7,5.2C2.6,5.1,2.5,4.9,2.5,4.9c0-0.3,0.2-0.3,0.3-0.3c0.3,0,0.6,0.5,0.6,1c0,0.2-0.1,0.4-0.1,0.6
		C3.1,5.8,2.9,5.5,2.7,5.2z M1.7,19.5c0-0.2,0.1-0.4,0.3-0.5c0.3-0.3,0.5-0.7,0.6-1c0,0.2,0.1,0.4,0.1,0.5c0,0.6-0.3,1.3-0.6,1.3
		C1.8,19.8,1.7,19.7,1.7,19.5L1.7,19.5z"/>
	<path d="M4,4.4H3.8v0.1c0,0.4,0.3,0.6,0.6,0.7c0,0,0.1,0,0.1,0c0.4,0,0.7-0.3,0.7-0.7c0,0,0,0,0,0V4.4H5v0.1c0,0.3-0.2,0.5-0.5,0.5
		C4.3,4.9,4.1,4.7,4,4.4L4,4.4L4,4.4z"/>
	<path d="M3.8,4.5L3.8,4.5l0.2,0.1V4.5c0-0.2,0.2-0.4,0.4-0.4c0,0,0,0,0,0C4.8,4.1,5,4.2,5,4.5c0,0,0,0,0,0.1v0.1h0.3V4.5
		c0-0.4-0.3-0.7-0.7-0.7C4.2,3.8,3.8,4.1,3.8,4.5L3.8,4.5z"/>
	<path d="M3.4,20.2c0,0.5,0.3,0.9,0.8,0.9c0,0,0,0,0,0c0.4,0,0.7-0.2,0.8-0.6c0,0,0-0.1,0-0.1v-0.1H4.7v0.1c0,0.2-0.2,0.5-0.4,0.5
		c0,0-0.1,0-0.1,0c-0.3,0-0.6-0.2-0.6-0.6c0,0,0,0,0,0v-0.1L3.4,20.2L3.4,20.2z"/>
	<path d="M3.4,20.2L3.4,20.2l0.3,0.1v-0.1c0-0.3,0.2-0.5,0.4-0.5c0,0,0,0,0.1,0c0.3,0,0.6,0.2,0.6,0.6c0,0,0,0,0,0.1v0.1H5v-0.1
		c0-0.5-0.4-0.8-0.8-0.9c0,0,0,0-0.1,0C3.7,19.5,3.4,19.8,3.4,20.2C3.4,20.2,3.4,20.2,3.4,20.2z"/>
	<path d="M11.2,11.1L11.2,11.1l0.1,0.3l3.6-3.5l0.2-0.3L15,7.5L11.2,11.1z"/>
	<path d="M12.9,7.3l0.3,5v0.2l0.2-0.2l-0.3-5.1H13L12.9,7.3z"/>
	<polygon points="11.9,15.8 7.7,19.3 7.6,19.8 12,16.1 12.1,15.6 	"/>
	<path d="M10.5,12.5l-0.1,0.2l0.5,5.6v0.1l0.3-0.1l-0.6-6L10.5,12.5z"/>
	<polygon points="5.6,3.8 5.4,3.7 5.4,19.1 5.6,18.7 5.6,3.9 	"/>
	<polygon points="6.5,4.6 6.3,4.6 6.3,17.5 6.6,17.1 6.6,4.6 	"/>
	<polygon points="7.4,5.3 7.2,5.3 7.2,15.9 7.5,15.4 7.5,5.3 	"/>
	<polygon points="8.3,5.7 8.1,5.7 8.1,14.2 8.3,14.1 8.4,13.8 8.4,5.7 	"/>
	<polygon points="9.2,5.9 9,5.9 9,12.5 9.2,12.4 9.3,12.2 9.3,5.9 	"/>
	<polygon points="10.1,5.8 10,5.8 10,10.9 10.1,10.8 10.2,10.6 10.2,5.8 	"/>
	<polygon points="11.1,5.6 10.9,5.6 10.9,9.3 11,9.2 11.1,8.9 11.1,5.6 	"/>
	<polygon points="12,5.1 11.8,5.1 11.8,7.7 11.9,7.6 12.1,7.3 12.1,5.1 	"/>
	<path d="M0.4,10.5"/>
</g>
<rect x="20.1" y="5.8" class="st0" width="116.9" height="13.4"/>
<text transform="matrix(1 0 0 1 20.1479 9.9675)"><tspan x="0" y="0" class="st1 st2">An Roinn Gnóthaí Eachtracha agus Trádála</tspan><tspan x="0" y="7.2" class="st1 st2">Department of Foreign Affairs and Trade</tspan></text>
</svg>
