<?xml version="1.0" encoding="utf-8"?>
<!-- Generator: Adobe Illustrator 21.0.2, SVG Export Plug-In . SVG Version: 6.00 Build 0)  -->
<svg version="1.1"
	 id="Layer_1" xmlns:cc="http://creativecommons.org/ns#" xmlns:dc="http://purl.org/dc/elements/1.1/" xmlns:inkscape="http://www.inkscape.org/namespaces/inkscape" xmlns:rdf="http://www.w3.org/1999/02/22-rdf-syntax-ns#" xmlns:sodipodi="http://sodipodi.sourceforge.net/DTD/sodipodi-0.dtd" xmlns:svg="http://www.w3.org/2000/svg"
	 xmlns="http://www.w3.org/2000/svg" xmlns:xlink="http://www.w3.org/1999/xlink" x="0px" y="0px" viewBox="0 0 100 100"
	 style="enable-background:new 0 0 100 100;" xml:space="preserve">
<style type="text/css">
	.st0{fill:#006845;}
	.st1{display:none;enable-background:new    ;}
	.st2{display:inline;}
</style>
<g transform="translate(0,-952.36218)">
	<path class="st0" d="M90,1002.4c0-22.1-17.9-40-40-40s-40,17.9-40,40s17.9,40,40,40S90,1024.5,90,1002.4z M86,1002.4
		c0,19.9-16.1,36-36,36s-36-16.1-36-36s16.1-36,36-36S86,982.5,86,1002.4z M56,980.4c0-3.3-2.7-6-6-6s-6,2.7-6,6s2.7,6,6,6
		S56,983.7,56,980.4z M56,1002.4c0-3.3-2.7-6-6-6s-6,2.7-6,6s2.7,6,6,6S56,1005.7,56,1002.4z M56,1024.4c0-3.3-2.7-6-6-6s-6,2.7-6,6
		c0,3.3,2.7,6,6,6S56,1027.7,56,1024.4z"/>
</g>
<text transform="matrix(1 0 0 1 0 115)" class="st1" style="font-family:'Arial-BoldMT'; font-size:5px;">Created by unlimicon</text>
<text transform="matrix(1 0 0 1 0 120)" class="st1" style="font-family:'Arial-BoldMT'; font-size:5px;">from the Noun Project</text>
</svg>
