<?xml version="1.0" encoding="utf-8"?>
<!-- Generator: Adobe Illustrator 21.1.0, SVG Export Plug-In . SVG Version: 6.00 Build 0)  -->
<svg version="1.1"
	 id="Layer_1" xmlns:cc="http://creativecommons.org/ns#" xmlns:dc="http://purl.org/dc/elements/1.1/" xmlns:inkscape="http://www.inkscape.org/namespaces/inkscape" xmlns:rdf="http://www.w3.org/1999/02/22-rdf-syntax-ns#" xmlns:sodipodi="http://sodipodi.sourceforge.net/DTD/sodipodi-0.dtd" xmlns:svg="http://www.w3.org/2000/svg"
	 xmlns="http://www.w3.org/2000/svg" xmlns:xlink="http://www.w3.org/1999/xlink" x="0px" y="0px" viewBox="0 0 100 99"
	 style="enable-background:new 0 0 100 99;" xml:space="preserve">
<g transform="translate(0,-952.36218)">
	<path style="fill:#323232;" d="M10.7,962.5c-13.5,13.5-13.5,35.3,0,48.8c12.5,12.5,32.1,13.4,45.6,2.8l36.2,36.2
		c1.5,1.5,4.3,1.5,5.8,0c1.5-1.5,1.5-4.3,0-5.8l-36.2-36.2c10.6-13.5,9.6-33.2-2.8-45.6C46,949,24,949,10.7,962.5z M16.5,968.3
		c10.2-10.2,26.7-10.2,37.1,0c10.3,10.2,10.2,26.7,0,37.1s-26.7,10.2-37.1,0C6.1,995.1,6.3,978.5,16.5,968.3z"/>
</g>
</svg>
