<?xml version="1.0" encoding="utf-8"?>
<!-- Generator: Adobe Illustrator 21.0.1, SVG Export Plug-In . SVG Version: 6.00 Build 0)  -->
<svg version="1.1"
	 id="Layer_1" xmlns:cc="http://creativecommons.org/ns#" xmlns:dc="http://purl.org/dc/elements/1.1/" xmlns:inkscape="http://www.inkscape.org/namespaces/inkscape" xmlns:rdf="http://www.w3.org/1999/02/22-rdf-syntax-ns#" xmlns:sodipodi="http://sodipodi.sourceforge.net/DTD/sodipodi-0.dtd" xmlns:svg="http://www.w3.org/2000/svg"
	 xmlns="http://www.w3.org/2000/svg" xmlns:xlink="http://www.w3.org/1999/xlink" x="0px" y="0px" viewBox="0 0 100 101.3"
	 style="enable-background:new 0 0 100 101.3;" xml:space="preserve">
<style type="text/css">
	.st0{fill:#FFFFFF;}
</style>
<g transform="translate(0,-952.36218)">
	<path class="st0" d="M20,971c-10.6,10.6-10.6,27.8,0,38.4c9.9,9.9,25.3,10.5,35.9,2.2l28.6,28.6c1.2,1.2,3.4,1.2,4.6,0
		s1.2-3.4,0-4.6l-28.6-28.6c8.4-10.6,7.6-26.2-2.2-35.9C47.8,960.5,30.7,960.5,20,971z M24.7,975.7c8-8,21.1-8,29.2,0s8,21.1,0,29.2
		c-8,8.1-21.1,8-29.2,0C16.6,996.9,16.6,983.7,24.7,975.7z"/>
</g>
<text transform="matrix(1 0 0 1 0 115)" style="display:none;enable-background:new    ; font-family:'Arial-BoldMT'; font-size:5px;">Created by Icons Bazaar</text>
<text transform="matrix(1 0 0 1 0 120)" style="display:none;enable-background:new    ; font-family:'Arial-BoldMT'; font-size:5px;">from the Noun Project</text>
</svg>
