<?xml version="1.0" encoding="utf-8"?>
<!-- Generator: Adobe Illustrator 21.0.2, SVG Export Plug-In . SVG Version: 6.00 Build 0)  -->
<svg version="1.1"
	 id="Layer_1" xmlns:cc="http://creativecommons.org/ns#" xmlns:dc="http://purl.org/dc/elements/1.1/" xmlns:inkscape="http://www.inkscape.org/namespaces/inkscape" xmlns:rdf="http://www.w3.org/1999/02/22-rdf-syntax-ns#" xmlns:sodipodi="http://sodipodi.sourceforge.net/DTD/sodipodi-0.dtd" xmlns:svg="http://www.w3.org/2000/svg"
	 xmlns="http://www.w3.org/2000/svg" xmlns:xlink="http://www.w3.org/1999/xlink" x="0px" y="0px" viewBox="0 0 100 101.3"
	 style="enable-background:new 0 0 100 101.3;" xml:space="preserve">
<g transform="translate(0,-952.36218)">
	<path style="fill:#323232;" d="M18.2,970.6c-9.8,9.8-9.8,25.6,0,35.4c9.1,9.1,23.3,9.7,33.1,2l26.3,26.3c1.1,1.1,3.1,1.1,4.2,0
		s1.1-3.1,0-4.2l-26.3-26.3c7.7-9.8,7-24.1-2-33.1C43.8,960.8,27.9,960.8,18.2,970.6z M22.4,974.8c7.4-7.4,19.4-7.4,26.9,0
		s7.4,19.4,0,26.9s-19.4,7.4-26.9,0S15,982.2,22.4,974.8z"/>
</g>
<text transform="matrix(1 0 0 1 0 115)" style="display:none;enable-background:new    ; font-family:'Arial-BoldMT'; font-size:5px;">Created by Icons Bazaar</text>
<text transform="matrix(1 0 0 1 0 120)" style="display:none;enable-background:new    ; font-family:'Arial-BoldMT'; font-size:5px;">from the Noun Project</text>
</svg>
