<?xml version="1.0" encoding="utf-8"?>
<!-- Generator: Adobe Illustrator 21.0.2, SVG Export Plug-In . SVG Version: 6.00 Build 0)  -->
<svg version="1.1" id="Layer_1" xmlns="http://www.w3.org/2000/svg" xmlns:xlink="http://www.w3.org/1999/xlink" x="0px" y="0px"
	 viewBox="0 0 100 100" style="enable-background:new 0 0 100 100;" xml:space="preserve">
<path d="M50,62.1c3.6,0,6.5,2.9,6.5,6.5c0,3.6-2.9,6.5-6.5,6.5c-3.6,0-6.5-2.9-6.5-6.5S46.4,62.1,50,62.1 M55.3,56.2H44.7V24.9h10.5
	C55.3,24.9,55.3,56.2,55.3,56.2z M50,8.5c11.1,0,21.3,4.3,29.4,12.1c7.7,7.7,12.1,18.3,12.1,29.4c0,11.1-4.3,21.3-12.1,29.4
	C71.7,87.1,61.1,91.5,50,91.5s-21.3-4.3-29.4-12.1C12.9,71.3,8.5,61.1,8.5,50c0-11.1,4.3-21.3,12.1-29.4C28.7,12.9,38.9,8.5,50,8.5
	 M50,0.5C22.8,0.5,0.5,22.8,0.5,50c0,27.2,22.3,49.5,49.5,49.5S99.5,77.2,99.5,50C99.5,22.8,77.2,0.5,50,0.5"/>
</svg>
