<svg viewBox="0 0 100 100" xmlns="http://www.w3.org/2000/svg"><symbol viewBox="0 0 100 100" id="arrow_down"><title>arrow_down</title> <style type="text/css"> .st0{fill:#FFFFFF;} .st1{display:none;enable-background:new ;} .st2{display:inline;} </style> <g transform="translate(0,-952.36218)"> <path class="st0" d="M75,1020.2c-0.1-1.7-1.5-2.9-3.1-2.9c-0.8,0-1.5,0.4-2.1,1L53,1036.6v-76.2c0-0.1,0-0.2,0-0.3
		c-0.1-1.6-1.6-2.9-3.2-2.8c-1.6,0.1-2.9,1.6-2.8,3.2v76.3l-16.8-18.4c-1.1-1.3-3-1.4-4.2-0.4s-1.4,3-0.4,4.2
		c0.1,0.1,0.1,0.1,0.2,0.2l22,24c1.1,1.2,3,1.3,4.2,0.2c0.1-0.1,0.1-0.1,0.2-0.2l22-24C74.7,1021.8,75,1021.1,75,1020.2z"/> </g> <text transform="matrix(1 0 0 1 0 115)" class="st1" style="font-family:&apos;Arial-BoldMT&apos;; font-size:5px;">Created by Icons Bazaar</text> <text transform="matrix(1 0 0 1 0 120)" class="st1" style="font-family:&apos;Arial-BoldMT&apos;; font-size:5px;">from the Noun Project</text> </symbol><symbol viewBox="0 0 100 100" id="arrow_left"><title>arrow_left</title> <style type="text/css"> .st0{fill:#323232;} </style> <g transform="translate(0,-952.36218)"> <path class="st0" d="M32.1,1027.3c1.7-0.1,2.9-1.5,2.9-3.1c0-0.8-0.4-1.5-1-2.1l-18.3-16.8h76.2c0.1,0,0.2,0,0.3,0
		c1.6-0.1,2.9-1.6,2.8-3.2c-0.1-1.6-1.6-2.9-3.2-2.8H15.5l18.4-16.8c1.3-1.1,1.4-3,0.4-4.2s-3-1.4-4.2-0.4c-0.1,0.1-0.1,0.1-0.2,0.2
		l-24,22c-1.2,1.1-1.3,3-0.2,4.2c0.1,0.1,0.1,0.1,0.2,0.2l24,22C30.5,1027,31.2,1027.3,32.1,1027.3z"/> </g> <text transform="matrix(1 0 0 1 0 115)" style="display:none;enable-background:new    ; font-family:&apos;Arial-BoldMT&apos;; font-size:5px;">Created by Icons Bazaar</text> <text transform="matrix(1 0 0 1 0 120)" style="display:none;enable-background:new    ; font-family:&apos;Arial-BoldMT&apos;; font-size:5px;">from the Noun Project</text> </symbol><symbol viewBox="0 0 100 100" id="arrow_right"><title>arrow_right</title> <style type="text/css"> .st0{fill:#323232;} </style> <g transform="translate(0,-952.36218)"> <path class="st0" d="M67.8,977.3c-1.7,0.1-2.9,1.5-2.9,3.1c0,0.8,0.4,1.5,1,2.1l18.3,16.8H8c-0.1,0-0.2,0-0.3,0
		c-1.6,0.1-2.9,1.6-2.8,3.2c0.1,1.6,1.6,2.9,3.2,2.8h76.3L66,1022.1c-1.3,1.1-1.4,3-0.4,4.2s3,1.4,4.2,0.4c0.1-0.1,0.1-0.1,0.2-0.2
		l24-22c1.2-1.1,1.3-3,0.2-4.2c-0.1-0.1-0.1-0.1-0.2-0.2l-24-22C69.4,977.6,68.7,977.3,67.8,977.3z"/> </g> <text transform="matrix(1 0 0 1 0 115)" style="display:none;enable-background:new    ; font-family:&apos;Arial-BoldMT&apos;; font-size:5px;">Created by Icons Bazaar</text> <text transform="matrix(1 0 0 1 0 120)" style="display:none;enable-background:new    ; font-family:&apos;Arial-BoldMT&apos;; font-size:5px;">from the Noun Project</text> </symbol><symbol viewBox="0 0 100 100" id="circle_minus"><title>circle_minus</title> <style type="text/css"> .st0{fill:#FFFFFF;} </style> <g transform="translate(0,-952.36218)"> <path class="st0" d="M50,957.4c-24.8,0-45,20.2-45,45s20.2,45,45,45s45-20.2,45-45S74.8,957.4,50,957.4z M50,963.4
		c21.6,0,39,17.4,39,39c0,21.6-17.4,39-39,39s-39-17.4-39-39C11,980.8,28.4,963.4,50,963.4z M27.7,999.4c-1.7,0.1-2.9,1.5-2.8,3.2
		s1.5,2.9,3.2,2.8l0,0h44c1.7,0,3-1.3,3-3s-1.3-3-3-3c0,0-0.1,0-0.1,0H28C27.9,999.4,27.8,999.4,27.7,999.4z"/> </g> <text transform="matrix(1 0 0 1 0 115)" style="display:none;enable-background:new    ; font-family:&apos;Arial-BoldMT&apos;; font-size:5px;">Created by Icons Bazaar</text> <text transform="matrix(1 0 0 1 0 120)" style="display:none;enable-background:new    ; font-family:&apos;Arial-BoldMT&apos;; font-size:5px;">from the Noun Project</text> </symbol><symbol viewBox="0 0 100 100" id="circle_plus"><title>circle_plus</title> <style type="text/css"> .st0{fill:#FFFFFF;} </style> <g transform="translate(0,-952.36218)"> <path class="st0" d="M50,957.4c-24.8,0-45,20.2-45,45s20.2,45,45,45s45-20.2,45-45S74.8,957.4,50,957.4z M50,963.4
		c21.6,0,39,17.4,39,39c0,21.6-17.4,39-39,39s-39-17.4-39-39C11,980.8,28.4,963.4,50,963.4z M50,977.3c-1.7,0-3,1.4-3,3c0,0,0,0,0,0
		v19H28c-0.1,0-0.2,0-0.3,0c-1.7,0.1-2.9,1.5-2.8,3.2s1.5,2.9,3.2,2.8l0,0h19v19c0,1.7,1.3,3,3,3c1.7,0,3-1.3,3-3c0,0,0-0.1,0-0.1
		v-19h19c1.7,0,3-1.3,3-3s-1.3-3-3-3c0,0-0.1,0-0.1,0H53v-19C53,978.7,51.7,977.3,50,977.3C50,977.3,50,977.3,50,977.3z"/> </g> <text transform="matrix(1 0 0 1 0 115)" style="display:none;enable-background:new    ; font-family:&apos;Arial-BoldMT&apos;; font-size:5px;">Created by Icons Bazaar</text> <text transform="matrix(1 0 0 1 0 120)" style="display:none;enable-background:new    ; font-family:&apos;Arial-BoldMT&apos;; font-size:5px;">from the Noun Project</text> </symbol><symbol viewBox="0 0 100 100" id="menu_dots_circle_active"><title>menu_dots_circle_active</title> <style type="text/css"> .st0{fill:#006845;} .st1{display:none;enable-background:new ;} .st2{display:inline;} .st3{fill:#FFFFFF;} </style> <path class="st0" d="M50,10c-22.1,0-40,17.9-40,40s17.9,40,40,40s40-17.9,40-40S72.1,10,50,10z M50,14c19.9,0,36,16.1,36,36
	S69.9,86,50,86S14,69.9,14,50S30.1,14,50,14z M28,44c-3.3,0-6,2.7-6,6s2.7,6,6,6s6-2.7,6-6S31.3,44,28,44z M50,44c-3.3,0-6,2.7-6,6
	s2.7,6,6,6s6-2.7,6-6S53.3,44,50,44z M72,44c-3.3,0-6,2.7-6,6s2.7,6,6,6s6-2.7,6-6S75.3,44,72,44z"/> <text transform="matrix(1 0 0 1 0 115)" class="st1" style="font-family:&apos;Arial-BoldMT&apos;; font-size:5px;">Created by unlimicon</text> <text transform="matrix(1 0 0 1 0 120)" class="st1" style="font-family:&apos;Arial-BoldMT&apos;; font-size:5px;">from the Noun Project</text> <circle class="st0" cx="50" cy="50" r="40"/> <circle class="st3" cx="50" cy="50" r="6"/> <circle class="st3" cx="28.3" cy="50" r="6"/> <circle class="st3" cx="72.3" cy="50" r="6"/> </symbol><symbol viewBox="0 0 100 100" id="menu_dots_circle"><title>menu_dots_circle</title> <style type="text/css"> .st0{fill:#006845;} </style> <g transform="translate(0,-952.36218)"> <path class="st0" d="M100,1002.4c0-27.6-22.4-50-50-50s-50,22.4-50,50s22.4,50,50,50S100,1030,100,1002.4z M95,1002.4
		c0,24.9-20.1,45-45,45s-45-20.1-45-45s20.1-45,45-45S95,977.5,95,1002.4z M57.5,974.9c0-4.1-3.4-7.5-7.5-7.5s-7.5,3.4-7.5,7.5
		c0,4.1,3.4,7.5,7.5,7.5S57.5,979,57.5,974.9z M57.5,1002.4c0-4.1-3.4-7.5-7.5-7.5s-7.5,3.4-7.5,7.5s3.4,7.5,7.5,7.5
		S57.5,1006.5,57.5,1002.4z M57.5,1029.9c0-4.1-3.4-7.5-7.5-7.5s-7.5,3.4-7.5,7.5s3.4,7.5,7.5,7.5S57.5,1034,57.5,1029.9z"/> </g> </symbol><symbol viewBox="0 0 100 100" id="menu_icon_Oliver_Kittler_white"><title>menu_icon_Oliver_Kittler_white</title> <style type="text/css"> .st0{fill:none;stroke:#FFFFFF;stroke-width:7;stroke-linecap:round;stroke-linejoin:round;} </style> <g> <g transform="matrix( 1, 0, 0, 1, 0,0) "> <g> <path id="menu_icon_Oliver_Kittler_white-c" class="st0" d="M12,24h76"/> </g> </g> <g transform="matrix( 1, 0, 0, 1, 0,0) "> <g> <path id="menu_icon_Oliver_Kittler_white-b" class="st0" d="M12,49.3h76"/> </g> </g> <g transform="matrix( 1, 0, 0, 1, 0,0) "> <g> <path id="menu_icon_Oliver_Kittler_white-a" class="st0" d="M12,74.7h76"/> </g> </g> </g> <text transform="matrix(1 0 0 1 0 105.1339)" style="display:none;enable-background:new    ; font-family:&apos;Arial-BoldMT&apos;; font-size:5px;">Created by Oliver Kittler</text> <text transform="matrix(1 0 0 1 0 110.1339)" style="display:none;enable-background:new    ; font-family:&apos;Arial-BoldMT&apos;; font-size:5px;">from the Noun Project</text> </symbol><symbol viewBox="0 0 100 100" id="minus_icon"><title>minus_icon</title> <style type="text/css"> .st0{fill:#FFFFFF;} </style> <g transform="translate(0,-952.36218)"> <path class="st0" d="M12.7,999.4c-1.7,0.1-2.9,1.5-2.8,3.2s1.5,2.9,3.2,2.8h74c1.7,0,3-1.3,3-3s-1.3-3-3-3c0,0-0.1,0-0.1,0H13
		C12.9,999.4,12.8,999.4,12.7,999.4z"/> </g> <text transform="matrix(1 0 0 1 0 115)" style="display:none;enable-background:new    ; font-family:&apos;Arial-BoldMT&apos;; font-size:5px;">Created by Icons Bazaar</text> <text transform="matrix(1 0 0 1 0 120)" style="display:none;enable-background:new    ; font-family:&apos;Arial-BoldMT&apos;; font-size:5px;">from the Noun Project</text> </symbol><symbol viewBox="0 0 100 100" id="phone_by_Icons_Bazaar_white"><title>phone_by_Icons_Bazaar_white</title> <style type="text/css"> .st0{fill:#FFFFFF;} </style> <g transform="translate(0,-952.36218)"> <path class="st0" d="M34,958.4c-4.4,0-8,3.6-8,8v72c0,4.4,3.6,8,8,8h32c4.4,0,8-3.6,8-8v-72c0-4.4-3.6-8-8-8H34z M34,962.4h32
		c2.3,0,4,1.7,4,4v2H30v-2C30,964.1,31.7,962.4,34,962.4z M30,972.4h40v56H30V972.4z M30,1032.4h40v6c0,2.3-1.7,4-4,4H34
		c-2.3,0-4-1.7-4-4V1032.4z M42.8,1035.4c-1,0-2,1-1.9,2.1c0,1,1,2,2.1,1.9h14c1.1,0,2-0.9,2-2s-1-2-2-2H43
		C42.9,1035.4,42.9,1035.4,42.8,1035.4z"/> </g> <text transform="matrix(1 0 0 1 0 115)" style="display:none;enable-background:new    ; font-family:&apos;Arial-BoldMT&apos;; font-size:5px;">Created by Icons Bazaar</text> <text transform="matrix(1 0 0 1 0 120)" style="display:none;enable-background:new    ; font-family:&apos;Arial-BoldMT&apos;; font-size:5px;">from the Noun Project</text> </symbol><symbol viewBox="0 0 80 78" id="play_icon"><title>play_icon</title> <style type="text/css"> .st0{fill:#FFFFFF;stroke:#FFFFFF;stroke-width:3;stroke-linecap:round;stroke-linejoin:round;stroke-miterlimit:10;} </style> <polygon class="st0" points="22.4,7.5 63.6,40 22.4,72.5 "/> </symbol><symbol viewBox="0 0 100 100" id="plus_icon"><title>plus_icon</title> <style type="text/css"> .st0{fill:#FFFFFF;} </style> <g transform="translate(0,-952.36218)"> <path class="st0" d="M50,962.3c-1.7,0-3,1.4-3,3c0,0,0,0,0,0v34H13c-0.1,0-0.2,0-0.3,0c-1.7,0.1-2.9,1.5-2.8,3.2s1.5,2.9,3.2,2.8
		l0,0h34v34c0,1.7,1.3,3,3,3c1.7,0,3-1.3,3-3c0,0,0-0.1,0-0.1v-34h34c1.7,0,3-1.3,3-3s-1.3-3-3-3c0,0-0.1,0-0.1,0H53v-34
		C53,963.7,51.7,962.3,50,962.3C50,962.3,50,962.3,50,962.3z"/> </g> <text transform="matrix(1 0 0 1 0 115)" style="display:none;enable-background:new    ; font-family:&apos;Arial-BoldMT&apos;; font-size:5px;">Created by Icons Bazaar</text> <text transform="matrix(1 0 0 1 0 120)" style="display:none;enable-background:new    ; font-family:&apos;Arial-BoldMT&apos;; font-size:5px;">from the Noun Project</text> </symbol><symbol viewBox="0 0 100 101.3" id="search_Icons Bazaar_323232"><title>search_Icons Bazaar_323232</title> <style type="text/css"> .st0{fill:#323232;} </style> <g transform="translate(0,-952.36218)"> <path class="st0" d="M18.2,970.6c-9.8,9.8-9.8,25.6,0,35.4c9.1,9.1,23.3,9.7,33.1,2l26.3,26.3c1.1,1.1,3.1,1.1,4.2,0
		c1.1-1.1,1.1-3.1,0-4.2l-26.3-26.3c7.7-9.8,7-24.1-2-33.1C43.8,960.8,27.9,960.8,18.2,970.6z M22.4,974.8c7.4-7.4,19.4-7.4,26.9,0
		s7.4,19.4,0,26.9s-19.4,7.4-26.9,0S15,982.2,22.4,974.8z"/> </g> <text transform="matrix(1 0 0 1 0 115)" style="display:none;enable-background:new    ; font-family:&apos;Arial-BoldMT&apos;; font-size:5px;">Created by Icons Bazaar</text> <text transform="matrix(1 0 0 1 0 120)" style="display:none;enable-background:new    ; font-family:&apos;Arial-BoldMT&apos;; font-size:5px;">from the Noun Project</text> </symbol><symbol viewBox="0 0 100 99" id="search_Icons Bazaar_white"><title>search_Icons Bazaar_white</title> <style type="text/css"> .st0{fill:#FFFFFF;} .st1{display:none;enable-background:new ;} .st2{display:inline;} </style> <g transform="translate(0,-952.36218)"> <path class="st0" d="M18.2,970.6c-9.8,9.8-9.8,25.6,0,35.4c9.1,9.1,23.3,9.7,33.1,2l26.3,26.3c1.1,1.1,3.1,1.1,4.2,0
		c1.1-1.1,1.1-3.1,0-4.2l-26.3-26.3c7.7-9.8,7-24.1-2-33.1C43.8,960.8,27.9,960.8,18.2,970.6z M22.4,974.8c7.4-7.4,19.4-7.4,26.9,0
		s7.4,19.4,0,26.9s-19.4,7.4-26.9,0S15,982.2,22.4,974.8z"/> </g> <text transform="matrix(1 0 0 1 0 115)" class="st1" style="font-family:&apos;Arial-BoldMT&apos;; font-size:5px;">Created by Icons Bazaar</text> <text transform="matrix(1 0 0 1 0 120)" class="st1" style="font-family:&apos;Arial-BoldMT&apos;; font-size:5px;">from the Noun Project</text> </symbol><symbol viewBox="0 0 82.4 103" id="speaker_icon"><title>speaker_icon</title> <style type="text/css"> .st0{fill:#006845;} </style> <path class="st0" d="M56.9,14.6c-4.6,0-16.6,9.3-25.8,18.6c-8.2-0.5-18.4-0.4-20,1.3c-3.4,3.7-1.7,29.3,0,30.8
	c1.4,1.2,13.1,2.1,21.6,1.7c9.5,9.3,21.2,18.4,24.6,18.4c4.1,0,1.5-7.3,1.5-35.9C58.9,22.4,61.1,14.6,56.9,14.6z M68.1,36.6
	c-1-1-2.7-1-3.7,0c-1,1-1,2.7,0,3.7c5.8,5.8,5.8,15.3,0,21.1c-1,1-1,2.7,0,3.7c0.5,0.5,1.2,0.8,1.9,0.8s1.4-0.3,1.9-0.8
	C75.9,57.2,75.9,44.4,68.1,36.6z"/> <text transform="matrix(1 0 0 1 0 115)" style="display:none;enable-background:new    ; font-family:&apos;Arial-BoldMT&apos;; font-size:5px;">Created by Luke Peek</text> <text transform="matrix(1 0 0 1 0 120)" style="display:none;enable-background:new    ; font-family:&apos;Arial-BoldMT&apos;; font-size:5px;">from the Noun Project</text> </symbol></svg>