<svg viewBox="0 0 100 100" xmlns="http://www.w3.org/2000/svg"><symbol viewBox="0 0 100 100" id="arrow_down"><title>arrow_down</title> <style type="text/css"> .st0{fill:#FFFFFF;} .st1{display:none;enable-background:new ;} .st2{display:inline;} </style> <g transform="translate(0,-952.36218)"> <path class="st0" d="M75,1020.2c-0.1-1.7-1.5-2.9-3.1-2.9c-0.8,0-1.5,0.4-2.1,1L53,1036.6v-76.2c0-0.1,0-0.2,0-0.3
		c-0.1-1.6-1.6-2.9-3.2-2.8c-1.6,0.1-2.9,1.6-2.8,3.2v76.3l-16.8-18.4c-1.1-1.3-3-1.4-4.2-0.4s-1.4,3-0.4,4.2
		c0.1,0.1,0.1,0.1,0.2,0.2l22,24c1.1,1.2,3,1.3,4.2,0.2c0.1-0.1,0.1-0.1,0.2-0.2l22-24C74.7,1021.8,75,1021.1,75,1020.2z"/> </g> <text transform="matrix(1 0 0 1 0 115)" class="st1">Created by Icons Bazaar</text> <text transform="matrix(1 0 0 1 0 120)" class="st1">from the Noun Project</text> </symbol><symbol viewBox="0 0 100 100" id="arrow_left"><title>arrow_left</title> <g transform="translate(0,-952.36218)"> <path d="M32.1,1027.3c1.7-0.1,2.9-1.5,2.9-3.1c0-0.8-0.4-1.5-1-2.1l-18.3-16.8h76.2c0.1,0,0.2,0,0.3,0
		c1.6-0.1,2.9-1.6,2.8-3.2c-0.1-1.6-1.6-2.9-3.2-2.8H15.5l18.4-16.8c1.3-1.1,1.4-3,0.4-4.2s-3-1.4-4.2-0.4c-0.1,0.1-0.1,0.1-0.2,0.2
		l-24,22c-1.2,1.1-1.3,3-0.2,4.2c0.1,0.1,0.1,0.1,0.2,0.2l24,22C30.5,1027,31.2,1027.3,32.1,1027.3z"/> </g> <text transform="matrix(1 0 0 1 0 115)">Created by Icons Bazaar</text> <text transform="matrix(1 0 0 1 0 120)">from the Noun Project</text> </symbol><symbol viewBox="0 0 100 100" id="arrow_right"><title>arrow_right</title> <g transform="translate(0,-952.36218)"> <path d="M67.8,977.3c-1.7,0.1-2.9,1.5-2.9,3.1c0,0.8,0.4,1.5,1,2.1l18.3,16.8H8c-0.1,0-0.2,0-0.3,0
		c-1.6,0.1-2.9,1.6-2.8,3.2c0.1,1.6,1.6,2.9,3.2,2.8h76.3L66,1022.1c-1.3,1.1-1.4,3-0.4,4.2s3,1.4,4.2,0.4c0.1-0.1,0.1-0.1,0.2-0.2
		l24-22c1.2-1.1,1.3-3,0.2-4.2c-0.1-0.1-0.1-0.1-0.2-0.2l-24-22C69.4,977.6,68.7,977.3,67.8,977.3z"/> </g> <text transform="matrix(1 0 0 1 0 115)">Created by Icons Bazaar</text> <text transform="matrix(1 0 0 1 0 120)">from the Noun Project</text> </symbol><symbol viewBox="0 0 100 100" id="circle_minus"><title>circle_minus</title> <g transform="translate(0,-952.36218)"> <path d="M50,957.4c-24.8,0-45,20.2-45,45c0,24.8,20.2,45,45,45s45-20.2,45-45S74.8,957.4,50,957.4z
		 M50,963.4c21.6,0,39,17.4,39,39s-17.4,39-39,39s-39-17.4-39-39C11,980.8,28.4,963.4,50,963.4z M27.7,999.4
		c-1.7,0.1-2.9,1.5-2.8,3.2s1.5,2.9,3.2,2.8l0,0h44c1.7,0,3-1.3,3-3s-1.3-3-3-3H72H28C27.9,999.4,27.8,999.4,27.7,999.4z"/> </g> </symbol><symbol viewBox="0 0 100 100" id="circle_plus_gray-dark"><title>circle_plus_gray-dark</title> <style type="text/css"> .st0{fill:#323232;} </style> <g transform="translate(0,-952.36218)"> <path class="st0" d="M50,957.4c-24.8,0-45,20.2-45,45c0,24.8,20.2,45,45,45s45-20.2,45-45S74.8,957.4,50,957.4z M50,963.4
		c21.6,0,39,17.4,39,39s-17.4,39-39,39s-39-17.4-39-39C11,980.8,28.4,963.4,50,963.4z M50,977.3c-1.7,0-3,1.4-3,3l0,0v19H28
		c-0.1,0-0.2,0-0.3,0c-1.7,0.1-2.9,1.5-2.8,3.2s1.5,2.9,3.2,2.8l0,0h19v19c0,1.7,1.3,3,3,3s3-1.3,3-3v-0.1v-19h19c1.7,0,3-1.3,3-3
		s-1.3-3-3-3H72H53v-19C53,978.7,51.7,977.3,50,977.3L50,977.3z"/> </g> </symbol><symbol viewBox="0 0 100 100" id="circle_plus"><title>circle_plus</title> <g transform="translate(0,-952.36218)"> <path d="M50,957.4c-24.8,0-45,20.2-45,45c0,24.8,20.2,45,45,45s45-20.2,45-45S74.8,957.4,50,957.4z
		 M50,963.4c21.6,0,39,17.4,39,39s-17.4,39-39,39s-39-17.4-39-39C11,980.8,28.4,963.4,50,963.4z M50,977.3c-1.7,0-3,1.4-3,3l0,0v19
		H28c-0.1,0-0.2,0-0.3,0c-1.7,0.1-2.9,1.5-2.8,3.2s1.5,2.9,3.2,2.8l0,0h19v19c0,1.7,1.3,3,3,3s3-1.3,3-3v-0.1v-19h19
		c1.7,0,3-1.3,3-3s-1.3-3-3-3H72H53v-19C53,978.7,51.7,977.3,50,977.3L50,977.3z"/> </g> </symbol><symbol viewBox="0 0 100 100" id="circle_right"><title>circle_right</title> <path d="M50,5C25.2,5,5,25.2,5,50c0,24.8,20.2,45,45,45s45-20.2,45-45S74.8,5,50,5z M50,11
	c21.6,0,39,17.4,39,39S71.6,89,50,89S11,71.6,11,50C11,28.4,28.4,11,50,11z M39.8,24.9c-1.7,0.1-2.9,1.5-2.9,3.1
	c0,0.8,0.4,1.5,1,2.1l21.6,19.8L38,69.7c-1.3,1.1-1.4,3-0.4,4.2c1.1,1.3,3,1.4,4.2,0.4c0.1-0.1,0.1-0.1,0.2-0.2l24-22
	c1.2-1.1,1.3-3,0.2-4.2c-0.1-0.1-0.1-0.1-0.2-0.2l-24-22C41.4,25.2,40.7,24.9,39.8,24.9z"/> </symbol><symbol viewBox="0 0 100 97" id="down_arrow"><title>down_arrow</title> <g> <path d="M9.1,28.2c0-0.8,0.3-1.5,0.9-2.1c1.2-1.2,3.1-1.2,4.2,0
		l35.7,35.7l36-36c1.2-1.2,3.1-1.2,4.2,0c1.2,1.2,1.2,3.1,0,4.2L49.8,70.2L10,30.4C9.4,29.8,9.1,29,9.1,28.2z"/> </g> <text transform="matrix(1 0 0 1 0 115)">Created by Rohit Kumar</text> <text transform="matrix(1 0 0 1 0 120)">from the Noun Project</text> </symbol><symbol viewBox="0 0 100 100" id="menu_dots_circle_active"><title>menu_dots_circle_active</title> <path d="M50,10c-22.1,0-40,17.9-40,40s17.9,40,40,40s40-17.9,40-40S72.1,10,50,10z M50,14
	c19.9,0,36,16.1,36,36S69.9,86,50,86S14,69.9,14,50S30.1,14,50,14z M28,44c-3.3,0-6,2.7-6,6s2.7,6,6,6s6-2.7,6-6S31.3,44,28,44z
	 M50,44c-3.3,0-6,2.7-6,6s2.7,6,6,6s6-2.7,6-6S53.3,44,50,44z M72,44c-3.3,0-6,2.7-6,6s2.7,6,6,6s6-2.7,6-6S75.3,44,72,44z"/> <text transform="matrix(1 0 0 1 0 115)">Created by unlimicon</text> <text transform="matrix(1 0 0 1 0 120)">from the Noun Project</text> <circle cx="50" cy="50" r="40"/> <circle cx="50" cy="50" r="6"/> <circle cx="28.3" cy="50" r="6"/> <circle cx="72.3" cy="50" r="6"/> </symbol><symbol viewBox="0 0 100 100" id="menu_dots_circle"><title>menu_dots_circle</title> <g transform="translate(0,-952.36218)"> <path d="M100,1002.4c0-27.6-22.4-50-50-50s-50,22.4-50,50s22.4,50,50,50S100,1030,100,1002.4z M95,1002.4
		c0,24.9-20.1,45-45,45s-45-20.1-45-45s20.1-45,45-45S95,977.5,95,1002.4z M57.5,974.9c0-4.1-3.4-7.5-7.5-7.5s-7.5,3.4-7.5,7.5
		s3.4,7.5,7.5,7.5S57.5,979,57.5,974.9z M57.5,1002.4c0-4.1-3.4-7.5-7.5-7.5s-7.5,3.4-7.5,7.5s3.4,7.5,7.5,7.5
		S57.5,1006.5,57.5,1002.4z M57.5,1029.9c0-4.1-3.4-7.5-7.5-7.5s-7.5,3.4-7.5,7.5s3.4,7.5,7.5,7.5S57.5,1034,57.5,1029.9z"/> </g> </symbol><symbol viewBox="0 0 100 100" id="menu_icon_Oliver_Kittler_white"><title>menu_icon_Oliver_Kittler_white</title> <g> <g transform="matrix( 1, 0, 0, 1, 0,0) "> <g> <path id="menu_icon_Oliver_Kittler_white-c" d="M12,24h76"/> </g> </g> <g transform="matrix( 1, 0, 0, 1, 0,0) "> <g> <path id="menu_icon_Oliver_Kittler_white-b" d="M12,49.3h76"/> </g> </g> <g transform="matrix( 1, 0, 0, 1, 0,0) "> <g> <path id="menu_icon_Oliver_Kittler_white-a" d="M12,74.7h76"/> </g> </g> </g> <text transform="matrix(1 0 0 1 0 105.1339)">Created by Oliver Kittler</text> <text transform="matrix(1 0 0 1 0 110.1339)">from the Noun Project</text> </symbol><symbol viewBox="0 0 100 100" id="minus_icon"><title>minus_icon</title> <g transform="translate(0,-952.36218)"> <path d="M12.7,999.4c-1.7,0.1-2.9,1.5-2.8,3.2s1.5,2.9,3.2,2.8h74c1.7,0,3-1.3,3-3s-1.3-3-3-3H87H13
		C12.9,999.4,12.8,999.4,12.7,999.4z"/> </g> <text transform="matrix(1 0 0 1 0 115)">Created by Icons Bazaar</text> <text transform="matrix(1 0 0 1 0 120)">from the Noun Project</text> </symbol><symbol viewBox="0 0 100.6 99.6" id="more_icon"><title>more_icon</title> <polygon points="
	98.8,2.2 99.2,98.9 2.6,99 "/> </symbol><symbol viewBox="0 0 100 97" id="next_arrow--white"><title>next_arrow--white</title> <g> <path d="M27.1,97c-0.9,0-1.8-0.4-2.5-1.1c-1.4-1.4-1.4-3.7,0-5l42.3-42.3L24.2,6c-1.4-1.4-1.4-3.7,0-5
		c1.4-1.4,3.7-1.4,5,0l47.6,47.6L29.7,95.9C29,96.6,28,97,27.1,97z"/> </g> <text transform="matrix(1 0 0 1 0 115)">Created by Rohit Kumar</text> <text transform="matrix(1 0 0 1 0 120)">from the Noun Project</text> </symbol><symbol viewBox="0 0 100 97" id="next_arrow"><title>next_arrow</title> <g> <path d="M35,88.5c-0.8,0-1.5-0.3-2.1-0.9c-1.2-1.2-1.2-3.1,0-4.2
		l35.7-35.7l-36-36c-1.2-1.2-1.2-3.1,0-4.2c1.2-1.2,3.1-1.2,4.2,0L77,47.7L37.2,87.6C36.6,88.2,35.8,88.5,35,88.5z"/> </g> </symbol><symbol viewBox="0 0 100 100" id="pause"><title>pause</title> <path d="M35.3,90c1.6,0,2.9-2,2.9-4.5l0,0V13.7c-0.3-2.4-1.8-4-3.4-3.6c-1.2,0.3-2.1,1.7-2.3,3.6v71.9
	C32.5,88,33.7,89.9,35.3,90z"/> <path d="M64,90c1.6,0,2.9-1.9,2.9-4.4l0,0V15.2c0.3-2.4-0.7-4.6-2.3-5.1c-1.6-0.5-3.1,1.1-3.4,3.5
	c-0.1,0.6-0.1,1.1,0,1.6v70.5C61.2,88,62.4,89.9,64,90z"/> </symbol><symbol viewBox="0 0 100 100" id="phone_by_Icons_Bazaar_white"><title>phone_by_Icons_Bazaar_white</title> <g transform="translate(0,-952.36218)"> <path d="M34,958.4c-4.4,0-8,3.6-8,8v72c0,4.4,3.6,8,8,8h32c4.4,0,8-3.6,8-8v-72c0-4.4-3.6-8-8-8H34z
		 M34,962.4h32c2.3,0,4,1.7,4,4v2H30v-2C30,964.1,31.7,962.4,34,962.4z M30,972.4h40v56H30V972.4z M30,1032.4h40v6c0,2.3-1.7,4-4,4
		H34c-2.3,0-4-1.7-4-4V1032.4z M42.8,1035.4c-1,0-2,1-1.9,2.1c0,1,1,2,2.1,1.9h14c1.1,0,2-0.9,2-2s-1-2-2-2H43
		C42.9,1035.4,42.9,1035.4,42.8,1035.4z"/> </g> <text transform="matrix(1 0 0 1 0 115)">Created by Icons Bazaar</text> <text transform="matrix(1 0 0 1 0 120)">from the Noun Project</text> </symbol><symbol viewBox="0 0 100.6 99.6" id="play_icon"><title>play_icon</title> <polygon points="
	98.8,2.2 99.2,98.9 2.6,99 "/> </symbol><symbol viewBox="0 0 100 100" id="plus_icon"><title>plus_icon</title> <g transform="translate(0,-952.36218)"> <path d="M50,952.4c-2.1,0-3.7,1.7-3.7,3.7l0,0v42.4H3.9c-0.1,0-0.2,0-0.4,0c-2.1,0.1-3.6,1.9-3.5,4
		s1.9,3.6,4,3.5l0,0h42.4v42.4c0,2.1,1.6,3.7,3.7,3.7s3.7-1.6,3.7-3.7v-0.1v-42.4h42.4c2.1,0,3.7-1.6,3.7-3.7c0-2.1-1.6-3.7-3.7-3.7
		h-0.1H53.7V956C53.7,954.2,52.1,952.4,50,952.4L50,952.4z"/> </g> <text transform="matrix(1 0 0 1 0 115)">Created by Icons Bazaar</text> <text transform="matrix(1 0 0 1 0 120)">from the Noun Project</text> </symbol><symbol viewBox="0 0 100 97" id="prev_arrow--white"><title>prev_arrow--white</title> <g> <path d="M69.7,6.6c0.8,0,1.5,0.3,2.1,0.9c1.2,1.2,1.2,3.1,0,4.2
		L36.1,47.4l36,36c1.2,1.2,1.2,3.1,0,4.2c-1.2,1.2-3.1,1.2-4.2,0L27.7,47.4L67.5,7.5C68.1,6.9,68.9,6.6,69.7,6.6z"/> </g> <text transform="matrix(1 0 0 1 0 115)">Created by Rohit Kumar</text> <text transform="matrix(1 0 0 1 0 120)">from the Noun Project</text> </symbol><symbol viewBox="0 0 100 97" id="prev_arrow"><title>prev_arrow</title> <g> <path d="M68.7,6.6c0.8,0,1.5,0.3,2.1,0.9c1.2,1.2,1.2,3.1,0,4.2
		L35.1,47.4l36,36c1.2,1.2,1.2,3.1,0,4.2c-1.2,1.2-3.1,1.2-4.2,0L26.7,47.4L66.5,7.5C67.1,6.9,67.9,6.6,68.7,6.6z"/> </g> <text transform="matrix(1 0 0 1 0 115)">Created by Rohit Kumar</text> <text transform="matrix(1 0 0 1 0 120)">from the Noun Project</text> </symbol><symbol viewBox="0 0 100 101.3" id="search_Icons Bazaar_323232"><title>search_Icons Bazaar_323232</title> <g transform="translate(0,-952.36218)"> <path d="M18.2,970.6c-9.8,9.8-9.8,25.6,0,35.4c9.1,9.1,23.3,9.7,33.1,2l26.3,26.3c1.1,1.1,3.1,1.1,4.2,0
		s1.1-3.1,0-4.2l-26.3-26.3c7.7-9.8,7-24.1-2-33.1C43.8,960.8,27.9,960.8,18.2,970.6z M22.4,974.8c7.4-7.4,19.4-7.4,26.9,0
		s7.4,19.4,0,26.9s-19.4,7.4-26.9,0S15,982.2,22.4,974.8z"/> </g> <text transform="matrix(1 0 0 1 0 115)">Created by Icons Bazaar</text> <text transform="matrix(1 0 0 1 0 120)">from the Noun Project</text> </symbol><symbol viewBox="0 0 100 99" id="search_Icons Bazaar_white"><title>search_Icons Bazaar_white</title> <g transform="translate(0,-952.36218)"> <path d="M18.2,970.6c-9.8,9.8-9.8,25.6,0,35.4c9.1,9.1,23.3,9.7,33.1,2l26.3,26.3c1.1,1.1,3.1,1.1,4.2,0
		s1.1-3.1,0-4.2l-26.3-26.3c7.7-9.8,7-24.1-2-33.1C43.8,960.8,27.9,960.8,18.2,970.6z M22.4,974.8c7.4-7.4,19.4-7.4,26.9,0
		s7.4,19.4,0,26.9s-19.4,7.4-26.9,0S15,982.2,22.4,974.8z"/> </g> <text transform="matrix(1 0 0 1 0 115)">Created by Icons Bazaar</text> <text transform="matrix(1 0 0 1 0 120)">from the Noun Project</text> </symbol><symbol viewBox="0 0 82.4 103" id="speaker_icon"><title>speaker_icon</title> <path d="M56.9,14.6c-4.6,0-16.6,9.3-25.8,18.6c-8.2-0.5-18.4-0.4-20,1.3c-3.4,3.7-1.7,29.3,0,30.8
	c1.4,1.2,13.1,2.1,21.6,1.7c9.5,9.3,21.2,18.4,24.6,18.4c4.1,0,1.5-7.3,1.5-35.9C58.9,22.4,61.1,14.6,56.9,14.6z M68.1,36.6
	c-1-1-2.7-1-3.7,0s-1,2.7,0,3.7c5.8,5.8,5.8,15.3,0,21.1c-1,1-1,2.7,0,3.7c0.5,0.5,1.2,0.8,1.9,0.8s1.4-0.3,1.9-0.8
	C75.9,57.2,75.9,44.4,68.1,36.6z"/> <text transform="matrix(1 0 0 1 0 115)">Created by Luke Peek</text> <text transform="matrix(1 0 0 1 0 120)">from the Noun Project</text> </symbol><symbol viewBox="0 0 100 100" id="travel_alert_circle_thick"><title>travel_alert_circle_thick</title> <path d="M50,62.1c3.6,0,6.5,2.9,6.5,6.5c0,3.6-2.9,6.5-6.5,6.5c-3.6,0-6.5-2.9-6.5-6.5S46.4,62.1,50,62.1 M55.3,56.2H44.7V24.9h10.5
	C55.3,24.9,55.3,56.2,55.3,56.2z M50,8.5c11.1,0,21.3,4.3,29.4,12.1c7.7,7.7,12.1,18.3,12.1,29.4c0,11.1-4.3,21.3-12.1,29.4
	C71.7,87.1,61.1,91.5,50,91.5s-21.3-4.3-29.4-12.1C12.9,71.3,8.5,61.1,8.5,50c0-11.1,4.3-21.3,12.1-29.4C28.7,12.9,38.9,8.5,50,8.5
	 M50,0.5C22.8,0.5,0.5,22.8,0.5,50c0,27.2,22.3,49.5,49.5,49.5S99.5,77.2,99.5,50C99.5,22.8,77.2,0.5,50,0.5"/> </symbol><symbol viewBox="0 0 100 100" id="travel_alert_circle"><title>travel_alert_circle</title> <g transform="translate(0,-952.36218)"> <path d="M50,952.9c-12.7,0-25.4,4.8-35,14.5c-19.3,19.3-19.3,50.7,0,70c19.3,19.3,50.7,19.3,70,0
		c19.3-19.3,19.3-50.7,0-70C75.4,957.7,62.7,952.9,50,952.9z M50,959.6c10.9,0,21.9,4.2,30.3,12.5c16.7,16.7,16.7,43.8,0,60.5
		c-16.7,16.7-43.8,16.7-60.5,0c-16.7-16.7-16.7-43.7,0-60.5C28.1,963.8,39.1,959.6,50,959.6z M50,973.9c-0.1,0-0.2,0-0.4,0
		c-1.7,0.2-3,1.7-3,3.4v36.2c0,1.9,1.5,3.4,3.3,3.4s3.4-1.5,3.4-3.3c0,0,0-0.1,0-0.1v-36.2c0-1.9-1.4-3.4-3.3-3.4
		C50,973.9,50,973.9,50,973.9L50,973.9z M50,1021.9c-2.4,0-4.5,2-4.5,4.4c0,2.4,2,4.5,4.5,4.5c2.4,0,4.5-2,4.5-4.5
		C54.5,1023.9,52.4,1021.9,50,1021.9L50,1021.9z"/> </g> </symbol><symbol viewBox="0 0 83.9 47.6" id="up_arrow"><title>up_arrow</title> <style type="text/css"> .st0{fill:#006845;stroke:#006845;stroke-miterlimit:10;} </style> <g> <path class="st0" d="M83.1,42.9c0,0.8-0.3,1.5-0.9,2.1c-1.2,1.2-3.1,1.2-4.2,0L42.3,9.3l-36,36c-1.2,1.2-3.1,1.2-4.2,0
		c-1.2-1.2-1.2-3.1,0-4.2L42.3,0.9l39.9,39.8C82.8,41.3,83.1,42.1,83.1,42.9z"/> </g> </symbol><symbol viewBox="0 0 15.6 15.6" id="x-icon"><title>x-icon</title> <polygon points="12.7,0 7.8,4.9 2.8,0 0,2.8 4.9,7.8 0,12.7 2.8,15.6 7.8,10.6 12.7,15.6 15.6,12.7 10.6,7.8 15.6,2.8 "/> </symbol></svg>